<svg width="78" height="41" viewBox="0 0 78 41" fill="none" xmlns="http://www.w3.org/2000/svg">
<g clip-path="url(#clip0_2068_6282)">
<path d="M26.4169 25.3693C29.8754 28.8277 34.0816 30.6563 38.5741 30.6563C50.8072 30.6563 57.4787 17.3541 57.4787 10.5131C57.543 8.35746 57.1165 6.7626 56.3103 6.23682C53.325 3.9935 46.4958 1.65088 38.5566 1.79693C31.1373 1.65672 24.1502 4.00519 20.7969 6.24266C20.0258 6.7626 19.6285 8.35746 19.6578 10.5131C19.6753 14.4331 21.7842 20.7424 26.4169 25.3693Z" fill="white"/>
<path d="M27.0022 13.1479C26.9262 13.1479 26.8678 13.2297 26.7802 13.2531C26.6926 13.2764 26.5465 13.3465 26.5699 13.3933C26.6692 13.5393 26.8912 13.4867 27.0431 13.3933C27.195 13.2998 27.119 13.1654 27.0022 13.1479Z" fill="#95969B"/>
<path d="M26.9666 12.5403C27.0454 12.5167 27.1218 12.4854 27.1945 12.4468C27.2195 12.4269 27.2393 12.4011 27.2519 12.3717C27.2645 12.3423 27.2696 12.3102 27.2667 12.2783C27.2638 12.2464 27.253 12.2157 27.2353 12.1891C27.2176 12.1624 27.1935 12.1406 27.1653 12.1255C26.9666 12.0846 26.7855 12.2833 26.5811 12.3125C26.6395 12.4527 26.803 12.6104 26.9666 12.5403Z" fill="#95969B"/>
<path d="M38.5745 31.8071C51.4795 31.7721 58.817 18.2012 58.8287 10.2736C58.8287 10.1334 58.8287 9.98736 58.8287 9.84131C58.8287 7.70315 58.4022 6.05571 57.3857 5.34298C53.9097 2.74331 46.7591 0.505842 39.2756 0.5H37.891C30.4016 0.5 23.3737 2.67906 19.7809 5.35468C18.817 6.09661 18.3613 7.69147 18.3496 9.84716C18.3496 9.98737 18.3496 10.1334 18.3496 10.2795C18.3379 18.2012 25.6871 31.7721 38.5745 31.8071ZM20.1022 5.83956C23.549 3.27493 30.5068 1.10171 37.8735 1.10755H39.258C46.6365 1.10755 53.7286 3.34503 57.0469 5.83956C57.7537 6.28355 58.2445 7.77909 58.2153 9.84131C58.2153 9.98152 58.2153 10.1217 58.2153 10.2619C58.2153 14.0767 56.4159 19.3462 53.051 23.6225C49.686 27.8989 44.7845 31.2171 38.5628 31.2171C32.3411 31.2171 27.4631 27.9222 24.0806 23.6225C20.6981 19.3228 18.9104 14.0767 18.9163 10.2736C18.9163 10.1217 18.9163 9.98152 18.9163 9.84716C18.9104 7.79078 19.4187 6.33028 20.1022 5.83956Z" fill="#95969B"/>
<path d="M25.0149 12.2074C24.8104 12.0146 24.4307 12.2074 24.3314 12.3943C24.232 12.5813 24.5709 12.6047 24.7461 12.5696C24.9214 12.5345 25.1901 12.371 25.0149 12.2074Z" fill="#95969B"/>
<path d="M26.4169 25.3693C29.8754 28.8277 34.0816 30.6563 38.5741 30.6563C50.8072 30.6563 57.4787 17.3541 57.4787 10.5131C57.543 8.35746 57.1165 6.7626 56.3103 6.23682C53.325 3.9935 46.4958 1.65088 38.5566 1.79693C31.1373 1.65672 24.1502 4.00519 20.7969 6.24266C20.0258 6.7626 19.6285 8.35746 19.6578 10.5131C19.6753 14.4331 21.7842 20.7424 26.4169 25.3693ZM24.2671 12.8908C24.0042 12.7565 23.6245 12.4585 23.8231 12.2073C23.9516 12.0437 24.3021 12.1197 24.5007 11.9269C24.5708 11.8568 24.641 11.7166 24.7403 11.7809C24.8396 11.8451 25.0908 11.7809 25.2252 11.886C25.3595 11.9912 25.7276 12.1314 25.7276 12.3826C25.7276 12.6338 25.3712 12.7039 25.3245 12.9025C25.2777 13.1011 25.6458 13.1712 25.7685 13.364C25.8912 13.5568 25.5991 13.8548 25.3654 13.9482C25.1386 14.0436 24.8908 14.0775 24.6467 14.0468C24.4027 14.016 24.171 13.9216 23.975 13.773C23.6361 13.475 23.9341 13.031 24.2671 12.8908ZM25.9379 14.2871C26.0136 14.2764 26.0909 14.2878 26.1603 14.3199C26.2297 14.352 26.2884 14.4035 26.3293 14.4682C26.3935 14.6201 26.4636 14.8829 26.3293 14.9706C26.1949 15.0582 25.8094 14.9706 25.8269 14.7135C25.8152 14.5558 25.8094 14.3104 25.9379 14.2812V14.2871ZM26.0956 24.1074C25.9974 24.0604 25.9173 23.9824 25.8678 23.8854C25.8678 23.8445 25.8678 23.7978 25.9087 23.8095C27.025 24.0202 28.1751 23.9682 29.2678 23.6576C29.3788 23.6167 29.4781 23.6927 29.3029 23.8329C28.9541 24.0767 28.5546 24.2385 28.1345 24.3061C27.4513 24.4713 26.7323 24.3992 26.0956 24.1016V24.1074ZM30.8685 25.603C30.3603 25.4219 30.4128 25.3284 30.5063 25.305C30.9402 25.2868 31.3719 25.2341 31.7974 25.1473C32.2741 24.8919 32.7803 24.6957 33.3046 24.5631C33.6673 24.5041 34.0394 24.551 34.3762 24.6981C34.7129 24.8453 35.0001 25.0864 35.2032 25.3927C35.285 25.5387 34.8001 25.3927 34.619 25.3635C33.8778 25.3259 33.1375 25.4536 32.4517 25.7373C31.923 25.8667 31.3663 25.8174 30.8685 25.5971V25.603ZM39.7074 26.9466C38.1301 27.2563 36.8682 26.3624 35.3668 26.0879C35.0198 26.041 34.6681 26.041 34.3211 26.0879C33.7369 26.1229 33.217 26.4384 32.6036 26.3916C32.4166 26.3916 32.6036 26.2923 32.6036 26.2865C33.1889 26.0297 33.7946 25.8226 34.4146 25.6672C34.9493 25.5475 35.5039 25.5475 36.0386 25.6672C36.4801 25.762 36.9014 25.9341 37.283 26.1755C37.4641 26.2923 37.6861 26.4442 37.8672 26.3507C37.9723 26.2923 38.0658 26.2047 38.1885 26.2456C38.4748 26.3507 38.3462 26.4559 39.0122 26.6253C39.2396 26.6673 39.464 26.7239 39.6841 26.7947C39.9236 26.8765 39.7483 26.9408 39.7074 26.9466ZM34.2685 20.1758C34.1575 20.1758 34.1751 20.24 34.1751 20.3218V20.8301C34.1751 20.8477 34.1716 20.8652 34.1648 20.8815C34.1581 20.8978 34.1482 20.9126 34.1357 20.9251C34.1232 20.9376 34.1084 20.9475 34.0921 20.9542C34.0758 20.961 34.0583 20.9644 34.0407 20.9644C34.0238 20.9637 34.0073 20.9596 33.9919 20.9525C33.9766 20.9453 33.9629 20.9352 33.9515 20.9227C33.9401 20.9102 33.9313 20.8956 33.9255 20.8797C33.9198 20.8638 33.9172 20.847 33.918 20.8301V20.0414C33.9172 20.0248 33.9198 20.0082 33.9256 19.9927C33.9314 19.9771 33.9403 19.9629 33.9518 19.9509C33.9633 19.9388 33.9771 19.9293 33.9924 19.9228C34.0077 19.9162 34.0241 19.9129 34.0407 19.9129H36.8215C36.8556 19.9129 36.8883 19.9264 36.9124 19.9505C36.9365 19.9746 36.95 20.0073 36.95 20.0414C36.9508 20.0588 36.9481 20.0761 36.942 20.0924C36.9359 20.1087 36.9265 20.1235 36.9145 20.1361C36.9025 20.1487 36.888 20.1587 36.872 20.1655C36.8561 20.1723 36.8389 20.1758 36.8215 20.1758H34.2685ZM36.4651 20.5205C36.4652 20.5628 36.4487 20.6036 36.4193 20.6341C36.3899 20.6646 36.3497 20.6825 36.3074 20.684H35.9685C35.9262 20.6825 35.8861 20.6646 35.8566 20.6341C35.8272 20.6036 35.8108 20.5628 35.8108 20.5205C35.8108 20.4786 35.8274 20.4385 35.857 20.4089C35.8866 20.3793 35.9267 20.3627 35.9685 20.3627H36.3074C36.33 20.3593 36.353 20.3609 36.375 20.3673C36.3969 20.3737 36.4171 20.3848 36.4344 20.3998C36.4516 20.4148 36.4653 20.4333 36.4747 20.4542C36.484 20.475 36.4887 20.4976 36.4885 20.5205H36.4651ZM35.2208 20.5205C35.2193 20.5634 35.2016 20.6041 35.1713 20.6345C35.1409 20.6649 35.1001 20.6826 35.0572 20.684H34.7242C34.6808 20.684 34.6392 20.6668 34.6086 20.6361C34.5779 20.6054 34.5606 20.5638 34.5606 20.5205C34.5606 20.4992 34.5649 20.4782 34.5732 20.4587C34.5815 20.4392 34.5936 20.4215 34.6089 20.4068C34.6242 20.3921 34.6422 20.3806 34.662 20.373C34.6819 20.3654 34.703 20.3619 34.7242 20.3627H35.0572C35.0801 20.3594 35.1034 20.361 35.1256 20.3673C35.1478 20.3737 35.1685 20.3847 35.1861 20.3996C35.2038 20.4145 35.2181 20.433 35.2281 20.4538C35.2381 20.4746 35.2436 20.4974 35.2441 20.5205H35.2208ZM36.5002 17.5995C36.5198 17.5953 36.54 17.5956 36.5595 17.6003C36.5789 17.6049 36.5971 17.6139 36.6126 17.6265C36.6282 17.6391 36.6407 17.655 36.6493 17.6731C36.6579 17.6911 36.6624 17.7109 36.6624 17.7309C36.6624 17.7509 36.6579 17.7707 36.6493 17.7887C36.6407 17.8068 36.6282 17.8227 36.6126 17.8353C36.5971 17.8479 36.5789 17.8569 36.5595 17.8616C36.54 17.8662 36.5198 17.8665 36.5002 17.8624H34.8702C34.7592 17.8624 34.7768 17.9266 34.7768 18.0084V18.5926C34.7768 18.61 34.7733 18.6272 34.7665 18.6432C34.7597 18.6592 34.7497 18.6736 34.7371 18.6856C34.7245 18.6976 34.7097 18.707 34.6934 18.7131C34.6771 18.7192 34.6598 18.7219 34.6424 18.7211C34.6083 18.7211 34.5756 18.7076 34.5515 18.6835C34.5274 18.6594 34.5139 18.6267 34.5139 18.5926V17.7163C34.5131 17.6989 34.5158 17.6816 34.5219 17.6653C34.5281 17.649 34.5374 17.6342 34.5494 17.6216C34.5614 17.6091 34.5758 17.5991 34.5918 17.5922C34.6078 17.5854 34.6251 17.5819 34.6424 17.5819L36.5002 17.5995ZM35.285 17.2139V15.9111C35.285 15.8817 35.2967 15.8535 35.3176 15.8326C35.3384 15.8118 35.3666 15.8001 35.396 15.8001C35.4255 15.8001 35.4537 15.8118 35.4745 15.8326C35.4953 15.8535 35.507 15.8817 35.507 15.9111V17.2139C35.507 17.2285 35.5042 17.2429 35.4986 17.2564C35.493 17.2698 35.4848 17.2821 35.4745 17.2924C35.4642 17.3027 35.452 17.3109 35.4385 17.3164C35.425 17.322 35.4106 17.3249 35.396 17.3249C35.3815 17.3249 35.367 17.322 35.3536 17.3164C35.3401 17.3109 35.3279 17.3027 35.3176 17.2924C35.3072 17.2821 35.2991 17.2698 35.2935 17.2564C35.2879 17.2429 35.285 17.2285 35.285 17.2139ZM42.5232 12.9785C42.6927 13.031 42.7686 13.2063 42.8621 13.3524C43.0899 13.7423 43.2703 14.1581 43.3995 14.5909C43.6932 15.7593 43.7251 16.9781 43.493 18.1603C43.311 18.8664 43.0214 19.5403 42.6342 20.1583C42.2553 20.7686 41.7417 21.2842 41.1329 21.6655C41.1329 21.6655 41.0744 21.6655 41.0452 21.6655C41.4191 20.6723 40.9868 19.2411 39.7717 19.1593C39.7717 19.1593 39.7717 19.1242 39.7717 19.1125C40.6713 18.0493 40.7181 16.5654 40.6305 15.2335C40.21 14.6577 39.6596 14.1893 39.0239 13.8665V14.0592C38.9379 14.0231 38.8541 13.9821 38.7727 13.9366V13.7379C37.6919 12.8967 36.5995 12.3066 35.5304 11.518V11.0448C35.9569 11.1324 36.5761 11.2901 37.0026 11.407C38.9538 11.9503 40.6889 12.4118 42.5466 13.0018L42.5232 12.9785ZM38.7727 11.7283V10.4314L39.0239 10.5015V11.7925L38.7727 11.7283ZM39.538 11.5998C39.6053 11.446 39.7049 11.3085 39.8301 11.1967C39.9294 11.0915 40.0404 10.887 40.1456 10.9338C40.4898 11.0636 40.804 11.2624 41.0686 11.518C41.0686 11.518 41.0686 11.6114 41.0686 11.6173C40.5673 11.6629 40.063 11.6649 39.5614 11.6231L39.538 11.5998ZM41.8748 22.7813C41.8748 22.7813 41.8047 22.8865 41.793 22.8806C40.8117 22.4066 39.9295 21.7504 39.1933 20.9469V20.3627C39.9842 21.2882 40.8846 22.1141 41.8748 22.8222V22.7813ZM36.6988 12.6104C37.4232 13.1187 38.0541 13.5335 38.7785 14.0417C39.3006 14.3773 39.7949 14.7544 40.2566 15.1692C40.4511 15.9311 40.381 16.7365 40.0579 17.4534C39.8258 18.2123 39.3819 18.8892 38.7785 19.4046C38.7785 19.4046 38.726 19.4046 38.7318 19.4046C38.7782 19.2652 38.7853 19.1156 38.7524 18.9724C38.7194 18.8291 38.6476 18.6977 38.5449 18.5926C37.6335 17.5703 36.5235 16.6122 35.5421 15.7125V11.8334C35.84 12.0963 36.3599 12.3943 36.6988 12.6338V12.6104ZM39.0356 19.5215V20.538C39.0356 20.5736 39.0214 20.6078 38.9962 20.633C38.971 20.6582 38.9369 20.6723 38.9012 20.6723C38.8656 20.6723 38.8314 20.6582 38.8062 20.633C38.781 20.6078 38.7669 20.5736 38.7669 20.538V19.5215C38.7669 19.4858 38.781 19.4517 38.8062 19.4265C38.8314 19.4013 38.8656 19.3871 38.9012 19.3871C38.9369 19.3871 38.971 19.4013 38.9962 19.4265C39.0214 19.4517 39.0356 19.4858 39.0356 19.5215ZM38.5858 20.3277C37.9455 19.6425 37.3504 18.9166 36.804 18.1545V17.5995C37.0844 17.9792 37.9373 18.9957 38.5566 19.726L38.5858 20.3277ZM36.4301 18.3239C36.4286 18.3662 36.4107 18.4063 36.3802 18.4358C36.3496 18.4652 36.3089 18.4816 36.2665 18.4816H35.9335C35.8911 18.4816 35.8504 18.4652 35.8198 18.4358C35.7893 18.4063 35.7714 18.3662 35.7699 18.3239C35.7714 18.2809 35.7891 18.2402 35.8195 18.2098C35.8498 18.1795 35.8906 18.1617 35.9335 18.1603H36.2665C36.2908 18.1593 36.315 18.1636 36.3375 18.1728C36.36 18.182 36.3802 18.196 36.3968 18.2137C36.4135 18.2314 36.4261 18.2525 36.4339 18.2756C36.4416 18.2986 36.4443 18.3231 36.4417 18.3472L36.4301 18.3239ZM35.6122 18.3239C35.6122 18.3657 35.5956 18.4058 35.566 18.4354C35.5364 18.465 35.4963 18.4816 35.4544 18.4816H35.1156C35.0738 18.4816 35.0337 18.465 35.0041 18.4354C34.9745 18.4058 34.9579 18.3657 34.9579 18.3239C34.9579 18.2815 34.9743 18.2407 35.0037 18.2102C35.0331 18.1797 35.0733 18.1618 35.1156 18.1603H35.4544C35.478 18.16 35.5014 18.1649 35.523 18.1746C35.5445 18.1842 35.5637 18.1984 35.5792 18.2161C35.5948 18.2339 35.6063 18.2548 35.613 18.2774C35.6197 18.3001 35.6214 18.3239 35.618 18.3472L35.6122 18.3239ZM36.6287 18.8029C36.6628 18.8029 36.6955 18.8165 36.7196 18.8406C36.7437 18.8647 36.7572 18.8973 36.7572 18.9314C36.7572 18.9655 36.7437 18.9982 36.7196 19.0223C36.6955 19.0464 36.6628 19.06 36.6287 19.06H34.5781C34.4613 19.06 34.4847 19.1301 34.4847 19.2119V19.7201C34.4847 19.7557 34.4705 19.7899 34.4453 19.8151C34.4201 19.8403 34.386 19.8545 34.3503 19.8545C34.333 19.8545 34.3157 19.851 34.2997 19.8442C34.2838 19.8373 34.2693 19.8274 34.2573 19.8148C34.2453 19.8022 34.236 19.7873 34.2298 19.7711C34.2237 19.7548 34.221 19.7375 34.2218 19.7201V18.9314C34.2218 18.9141 34.2253 18.8969 34.2321 18.8809C34.2389 18.8649 34.2489 18.8504 34.2615 18.8384C34.274 18.8264 34.2889 18.8171 34.3052 18.811C34.3215 18.8049 34.3388 18.8021 34.3562 18.8029H36.6287ZM36.4301 19.4572C36.4286 19.5001 36.4109 19.5409 36.3805 19.5713C36.3502 19.6016 36.3094 19.6193 36.2665 19.6208H35.9335C35.8906 19.6193 35.8498 19.6016 35.8195 19.5713C35.7891 19.5409 35.7714 19.5001 35.7699 19.4572C35.7714 19.4143 35.7891 19.3735 35.8195 19.3432C35.8498 19.3128 35.8906 19.2951 35.9335 19.2936H36.2665C36.2908 19.2927 36.315 19.2969 36.3375 19.3062C36.36 19.3154 36.3802 19.3293 36.3968 19.347C36.4135 19.3648 36.4261 19.3859 36.4339 19.4089C36.4416 19.432 36.4443 19.4564 36.4417 19.4806L36.4301 19.4572ZM35.4136 19.4572C35.4121 19.5001 35.3944 19.5409 35.364 19.5713C35.3337 19.6016 35.2929 19.6193 35.25 19.6208H34.917C34.8741 19.6193 34.8333 19.6016 34.803 19.5713C34.7726 19.5409 34.7549 19.5001 34.7534 19.4572C34.7549 19.4143 34.7726 19.3735 34.803 19.3432C34.8333 19.3128 34.8741 19.2951 34.917 19.2936H35.25C35.2743 19.2927 35.2985 19.2969 35.321 19.3062C35.3435 19.3154 35.3637 19.3293 35.3803 19.347C35.397 19.3648 35.4096 19.3859 35.4173 19.4089C35.4251 19.432 35.4278 19.4564 35.4252 19.4806L35.4136 19.4572ZM36.9325 19.4572V18.8497C37.394 19.4806 39.7425 22.4658 41.793 23.1377C42.0662 23.2901 42.3739 23.3702 42.6868 23.3702C42.9997 23.3702 43.3074 23.2901 43.5806 23.1377L43.458 23.681C42.8829 23.8552 42.2661 23.8326 41.7054 23.6167C40.8758 23.4064 38.8428 22.1036 36.9442 19.4864L36.9325 19.4572ZM37.1194 19.9947C37.5809 20.6256 39.5847 23.161 41.6411 23.827C42.2167 24.0468 42.8531 24.0468 43.4287 23.827L43.3119 24.3177C42.7348 24.4822 42.12 24.4555 41.5593 24.2418C40.7531 24.0256 39.0298 23.2428 37.1311 20.6198L37.1194 19.9947ZM41.793 24.4872C42.3349 24.6135 42.8986 24.6135 43.4404 24.4872C43.4404 24.4872 43.826 22.5418 43.8669 22.3256C43.9078 22.1095 43.9487 22.3256 43.9487 22.3256C43.9487 22.3256 43.5397 24.4696 43.5982 24.4463L43.4638 24.9954C42.9306 25.1706 42.3554 25.1706 41.8222 24.9954C40.537 24.7676 39.4153 23.6225 37.3882 22.9449V21.3325C37.8438 22.016 40.1456 24.3061 41.7872 24.5164L41.793 24.4872ZM37.4232 23.459C37.6016 23.8685 37.9297 24.1945 38.3404 24.3703C38.6325 24.4813 39.0356 24.0957 39.3277 24.2476C39.4328 24.3002 39.059 24.4813 38.8311 24.493C38.5266 24.5311 38.2173 24.4886 37.9344 24.3697C37.6514 24.2507 37.4046 24.0596 37.2187 23.8153C36.7923 23.0851 36.4417 22.5535 35.9685 22.682C35.729 22.7521 35.7407 22.8456 35.6122 22.7988C35.4837 22.7521 35.4895 22.5885 35.7232 22.4425C36.2022 22.1504 37.0026 22.1621 37.4174 23.4882L37.4232 23.459ZM39.871 24.972C39.7795 24.8614 39.6627 24.7745 39.5305 24.7186C39.3983 24.6626 39.2546 24.6394 39.1115 24.6507C39.0122 24.6507 38.9304 24.4755 39.4329 24.4229C40.1806 24.3528 40.6713 25.0714 41.1387 25.1824C41.8397 25.3576 41.6937 25.638 41.5769 25.5796C41.3135 25.4658 41.0268 25.416 40.7405 25.4343C40.4541 25.4525 40.1762 25.5384 39.9294 25.6848C39.7553 25.7559 39.5602 25.7559 39.3861 25.6848C38.8603 25.5621 38.4222 25.2875 37.8847 25.1707C37.5985 25.1122 37.3472 25.3518 37.0668 25.2116C36.8507 24.8318 37.8088 24.9662 37.8088 24.9662C38.2878 25.1064 38.7961 25.083 39.2926 25.1999C39.4717 25.2379 39.6568 25.2379 39.8359 25.1999C39.8885 25.2116 39.9762 25.159 39.8652 25.0013L39.871 24.972ZM44.2232 27.1453C43.0198 27.6185 40.4844 27.303 40.2683 27.1453C39.9294 26.9116 41.9683 26.9934 41.9683 26.9934C42.6997 27.1424 43.4524 27.1543 44.1882 27.0284C44.2408 27.0576 44.2349 27.1686 44.2174 27.1745L44.2232 27.1453ZM44.5854 26.8181C43.257 26.9165 41.9221 26.8794 40.6013 26.7071C40.239 26.6487 39.4328 26.5319 39.8126 26.3683C40.3325 26.1346 40.6596 26.4267 41.1971 26.2281C41.474 26.0957 41.7638 25.992 42.0617 25.9184C42.6985 25.9175 43.3287 26.0468 43.9136 26.2982C44.381 26.4384 44.7841 26.2982 45.2631 26.4793C45.5494 26.6312 45.6779 26.7071 44.5796 26.8473L44.5854 26.8181ZM48.9845 25.2817C48.6047 25.2817 48.3477 25.0889 47.9913 25.1006C47.8606 25.1166 47.7392 25.1763 47.6467 25.27C47.5415 25.3751 47.7401 25.3927 47.7693 25.4803C47.7874 25.5466 47.7828 25.6171 47.7564 25.6806C47.7299 25.744 47.6831 25.7969 47.6233 25.8308C47.004 26.2222 46.3381 25.9535 44.9769 25.2875C44.5738 25.0889 43.8903 25.4744 43.7384 25.5153C43.4112 25.603 43.4638 25.3401 43.5748 25.2934C43.6867 25.2043 43.8194 25.1452 43.9605 25.1217C44.1016 25.0982 44.2463 25.111 44.381 25.159C44.6264 25.2291 44.7607 24.8961 45.1112 25.0363C45.8649 25.3284 46.6652 25.7432 47.448 25.4102C47.635 25.3342 47.448 25.3284 47.448 25.1707C47.5006 24.9019 47.6583 24.7442 48.0322 24.7384C48.2542 24.7384 48.5229 24.972 48.7449 25.0188C48.9669 25.0655 49.1422 24.8435 49.2532 24.9896C49.3642 25.1356 49.1889 25.2992 48.9786 25.3109L48.9845 25.2817ZM48.4003 14.5266C48.4003 14.7369 48.2133 14.8537 48.1666 15.0582C48.1521 15.1386 48.1157 15.2133 48.0614 15.2744C47.7985 15.5022 47.6642 15.7943 47.4071 16.0163C47.3866 16.036 47.3607 16.0493 47.3326 16.0545C47.3046 16.0597 47.2757 16.0566 47.2494 16.0455C47.1381 15.9616 47.0605 15.8408 47.0305 15.7048C47.0005 15.5687 47.0202 15.4264 47.0858 15.3036C47.3708 14.8981 47.7087 14.5327 48.0906 14.217C48.1491 14.1644 48.19 14.0709 48.2484 14.0067C48.3068 13.9424 48.3652 14.0067 48.3944 14.0067C48.4236 14.0067 48.3944 14.217 48.3652 14.328C48.336 14.439 48.3886 14.4915 48.3886 14.5558L48.4003 14.5266ZM50.6962 13.3231C50.6144 13.5393 50.3573 13.6152 50.2113 13.7788C50.1929 13.8119 50.1832 13.8491 50.1832 13.8869C50.1832 13.9247 50.1929 13.9619 50.2113 13.995C50.5418 14.0171 50.8737 13.9955 51.1986 13.9307C51.1986 13.8606 51.1986 13.773 51.1577 13.7321C50.8773 13.3524 51.0759 12.8499 51.0175 12.4352C50.9786 12.1223 50.8219 11.8361 50.5793 11.6348C50.2522 11.4128 49.7439 11.6348 49.3408 11.5238C49.0487 11.4303 49.3408 11.074 49.5395 10.9863C49.963 10.8576 50.4094 10.8218 50.8481 10.8812C51.0175 10.8812 51.0525 10.5657 51.2512 10.5307C51.4498 10.4956 51.5958 10.3846 51.7711 10.4255C51.9464 10.4664 51.7711 10.8753 51.9288 10.9338C52.5592 11.0681 53.2007 11.1443 53.845 11.1616C53.9326 11.1616 54.0553 11.2434 54.0144 11.3894C54.0144 11.4362 53.9735 11.4712 53.9385 11.4771C53.2958 11.6582 52.478 11.3018 52.0165 11.9795C51.8854 12.117 51.7716 12.2701 51.6776 12.4352C51.5958 12.6279 51.6134 12.8324 51.5082 13.0194C51.4031 13.2063 51.5082 13.3816 51.4673 13.5627C51.4264 13.7438 51.2512 13.9073 51.3563 13.9249C51.7831 13.993 52.2158 14.0165 52.6474 13.995C52.7701 13.995 52.7701 13.7905 52.6883 13.7379C52.3494 13.5276 51.9931 13.1946 52.0749 12.8908C52.1567 12.5871 52.735 11.962 53.0739 12.1956C53.1498 12.2482 53.0738 12.3475 53.1264 12.4352C53.2565 12.6207 53.4287 12.7728 53.6288 12.8792C54.1838 13.1946 54.657 13.6503 55.323 13.6678C55.3639 13.6678 55.4515 13.7262 55.4515 13.7496C55.4505 13.8091 55.4356 13.8676 55.4081 13.9204C55.3807 13.9732 55.3414 14.019 55.2933 14.0541C55.2452 14.0892 55.1896 14.1126 55.1309 14.1227C55.0722 14.1327 55.012 14.129 54.955 14.1118C54.7102 14.0578 54.4715 13.9795 54.2422 13.8781C53.9618 13.7496 53.8041 13.44 53.5003 13.3348C53.0154 14.2345 53.3718 15.2276 53.2783 16.1915C53.2724 16.2188 53.2607 16.2445 53.2442 16.267C53.2277 16.2894 53.2066 16.3081 53.1824 16.3219C53.1581 16.3357 53.1312 16.3442 53.1035 16.3469C53.0757 16.3496 53.0477 16.3464 53.0213 16.3376C52.6883 16.2149 52.7 15.841 52.6766 15.5256C51.8644 15.3137 51.0176 15.27 50.1879 15.397C50.0536 15.397 50.0185 15.5723 49.9951 15.6658C49.9484 15.9287 49.9133 16.2967 49.6096 16.25C49.5162 16.2251 49.4353 16.1667 49.3824 16.0858C49.3296 16.0049 49.3085 15.9073 49.3233 15.8118C49.6622 15.0056 49.9075 14.0592 49.37 13.3173C49.2065 13.0895 48.8384 13.4108 48.523 13.3757C48.4992 13.3744 48.476 13.3676 48.4554 13.3558C48.4347 13.3439 48.4172 13.3274 48.4041 13.3075C48.391 13.2876 48.3828 13.2649 48.3801 13.2412C48.3774 13.2175 48.3803 13.1936 48.3886 13.1713C48.4114 13.1029 48.4531 13.0424 48.509 12.9969C48.5649 12.9514 48.6325 12.9227 48.7041 12.9142C49.3701 12.9142 49.7848 12.441 50.3398 12.1781C50.3771 12.1535 50.4207 12.1404 50.4654 12.1404C50.5101 12.1404 50.5538 12.1535 50.591 12.1781C50.6962 12.2833 50.591 12.4469 50.591 12.5345C50.7051 12.7911 50.7377 13.0766 50.6845 13.3524L50.6962 13.3231ZM48.0498 11.3252C48.3068 11.3895 48.6865 11.6173 48.5522 11.9444C48.4704 12.1255 48.2484 12.0554 48.079 12.0321C47.659 11.9534 47.2677 11.7638 46.9456 11.4829C47.1065 11.3812 47.2882 11.3169 47.4773 11.2946C47.6663 11.2724 47.858 11.2928 48.0381 11.3544L48.0498 11.3252ZM46.2972 13.2414C46.5018 13.0688 46.7469 12.951 47.0095 12.8989C47.272 12.8468 47.5435 12.8621 47.7985 12.9434C47.8686 12.9434 47.9329 13.0135 47.9271 13.0719C47.9271 13.2238 47.7927 13.3056 47.6642 13.3699C47.5357 13.4341 47.3838 13.6503 47.2027 13.6561C46.9623 13.6814 46.724 13.7244 46.4899 13.7847C46.4361 13.8021 46.3779 13.8 46.3255 13.7786C46.2731 13.7572 46.2299 13.718 46.2037 13.6678C46.1716 13.6036 46.1599 13.5311 46.1704 13.46C46.1808 13.389 46.2128 13.3228 46.2621 13.2706L46.2972 13.2414ZM45.1288 20.9411C45.304 21.1163 45.6195 21.1923 45.6487 21.4376C45.7104 21.9569 45.6241 22.483 45.3998 22.9554C45.1756 23.4277 44.8224 23.8271 44.381 24.1074C44.2705 24.191 44.1532 24.2652 44.0305 24.3294C44.0305 24.3294 43.9721 24.3294 43.9779 24.3294C44.3642 23.9211 44.6134 23.4023 44.6906 22.8456C44.8367 22.127 44.603 21.7882 44.5387 21.8291C44.0586 22.1806 43.5366 22.471 42.9848 22.6937C42.9322 22.6937 42.7978 22.7229 42.8095 22.6937C42.9629 22.3761 43.0236 22.0218 42.9848 21.6713C42.938 21.4961 42.681 21.4376 42.7219 21.2741C42.7628 21.1105 42.8738 21.1339 42.9497 21.0521C43.4294 20.4882 43.7554 19.8101 43.8961 19.0833C44.1033 18.2901 44.0749 17.4537 43.8143 16.6764C43.7734 16.5888 43.7676 16.4311 43.8143 16.4135C44.0766 16.4476 44.3291 16.5351 44.5562 16.6706C44.7498 16.7442 44.9196 16.8695 45.047 17.0328C45.1396 17.1703 45.1959 17.3291 45.2105 17.4943C45.3503 18.6517 45.3149 19.8235 45.1054 20.9703L45.1288 20.9411ZM44.27 10.6183C44.9122 11.8819 45.2104 13.2923 45.1346 14.7077C45.1346 14.842 45.1346 15.0173 45.0411 15.14C44.9301 14.9297 44.9068 14.6902 44.8133 14.474C44.4651 13.6099 43.96 12.8176 43.3236 12.1372C43.3236 12.1372 43.3236 11.9328 43.3236 11.8159C43.4146 11.255 43.3967 10.6818 43.271 10.1276C43.4668 10.1078 43.6642 10.1467 43.8379 10.2393C44.0116 10.3318 44.1538 10.4739 44.2466 10.6475L44.27 10.6183ZM43.1016 11.2025C43.0858 11.694 42.9429 12.1731 42.6868 12.5929C42.6784 12.6062 42.6658 12.6164 42.651 12.6217C42.6362 12.627 42.62 12.6271 42.605 12.6221C42.5185 12.3475 42.3775 12.0931 42.1903 11.8743C41.9671 11.6187 41.7 11.405 41.4016 11.2434C40.8191 10.8724 40.1853 10.589 39.5205 10.4021C38.9847 10.2212 38.418 10.1496 37.854 10.1918C37.29 10.2339 36.7402 10.3889 36.2373 10.6475C36.2373 10.6475 36.1321 10.6475 36.1438 10.6475C36.2473 10.4505 36.3706 10.2645 36.5119 10.0925C36.7713 9.71373 36.9228 9.27145 36.95 8.81313C36.9549 8.03852 36.7292 7.27998 36.3015 6.63409C36.6813 6.7334 37.1954 7.00213 37.5225 6.63409C37.6999 6.88404 37.9577 7.06552 38.2528 7.14818C38.3952 7.17585 38.542 7.1702 38.6819 7.13169C38.8218 7.09318 38.9508 7.02285 39.059 6.92618C39.2634 7.0956 39.4445 7.30007 39.7542 7.25333C39.9528 7.25333 40.128 6.98459 40.2507 7.07806C40.4844 7.25332 40.6772 7.51037 40.9751 7.55711C41.1985 7.5933 41.4274 7.57322 41.6411 7.49869C41.7755 7.45779 41.9332 7.30006 41.9858 7.35848C42.4114 7.90466 42.7249 8.52954 42.9084 9.19722C43.0919 9.86491 43.1416 10.5623 43.0549 11.2492L43.1016 11.2025ZM39.1349 4.01687C39.4778 4.03327 39.8129 4.12502 40.1164 4.2856C40.2332 4.34986 40.2682 4.47839 40.3851 4.53097C40.5983 4.65059 40.7947 4.79792 40.9693 4.96912C41.0507 5.03269 41.1183 5.1122 41.1679 5.20279C41.1679 5.20279 41.1679 5.26121 41.1679 5.25537C40.693 5.13414 40.203 5.08298 39.7133 5.10349C39.5282 5.13477 39.3449 5.17571 39.1641 5.22617C39.1641 5.22617 39.1115 5.19111 39.1174 5.17942C39.2151 4.81241 39.205 4.42501 39.0882 4.06362L39.1349 4.01687ZM35.6297 6.18424L37.4875 6.41793L38.8837 5.60589L38.9596 3.88835H39.0356L39.0765 5.58252L40.4085 6.79766L42.0208 7.00796V7.11896L35.5947 6.29524L35.6297 6.18424ZM35.4136 7.89595H35.4778L35.5129 8.90077C35.5479 8.82483 35.5129 8.62619 35.5654 8.55608C35.618 8.48598 35.4837 7.97188 35.5362 7.97188C35.8186 8.21432 36.0859 8.4738 36.3366 8.74888C36.4067 8.83066 36.6345 9.08771 36.5703 9.05265C36.1555 8.85403 35.7174 9.00008 35.5187 8.92998L35.583 10.8578L35.3551 10.7643L35.4136 7.89595ZM35.3551 10.9571V11.4128C35.139 11.2025 34.7417 10.9221 34.5723 10.7351C34.8268 10.7974 35.0737 10.8875 35.3084 11.0039L35.3551 10.9571ZM32.4692 9.55507C33.2988 10.1393 33.9764 10.6826 34.7651 11.3077C34.9988 11.4829 35.1273 11.5413 35.3493 11.6991V15.4613C35.3493 15.4613 35.2441 15.4613 35.2383 15.4613C34.9579 14.8245 35.0981 14.1001 34.7359 13.475C33.9706 12.1314 33.141 10.9571 32.3991 9.6018C32.3348 9.59596 32.3991 9.58427 32.4225 9.6018L32.4692 9.55507ZM31.4936 21.2098C32.6036 20.4796 33.7895 21.3617 34.2685 22.3782C34.1611 22.0676 34.0363 21.7634 33.8946 21.4669C33.7603 21.1514 33.8596 21.0813 34.0056 20.9294H37.0376C37.0726 20.9278 37.1076 20.9333 37.1405 20.9454C37.1733 20.9576 37.2035 20.9762 37.229 21.0001C37.2546 21.0241 37.2752 21.0529 37.2894 21.0849C37.3037 21.1169 37.3115 21.1514 37.3122 21.1864C37.3122 21.3383 37.1136 21.3967 37.0026 21.3967H34.7651C34.5723 21.3967 34.695 21.6304 34.7651 21.6304H35.7349C35.8576 21.6304 35.9452 21.7064 35.9335 21.7473C35.9218 21.7882 35.8634 21.8466 35.7407 21.8349C35.618 21.8232 35.0572 21.8349 34.7768 21.8349C34.6658 21.8349 34.6541 22.0569 34.7768 22.0569H35.472C35.5947 22.0569 35.6472 22.1036 35.6414 22.1445C35.6309 22.1789 35.6089 22.2086 35.5792 22.2288C35.5494 22.249 35.5137 22.2584 35.4778 22.2555H34.7885C34.695 22.2555 34.7885 22.5768 34.7885 22.5768C34.8469 22.7483 34.8804 22.9274 34.8878 23.1084C34.8002 23.272 34.5957 23.0267 34.4672 22.8397C34.8294 23.4661 35.3723 23.9686 36.0248 24.2813C36.6773 24.594 37.4091 24.7024 38.1242 24.5923C38.3521 24.5456 38.3754 24.6799 38.1593 24.7734C36.7838 24.9419 35.3882 24.7402 34.1166 24.1892C33.3806 23.792 32.4926 23.9964 31.6864 24.1892C30.0448 24.5865 29.1568 25.3576 27.7197 25.0947C27.2348 25.0071 26.1248 24.5865 26.6506 24.5748C28.1345 25.0129 28.8881 24.6098 30.0915 23.827C31.5053 22.8981 32.4283 23.938 33.2111 22.9799C33.5617 22.5242 33.2111 22.1153 32.8489 21.8699C32.4867 21.6246 31.9726 21.7005 31.8616 22.0919C31.7799 22.3899 32.1771 22.6761 32.4984 22.5418C32.6036 22.5009 32.5743 22.5944 32.5335 22.6645C32.4139 22.816 32.2452 22.9211 32.0564 22.9616C31.8677 23.0021 31.6707 22.9755 31.4994 22.8864C31.327 22.8236 31.1797 22.7064 31.0796 22.5526C30.9795 22.3988 30.9321 22.2166 30.9445 22.0335C30.9688 21.876 31.0262 21.7253 31.1128 21.5914C31.1993 21.4575 31.3132 21.3434 31.4469 21.2565L31.4936 21.2098ZM30.4421 15.3036C30.2668 15.6307 30.0506 15.8878 29.8579 16.2149C29.7154 16.3832 29.5231 16.5019 29.3087 16.5537C29.2269 16.5537 29.2035 16.6998 29.1218 16.6998C28.7705 16.7423 28.4146 16.7225 28.0702 16.6414C26.9018 16.2792 25.9437 15.4379 24.6935 15.2568C24.6234 15.2568 24.5825 15.1634 24.5066 15.1517C24.4171 15.1579 24.3273 15.1579 24.2379 15.1517C24.0451 15.0874 24.1678 14.8362 24.2379 14.7135C24.3154 14.5885 24.4297 14.4906 24.565 14.4331C24.9097 14.3805 25.0674 14.8537 25.4063 15.0173C26.4579 15.5237 27.6164 15.7682 28.7829 15.73C29.0816 15.7467 29.3807 15.7037 29.6626 15.6034C29.9445 15.503 30.2035 15.3475 30.4245 15.1458C30.4128 15.1108 30.4479 15.2627 30.3953 15.3503L30.4421 15.3036ZM27.4217 14.1936C27.5412 14.1627 27.6665 14.1625 27.7861 14.1932C27.9056 14.2238 28.0154 14.2843 28.1053 14.3689C28.1329 14.393 28.153 14.4245 28.1634 14.4597C28.1737 14.4948 28.1738 14.5322 28.1637 14.5675C28.1386 14.6335 28.0905 14.6883 28.0282 14.7216C27.9659 14.7549 27.8937 14.7645 27.8248 14.7486C27.7021 14.7194 27.6729 14.5733 27.5795 14.5383C27.3399 14.5091 27.1998 14.3163 27.375 14.2403L27.4217 14.1936ZM22.8416 11.3252C22.9117 11.0214 23.2798 10.8987 23.5485 10.9104C23.9398 10.9509 24.3351 10.9233 24.7169 10.8286C24.8922 10.5833 24.898 9.98153 25.3011 10.1743C25.5348 10.2912 25.3011 10.8111 25.4588 10.8403C25.7843 10.901 26.1168 10.9148 26.4461 10.8812C26.6214 10.8812 26.785 10.4898 26.8025 10.297C26.8375 9.8238 27.3867 9.87638 27.7372 9.88222C27.8716 10.3028 27.2406 10.4197 27.153 10.7819C27.1557 10.8274 27.1731 10.8708 27.2026 10.9056C27.2321 10.9404 27.2721 10.9646 27.3166 10.9747C27.965 11.0448 28.6018 11.0565 29.2503 11.1266C29.2686 11.1319 29.2857 11.1408 29.3004 11.1529C29.3151 11.165 29.3273 11.18 29.336 11.197C29.3448 11.2139 29.35 11.2325 29.3513 11.2515C29.3526 11.2706 29.3501 11.2897 29.3438 11.3077C29.3014 11.3871 29.2383 11.4535 29.1611 11.4998C29.0839 11.5461 28.9956 11.5705 28.9056 11.5705C28.3214 11.6231 27.8073 11.4595 27.2465 11.4771C27.1997 11.4771 27.1589 11.5296 27.1881 11.553C27.451 11.7633 27.7723 11.9035 27.8365 12.2365C27.9008 12.5695 27.5094 12.5812 27.4977 12.8207C27.486 13.0603 27.9066 13.1128 27.7781 13.4049C27.6957 13.5431 27.5855 13.6628 27.4547 13.7565C27.3238 13.8501 27.175 13.9158 27.0176 13.9492C26.8602 13.9827 26.6975 13.9832 26.5399 13.9509C26.3823 13.9186 26.233 13.854 26.1015 13.7613C25.9963 13.7029 26.0255 13.5451 26.008 13.4458C25.9671 13.2005 26.3001 13.0135 26.2592 12.7915C26.2183 12.5695 26.0022 12.4994 26.0314 12.3242C26.0606 12.1489 26.3877 11.997 26.5513 11.7867C26.6272 11.6874 26.6506 11.4771 26.5104 11.4888C25.786 11.5706 25.12 11.3661 24.419 11.4537C24.02 11.463 23.6252 11.538 23.2506 11.6757C23.0928 11.8159 22.7306 11.629 22.7949 11.3719L22.8416 11.3252ZM22.7832 15.2685C22.976 14.8771 23.4258 14.7895 23.7004 14.4623C23.7004 14.4623 23.8056 14.4623 23.8172 14.4623C23.8815 14.6726 23.7179 14.8362 23.6128 15.0173C23.4564 15.2125 23.3249 15.4264 23.2214 15.6541C23.2079 15.7017 23.1821 15.745 23.1465 15.7794C23.1109 15.8138 23.0668 15.8382 23.0187 15.8501C22.9707 15.862 22.9203 15.8609 22.8728 15.847C22.8252 15.8331 22.7822 15.8068 22.7481 15.7709C22.5261 15.6658 22.6664 15.4671 22.7657 15.3153L22.7832 15.2685Z" fill="#95969B"/>
<path d="M24.9283 13.0953C24.8173 13.0544 24.6713 13.1596 24.6245 13.2823C24.5778 13.405 24.9166 13.551 25.0043 13.4459C25.0243 13.4185 25.0383 13.3872 25.0454 13.3541C25.0524 13.3209 25.0524 13.2866 25.0452 13.2535C25.038 13.2204 25.0239 13.1891 25.0037 13.1619C24.9836 13.1346 24.9579 13.1119 24.9283 13.0953Z" fill="#95969B"/>
<path d="M76.6816 15.6482C75.7645 15.508 74.5026 16.0689 73.7607 16.4778C72.8761 16.8642 72.1418 17.5288 71.6693 18.3706C66.4874 26.9992 60.476 29.8325 53.7753 32.3271C52.7994 32.7053 51.7902 32.9909 50.7608 33.18C50.5856 33.18 50.3168 33.2676 50.6615 33.18C57.631 31.0009 71.4531 24.8552 72.4229 10.554C72.6156 7.59214 71.8737 7.57461 71.3713 7.70314C70.4855 8.00052 69.659 8.45138 68.9294 9.03511C67.6091 10.0341 66.8496 11.4654 66.3414 13.2589C64.5362 19.6091 60.6046 25.416 53.01 29.7332C52.2505 30.1655 52.6361 29.8676 52.9224 29.669L53.5767 29.2308C60.8207 24.4871 64.729 18.0376 65.7104 9.631C66.0843 6.3887 65.5118 2.45121 64.7582 1.20687C64.6881 1.09003 64.5654 0.908917 64.4953 0.79792C64.3749 0.678679 64.224 0.594898 64.0591 0.55574C63.8942 0.516583 63.7218 0.523574 63.5606 0.57594C62.2884 1.31149 61.165 2.27838 60.2482 3.42681C59.8801 4.01101 58.9454 5.20862 59.2609 6.70417C60.5403 12.698 58.2152 18.6802 53.9213 24.4346C51.8977 27.0669 49.2763 29.1796 46.2742 30.5978C43.8638 31.6988 41.2448 32.2685 38.5949 32.2685C35.945 32.2685 33.3261 31.6988 30.9156 30.5978C27.9159 29.1758 25.2954 27.0637 23.2685 24.4346C18.9746 18.6802 16.6437 12.698 17.9231 6.70417C18.2444 5.20862 17.3097 3.99932 16.9475 3.42681C16.0293 2.27971 14.9061 1.31305 13.6351 0.57594C13.473 0.523739 13.2997 0.516812 13.1339 0.555937C12.9681 0.595061 12.8162 0.678736 12.6945 0.79792C12.6244 0.908917 12.5017 1.09003 12.4316 1.20687C11.678 2.45121 11.0997 6.3887 11.4794 9.631C12.4667 18.0376 16.375 24.4871 23.6132 29.2308C23.841 29.3769 24.1097 29.5638 24.2675 29.669C24.5537 29.8676 24.9451 30.1655 24.174 29.7332C16.5794 25.416 12.6478 19.6091 10.8543 13.2589C10.4864 11.6005 9.5731 10.1133 8.26045 9.03511C7.52796 8.4525 6.69968 8.00178 5.81266 7.70314C5.31025 7.57461 4.56834 7.59214 4.76696 10.554C5.72505 24.8377 19.5472 31.0009 26.5342 33.1566C26.8788 33.2501 26.5984 33.1917 26.429 33.1566C25.3998 32.9667 24.3906 32.6812 23.4145 32.3037C16.708 29.8092 10.6966 26.9758 5.52057 18.3472C5.04637 17.5068 4.31259 16.8427 3.42917 16.4544C2.67555 16.0455 1.41368 15.4846 0.508178 15.6249C-0.192859 15.7359 0.017435 16.8341 0.198536 17.3774C4.66765 30.148 18.1801 34.3484 29.1046 35.7388C29.3091 35.7388 29.385 35.8498 27.7026 35.7037C24.0666 35.2671 20.4597 34.6155 16.9008 33.7525C16.2172 33.5772 14.71 33.0106 13.4306 33.4195C12.4024 33.7525 11.3509 34.3192 11.5612 35.4058C11.7014 36.101 13.232 36.7553 13.9798 37.0182C15.6623 37.6024 23.2276 38.6656 33.7315 38.4845C35.0258 39.7748 36.7789 40.4994 38.6066 40.4994C40.4342 40.4994 42.1874 39.7748 43.4817 38.4845C53.9973 38.6656 61.551 37.6024 63.2335 37.0182C63.9812 36.7553 65.5176 36.101 65.652 35.4058C65.8623 34.3192 64.8108 33.7525 63.7884 33.4195C62.5032 33.0106 60.996 33.5772 60.3183 33.7525C56.7573 34.6148 53.1484 35.2664 49.5107 35.7037C47.8282 35.8498 47.9041 35.7621 48.1144 35.7388C59.0331 34.3484 72.5455 30.148 77.0205 17.3774C77.1782 16.8575 77.3827 15.7592 76.6816 15.6482Z" fill="#95969B"/>
<path d="M51.3921 11.9094C51.4272 11.9094 51.4447 11.8159 51.5031 11.7926C51.5377 11.7808 51.5679 11.759 51.5898 11.7298C51.6117 11.7006 51.6242 11.6655 51.6258 11.629C51.6258 11.5005 51.4622 11.5589 51.3863 11.5589C51.0007 11.5414 51.2461 11.8861 51.3921 11.9094Z" fill="#95969B"/>
<path d="M38.7904 6.64575L38.8313 5.7753L37.5986 6.48802L38.7904 6.64575Z" fill="#95969B"/>
<path d="M52.8231 13.475C52.9399 13.475 52.9867 13.1946 53.1093 13.0777C53.1308 13.0636 53.1471 13.0428 53.1555 13.0185C53.164 12.9942 53.1642 12.9678 53.1561 12.9434C53.0918 12.8207 52.9049 12.7973 52.8464 12.7681C52.788 12.7389 52.677 12.8616 52.6186 12.9726C52.5602 13.0836 52.5427 13.0251 52.5602 13.066C52.6478 13.2179 52.7413 13.475 52.8231 13.475Z" fill="#95969B"/>
<path d="M39.7083 4.63613H39.4687V4.96912H39.5622V4.7296H39.7083V4.96912H40.0471V4.87565H39.8017L39.8076 4.7296H40.0471V4.39661H39.9536V4.63613H39.8076H39.8017V4.39661H39.4629V4.49008H39.7083V4.63613Z" fill="#95969B"/>
<path d="M49.9082 13.1245C49.9082 13.2005 49.9783 13.3349 50.0426 13.3115C50.1068 13.2881 50.1652 13.1947 50.2237 13.107C50.2821 13.0194 50.358 12.885 50.2704 12.85C50.228 12.8383 50.1835 12.8366 50.1404 12.8449C50.0972 12.8532 50.0565 12.8713 50.0215 12.8979C49.9865 12.9244 49.9581 12.9587 49.9384 12.998C49.9188 13.0373 49.9084 13.0806 49.9082 13.1245Z" fill="#95969B"/>
<path d="M50.0482 15.0232C50.866 14.8012 51.7307 15.0232 52.5602 14.9531C52.7121 14.9531 52.6654 14.5442 52.4726 14.5442C52.0251 14.4675 51.5707 14.4401 51.1173 14.4624C50.8193 14.5266 50.2877 14.5325 50.1475 14.5967C50.0978 14.6546 50.0628 14.7235 50.0455 14.7978C50.0282 14.8721 50.0291 14.9494 50.0482 15.0232Z" fill="#95969B"/>
<path d="M34.2228 22.4307C34.2213 22.456 34.2213 22.4813 34.2228 22.5066C34.2228 22.5066 34.2345 22.4541 34.2228 22.4307Z" fill="#95969B"/>
<path d="M34.2987 22.6119C34.2987 22.6527 34.3454 22.6878 34.363 22.7228C34.3221 22.6527 34.287 22.5768 34.252 22.5067C34.2699 22.5406 34.2856 22.5758 34.2987 22.6119Z" fill="#95969B"/>
<path d="M39.0585 6.67495L40.186 6.821L39.0293 5.75192L39.0585 6.67495Z" fill="#95969B"/>
<path d="M34.4032 22.8222C34.4178 22.8512 34.4355 22.8786 34.4558 22.904L34.3623 22.7521C34.3623 22.7521 34.3857 22.7696 34.4032 22.8222Z" fill="#95969B"/>
<path d="M35.6824 8.74884H35.7759L35.7818 8.90073H35.9921V8.84231H35.8402V8.74884H35.9921V8.53268H35.9336V8.69042H35.8402L35.8343 8.53268H35.624V8.5911H35.7759V8.69042H35.624V8.90073H35.6824V8.74884Z" fill="#95969B"/>
</g>
<defs>
<clipPath id="clip0_2068_6282">
<rect width="77.1725" height="40" fill="white" transform="translate(0 0.5)"/>
</clipPath>
</defs>
</svg>
