<svg width="64" height="64" viewBox="0 0 64 64" fill="none" xmlns="http://www.w3.org/2000/svg">
  <path
    d="M56.1337 49.885L34.8299 10.3225C33.3199 7.5175 29.2974 7.5175 27.7862 10.3225L6.48365 49.885C6.15579 50.4939 5.99142 51.1775 6.00658 51.8689C6.02173 52.5603 6.2159 53.236 6.57013 53.83C6.92436 54.424 7.42654 54.916 8.02767 55.258C8.62879 55.6 9.30831 55.7803 9.9999 55.7812H52.6112C53.3033 55.7813 53.9836 55.6018 54.5856 55.2603C55.1875 54.9188 55.6906 54.4269 56.0456 53.8327C56.4005 53.2385 56.5953 52.5624 56.6107 51.8705C56.6261 51.1785 56.4618 50.4944 56.1337 49.885ZM31.3087 49.6562C30.8142 49.6562 30.3309 49.5096 29.9197 49.2349C29.5086 48.9602 29.1882 48.5698 28.999 48.113C28.8097 47.6561 28.7602 47.1535 28.8567 46.6685C28.9532 46.1836 29.1913 45.7381 29.5409 45.3885C29.8905 45.0388 30.336 44.8008 30.8209 44.7043C31.3059 44.6078 31.8085 44.6573 32.2654 44.8465C32.7222 45.0358 33.1126 45.3562 33.3873 45.7673C33.662 46.1784 33.8087 46.6618 33.8087 47.1562C33.8087 47.8193 33.5453 48.4552 33.0764 48.924C32.6076 49.3929 31.9717 49.6562 31.3087 49.6562ZM34.0237 24.5125L33.3062 39.7625C33.3062 40.2929 33.0954 40.8016 32.7204 41.1767C32.3453 41.5518 31.8366 41.7625 31.3062 41.7625C30.7757 41.7625 30.267 41.5518 29.8919 41.1767C29.5169 40.8016 29.3062 40.2929 29.3062 39.7625L28.5887 24.5187C28.5725 24.1545 28.6299 23.7907 28.7574 23.4491C28.8848 23.1075 29.0798 22.795 29.3306 22.5303C29.5814 22.2657 29.8829 22.0542 30.2171 21.9085C30.5514 21.7629 30.9116 21.686 31.2762 21.6825H31.3024C31.6695 21.6823 32.0328 21.7565 32.3704 21.9006C32.7081 22.0447 33.013 22.2557 33.2669 22.5208C33.5207 22.786 33.7182 23.0999 33.8474 23.4435C33.9766 23.7871 34.0349 24.1533 34.0187 24.52L34.0237 24.5125Z"
    fill="#FFD00E" />
</svg>
