<svg width="100%" height="100%" viewBox="0 0 314 59" fill="none" xmlns="http://www.w3.org/2000/svg">
<g clip-path="url(#clip0_2069_6393)">
<path d="M26.4169 34.3693C29.8754 37.8277 34.0816 39.6563 38.5741 39.6563C50.8072 39.6563 57.4787 26.3541 57.4787 19.5131C57.543 17.3575 57.1165 15.7626 56.3103 15.2368C53.325 12.9935 46.4958 10.6509 38.5566 10.7969C31.1373 10.6567 24.1502 13.0052 20.7969 15.2427C20.0258 15.7626 19.6285 17.3575 19.6578 19.5131C19.6753 23.4331 21.7842 29.7424 26.4169 34.3693Z" fill="white"/>
<path d="M27.0022 22.1479C26.9262 22.1479 26.8678 22.2297 26.7802 22.2531C26.6926 22.2764 26.5465 22.3465 26.5699 22.3933C26.6692 22.5393 26.8912 22.4867 27.0431 22.3933C27.195 22.2998 27.119 22.1654 27.0022 22.1479Z" fill="#95969B"/>
<path d="M26.9666 21.5403C27.0454 21.5167 27.1218 21.4854 27.1945 21.4468C27.2195 21.4269 27.2393 21.4011 27.2519 21.3717C27.2645 21.3423 27.2696 21.3102 27.2667 21.2783C27.2638 21.2464 27.253 21.2157 27.2353 21.1891C27.2176 21.1624 27.1935 21.1406 27.1653 21.1255C26.9666 21.0846 26.7855 21.2833 26.5811 21.3125C26.6395 21.4527 26.803 21.6104 26.9666 21.5403Z" fill="#95969B"/>
<path d="M38.5745 40.8071C51.4795 40.7721 58.817 27.2012 58.8287 19.2736C58.8287 19.1334 58.8287 18.9874 58.8287 18.8413C58.8287 16.7031 58.4022 15.0557 57.3857 14.343C53.9097 11.7433 46.7591 9.50584 39.2756 9.5H37.891C30.4016 9.5 23.3737 11.6791 19.7809 14.3547C18.817 15.0966 18.3613 16.6915 18.3496 18.8472C18.3496 18.9874 18.3496 19.1334 18.3496 19.2795C18.3379 27.2012 25.6871 40.7721 38.5745 40.8071ZM20.1022 14.8396C23.549 12.2749 30.5068 10.1017 37.8735 10.1076H39.258C46.6365 10.1076 53.7286 12.345 57.0469 14.8396C57.7537 15.2835 58.2445 16.7791 58.2153 18.8413C58.2153 18.9815 58.2153 19.1217 58.2153 19.2619C58.2153 23.0767 56.4159 28.3462 53.051 32.6225C49.686 36.8989 44.7845 40.2171 38.5628 40.2171C32.3411 40.2171 27.4631 36.9222 24.0806 32.6225C20.6981 28.3228 18.9104 23.0767 18.9163 19.2736C18.9163 19.1217 18.9163 18.9815 18.9163 18.8472C18.9104 16.7908 19.4187 15.3303 20.1022 14.8396Z" fill="#95969B"/>
<path d="M25.0149 21.2074C24.8104 21.0146 24.4307 21.2074 24.3314 21.3943C24.232 21.5813 24.5709 21.6047 24.7461 21.5696C24.9214 21.5345 25.1901 21.371 25.0149 21.2074Z" fill="#95969B"/>
<path d="M26.4169 34.3693C29.8754 37.8277 34.0816 39.6563 38.5741 39.6563C50.8072 39.6563 57.4787 26.3541 57.4787 19.5131C57.543 17.3575 57.1165 15.7626 56.3103 15.2368C53.325 12.9935 46.4958 10.6509 38.5566 10.7969C31.1373 10.6567 24.1502 13.0052 20.7969 15.2427C20.0258 15.7626 19.6285 17.3575 19.6578 19.5131C19.6753 23.4331 21.7842 29.7424 26.4169 34.3693ZM24.2671 21.8908C24.0042 21.7565 23.6245 21.4585 23.8231 21.2073C23.9516 21.0437 24.3021 21.1197 24.5007 20.9269C24.5708 20.8568 24.641 20.7166 24.7403 20.7809C24.8396 20.8451 25.0908 20.7809 25.2252 20.886C25.3595 20.9912 25.7276 21.1314 25.7276 21.3826C25.7276 21.6338 25.3712 21.7039 25.3245 21.9025C25.2777 22.1011 25.6458 22.1712 25.7685 22.364C25.8912 22.5568 25.5991 22.8548 25.3654 22.9482C25.1386 23.0436 24.8908 23.0775 24.6467 23.0468C24.4027 23.016 24.171 22.9216 23.975 22.773C23.6361 22.475 23.9341 22.031 24.2671 21.8908ZM25.9379 23.2871C26.0136 23.2764 26.0909 23.2878 26.1603 23.3199C26.2297 23.352 26.2884 23.4035 26.3293 23.4682C26.3935 23.6201 26.4636 23.8829 26.3293 23.9706C26.1949 24.0582 25.8094 23.9706 25.8269 23.7135C25.8152 23.5558 25.8094 23.3104 25.9379 23.2812V23.2871ZM26.0956 33.1074C25.9974 33.0604 25.9173 32.9824 25.8678 32.8854C25.8678 32.8445 25.8678 32.7978 25.9087 32.8095C27.025 33.0202 28.1751 32.9682 29.2678 32.6576C29.3788 32.6167 29.4781 32.6927 29.3029 32.8329C28.9541 33.0767 28.5546 33.2385 28.1345 33.3061C27.4513 33.4713 26.7323 33.3992 26.0956 33.1016V33.1074ZM30.8685 34.603C30.3603 34.4219 30.4128 34.3284 30.5063 34.305C30.9402 34.2868 31.3719 34.2341 31.7974 34.1473C32.2741 33.8919 32.7803 33.6957 33.3046 33.5631C33.6673 33.5041 34.0394 33.551 34.3762 33.6981C34.7129 33.8453 35.0001 34.0864 35.2032 34.3927C35.285 34.5387 34.8001 34.3927 34.619 34.3635C33.8778 34.3259 33.1375 34.4536 32.4517 34.7373C31.923 34.8667 31.3663 34.8174 30.8685 34.5971V34.603ZM39.7074 35.9466C38.1301 36.2563 36.8682 35.3624 35.3668 35.0879C35.0198 35.041 34.6681 35.041 34.3211 35.0879C33.7369 35.1229 33.217 35.4384 32.6036 35.3916C32.4166 35.3916 32.6036 35.2923 32.6036 35.2865C33.1889 35.0297 33.7946 34.8226 34.4146 34.6672C34.9493 34.5475 35.5039 34.5475 36.0386 34.6672C36.4801 34.762 36.9014 34.9341 37.283 35.1755C37.4641 35.2923 37.6861 35.4442 37.8672 35.3507C37.9723 35.2923 38.0658 35.2047 38.1885 35.2456C38.4748 35.3507 38.3462 35.4559 39.0122 35.6253C39.2396 35.6673 39.464 35.7239 39.6841 35.7947C39.9236 35.8765 39.7483 35.9408 39.7074 35.9466ZM34.2685 29.1758C34.1575 29.1758 34.1751 29.24 34.1751 29.3218V29.8301C34.1751 29.8477 34.1716 29.8652 34.1648 29.8815C34.1581 29.8978 34.1482 29.9126 34.1357 29.9251C34.1232 29.9376 34.1084 29.9475 34.0921 29.9542C34.0758 29.961 34.0583 29.9644 34.0407 29.9644C34.0238 29.9637 34.0073 29.9596 33.9919 29.9525C33.9766 29.9453 33.9629 29.9352 33.9515 29.9227C33.9401 29.9102 33.9313 29.8956 33.9255 29.8797C33.9198 29.8638 33.9172 29.847 33.918 29.8301V29.0414C33.9172 29.0248 33.9198 29.0082 33.9256 28.9927C33.9314 28.9771 33.9403 28.9629 33.9518 28.9509C33.9633 28.9388 33.9771 28.9293 33.9924 28.9228C34.0077 28.9162 34.0241 28.9129 34.0407 28.9129H36.8215C36.8556 28.9129 36.8883 28.9264 36.9124 28.9505C36.9365 28.9746 36.95 29.0073 36.95 29.0414C36.9508 29.0588 36.9481 29.0761 36.942 29.0924C36.9359 29.1087 36.9265 29.1235 36.9145 29.1361C36.9025 29.1487 36.888 29.1587 36.872 29.1655C36.8561 29.1723 36.8389 29.1758 36.8215 29.1758H34.2685ZM36.4651 29.5205C36.4652 29.5628 36.4487 29.6036 36.4193 29.6341C36.3899 29.6646 36.3497 29.6825 36.3074 29.684H35.9685C35.9262 29.6825 35.8861 29.6646 35.8566 29.6341C35.8272 29.6036 35.8108 29.5628 35.8108 29.5205C35.8108 29.4786 35.8274 29.4385 35.857 29.4089C35.8866 29.3793 35.9267 29.3627 35.9685 29.3627H36.3074C36.33 29.3593 36.353 29.3609 36.375 29.3673C36.3969 29.3737 36.4171 29.3848 36.4344 29.3998C36.4516 29.4148 36.4653 29.4333 36.4747 29.4542C36.484 29.475 36.4887 29.4976 36.4885 29.5205H36.4651ZM35.2208 29.5205C35.2193 29.5634 35.2016 29.6041 35.1713 29.6345C35.1409 29.6649 35.1001 29.6826 35.0572 29.684H34.7242C34.6808 29.684 34.6392 29.6668 34.6086 29.6361C34.5779 29.6054 34.5606 29.5638 34.5606 29.5205C34.5606 29.4992 34.5649 29.4782 34.5732 29.4587C34.5815 29.4392 34.5936 29.4215 34.6089 29.4068C34.6242 29.3921 34.6422 29.3806 34.662 29.373C34.6819 29.3654 34.703 29.3619 34.7242 29.3627H35.0572C35.0801 29.3594 35.1034 29.361 35.1256 29.3673C35.1478 29.3737 35.1685 29.3847 35.1861 29.3996C35.2038 29.4145 35.2181 29.433 35.2281 29.4538C35.2381 29.4746 35.2436 29.4974 35.2441 29.5205H35.2208ZM36.5002 26.5995C36.5198 26.5953 36.54 26.5956 36.5595 26.6003C36.5789 26.6049 36.5971 26.6139 36.6126 26.6265C36.6282 26.6391 36.6407 26.655 36.6493 26.6731C36.6579 26.6911 36.6624 26.7109 36.6624 26.7309C36.6624 26.7509 36.6579 26.7707 36.6493 26.7887C36.6407 26.8068 36.6282 26.8227 36.6126 26.8353C36.5971 26.8479 36.5789 26.8569 36.5595 26.8616C36.54 26.8662 36.5198 26.8665 36.5002 26.8624H34.8702C34.7592 26.8624 34.7768 26.9266 34.7768 27.0084V27.5926C34.7768 27.61 34.7733 27.6272 34.7665 27.6432C34.7597 27.6592 34.7497 27.6736 34.7371 27.6856C34.7245 27.6976 34.7097 27.707 34.6934 27.7131C34.6771 27.7192 34.6598 27.7219 34.6424 27.7211C34.6083 27.7211 34.5756 27.7076 34.5515 27.6835C34.5274 27.6594 34.5139 27.6267 34.5139 27.5926V26.7163C34.5131 26.6989 34.5158 26.6816 34.5219 26.6653C34.5281 26.649 34.5374 26.6342 34.5494 26.6216C34.5614 26.6091 34.5758 26.5991 34.5918 26.5922C34.6078 26.5854 34.6251 26.5819 34.6424 26.5819L36.5002 26.5995ZM35.285 26.2139V24.9111C35.285 24.8817 35.2967 24.8535 35.3176 24.8326C35.3384 24.8118 35.3666 24.8001 35.396 24.8001C35.4255 24.8001 35.4537 24.8118 35.4745 24.8326C35.4953 24.8535 35.507 24.8817 35.507 24.9111V26.2139C35.507 26.2285 35.5042 26.2429 35.4986 26.2564C35.493 26.2698 35.4848 26.2821 35.4745 26.2924C35.4642 26.3027 35.452 26.3109 35.4385 26.3164C35.425 26.322 35.4106 26.3249 35.396 26.3249C35.3815 26.3249 35.367 26.322 35.3536 26.3164C35.3401 26.3109 35.3279 26.3027 35.3176 26.2924C35.3072 26.2821 35.2991 26.2698 35.2935 26.2564C35.2879 26.2429 35.285 26.2285 35.285 26.2139ZM42.5232 21.9785C42.6927 22.031 42.7686 22.2063 42.8621 22.3524C43.0899 22.7423 43.2703 23.1581 43.3995 23.5909C43.6932 24.7593 43.7251 25.9781 43.493 27.1603C43.311 27.8664 43.0214 28.5403 42.6342 29.1583C42.2553 29.7686 41.7417 30.2842 41.1329 30.6655C41.1329 30.6655 41.0744 30.6655 41.0452 30.6655C41.4191 29.6723 40.9868 28.2411 39.7717 28.1593C39.7717 28.1593 39.7717 28.1242 39.7717 28.1125C40.6713 27.0493 40.7181 25.5654 40.6305 24.2335C40.21 23.6577 39.6596 23.1893 39.0239 22.8665V23.0592C38.9379 23.0231 38.8541 22.9821 38.7727 22.9366V22.7379C37.6919 21.8967 36.5995 21.3066 35.5304 20.518V20.0448C35.9569 20.1324 36.5761 20.2901 37.0026 20.407C38.9538 20.9503 40.6889 21.4118 42.5466 22.0018L42.5232 21.9785ZM38.7727 20.7283V19.4314L39.0239 19.5015V20.7925L38.7727 20.7283ZM39.538 20.5998C39.6053 20.446 39.7049 20.3085 39.8301 20.1967C39.9294 20.0915 40.0404 19.887 40.1456 19.9338C40.4898 20.0636 40.804 20.2624 41.0686 20.518C41.0686 20.518 41.0686 20.6114 41.0686 20.6173C40.5673 20.6629 40.063 20.6649 39.5614 20.6231L39.538 20.5998ZM41.8748 31.7813C41.8748 31.7813 41.8047 31.8865 41.793 31.8806C40.8117 31.4066 39.9295 30.7504 39.1933 29.9469V29.3627C39.9842 30.2882 40.8846 31.1141 41.8748 31.8222V31.7813ZM36.6988 21.6104C37.4232 22.1187 38.0541 22.5335 38.7785 23.0417C39.3006 23.3773 39.7949 23.7544 40.2566 24.1692C40.4511 24.9311 40.381 25.7365 40.0579 26.4534C39.8258 27.2123 39.3819 27.8892 38.7785 28.4046C38.7785 28.4046 38.726 28.4046 38.7318 28.4046C38.7782 28.2652 38.7853 28.1156 38.7524 27.9724C38.7194 27.8291 38.6476 27.6977 38.5449 27.5926C37.6335 26.5703 36.5235 25.6122 35.5421 24.7125V20.8334C35.84 21.0963 36.3599 21.3943 36.6988 21.6338V21.6104ZM39.0356 28.5215V29.538C39.0356 29.5736 39.0214 29.6078 38.9962 29.633C38.971 29.6582 38.9369 29.6723 38.9012 29.6723C38.8656 29.6723 38.8314 29.6582 38.8062 29.633C38.781 29.6078 38.7669 29.5736 38.7669 29.538V28.5215C38.7669 28.4858 38.781 28.4517 38.8062 28.4265C38.8314 28.4013 38.8656 28.3871 38.9012 28.3871C38.9369 28.3871 38.971 28.4013 38.9962 28.4265C39.0214 28.4517 39.0356 28.4858 39.0356 28.5215ZM38.5858 29.3277C37.9455 28.6425 37.3504 27.9166 36.804 27.1545V26.5995C37.0844 26.9792 37.9373 27.9957 38.5566 28.726L38.5858 29.3277ZM36.4301 27.3239C36.4286 27.3662 36.4107 27.4063 36.3802 27.4358C36.3496 27.4652 36.3089 27.4816 36.2665 27.4816H35.9335C35.8911 27.4816 35.8504 27.4652 35.8198 27.4358C35.7893 27.4063 35.7714 27.3662 35.7699 27.3239C35.7714 27.2809 35.7891 27.2402 35.8195 27.2098C35.8498 27.1795 35.8906 27.1617 35.9335 27.1603H36.2665C36.2908 27.1593 36.315 27.1636 36.3375 27.1728C36.36 27.182 36.3802 27.196 36.3968 27.2137C36.4135 27.2314 36.4261 27.2525 36.4339 27.2756C36.4416 27.2986 36.4443 27.3231 36.4417 27.3472L36.4301 27.3239ZM35.6122 27.3239C35.6122 27.3657 35.5956 27.4058 35.566 27.4354C35.5364 27.465 35.4963 27.4816 35.4544 27.4816H35.1156C35.0738 27.4816 35.0337 27.465 35.0041 27.4354C34.9745 27.4058 34.9579 27.3657 34.9579 27.3239C34.9579 27.2815 34.9743 27.2407 35.0037 27.2102C35.0331 27.1797 35.0733 27.1618 35.1156 27.1603H35.4544C35.478 27.16 35.5014 27.1649 35.523 27.1746C35.5445 27.1842 35.5637 27.1984 35.5792 27.2161C35.5948 27.2339 35.6063 27.2548 35.613 27.2774C35.6197 27.3001 35.6214 27.3239 35.618 27.3472L35.6122 27.3239ZM36.6287 27.8029C36.6628 27.8029 36.6955 27.8165 36.7196 27.8406C36.7437 27.8647 36.7572 27.8973 36.7572 27.9314C36.7572 27.9655 36.7437 27.9982 36.7196 28.0223C36.6955 28.0464 36.6628 28.06 36.6287 28.06H34.5781C34.4613 28.06 34.4847 28.1301 34.4847 28.2119V28.7201C34.4847 28.7557 34.4705 28.7899 34.4453 28.8151C34.4201 28.8403 34.386 28.8545 34.3503 28.8545C34.333 28.8545 34.3157 28.851 34.2997 28.8442C34.2838 28.8373 34.2693 28.8274 34.2573 28.8148C34.2453 28.8022 34.236 28.7873 34.2298 28.7711C34.2237 28.7548 34.221 28.7375 34.2218 28.7201V27.9314C34.2218 27.9141 34.2253 27.8969 34.2321 27.8809C34.2389 27.8649 34.2489 27.8504 34.2615 27.8384C34.274 27.8264 34.2889 27.8171 34.3052 27.811C34.3215 27.8049 34.3388 27.8021 34.3562 27.8029H36.6287ZM36.4301 28.4572C36.4286 28.5001 36.4109 28.5409 36.3805 28.5713C36.3502 28.6016 36.3094 28.6193 36.2665 28.6208H35.9335C35.8906 28.6193 35.8498 28.6016 35.8195 28.5713C35.7891 28.5409 35.7714 28.5001 35.7699 28.4572C35.7714 28.4143 35.7891 28.3735 35.8195 28.3432C35.8498 28.3128 35.8906 28.2951 35.9335 28.2936H36.2665C36.2908 28.2927 36.315 28.2969 36.3375 28.3062C36.36 28.3154 36.3802 28.3293 36.3968 28.347C36.4135 28.3648 36.4261 28.3859 36.4339 28.4089C36.4416 28.432 36.4443 28.4564 36.4417 28.4806L36.4301 28.4572ZM35.4136 28.4572C35.4121 28.5001 35.3944 28.5409 35.364 28.5713C35.3337 28.6016 35.2929 28.6193 35.25 28.6208H34.917C34.8741 28.6193 34.8333 28.6016 34.803 28.5713C34.7726 28.5409 34.7549 28.5001 34.7534 28.4572C34.7549 28.4143 34.7726 28.3735 34.803 28.3432C34.8333 28.3128 34.8741 28.2951 34.917 28.2936H35.25C35.2743 28.2927 35.2985 28.2969 35.321 28.3062C35.3435 28.3154 35.3637 28.3293 35.3803 28.347C35.397 28.3648 35.4096 28.3859 35.4173 28.4089C35.4251 28.432 35.4278 28.4564 35.4252 28.4806L35.4136 28.4572ZM36.9325 28.4572V27.8497C37.394 28.4806 39.7425 31.4658 41.793 32.1377C42.0662 32.2901 42.3739 32.3702 42.6868 32.3702C42.9997 32.3702 43.3074 32.2901 43.5806 32.1377L43.458 32.681C42.8829 32.8552 42.2661 32.8326 41.7054 32.6167C40.8758 32.4064 38.8428 31.1036 36.9442 28.4864L36.9325 28.4572ZM37.1194 28.9947C37.5809 29.6256 39.5847 32.161 41.6411 32.827C42.2167 33.0468 42.8531 33.0468 43.4287 32.827L43.3119 33.3177C42.7348 33.4822 42.12 33.4555 41.5593 33.2418C40.7531 33.0256 39.0298 32.2428 37.1311 29.6198L37.1194 28.9947ZM41.793 33.4872C42.3349 33.6135 42.8986 33.6135 43.4404 33.4872C43.4404 33.4872 43.826 31.5418 43.8669 31.3256C43.9078 31.1095 43.9487 31.3256 43.9487 31.3256C43.9487 31.3256 43.5397 33.4696 43.5982 33.4463L43.4638 33.9954C42.9306 34.1706 42.3554 34.1706 41.8222 33.9954C40.537 33.7676 39.4153 32.6225 37.3882 31.9449V30.3325C37.8438 31.016 40.1456 33.3061 41.7872 33.5164L41.793 33.4872ZM37.4232 32.459C37.6016 32.8685 37.9297 33.1945 38.3404 33.3703C38.6325 33.4813 39.0356 33.0957 39.3277 33.2476C39.4328 33.3002 39.059 33.4813 38.8311 33.493C38.5266 33.5311 38.2173 33.4886 37.9344 33.3697C37.6514 33.2507 37.4046 33.0596 37.2187 32.8153C36.7923 32.0851 36.4417 31.5535 35.9685 31.682C35.729 31.7521 35.7407 31.8456 35.6122 31.7988C35.4837 31.7521 35.4895 31.5885 35.7232 31.4425C36.2022 31.1504 37.0026 31.1621 37.4174 32.4882L37.4232 32.459ZM39.871 33.972C39.7795 33.8614 39.6627 33.7745 39.5305 33.7186C39.3983 33.6626 39.2546 33.6394 39.1115 33.6507C39.0122 33.6507 38.9304 33.4755 39.4329 33.4229C40.1806 33.3528 40.6713 34.0714 41.1387 34.1824C41.8397 34.3576 41.6937 34.638 41.5769 34.5796C41.3135 34.4658 41.0268 34.416 40.7405 34.4343C40.4541 34.4525 40.1762 34.5384 39.9294 34.6848C39.7553 34.7559 39.5602 34.7559 39.3861 34.6848C38.8603 34.5621 38.4222 34.2875 37.8847 34.1707C37.5985 34.1122 37.3472 34.3518 37.0668 34.2116C36.8507 33.8318 37.8088 33.9662 37.8088 33.9662C38.2878 34.1064 38.7961 34.083 39.2926 34.1999C39.4717 34.2379 39.6568 34.2379 39.8359 34.1999C39.8885 34.2116 39.9762 34.159 39.8652 34.0013L39.871 33.972ZM44.2232 36.1453C43.0198 36.6185 40.4844 36.303 40.2683 36.1453C39.9294 35.9116 41.9683 35.9934 41.9683 35.9934C42.6997 36.1424 43.4524 36.1543 44.1882 36.0284C44.2408 36.0576 44.2349 36.1686 44.2174 36.1745L44.2232 36.1453ZM44.5854 35.8181C43.257 35.9165 41.9221 35.8794 40.6013 35.7071C40.239 35.6487 39.4328 35.5319 39.8126 35.3683C40.3325 35.1346 40.6596 35.4267 41.1971 35.2281C41.474 35.0957 41.7638 34.992 42.0617 34.9184C42.6985 34.9175 43.3287 35.0468 43.9136 35.2982C44.381 35.4384 44.7841 35.2982 45.2631 35.4793C45.5494 35.6312 45.6779 35.7071 44.5796 35.8473L44.5854 35.8181ZM48.9845 34.2817C48.6047 34.2817 48.3477 34.0889 47.9913 34.1006C47.8606 34.1166 47.7392 34.1763 47.6467 34.27C47.5415 34.3751 47.7401 34.3927 47.7693 34.4803C47.7874 34.5466 47.7828 34.6171 47.7564 34.6806C47.7299 34.744 47.6831 34.7969 47.6233 34.8308C47.004 35.2222 46.3381 34.9535 44.9769 34.2875C44.5738 34.0889 43.8903 34.4744 43.7384 34.5153C43.4112 34.603 43.4638 34.3401 43.5748 34.2934C43.6867 34.2043 43.8194 34.1452 43.9605 34.1217C44.1016 34.0982 44.2463 34.111 44.381 34.159C44.6264 34.2291 44.7607 33.8961 45.1112 34.0363C45.8649 34.3284 46.6652 34.7432 47.448 34.4102C47.635 34.3342 47.448 34.3284 47.448 34.1707C47.5006 33.9019 47.6583 33.7442 48.0322 33.7384C48.2542 33.7384 48.5229 33.972 48.7449 34.0188C48.9669 34.0655 49.1422 33.8435 49.2532 33.9896C49.3642 34.1356 49.1889 34.2992 48.9786 34.3109L48.9845 34.2817ZM48.4003 23.5266C48.4003 23.7369 48.2133 23.8537 48.1666 24.0582C48.1521 24.1386 48.1157 24.2133 48.0614 24.2744C47.7985 24.5022 47.6642 24.7943 47.4071 25.0163C47.3866 25.036 47.3607 25.0493 47.3326 25.0545C47.3046 25.0597 47.2757 25.0566 47.2494 25.0455C47.1381 24.9616 47.0605 24.8408 47.0305 24.7048C47.0005 24.5687 47.0202 24.4264 47.0858 24.3036C47.3708 23.8981 47.7087 23.5327 48.0906 23.217C48.1491 23.1644 48.19 23.0709 48.2484 23.0067C48.3068 22.9424 48.3652 23.0067 48.3944 23.0067C48.4236 23.0067 48.3944 23.217 48.3652 23.328C48.336 23.439 48.3886 23.4915 48.3886 23.5558L48.4003 23.5266ZM50.6962 22.3231C50.6144 22.5393 50.3573 22.6152 50.2113 22.7788C50.1929 22.8119 50.1832 22.8491 50.1832 22.8869C50.1832 22.9247 50.1929 22.9619 50.2113 22.995C50.5418 23.0171 50.8737 22.9955 51.1986 22.9307C51.1986 22.8606 51.1986 22.773 51.1577 22.7321C50.8773 22.3524 51.0759 21.8499 51.0175 21.4352C50.9786 21.1223 50.8219 20.8361 50.5793 20.6348C50.2522 20.4128 49.7439 20.6348 49.3408 20.5238C49.0487 20.4303 49.3408 20.074 49.5395 19.9863C49.963 19.8576 50.4094 19.8218 50.8481 19.8812C51.0175 19.8812 51.0525 19.5657 51.2512 19.5307C51.4498 19.4956 51.5958 19.3846 51.7711 19.4255C51.9464 19.4664 51.7711 19.8753 51.9288 19.9338C52.5592 20.0681 53.2007 20.1443 53.845 20.1616C53.9326 20.1616 54.0553 20.2434 54.0144 20.3894C54.0144 20.4362 53.9735 20.4712 53.9385 20.4771C53.2958 20.6582 52.478 20.3018 52.0165 20.9795C51.8854 21.117 51.7716 21.2701 51.6776 21.4352C51.5958 21.6279 51.6134 21.8324 51.5082 22.0194C51.4031 22.2063 51.5082 22.3816 51.4673 22.5627C51.4264 22.7438 51.2512 22.9073 51.3563 22.9249C51.7831 22.993 52.2158 23.0165 52.6474 22.995C52.7701 22.995 52.7701 22.7905 52.6883 22.7379C52.3494 22.5276 51.9931 22.1946 52.0749 21.8908C52.1567 21.5871 52.735 20.962 53.0739 21.1956C53.1498 21.2482 53.0738 21.3475 53.1264 21.4352C53.2565 21.6207 53.4287 21.7728 53.6288 21.8792C54.1838 22.1946 54.657 22.6503 55.323 22.6678C55.3639 22.6678 55.4515 22.7262 55.4515 22.7496C55.4505 22.8091 55.4356 22.8676 55.4081 22.9204C55.3807 22.9732 55.3414 23.019 55.2933 23.0541C55.2452 23.0892 55.1896 23.1126 55.1309 23.1227C55.0722 23.1327 55.012 23.129 54.955 23.1118C54.7102 23.0578 54.4715 22.9795 54.2422 22.8781C53.9618 22.7496 53.8041 22.44 53.5003 22.3348C53.0154 23.2345 53.3718 24.2276 53.2783 25.1915C53.2724 25.2188 53.2607 25.2445 53.2442 25.267C53.2277 25.2894 53.2066 25.3081 53.1824 25.3219C53.1581 25.3357 53.1312 25.3442 53.1035 25.3469C53.0757 25.3496 53.0477 25.3464 53.0213 25.3376C52.6883 25.2149 52.7 24.841 52.6766 24.5256C51.8644 24.3137 51.0176 24.27 50.1879 24.397C50.0536 24.397 50.0185 24.5723 49.9951 24.6658C49.9484 24.9287 49.9133 25.2967 49.6096 25.25C49.5162 25.2251 49.4353 25.1667 49.3824 25.0858C49.3296 25.0049 49.3085 24.9073 49.3233 24.8118C49.6622 24.0056 49.9075 23.0592 49.37 22.3173C49.2065 22.0895 48.8384 22.4108 48.523 22.3757C48.4992 22.3744 48.476 22.3676 48.4554 22.3558C48.4347 22.3439 48.4172 22.3274 48.4041 22.3075C48.391 22.2876 48.3828 22.2649 48.3801 22.2412C48.3774 22.2175 48.3803 22.1936 48.3886 22.1713C48.4114 22.1029 48.4531 22.0424 48.509 21.9969C48.5649 21.9514 48.6325 21.9227 48.7041 21.9142C49.3701 21.9142 49.7848 21.441 50.3398 21.1781C50.3771 21.1535 50.4207 21.1404 50.4654 21.1404C50.5101 21.1404 50.5538 21.1535 50.591 21.1781C50.6962 21.2833 50.591 21.4469 50.591 21.5345C50.7051 21.7911 50.7377 22.0766 50.6845 22.3524L50.6962 22.3231ZM48.0498 20.3252C48.3068 20.3895 48.6865 20.6173 48.5522 20.9444C48.4704 21.1255 48.2484 21.0554 48.079 21.0321C47.659 20.9534 47.2677 20.7638 46.9456 20.4829C47.1065 20.3812 47.2882 20.3169 47.4773 20.2946C47.6663 20.2724 47.858 20.2928 48.0381 20.3544L48.0498 20.3252ZM46.2972 22.2414C46.5018 22.0688 46.7469 21.951 47.0095 21.8989C47.272 21.8468 47.5435 21.8621 47.7985 21.9434C47.8686 21.9434 47.9329 22.0135 47.9271 22.0719C47.9271 22.2238 47.7927 22.3056 47.6642 22.3699C47.5357 22.4341 47.3838 22.6503 47.2027 22.6561C46.9623 22.6814 46.724 22.7244 46.4899 22.7847C46.4361 22.8021 46.3779 22.8 46.3255 22.7786C46.2731 22.7572 46.2299 22.718 46.2037 22.6678C46.1716 22.6036 46.1599 22.5311 46.1704 22.46C46.1808 22.389 46.2128 22.3228 46.2621 22.2706L46.2972 22.2414ZM45.1288 29.9411C45.304 30.1163 45.6195 30.1923 45.6487 30.4376C45.7104 30.9569 45.6241 31.483 45.3998 31.9554C45.1756 32.4277 44.8224 32.8271 44.381 33.1074C44.2705 33.191 44.1532 33.2652 44.0305 33.3294C44.0305 33.3294 43.9721 33.3294 43.9779 33.3294C44.3642 32.9211 44.6134 32.4023 44.6906 31.8456C44.8367 31.127 44.603 30.7882 44.5387 30.8291C44.0586 31.1806 43.5366 31.471 42.9848 31.6937C42.9322 31.6937 42.7978 31.7229 42.8095 31.6937C42.9629 31.3761 43.0236 31.0218 42.9848 30.6713C42.938 30.4961 42.681 30.4376 42.7219 30.2741C42.7628 30.1105 42.8738 30.1339 42.9497 30.0521C43.4294 29.4882 43.7554 28.8101 43.8961 28.0833C44.1033 27.2901 44.0749 26.4537 43.8143 25.6764C43.7734 25.5888 43.7676 25.4311 43.8143 25.4135C44.0766 25.4476 44.3291 25.5351 44.5562 25.6706C44.7498 25.7442 44.9196 25.8695 45.047 26.0328C45.1396 26.1703 45.1959 26.3291 45.2105 26.4943C45.3503 27.6517 45.3149 28.8235 45.1054 29.9703L45.1288 29.9411ZM44.27 19.6183C44.9122 20.8819 45.2104 22.2923 45.1346 23.7077C45.1346 23.842 45.1346 24.0173 45.0411 24.14C44.9301 23.9297 44.9068 23.6902 44.8133 23.474C44.4651 22.6099 43.96 21.8176 43.3236 21.1372C43.3236 21.1372 43.3236 20.9328 43.3236 20.8159C43.4146 20.255 43.3967 19.6818 43.271 19.1276C43.4668 19.1078 43.6642 19.1467 43.8379 19.2393C44.0116 19.3318 44.1538 19.4739 44.2466 19.6475L44.27 19.6183ZM43.1016 20.2025C43.0858 20.694 42.9429 21.1731 42.6868 21.5929C42.6784 21.6062 42.6658 21.6164 42.651 21.6217C42.6362 21.627 42.62 21.6271 42.605 21.6221C42.5185 21.3475 42.3775 21.0931 42.1903 20.8743C41.9671 20.6187 41.7 20.405 41.4016 20.2434C40.8191 19.8724 40.1853 19.589 39.5205 19.4021C38.9847 19.2212 38.418 19.1496 37.854 19.1918C37.29 19.2339 36.7402 19.3889 36.2373 19.6475C36.2373 19.6475 36.1321 19.6475 36.1438 19.6475C36.2473 19.4505 36.3706 19.2645 36.5119 19.0925C36.7713 18.7137 36.9228 18.2715 36.95 17.8131C36.9549 17.0385 36.7292 16.28 36.3015 15.6341C36.6813 15.7334 37.1954 16.0021 37.5225 15.6341C37.6999 15.884 37.9577 16.0655 38.2528 16.1482C38.3952 16.1759 38.542 16.1702 38.6819 16.1317C38.8218 16.0932 38.9508 16.0229 39.059 15.9262C39.2634 16.0956 39.4445 16.3001 39.7542 16.2533C39.9528 16.2533 40.128 15.9846 40.2507 16.0781C40.4844 16.2533 40.6772 16.5104 40.9751 16.5571C41.1985 16.5933 41.4274 16.5732 41.6411 16.4987C41.7755 16.4578 41.9332 16.3001 41.9858 16.3585C42.4114 16.9047 42.7249 17.5295 42.9084 18.1972C43.0919 18.8649 43.1416 19.5623 43.0549 20.2492L43.1016 20.2025ZM39.1349 13.0169C39.4778 13.0333 39.8129 13.125 40.1164 13.2856C40.2332 13.3499 40.2682 13.4784 40.3851 13.531C40.5983 13.6506 40.7947 13.7979 40.9693 13.9691C41.0507 14.0327 41.1183 14.1122 41.1679 14.2028C41.1679 14.2028 41.1679 14.2612 41.1679 14.2554C40.693 14.1341 40.203 14.083 39.7133 14.1035C39.5282 14.1348 39.3449 14.1757 39.1641 14.2262C39.1641 14.2262 39.1115 14.1911 39.1174 14.1794C39.2151 13.8124 39.205 13.425 39.0882 13.0636L39.1349 13.0169ZM35.6297 15.1842L37.4875 15.4179L38.8837 14.6059L38.9596 12.8884H39.0356L39.0765 14.5825L40.4085 15.7977L42.0208 16.008V16.119L35.5947 15.2952L35.6297 15.1842ZM35.4136 16.896H35.4778L35.5129 17.9008C35.5479 17.8248 35.5129 17.6262 35.5654 17.5561C35.618 17.486 35.4837 16.9719 35.5362 16.9719C35.8186 17.2143 36.0859 17.4738 36.3366 17.7489C36.4067 17.8307 36.6345 18.0877 36.5703 18.0527C36.1555 17.854 35.7174 18.0001 35.5187 17.93L35.583 19.8578L35.3551 19.7643L35.4136 16.896ZM35.3551 19.9571V20.4128C35.139 20.2025 34.7417 19.9221 34.5723 19.7351C34.8268 19.7974 35.0737 19.8875 35.3084 20.0039L35.3551 19.9571ZM32.4692 18.5551C33.2988 19.1393 33.9764 19.6826 34.7651 20.3077C34.9988 20.4829 35.1273 20.5413 35.3493 20.6991V24.4613C35.3493 24.4613 35.2441 24.4613 35.2383 24.4613C34.9579 23.8245 35.0981 23.1001 34.7359 22.475C33.9706 21.1314 33.141 19.9571 32.3991 18.6018C32.3348 18.596 32.3991 18.5843 32.4225 18.6018L32.4692 18.5551ZM31.4936 30.2098C32.6036 29.4796 33.7895 30.3617 34.2685 31.3782C34.1611 31.0676 34.0363 30.7634 33.8946 30.4669C33.7603 30.1514 33.8596 30.0813 34.0056 29.9294H37.0376C37.0726 29.9278 37.1076 29.9333 37.1405 29.9454C37.1733 29.9576 37.2035 29.9762 37.229 30.0001C37.2546 30.0241 37.2752 30.0529 37.2894 30.0849C37.3037 30.1169 37.3115 30.1514 37.3122 30.1864C37.3122 30.3383 37.1136 30.3967 37.0026 30.3967H34.7651C34.5723 30.3967 34.695 30.6304 34.7651 30.6304H35.7349C35.8576 30.6304 35.9452 30.7064 35.9335 30.7473C35.9218 30.7882 35.8634 30.8466 35.7407 30.8349C35.618 30.8232 35.0572 30.8349 34.7768 30.8349C34.6658 30.8349 34.6541 31.0569 34.7768 31.0569H35.472C35.5947 31.0569 35.6472 31.1036 35.6414 31.1445C35.6309 31.1789 35.6089 31.2086 35.5792 31.2288C35.5494 31.249 35.5137 31.2584 35.4778 31.2555H34.7885C34.695 31.2555 34.7885 31.5768 34.7885 31.5768C34.8469 31.7483 34.8804 31.9274 34.8878 32.1084C34.8002 32.272 34.5957 32.0267 34.4672 31.8397C34.8294 32.4661 35.3723 32.9686 36.0248 33.2813C36.6773 33.594 37.4091 33.7024 38.1242 33.5923C38.3521 33.5456 38.3754 33.6799 38.1593 33.7734C36.7838 33.9419 35.3882 33.7402 34.1166 33.1892C33.3806 32.792 32.4926 32.9964 31.6864 33.1892C30.0448 33.5865 29.1568 34.3576 27.7197 34.0947C27.2348 34.0071 26.1248 33.5865 26.6506 33.5748C28.1345 34.0129 28.8881 33.6098 30.0915 32.827C31.5053 31.8981 32.4283 32.938 33.2111 31.9799C33.5617 31.5242 33.2111 31.1153 32.8489 30.8699C32.4867 30.6246 31.9726 30.7005 31.8616 31.0919C31.7799 31.3899 32.1771 31.6761 32.4984 31.5418C32.6036 31.5009 32.5743 31.5944 32.5335 31.6645C32.4139 31.816 32.2452 31.9211 32.0564 31.9616C31.8677 32.0021 31.6707 31.9755 31.4994 31.8864C31.327 31.8236 31.1797 31.7064 31.0796 31.5526C30.9795 31.3988 30.9321 31.2166 30.9445 31.0335C30.9688 30.876 31.0262 30.7253 31.1128 30.5914C31.1993 30.4575 31.3132 30.3434 31.4469 30.2565L31.4936 30.2098ZM30.4421 24.3036C30.2668 24.6307 30.0506 24.8878 29.8579 25.2149C29.7154 25.3832 29.5231 25.5019 29.3087 25.5537C29.2269 25.5537 29.2035 25.6998 29.1218 25.6998C28.7705 25.7423 28.4146 25.7225 28.0702 25.6414C26.9018 25.2792 25.9437 24.4379 24.6935 24.2568C24.6234 24.2568 24.5825 24.1634 24.5066 24.1517C24.4171 24.1579 24.3273 24.1579 24.2379 24.1517C24.0451 24.0874 24.1678 23.8362 24.2379 23.7135C24.3154 23.5885 24.4297 23.4906 24.565 23.4331C24.9097 23.3805 25.0674 23.8537 25.4063 24.0173C26.4579 24.5237 27.6164 24.7682 28.7829 24.73C29.0816 24.7467 29.3807 24.7037 29.6626 24.6034C29.9445 24.503 30.2035 24.3475 30.4245 24.1458C30.4128 24.1108 30.4479 24.2627 30.3953 24.3503L30.4421 24.3036ZM27.4217 23.1936C27.5412 23.1627 27.6665 23.1625 27.7861 23.1932C27.9056 23.2238 28.0154 23.2843 28.1053 23.3689C28.1329 23.393 28.153 23.4245 28.1634 23.4597C28.1737 23.4948 28.1738 23.5322 28.1637 23.5675C28.1386 23.6335 28.0905 23.6883 28.0282 23.7216C27.9659 23.7549 27.8937 23.7645 27.8248 23.7486C27.7021 23.7194 27.6729 23.5733 27.5795 23.5383C27.3399 23.5091 27.1998 23.3163 27.375 23.2403L27.4217 23.1936ZM22.8416 20.3252C22.9117 20.0214 23.2798 19.8987 23.5485 19.9104C23.9398 19.9509 24.3351 19.9233 24.7169 19.8286C24.8922 19.5833 24.898 18.9815 25.3011 19.1743C25.5348 19.2912 25.3011 19.8111 25.4588 19.8403C25.7843 19.901 26.1168 19.9148 26.4461 19.8812C26.6214 19.8812 26.785 19.4898 26.8025 19.297C26.8375 18.8238 27.3867 18.8764 27.7372 18.8822C27.8716 19.3028 27.2406 19.4197 27.153 19.7819C27.1557 19.8274 27.1731 19.8708 27.2026 19.9056C27.2321 19.9404 27.2721 19.9646 27.3166 19.9747C27.965 20.0448 28.6018 20.0565 29.2503 20.1266C29.2686 20.1319 29.2857 20.1408 29.3004 20.1529C29.3151 20.165 29.3273 20.18 29.336 20.197C29.3448 20.2139 29.35 20.2325 29.3513 20.2515C29.3526 20.2706 29.3501 20.2897 29.3438 20.3077C29.3014 20.3871 29.2383 20.4535 29.1611 20.4998C29.0839 20.5461 28.9956 20.5705 28.9056 20.5705C28.3214 20.6231 27.8073 20.4595 27.2465 20.4771C27.1997 20.4771 27.1589 20.5296 27.1881 20.553C27.451 20.7633 27.7723 20.9035 27.8365 21.2365C27.9008 21.5695 27.5094 21.5812 27.4977 21.8207C27.486 22.0603 27.9066 22.1128 27.7781 22.4049C27.6957 22.5431 27.5855 22.6628 27.4547 22.7565C27.3238 22.8501 27.175 22.9158 27.0176 22.9492C26.8602 22.9827 26.6975 22.9832 26.5399 22.9509C26.3823 22.9186 26.233 22.854 26.1015 22.7613C25.9963 22.7029 26.0255 22.5451 26.008 22.4458C25.9671 22.2005 26.3001 22.0135 26.2592 21.7915C26.2183 21.5695 26.0022 21.4994 26.0314 21.3242C26.0606 21.1489 26.3877 20.997 26.5513 20.7867C26.6272 20.6874 26.6506 20.4771 26.5104 20.4888C25.786 20.5706 25.12 20.3661 24.419 20.4537C24.02 20.463 23.6252 20.538 23.2506 20.6757C23.0928 20.8159 22.7306 20.629 22.7949 20.3719L22.8416 20.3252ZM22.7832 24.2685C22.976 23.8771 23.4258 23.7895 23.7004 23.4623C23.7004 23.4623 23.8056 23.4623 23.8172 23.4623C23.8815 23.6726 23.7179 23.8362 23.6128 24.0173C23.4564 24.2125 23.3249 24.4264 23.2214 24.6541C23.2079 24.7017 23.1821 24.745 23.1465 24.7794C23.1109 24.8138 23.0668 24.8382 23.0187 24.8501C22.9707 24.862 22.9203 24.8609 22.8728 24.847C22.8252 24.8331 22.7822 24.8068 22.7481 24.7709C22.5261 24.6658 22.6664 24.4671 22.7657 24.3153L22.7832 24.2685Z" fill="#95969B"/>
<path d="M24.9283 22.0953C24.8173 22.0544 24.6713 22.1596 24.6245 22.2823C24.5778 22.405 24.9166 22.551 25.0043 22.4459C25.0243 22.4185 25.0383 22.3872 25.0454 22.3541C25.0524 22.3209 25.0524 22.2866 25.0452 22.2535C25.038 22.2204 25.0239 22.1891 25.0037 22.1619C24.9836 22.1346 24.9579 22.1119 24.9283 22.0953Z" fill="#95969B"/>
<path d="M76.6816 24.6482C75.7645 24.508 74.5026 25.0689 73.7607 25.4778C72.8761 25.8642 72.1418 26.5288 71.6693 27.3706C66.4874 35.9992 60.476 38.8325 53.7753 41.3271C52.7994 41.7053 51.7902 41.9909 50.7608 42.18C50.5856 42.18 50.3168 42.2676 50.6615 42.18C57.631 40.0009 71.4531 33.8552 72.4229 19.554C72.6156 16.5921 71.8737 16.5746 71.3713 16.7031C70.4855 17.0005 69.659 17.4514 68.9294 18.0351C67.6091 19.0341 66.8496 20.4654 66.3414 22.2589C64.5362 28.6091 60.6046 34.416 53.01 38.7332C52.2505 39.1655 52.6361 38.8676 52.9224 38.669L53.5767 38.2308C60.8207 33.4871 64.729 27.0376 65.7104 18.631C66.0843 15.3887 65.5118 11.4512 64.7582 10.2069C64.6881 10.09 64.5654 9.90892 64.4953 9.79792C64.3749 9.67868 64.224 9.5949 64.0591 9.55574C63.8942 9.51658 63.7218 9.52357 63.5606 9.57594C62.2884 10.3115 61.165 11.2784 60.2482 12.4268C59.8801 13.011 58.9454 14.2086 59.2609 15.7042C60.5403 21.698 58.2152 27.6802 53.9213 33.4346C51.8977 36.0669 49.2763 38.1796 46.2742 39.5978C43.8638 40.6988 41.2448 41.2685 38.5949 41.2685C35.945 41.2685 33.3261 40.6988 30.9156 39.5978C27.9159 38.1758 25.2954 36.0637 23.2685 33.4346C18.9746 27.6802 16.6437 21.698 17.9231 15.7042C18.2444 14.2086 17.3097 12.9993 16.9475 12.4268C16.0293 11.2797 14.9061 10.313 13.6351 9.57594C13.473 9.52374 13.2997 9.51681 13.1339 9.55594C12.9681 9.59506 12.8162 9.67874 12.6945 9.79792C12.6244 9.90892 12.5017 10.09 12.4316 10.2069C11.678 11.4512 11.0997 15.3887 11.4794 18.631C12.4667 27.0376 16.375 33.4871 23.6132 38.2308C23.841 38.3769 24.1097 38.5638 24.2675 38.669C24.5537 38.8676 24.9451 39.1655 24.174 38.7332C16.5794 34.416 12.6478 28.6091 10.8543 22.2589C10.4864 20.6005 9.5731 19.1133 8.26045 18.0351C7.52796 17.4525 6.69968 17.0018 5.81266 16.7031C5.31025 16.5746 4.56834 16.5921 4.76696 19.554C5.72505 33.8377 19.5472 40.0009 26.5342 42.1566C26.8788 42.2501 26.5984 42.1917 26.429 42.1566C25.3998 41.9667 24.3906 41.6812 23.4145 41.3037C16.708 38.8092 10.6966 35.9758 5.52057 27.3472C5.04637 26.5068 4.31259 25.8427 3.42917 25.4544C2.67555 25.0455 1.41368 24.4846 0.508178 24.6249C-0.192859 24.7359 0.017435 25.8341 0.198536 26.3774C4.66765 39.148 18.1801 43.3484 29.1046 44.7388C29.3091 44.7388 29.385 44.8498 27.7026 44.7037C24.0666 44.2671 20.4597 43.6155 16.9008 42.7525C16.2172 42.5772 14.71 42.0106 13.4306 42.4195C12.4024 42.7525 11.3509 43.3192 11.5612 44.4058C11.7014 45.101 13.232 45.7553 13.9798 46.0182C15.6623 46.6024 23.2276 47.6656 33.7315 47.4845C35.0258 48.7748 36.7789 49.4994 38.6066 49.4994C40.4342 49.4994 42.1874 48.7748 43.4817 47.4845C53.9973 47.6656 61.551 46.6024 63.2335 46.0182C63.9812 45.7553 65.5176 45.101 65.652 44.4058C65.8623 43.3192 64.8108 42.7525 63.7884 42.4195C62.5032 42.0106 60.996 42.5772 60.3183 42.7525C56.7573 43.6148 53.1484 44.2664 49.5107 44.7037C47.8282 44.8498 47.9041 44.7621 48.1144 44.7388C59.0331 43.3484 72.5455 39.148 77.0205 26.3774C77.1782 25.8575 77.3827 24.7592 76.6816 24.6482Z" fill="#95969B"/>
<path d="M51.3921 20.9094C51.4272 20.9094 51.4447 20.8159 51.5031 20.7926C51.5377 20.7808 51.5679 20.759 51.5898 20.7298C51.6117 20.7006 51.6242 20.6655 51.6258 20.629C51.6258 20.5005 51.4622 20.5589 51.3863 20.5589C51.0007 20.5414 51.2461 20.8861 51.3921 20.9094Z" fill="#95969B"/>
<path d="M38.7904 15.6458L38.8313 14.7753L37.5986 15.488L38.7904 15.6458Z" fill="#95969B"/>
<path d="M52.8231 22.475C52.9399 22.475 52.9867 22.1946 53.1093 22.0777C53.1308 22.0636 53.1471 22.0428 53.1555 22.0185C53.164 21.9942 53.1642 21.9678 53.1561 21.9434C53.0918 21.8207 52.9049 21.7973 52.8464 21.7681C52.788 21.7389 52.677 21.8616 52.6186 21.9726C52.5602 22.0836 52.5427 22.0251 52.5602 22.066C52.6478 22.2179 52.7413 22.475 52.8231 22.475Z" fill="#95969B"/>
<path d="M39.7083 13.6361H39.4687V13.9691H39.5622V13.7296H39.7083V13.9691H40.0471V13.8756H39.8017L39.8076 13.7296H40.0471V13.3966H39.9536V13.6361H39.8076H39.8017V13.3966H39.4629V13.4901H39.7083V13.6361Z" fill="#95969B"/>
<path d="M49.9082 22.1245C49.9082 22.2005 49.9783 22.3349 50.0426 22.3115C50.1068 22.2881 50.1652 22.1947 50.2237 22.107C50.2821 22.0194 50.358 21.885 50.2704 21.85C50.228 21.8383 50.1835 21.8366 50.1404 21.8449C50.0972 21.8532 50.0565 21.8713 50.0215 21.8979C49.9865 21.9244 49.9581 21.9587 49.9384 21.998C49.9188 22.0373 49.9084 22.0806 49.9082 22.1245Z" fill="#95969B"/>
<path d="M50.0482 24.0232C50.866 23.8012 51.7307 24.0232 52.5602 23.9531C52.7121 23.9531 52.6654 23.5442 52.4726 23.5442C52.0251 23.4675 51.5707 23.4401 51.1173 23.4624C50.8193 23.5266 50.2877 23.5325 50.1475 23.5967C50.0978 23.6546 50.0628 23.7235 50.0455 23.7978C50.0282 23.8721 50.0291 23.9494 50.0482 24.0232Z" fill="#95969B"/>
<path d="M34.2228 31.4307C34.2213 31.456 34.2213 31.4813 34.2228 31.5066C34.2228 31.5066 34.2345 31.4541 34.2228 31.4307Z" fill="#95969B"/>
<path d="M34.2987 31.6119C34.2987 31.6527 34.3454 31.6878 34.363 31.7228C34.3221 31.6527 34.287 31.5768 34.252 31.5067C34.2699 31.5406 34.2856 31.5758 34.2987 31.6119Z" fill="#95969B"/>
<path d="M39.0585 15.675L40.186 15.821L39.0293 14.7519L39.0585 15.675Z" fill="#95969B"/>
<path d="M34.4032 31.8222C34.4178 31.8512 34.4355 31.8786 34.4558 31.904L34.3623 31.7521C34.3623 31.7521 34.3857 31.7696 34.4032 31.8222Z" fill="#95969B"/>
<path d="M35.6824 17.7488H35.7759L35.7818 17.9007H35.9921V17.8423H35.8402V17.7488H35.9921V17.5327H35.9336V17.6904H35.8402L35.8343 17.5327H35.624V17.5911H35.7759V17.6904H35.624V17.9007H35.6824V17.7488Z" fill="#95969B"/>
</g>
<path d="M106.35 6.34604C106.515 5.87924 106.812 5.87924 107.176 6.37938C107.506 6.91287 107.87 7.34632 108.233 7.64641C108.564 7.94649 108.597 8.17989 108.299 8.27992C107.87 8.41329 107.242 8.84675 106.449 9.61363C105.623 10.3805 104.631 11.1807 103.541 11.981C103.144 12.2477 102.847 12.4811 102.648 12.7145C102.714 12.7145 102.814 12.7145 102.913 12.6812C104.334 12.6145 105.92 12.5811 107.705 12.6145C109.456 12.6478 110.481 12.6145 110.844 12.5145C111.174 12.3811 111.571 12.6478 112.001 13.348C112.397 14.0816 112.562 14.7151 112.529 15.2486C112.463 15.782 112.331 15.9821 112.133 15.8487C110.712 15.2486 108.927 14.9151 106.713 14.8818C106.581 14.8818 106.482 14.8818 106.449 14.8485C106.449 14.9151 106.482 14.9818 106.581 15.0152C106.779 15.2819 106.746 15.4486 106.515 15.5486C106.217 15.8487 105.656 16.5156 104.829 17.6159C104.003 18.7162 103.739 19.283 104.036 19.2497C104.631 19.2497 105.127 19.2497 105.557 19.2164C106.317 18.0494 106.878 17.1158 107.209 16.3822C107.209 16.1822 107.572 16.3489 108.332 16.849C109.026 17.3492 109.258 17.7159 108.96 17.8826C108.299 18.2828 107.44 19.1163 106.416 20.4167C105.391 21.6504 104.896 22.4506 104.929 22.784C104.929 22.8507 105.061 22.8507 105.292 22.7507C105.49 22.684 105.887 22.5506 106.449 22.3839C106.515 22.3839 106.746 22.1505 107.143 21.7171C107.473 21.3503 108.035 21.1502 108.828 21.1502C109.522 21.2169 110.117 21.5504 110.547 22.1505C110.943 22.7507 111.208 23.5176 111.307 24.4845C111.307 25.2181 111.141 25.5848 110.844 25.5848C110.018 25.4181 109.225 24.9847 108.465 24.3178C107.837 23.9177 107.804 23.7176 108.432 23.751C109.258 23.4175 109.72 23.0508 109.753 22.6173C109.621 22.2172 109.423 21.9838 109.159 21.9171C108.828 21.8504 108.564 21.8504 108.332 21.9505C107.705 22.1505 107.374 22.5173 107.374 23.0841C107.308 23.6843 107.275 23.9844 107.242 24.0177C105.821 24.3178 104.697 24.6512 103.904 24.9513C103.078 25.2514 102.483 25.4848 102.153 25.6849C101.954 25.8182 101.657 25.5181 101.26 24.7846C101.062 24.4845 100.93 24.2178 100.897 23.9844C100.798 24.1844 100.699 24.3845 100.599 24.5512C100.203 25.1847 99.8724 25.4848 99.6411 25.4848C99.4098 25.4848 99.2776 25.3514 99.2776 25.118C99.2115 24.9513 99.1785 24.7513 99.1785 24.5512C99.1124 24.5512 99.0793 24.5512 99.0793 24.5845C98.5506 24.7513 97.5592 25.1514 96.1381 25.8182C94.8493 26.3517 94.0562 26.7185 93.7588 26.9519C93.5605 27.1186 93.3622 27.0186 93.197 26.6518C92.9987 26.285 92.7673 25.9516 92.536 25.7182C92.2716 25.4515 92.3708 25.2514 92.8334 25.0847C93.5935 24.8846 94.618 23.8843 95.9068 22.1172C95.5433 22.0172 95.0476 22.0505 94.4527 22.2505C93.6266 22.4506 93.0648 22.6507 92.7673 22.8507C92.6021 23.0174 92.4699 23.0174 92.4038 22.784C92.2716 22.584 92.1064 22.2505 91.9412 21.7838C91.7429 21.3503 91.7759 21.1502 92.0403 21.1169C92.6682 21.1836 93.4283 20.5501 94.3206 19.2164C95.1467 17.8826 95.7746 17.0157 96.1381 16.5823C96.1381 16.5489 96.1712 16.4822 96.2373 16.4156C94.4858 16.8157 93.1639 17.1491 92.2056 17.4492C91.1811 17.7159 90.5532 18.016 90.388 18.3161C90.0245 18.7496 89.6609 18.5495 89.2974 17.7159C88.9009 16.8824 88.9009 16.4156 89.2974 16.3489C90.2558 16.1822 92.1395 15.6153 94.8824 14.6817C96.5677 14.0816 98.2201 13.6148 99.9055 13.248C102.12 11.3475 104.268 9.04681 106.35 6.34604ZM94.3536 27.1853C94.4858 27.0853 94.618 27.0519 94.7171 27.1186C94.7832 27.1853 94.7832 27.2853 94.7502 27.4187C93.8579 29.6527 93.3622 31.4198 93.2631 32.7535C93.3952 33.6538 93.197 34.0539 92.6682 33.9205C92.1725 33.7872 91.5777 33.4204 90.9167 32.7869C90.2227 32.22 89.9584 31.8533 90.1897 31.7532C90.3219 31.6866 90.4871 31.5865 90.6523 31.4198C91.6107 30.1194 92.8665 28.7191 94.3536 27.1853ZM101.029 8.58001C101.161 8.58001 101.26 8.61335 101.327 8.71338C101.327 8.84675 101.26 8.94678 101.161 8.98012C99.1124 10.2138 97.6583 11.3808 96.766 12.4478C96.3695 13.2147 96.0059 13.4147 95.6755 13.0146C95.312 12.6478 95.0476 12.0477 94.9154 11.2141C94.7171 10.3805 94.7171 10.0137 94.9154 10.0471C95.1137 10.0804 95.2789 10.0471 95.4442 10.0137C96.9974 9.48026 98.881 9.01346 101.029 8.58001ZM97.9888 16.0488C98.0879 16.1822 98.2201 16.3489 98.3192 16.5156C98.5175 16.8157 98.4845 16.9824 98.2201 17.0824C97.9227 17.3492 97.3609 17.9827 96.5347 18.9496C95.7085 19.9832 95.4111 20.4834 95.6755 20.45C96.2042 20.3834 96.6999 20.3167 97.1295 20.2833C98.0218 18.8496 98.6497 17.916 98.9471 17.4825C99.0793 17.0491 99.4428 17.0491 100.038 17.5159C100.566 18.0494 100.666 18.4161 100.335 18.6162C100.005 18.7829 99.4098 19.4498 98.5175 20.6501C99.542 21.5504 100.401 22.4839 101.029 23.4509C101.029 23.5176 101.029 23.5843 100.996 23.6843L101.062 23.7176C101.327 23.7176 101.723 23.6176 102.252 23.4509C102.417 23.3842 102.714 23.1175 103.111 22.6507C103.475 22.0838 103.871 21.5504 104.268 21.0502C103.937 20.8835 103.475 20.8835 102.847 21.0502C102.087 21.2169 101.558 21.3503 101.327 21.517C101.128 21.6837 100.996 21.6837 100.963 21.517C100.93 21.317 100.798 21.0169 100.599 20.6501C100.401 20.2833 100.434 20.1166 100.666 20.0833C101.293 20.0833 102.02 19.3831 102.847 18.016C103.607 16.649 104.169 15.7487 104.499 15.2819C104.565 15.1485 104.631 15.0152 104.73 14.8818C103.375 14.9485 102.285 15.0819 101.492 15.3153C100.269 15.582 99.0793 15.8154 97.9888 16.0488ZM96.9313 23.5843C97.5261 23.4509 98.121 23.2842 98.7158 23.0841C98.4514 22.3839 98.2531 21.7838 98.0879 21.2836C98.0218 21.3503 97.9557 21.4503 97.8896 21.5504C96.6008 23.3175 96.2703 23.9844 96.9313 23.5843ZM99.6411 31.5532C100.467 32.1534 101.723 32.4868 103.342 32.5201C104.962 32.5535 105.887 32.3868 106.151 32.02C106.581 31.5198 106.614 30.7863 106.25 29.8194C105.788 28.9858 105.358 28.1856 104.929 27.4187C104.069 28.0855 103.177 28.8191 102.252 29.6527C101.987 29.786 101.822 29.9527 101.789 30.1861C101.723 30.4195 101.558 30.4529 101.26 30.2862C100.963 30.0528 100.5 29.586 99.9055 28.8191C99.4098 28.0522 99.3437 27.6854 99.7733 27.7521C100.104 27.8521 100.335 27.8855 100.5 27.8521C102.252 27.1519 104.135 26.4517 106.217 25.7182C106.383 25.6515 106.515 25.6849 106.581 25.8182C106.581 25.9183 106.482 26.085 106.317 26.3184C105.92 26.5851 105.557 26.8519 105.259 27.1186C106.746 28.2189 107.87 29.4526 108.63 30.8196C109.39 32.3868 109.853 33.4204 109.985 33.9205C110.117 34.2206 109.919 34.4207 109.423 34.4874C108.861 34.554 108.332 34.6541 107.837 34.8208C107.341 34.9208 106.482 34.9542 105.325 34.9875C104.169 35.0208 103.342 34.9875 102.847 34.8875C102.351 34.7874 101.459 34.6541 100.236 34.554C99.4098 34.3206 98.6827 33.8538 98.121 33.1536C97.2287 31.7532 96.766 30.4862 96.766 29.3192C96.766 28.1522 96.733 27.452 96.6999 27.2186C96.5017 26.8519 96.6669 26.7852 97.1626 26.9519C97.6913 27.1186 97.9227 27.3187 97.8235 27.6187C97.8896 29.586 98.4845 30.9197 99.6411 31.5532ZM108.993 26.1183C110.877 26.5851 112.496 27.1519 113.851 27.8521C114.05 27.9855 114.05 28.619 113.851 29.7527C113.587 30.853 113.323 31.4865 113.025 31.6199C112.629 31.7532 112.364 31.6532 112.232 31.3531C112.034 31.053 111.769 30.6196 111.472 30.0528C110.249 28.5857 109.291 27.452 108.597 26.6518C108.2 26.285 108.332 26.085 108.993 26.1183Z" fill="#132344"/>
<path d="M123.999 18.8604C124.552 16.764 125.105 15.9322 125.658 16.3315C126.082 16.7308 126.57 17.1634 127.09 17.6625C127.513 18.0951 127.318 18.5942 126.472 19.1266C125.268 20.025 124.52 21.6555 124.227 23.9516C123.901 26.3141 124.031 27.6119 124.585 27.8448C125.528 28.0445 126.537 27.3789 127.611 25.8815C128.62 24.3841 129.401 22.6538 129.889 20.7238C130.117 19.7588 130.279 19.8919 130.345 21.0899C130.54 20.8902 130.768 20.6906 131.028 20.4909C131.321 20.1581 131.776 19.4261 132.395 18.328C132.753 17.4296 132.818 16.8639 132.59 16.5977L132.46 16.7973C131.809 17.0302 131.418 17.1634 131.288 17.2632C131.126 17.3963 130.995 17.363 130.963 17.1966C130.898 16.997 130.8 16.7308 130.67 16.4313C130.54 16.0985 130.67 15.9322 131.06 15.9322C131.126 15.9322 132.004 15.6992 133.664 15.2666C134.933 14.9672 135.779 14.8673 136.235 15.0004C136.593 15.1335 137.016 15.3332 137.504 15.5994C137.862 15.8656 137.927 16.0985 137.699 16.2982C137.569 16.4646 137.439 16.997 137.308 17.8289C137.113 18.6607 136.951 19.3928 136.788 19.9585C136.56 20.4909 136.332 20.9568 136.17 21.3228C135.909 21.7221 135.714 21.8552 135.616 21.7221C135.454 21.589 135.161 21.3893 134.77 21.0899C134.445 20.8902 133.989 20.2247 133.403 19.1266C133.338 19.0268 133.306 18.927 133.273 18.8604C133.143 19.0601 133.045 19.2264 132.98 19.3263C132.688 19.7588 132.557 20.1249 132.622 20.4244C132.655 20.7238 132.525 20.99 132.232 21.223C131.614 21.6888 130.93 21.955 130.214 22.0549C130.019 23.4192 129.726 24.6836 129.336 25.815C128.815 27.1793 128.034 28.5769 126.993 30.0743C126.667 30.5401 126.342 31.0725 126.049 31.6715C125.756 32.2372 125.301 31.971 124.715 30.8063C123.771 29.442 123.218 27.7117 123.055 25.5488C122.86 23.3859 123.185 21.1564 123.999 18.8604ZM125.951 10.3086C126.407 9.01084 126.96 8.64481 127.611 9.27705C127.741 9.41015 127.969 9.70963 128.262 10.2088C128.49 10.7079 128.815 11.1405 129.173 11.5065C129.498 11.8725 129.791 12.2053 130.084 12.5048C130.214 12.6712 130.149 12.9041 129.921 13.2701C129.694 13.6029 129.271 13.736 128.652 13.6694C128.034 13.6029 127.513 13.5696 127.155 13.5696C126.765 13.5696 126.505 13.4365 126.407 13.1703C125.919 12.0056 125.756 11.0407 125.951 10.3086ZM133.957 22.92C133.957 22.2878 134.38 22.1214 135.226 22.3543C136.039 22.6205 136.365 22.8867 136.17 23.1862C135.909 23.519 135.746 24.1512 135.681 25.0497C135.551 25.9481 135.454 26.7467 135.389 27.4122C135.291 28.0445 135.323 28.7765 135.486 29.6084C135.486 29.9079 135.128 30.4736 134.38 31.3055C133.566 32.1706 132.199 32.936 130.312 33.5682C129.954 33.6347 129.921 33.4351 130.279 32.9692C131.874 31.1391 132.915 29.8413 133.403 29.0427C134.217 27.1793 134.412 25.1495 133.957 22.92ZM133.859 11.2736C135.128 11.0074 136.983 10.7079 139.456 10.4084C140.79 10.2088 143.003 9.90928 146.095 9.4767C146.323 9.37687 146.485 9.84273 146.583 10.8743C146.648 11.9058 146.323 12.2053 145.574 11.7727C143.524 11.806 141.344 11.9391 139.001 12.172C136.397 12.5048 134.933 12.771 134.575 12.9706C133.892 13.3699 133.501 13.4032 133.403 13.0372C133.273 12.6712 133.143 12.2718 132.98 11.9058C132.753 11.5065 132.753 11.3069 133.045 11.2736C133.241 11.3069 133.501 11.3069 133.859 11.2736ZM135.746 16.6309C135.616 16.2649 135.226 16.1318 134.542 16.2316C134.347 16.5311 134.152 16.9304 133.989 17.363C133.761 17.8621 133.534 18.2947 133.371 18.6607C133.371 18.694 133.436 18.7273 133.534 18.7606C134.152 19.3595 134.738 19.6257 135.291 19.5592C135.323 19.5259 135.454 19.1266 135.649 18.4278C135.779 17.729 135.812 17.1301 135.746 16.6309ZM140.205 13.4032C140.465 12.9706 140.628 12.6712 140.693 12.5381C140.693 12.3051 140.856 12.2386 141.148 12.3384C141.409 12.4715 141.767 12.6046 142.19 12.771C142.58 12.9374 142.678 13.0705 142.483 13.2368C142.06 13.5363 141.539 13.9689 140.921 14.5679C140.563 14.9339 140.205 15.2334 139.879 15.4663C139.944 15.4996 140.009 15.5328 140.075 15.5661C140.335 15.7658 140.4 15.9654 140.27 16.1651C140.14 16.3647 140.075 16.9304 140.075 17.8621C140.009 18.5609 140.009 19.1599 140.042 19.7256C140.042 20.2913 140.075 20.7904 140.14 21.223C140.27 22.188 139.879 22.4874 138.936 22.0549C137.862 21.6888 137.536 21.3561 137.992 21.0899C138.285 20.9235 138.48 20.4244 138.578 19.5925C138.513 19.1599 138.48 18.4944 138.447 17.6625C138.382 16.8306 138.317 16.1984 138.252 15.7991L138.22 15.6992C138.122 15.5994 137.862 15.2999 137.471 14.8673C136.853 14.2684 136.332 13.8025 135.974 13.503C135.844 13.4698 135.844 13.3699 135.942 13.2036C135.942 13.0372 136.072 13.0039 136.332 13.1037C136.755 13.2036 137.504 13.4032 138.513 13.736C138.708 13.8025 138.838 14.0687 138.903 14.5346C138.903 14.8341 138.87 15.0337 138.838 15.1668C138.968 15.1668 139.131 15.1668 139.326 15.2001C139.619 14.3682 139.912 13.7692 140.205 13.4032ZM136.983 27.1127C137.048 27.1127 137.862 26.9796 139.424 26.6802C140.823 26.181 141.474 26.2143 141.441 26.7134C141.376 27.2458 141.376 27.6451 141.409 27.8781C141.409 28.1776 140.921 28.2441 139.944 28.111C138.48 28.4438 137.732 28.6434 137.699 28.71C137.308 29.0094 136.951 28.8098 136.593 28.0777C136.202 27.3789 136.332 27.0462 136.983 27.1127ZM137.146 23.8517C137.211 23.8517 137.959 23.7519 139.424 23.519C140.823 23.0864 141.474 23.0864 141.441 23.5855C141.311 24.1179 141.279 24.5172 141.376 24.7502C141.376 25.0497 140.888 25.1162 139.912 24.9831C138.578 25.2493 137.894 25.4157 137.829 25.449C137.374 25.7817 137.016 25.5821 136.723 24.8167C136.397 24.0514 136.527 23.7519 137.146 23.8517ZM138.057 7.01431C138.708 5.91622 139.261 5.71657 139.717 6.38208C139.847 6.51518 139.977 6.78138 140.14 7.14741C140.27 7.58 140.465 7.91275 140.725 8.21223C140.888 8.54499 141.083 8.84447 141.279 9.11067C141.344 9.27705 141.246 9.4767 141.018 9.74291C140.725 10.0091 140.302 10.0424 139.782 9.84273C139.228 9.64308 138.773 9.50998 138.447 9.4767C138.089 9.41015 137.894 9.24377 137.894 8.94429C137.764 8.1124 137.829 7.48017 138.057 7.01431ZM142.45 21.3228C141.897 21.6555 141.571 21.7886 141.539 21.6888C141.409 21.6555 141.344 21.3228 141.376 20.7571C141.051 19.8587 140.986 18.9602 141.214 18.1283C141.344 16.8971 141.344 16.0985 141.181 15.666C141.051 15.433 141.311 15.3332 141.962 15.3665C142.092 15.1335 142.255 14.9006 142.483 14.701C142.483 14.6677 142.515 14.6344 142.58 14.6011C142.906 14.2018 143.199 13.9023 143.491 13.7027C143.947 13.3367 144.24 13.1037 144.338 12.9706C144.403 12.7044 144.565 12.7044 144.858 12.9374C145.119 13.1703 145.477 13.4032 145.9 13.7027C146.258 14.0354 146.323 14.2351 146.062 14.3017C145.411 14.5013 144.695 14.8341 143.882 15.2666C143.687 15.3332 143.557 15.3997 143.491 15.433C143.752 15.6992 144.045 15.9987 144.403 16.2982C145.151 16.997 145.834 17.5294 146.388 17.8289C146.908 18.0951 147.754 18.4278 148.893 18.8271C149.967 19.1932 150.651 19.6257 150.976 20.1249C151.041 20.3578 150.976 20.4909 150.748 20.5575C149.674 20.7571 148.601 20.7904 147.559 20.624C146.42 20.5242 145.802 20.3911 145.769 20.2247C145.639 20.025 145.574 19.6923 145.607 19.2597C145.542 18.8937 145.119 18.3613 144.37 17.6625C143.557 16.997 142.971 16.7308 142.645 16.8971C142.58 16.8971 142.548 16.8971 142.515 16.8639C142.45 17.0968 142.385 17.3297 142.32 17.5627C142.092 18.3613 142.092 18.927 142.385 19.293C142.385 19.4594 142.613 19.4261 143.101 19.2597C143.459 19.1599 143.849 18.8937 144.24 18.4944C144.435 18.1949 144.533 18.1949 144.5 18.5609C144.24 19.7921 143.557 20.7238 142.45 21.3228ZM143.394 21.7886C144.077 21.9218 144.695 22.0549 145.216 22.1547C145.672 22.2545 145.737 22.4542 145.444 22.7536C145.119 23.0864 144.956 23.6188 144.923 24.3176C144.826 26.3474 144.793 29.076 144.858 32.5034C144.988 34.2004 144.891 35.0323 144.533 34.999C143.589 34.7661 142.808 34.4666 142.19 34.1006C141.702 33.8677 141.702 33.5682 142.19 33.2687C142.71 32.9692 142.971 32.6032 142.971 32.1373C142.776 28.2441 142.71 25.216 142.776 23.1197C142.776 22.5873 142.743 22.2212 142.678 21.9883C142.548 21.7887 142.776 21.7221 143.394 21.7886Z" fill="#132344"/>
<path d="M178.79 21.3718C177.959 21.2063 177.561 20.9414 177.66 20.511C177.262 19.4184 176.664 18.4583 175.899 17.6968C175.069 16.9353 174.205 16.3063 173.341 15.8097C172.444 15.3793 171.48 14.4854 170.45 13.161C170.317 13.0617 170.251 12.9955 170.218 12.8962C169.653 13.3928 168.856 14.3198 167.859 15.6441C166.563 17.3326 165.334 18.657 164.204 19.6171C163.041 20.5772 162.509 21.2063 162.576 21.4711C162.576 21.7691 162.41 22.034 162.078 22.3319C161.612 22.4975 161.114 22.6961 160.616 22.9941C160.051 23.2921 158.755 23.3914 156.728 23.3583C155.898 23.2921 155.765 23.0934 156.396 22.7623C157.094 22.2657 158.323 21.6036 160.018 20.7096C161.778 19.4847 163.174 18.1934 164.237 16.8691C165.267 15.5117 166.264 14.2867 167.194 13.1941C167.826 12.3664 168.291 11.7374 168.557 11.307C168.058 10.9097 167.56 10.6117 167.128 10.4131C166.364 10.4462 166.164 9.91646 166.53 8.89011C166.829 7.89687 167.261 7.30093 167.759 7.06918C168.191 6.87053 168.424 7.10228 168.424 7.73133C168.49 8.26106 168.922 8.92322 169.719 9.71781C170.517 10.5124 171.447 11.2739 172.477 11.9691C173.441 12.6644 174.371 13.459 175.235 14.3198C176.032 15.1475 176.963 15.9752 178.026 16.7367C178.989 17.5975 180.352 18.3921 182.046 19.0874C183.741 19.7826 184.771 20.3123 185.169 20.6434C185.834 21.0407 186.1 21.3056 185.967 21.4711C185.834 21.6367 185.435 21.7029 184.804 21.736C181.581 21.6698 179.554 21.5373 178.79 21.3718ZM162.044 33.9528C161.712 34.1515 161.28 33.7211 160.715 32.6947C160.15 31.6684 160.483 31.3704 161.745 31.7346C163.706 31.3704 165.965 31.0062 168.523 30.642C168.656 29.9799 168.789 28.6556 168.922 26.6691C167.958 26.8015 167.061 26.967 166.231 27.1326C165.766 27.3643 165.467 27.0002 165.3 26.1062C165.101 25.2123 165.267 24.7157 165.832 24.6826C166.928 24.4508 167.992 24.2191 169.022 24.0535C169.022 22.7623 168.922 21.8353 168.756 21.3056C168.712 21.3056 168.701 21.3056 168.723 21.3056C167.427 21.438 166.563 21.6698 166.164 21.9677C165.699 22.2988 165.4 21.9346 165.267 20.9083C165.001 19.8819 165.068 19.3522 165.467 19.3853C167.892 19.2529 170.517 18.7563 173.374 17.8955C173.873 17.6968 174.404 18.0941 174.936 19.0874C175.368 20.0806 175.268 20.4779 174.57 20.2461C174.039 20.0806 173.275 20.1799 172.278 20.5441C172.078 20.6103 171.879 20.6765 171.68 20.7096C171.547 20.9745 171.514 21.1732 171.547 21.3056C171.48 21.6367 171.447 22.3982 171.447 23.59C172.211 23.4576 172.976 23.3252 173.74 23.2258C174.404 23.0934 174.77 23.4907 174.836 24.4508C174.836 25.411 174.637 25.9076 174.238 25.8745C173.208 26.0069 172.211 26.1393 171.314 26.2718C171.248 28.49 171.281 29.8143 171.381 30.2778C173.075 30.0792 174.703 29.9799 176.331 29.9468C177.893 29.9468 178.823 29.8805 179.122 29.715C179.288 29.6488 179.488 29.8143 179.654 30.2447C179.787 30.6751 179.986 30.94 180.285 31.1055C180.518 31.3042 180.617 31.7677 180.584 32.5292C180.518 33.3238 180.252 33.5886 179.787 33.2907C177.328 32.5954 174.437 32.3636 171.082 32.5954C167.194 32.8603 164.204 33.3238 162.044 33.9528Z" fill="#132344"/>
<path d="M195.977 20.3715C195.132 20.5631 194.558 20.7866 194.287 21.0102C193.949 21.3295 193.645 21.074 193.375 20.2118C193.138 19.4135 193.172 18.9983 193.476 18.9664C194.22 18.8386 195.065 18.647 195.977 18.3596C195.91 16.5074 195.775 15.3259 195.606 14.8149C195.2 14.6872 194.592 14.783 193.814 15.0704C193.375 15.3259 193.104 15.1662 193.003 14.6233C192.868 14.0485 192.665 13.5056 192.428 12.9947C192.09 12.5156 192.394 12.2921 193.341 12.324C194.93 12.2282 196.349 11.9728 197.566 11.5576C198.749 11.2063 199.696 10.9828 200.372 10.9189C200.777 10.887 201.048 11.2063 201.183 11.877C201.251 12.5476 201.115 12.9627 200.744 13.0905C199.898 13.4417 199.121 13.7291 198.411 14.0166C198.208 14.5914 198.039 15.8368 197.87 17.7209C198.208 17.5932 198.58 17.4655 199.02 17.3058C199.493 17.0823 200 17.3697 200.541 18.2C201.082 19.0302 201.014 19.3815 200.338 19.2219C199.932 19.158 199.358 19.2857 198.648 19.6051C198.31 19.7328 197.972 19.8286 197.668 19.9244C197.566 22.2237 197.701 23.533 198.107 23.8843C199.56 23.1498 200.575 22.6708 201.082 22.4792C201.217 22.4472 201.284 22.543 201.318 22.7985C201.318 23.022 201.217 23.2136 201.014 23.3733C199.493 24.8104 198.039 26.0239 196.586 26.95C195.065 27.908 194.084 28.6105 193.611 29.0896C193.239 29.5686 192.699 29.4728 191.989 28.7702C191.279 28.0996 190.941 27.6206 191.008 27.397C191.008 27.2054 191.245 27.0458 191.718 26.8861C192.901 26.4071 194.118 25.8642 195.403 25.2894C195.741 24.1717 195.944 22.5111 195.977 20.3715ZM198.546 26.6625C198.986 26.5667 199.865 26.1197 201.149 25.3532C202.4 24.5549 204.191 23.5969 206.49 22.4792C206.896 22.3514 206.963 22.4792 206.659 22.8943C206.084 23.7565 205.172 24.6826 203.921 25.6726C202.67 26.6625 201.622 27.5567 200.811 28.387C200.608 28.9299 200.304 28.9938 199.898 28.5147C199.425 28.0357 199.02 27.6206 198.715 27.2693C198.31 26.918 198.242 26.7264 198.546 26.6625ZM203.076 19.4454C203.651 18.5832 204.158 18.3916 204.597 18.9344C204.631 19.0302 204.766 19.2857 204.935 19.637C205.07 20.0202 205.239 20.3396 205.476 20.595C205.679 20.8824 205.848 21.1379 206.017 21.3934C206.084 21.5531 206.017 21.7127 205.78 21.9363C205.51 22.1598 205.138 22.1917 204.665 22.0321C204.158 21.8724 203.752 21.7447 203.448 21.7127C203.143 21.6489 202.974 21.5211 202.941 21.2976C202.738 20.4992 202.772 19.8925 203.076 19.4454ZM207.403 16.6352C207.234 16.6671 207.065 16.6671 206.896 16.699C205.374 16.8268 204.36 17.0503 203.921 17.4016C203.448 17.689 203.144 17.3697 203.008 16.3797C202.738 15.3897 202.805 14.8788 203.211 14.9107C204.529 14.8469 205.949 14.6872 207.403 14.3998C207.403 10.9189 207.369 8.68353 207.301 7.69356C207.098 7.02294 207.639 6.83134 208.958 7.15068C210.208 7.53389 210.648 7.88517 210.208 8.23645C209.735 8.65159 209.465 10.5996 209.397 14.0166C210.31 13.793 211.29 13.5695 212.338 13.2821C212.845 13.0905 213.419 13.5056 214.028 14.4956C214.535 15.5175 214.433 15.9007 213.656 15.6771C213.081 15.4855 212.169 15.5813 210.986 15.9326C210.479 16.0923 209.938 16.22 209.363 16.3478C209.296 17.5293 209.296 18.8386 209.363 20.3076C209.431 20.4354 209.532 20.5631 209.701 20.7228C209.701 20.7866 209.735 20.8505 209.836 20.8824C211.222 19.9563 212.608 18.8386 214.062 17.5293C214.264 17.21 214.501 17.2419 214.738 17.6571C214.941 18.0722 215.211 18.4235 215.515 18.7109C215.752 18.9664 215.752 19.126 215.515 19.1899C215.177 19.2219 214.738 19.4454 214.197 19.8925C213.588 20.3076 212.879 20.7228 212.034 21.106C211.391 21.4253 211.019 21.8085 210.952 22.2237C211.155 22.4792 211.425 22.7666 211.763 23.054C212.676 23.9801 213.555 24.6826 214.4 25.2255C215.177 25.8323 216.225 26.4071 217.476 26.95C218.659 27.4609 219.47 27.9399 219.909 28.4189C220.078 28.7383 220.011 28.8979 219.707 28.9299C218.794 28.9938 217.509 28.9938 215.921 28.9299C214.264 28.866 213.453 28.6105 213.453 28.1954C213.386 27.7483 213.284 27.397 213.149 27.1096C212.912 26.5029 212.507 25.9919 211.932 25.5768C211.357 25.1297 210.783 24.491 210.242 23.6607C209.972 23.2775 209.701 22.9901 209.397 22.7985C209.397 25.2894 209.498 28.1315 209.701 31.293C209.634 32.5065 209.6 33.3049 209.6 33.72C209.6 34.0713 209.296 34.1032 208.687 33.752C206.625 32.6981 204.867 31.325 203.346 29.6324C202.704 28.8341 202.704 28.6105 203.38 29.0257C204.834 30.0156 206.084 30.3989 207.098 30.1753C207.47 29.9518 207.639 28.8021 207.538 26.7264C207.47 24.6507 207.436 21.2976 207.403 16.6352ZM215.211 9.44995C215.211 9.89703 215.617 10.5357 216.394 11.3341C216.935 11.9089 217.036 12.356 216.732 12.6753C216.326 13.0585 216.056 13.1863 215.887 13.0905C215.076 12.7711 214.433 12.6114 213.926 12.5795C213.521 12.5156 213.318 11.9408 213.284 10.887C213.217 9.76929 213.521 9.06674 214.163 8.7474C214.738 8.45999 215.11 8.71546 215.211 9.44995Z" fill="#132344"/>
<path d="M231.116 25.3006C231.116 24.8259 230.989 24.4869 230.734 24.3173C230.511 24.6225 230.225 24.9615 229.938 25.3345C228.251 27.2671 227.041 28.4538 226.246 28.8268C225.736 29.0641 225.163 29.1319 224.526 29.0641C223.858 28.9963 223.826 28.7929 224.431 28.4538C225.736 27.5384 227.328 25.8431 229.206 23.3341C231.021 20.8251 231.753 19.3672 231.466 18.9603C231.339 18.8586 230.671 19.062 229.493 19.5028C228.315 19.9775 227.678 20.2826 227.583 20.4521C227.137 21.198 226.723 20.7573 226.309 19.1298C225.8 17.5702 225.864 16.9938 226.5 17.4006C226.628 17.4685 227.455 17.3328 228.952 16.9938C230.384 16.6208 231.657 16.1461 232.804 15.6376C233.918 15.0951 234.618 14.8238 234.841 14.8238C235.032 14.8238 235.51 15.468 236.274 16.7903C236.337 17.2311 236.242 17.5363 236.019 17.6719C235.701 17.8414 235.382 18.1127 235.032 18.5195C234.554 19.062 234.013 19.774 233.44 20.6895C233.95 21.1641 234.65 21.6388 235.51 22.1474C235.828 22.3847 235.892 22.8594 235.732 23.6392C235.541 24.3852 235.191 24.6225 234.65 24.3513C233.79 23.7749 233.186 23.4358 232.835 23.3341C232.835 26.1143 232.867 28.3182 232.899 29.9456V33.3701C232.772 34.0821 232.071 34.1838 230.766 33.7091C230.48 33.5057 230.448 33.3023 230.734 33.0649C230.957 32.8954 231.084 32.5564 231.084 32.1156L231.116 25.3006ZM231.339 8.28009C232.008 6.95778 232.644 6.65263 233.217 7.39855C233.345 7.56808 233.536 7.97494 233.759 8.58524C233.95 9.22944 234.204 9.80583 234.554 10.2466C234.841 10.6874 235.128 11.162 235.382 11.6028C235.446 11.7723 235.35 12.0436 235.096 12.3826C234.809 12.7556 234.332 12.8234 233.727 12.62C233.058 12.4505 232.517 12.3148 232.135 12.2809C231.721 12.2131 231.466 12.0436 231.435 11.7384C231.053 10.2805 231.021 9.12773 231.339 8.28009ZM243.596 17.5024C244.837 17.0616 245.856 16.7903 246.684 16.7225C247.097 16.6886 247.384 17.0616 247.511 17.8414C247.575 18.6551 247.416 19.1298 247.002 19.2993C245.697 19.8757 244.551 20.3843 243.532 20.8929C243.405 24.4869 243.468 26.8263 243.691 27.8774C243.691 27.8774 243.723 27.8774 243.818 27.8435C245.315 27.6062 246.715 27.4366 248.021 27.3688C249.326 27.301 250.122 27.1993 250.408 27.0298C250.567 26.962 250.758 27.1315 250.981 27.5384C251.109 27.9791 251.331 28.2843 251.65 28.4538C251.873 28.6572 252 29.1658 252 30.0135C251.968 30.8611 251.713 31.1662 251.268 30.8611C249.135 30.2847 246.652 30.1491 243.818 30.4203C240.444 30.7594 237.865 31.234 236.051 31.8443C235.764 32.0478 235.319 31.6409 234.745 30.6238C234.141 29.6405 234.459 29.3014 235.701 29.6066C237.26 29.1997 239.075 28.7929 241.144 28.3521C241.208 27.7079 241.24 26.6229 241.272 25.0972C241.208 24.0461 241.208 22.8594 241.24 21.5371C241.176 21.5371 241.144 21.5371 241.112 21.5032C240.603 21.2998 239.903 21.4015 239.043 21.8083C238.566 22.1135 238.279 21.9101 238.184 21.2659C238.056 20.6217 237.833 19.9435 237.547 19.2993C237.26 18.6551 237.579 18.4178 238.566 18.5195C239.489 18.4517 240.412 18.3161 241.272 18.1127C241.272 17.4685 241.272 16.7564 241.303 16.0105C241.335 12.247 241.272 10.0093 241.112 9.29725C240.667 8.11056 241.144 7.7376 242.577 8.14447C244.009 8.55133 244.519 9.02601 244.169 9.5685C243.946 9.97536 243.755 12.62 243.596 17.5024Z" fill="#132344"/>
<path d="M259.845 12.216C259.745 11.6912 259.977 11.4944 260.54 11.6584C261.037 11.8552 261.567 12.052 262.096 12.2815C262.593 12.5111 262.659 12.9375 262.295 13.495C261.335 16.3812 260.805 19.6609 260.706 23.3014C260.573 26.9747 260.739 29.2705 261.202 30.1888C261.401 30.6152 263.023 30.5496 266.103 29.9592C269.083 29.4017 271.699 29.0409 273.917 28.9425C276.135 28.8441 277.46 28.7457 277.923 28.6473C278.122 28.549 278.387 28.7457 278.751 29.3033C279.016 29.8608 279.314 30.2872 279.645 30.5824C279.976 30.9104 280.076 31.3367 279.943 31.8287C279.811 32.3534 279.447 32.4846 278.884 32.1894C275.573 31.4351 272.228 31.2383 268.884 31.5991C265.474 31.9599 263.288 32.3206 262.361 32.6486C261.401 32.9766 260.706 33.075 260.341 32.9438C260.143 32.8454 260.043 32.6814 260.043 32.4518C260.043 32.2222 259.911 31.5007 259.613 30.32C258.951 26.9419 258.818 23.203 259.249 19.0378C259.613 14.8725 259.812 12.5767 259.845 12.216ZM263.951 28.4506C263.686 28.5162 263.553 28.4178 263.52 28.1226C262.759 26.5811 262.262 25.4332 262.03 24.6461C261.467 23.4326 261.434 22.8094 261.964 22.7439C263.255 22.6455 264.381 22.3831 265.308 22.0223C266.235 21.6615 267.063 21.5304 267.758 21.6943C269.646 22.3503 270.341 22.9078 269.911 23.3998C269.414 23.859 268.884 25.0725 268.354 27.0731C268.288 27.5322 268.123 27.729 267.825 27.6306C266.732 27.5978 265.441 27.8602 263.951 28.4506ZM263.52 9.72337C265.143 9.65777 266.301 9.52658 267.063 9.3626C267.758 9.19861 268.553 9.03463 269.381 8.87064C270.275 8.67386 271.301 8.50987 272.46 8.34589C273.553 8.2147 274.48 8.11631 275.208 8.01791C275.804 7.88673 276.235 8.47707 276.5 9.75617C276.698 11.1008 276.533 11.6256 276.036 11.2648C275.208 10.7729 273.288 10.6745 270.341 11.0353C268.056 11.3632 266.599 11.6256 265.97 11.8552C265.275 12.052 264.58 12.3143 263.951 12.6423C263.454 12.9047 263.123 12.7735 263.023 12.2815C262.825 11.7568 262.626 11.1336 262.461 10.4449C262.196 9.75617 262.56 9.52658 263.52 9.72337ZM266.533 26.0236C266.765 25.63 266.931 25.138 266.997 24.5805C266.997 23.9901 266.964 23.5966 266.864 23.4326C266.566 23.1374 266.037 23.1046 265.308 23.367C264.547 23.6294 264.149 23.8262 264.116 23.9573C263.951 24.3509 263.884 24.8429 263.984 25.4004C264.05 25.9908 264.215 26.3187 264.447 26.3843C264.977 26.5811 265.672 26.4499 266.533 26.0236ZM273.288 13.1343C275.308 13.823 276.102 14.3478 275.672 14.7085C275.241 14.9053 274.712 15.5285 274.149 16.578C273.586 17.5947 273.255 18.349 273.222 18.841C273.155 19.169 272.99 19.3001 272.692 19.2673C270.242 19.1034 268.354 19.3329 267.063 19.9561C266.831 20.0217 266.699 19.9561 266.732 19.7921C266.699 19.5953 266.533 19.3329 266.268 18.9722C265.308 17.6931 264.778 16.3484 264.712 14.9381C264.381 14.6757 264.414 14.4462 264.778 14.2822C265.109 14.315 266.301 14.0526 268.321 13.495C270.341 12.9375 271.997 12.8063 273.288 13.1343ZM267.229 15.6269C266.798 16.4468 266.831 17.1683 267.394 17.7587C267.527 17.8899 268.056 17.8571 269.017 17.6931C269.911 17.5619 270.54 17.3979 270.904 17.2011C271.798 16.578 272.063 15.8564 271.632 15.1021C271.367 14.7085 270.639 14.6101 269.48 14.8397C268.255 15.0693 267.493 15.3317 267.229 15.6269ZM272.626 27.2699C272.361 27.2699 272.261 27.1387 272.295 26.8435C271.533 25.3676 271.036 24.2525 270.838 23.4654C270.209 22.2191 270.175 21.5632 270.738 21.4648C272.228 21.4648 273.487 21.268 274.579 20.9072C275.606 20.5464 276.533 20.4808 277.361 20.6776C279.38 21.6287 280.109 22.3503 279.546 22.8094C278.983 23.203 278.288 24.3181 277.493 26.1548C277.361 26.6795 277.129 26.8763 276.831 26.7123C275.606 26.5811 274.215 26.7779 272.626 27.2699ZM275.573 24.8101C275.837 24.5149 276.069 24.0885 276.235 23.531C276.334 23.039 276.367 22.6783 276.301 22.5143C275.97 22.0879 275.341 21.9895 274.447 22.2519C273.487 22.5471 272.99 22.7439 272.957 22.9078C272.758 23.2358 272.725 23.6622 272.857 24.1869C272.924 24.7117 273.056 25.0069 273.288 25.0397C273.851 25.302 274.612 25.2364 275.573 24.8101Z" fill="#132344"/>
<path d="M289.329 29.6618C289.625 30.422 289.559 30.8186 289.1 30.8517C288.574 30.8847 287.951 30.6864 287.229 30.3229C286.474 29.9593 286.178 29.6949 286.342 29.5627C286.474 29.4305 286.572 29.2983 286.67 29.133C287.163 27.5796 287.885 25.894 288.804 24.0762C288.41 24.3406 288.082 24.605 287.787 24.8364C287.524 25.233 287.163 24.8695 286.736 23.7127C286.309 22.622 286.244 22.0601 286.605 22.0601C286.703 22.0601 287.13 21.961 287.885 21.7296C288.706 20.8372 289.658 19.5482 290.708 17.9287C290.708 17.8957 290.741 17.8626 290.774 17.8296C290.38 17.7304 289.789 17.7635 289.034 17.9618C288.148 18.2262 287.524 18.4576 287.196 18.6559C286.999 18.9203 286.835 18.9203 286.736 18.6559C286.638 18.3915 286.441 18.0279 286.178 17.5321C285.915 17.0033 285.948 16.7059 286.244 16.6728C287.196 16.6728 288.246 15.6813 289.329 13.6982C290.347 11.7482 291.069 10.4262 291.562 9.7982C291.956 9.17023 292.251 8.64142 292.481 8.24481C292.678 7.94735 293.006 7.9804 293.433 8.27786C293.794 8.64142 294.122 8.97193 294.385 9.33549C294.582 9.63295 294.549 9.8643 294.286 9.99651C293.794 10.4262 292.973 11.4508 291.824 13.1364C290.61 14.822 290.216 15.6152 290.708 15.5491C291.332 15.483 291.857 15.4169 292.284 15.3838C292.94 14.3592 293.531 13.4338 294.056 12.6736C294.253 12.1779 294.549 12.0787 294.943 12.3762C295.337 12.6736 295.763 12.938 296.256 13.2025C296.617 13.4669 296.551 13.7643 296.059 14.0948C295.304 14.5575 294.188 15.7143 292.776 17.5652C291.562 19.0525 290.839 20.0771 290.675 20.672C290.971 20.5728 291.332 20.4406 291.759 20.3084C292.054 20.2423 292.317 20.1101 292.514 19.9118C292.645 19.2177 293.104 18.7881 293.925 18.6228C294.614 18.3915 295.337 18.5567 296.026 19.1847C296.65 19.8127 297.044 20.3084 297.142 20.672C297.273 21.1347 297.175 21.3991 296.814 21.4983C296.486 21.6305 296.026 21.6966 295.468 21.7296C294.319 21.8288 293.892 21.7627 294.253 21.5313C294.582 21.333 294.811 21.0686 294.91 20.7711C295.14 19.8788 294.877 19.3499 294.089 19.1847C293.728 19.2177 293.433 19.383 293.236 19.6804C292.973 19.9779 293.039 20.5398 293.4 21.4322C293.466 21.8618 293.4 22.0601 293.236 22.0271C291.759 22.4898 290.511 23.0186 289.494 23.6466C289.132 26.1584 289.067 28.1746 289.329 29.6618ZM290.872 24.605C291.397 23.8118 291.824 23.6796 292.152 24.1754C292.185 24.3406 292.284 24.6381 292.415 25.1339C292.481 25.6627 292.612 26.0923 292.809 26.4559C293.006 26.8525 293.17 27.2161 293.301 27.5466C293.367 27.6788 293.269 27.844 293.039 28.0424C292.776 28.2407 292.481 28.2407 292.152 28.0424C291.759 27.8771 291.43 27.7449 291.168 27.6788C290.938 27.6127 290.807 27.4805 290.774 27.3152C290.511 26.1584 290.544 25.233 290.872 24.605ZM293.597 24.0762C293.925 23.1178 294.319 22.8533 294.779 23.283C294.877 23.3491 295.041 23.5805 295.271 24.0101C295.468 24.4067 295.731 24.7373 296.026 25.0017C296.256 25.2661 296.518 25.5305 296.748 25.7949C296.814 25.9271 296.781 26.0923 296.65 26.3237C296.453 26.5881 296.157 26.6873 295.763 26.6542C295.304 26.6212 294.943 26.5881 294.68 26.6212C294.352 26.6212 294.155 26.522 294.122 26.3568C293.695 25.4644 293.498 24.7042 293.597 24.0762ZM298.127 11.8804C297.93 10.5914 298.193 9.96346 298.948 9.93041C299.243 10.1287 300.786 9.7982 303.576 8.93888C306.268 8.1126 308.533 7.81514 310.338 8.1126C312.406 8.54226 313.26 9.13718 312.932 9.89736C312.439 10.9219 312.21 14.3592 312.308 20.1432C312.308 25.9271 312.406 29.6618 312.571 31.3475C312.8 32.372 312.669 32.9339 312.177 33C311.422 32.6364 310.338 32.0746 308.927 31.3144C307.515 30.5873 306.432 29.6949 305.677 28.6703C305.021 27.7779 305.021 27.4805 305.644 27.7449C307.384 29.1661 308.73 29.6949 309.682 29.2983C310.24 27.2822 310.404 23.8118 310.174 18.8542C309.944 13.8635 309.616 11.0541 309.222 10.4262C308.73 9.7982 307.679 9.666 306.071 10.0957C304.462 10.5584 303.182 10.9219 302.197 11.1863C301.18 11.4838 300.589 11.8474 300.458 12.3101C300.031 13.1694 299.735 14.9211 299.604 17.5652C300.687 17.1686 302 16.772 303.543 16.3754C304.561 14.822 305.48 13.0372 306.301 10.988C306.301 10.6906 306.498 10.6575 306.924 10.8889C307.22 11.1533 307.548 11.3516 307.909 11.5169C308.238 11.6821 308.303 11.8143 308.073 11.9796C307.811 12.1118 307.515 12.4753 307.22 13.0703C306.826 13.6652 306.366 14.2931 305.874 14.9872C305.546 15.2847 305.382 15.6152 305.349 15.9126C305.841 15.7804 306.399 15.6813 307.023 15.6152C307.844 15.483 308.369 15.3508 308.566 15.2516C308.664 15.1855 308.796 15.2847 308.894 15.516C309.025 15.7474 309.189 15.8796 309.354 15.9787C309.485 16.0448 309.583 16.3092 309.649 16.772C309.649 17.2347 309.518 17.3999 309.255 17.2677C307.844 17.1025 306.235 17.2347 304.364 17.6643C304.298 17.6643 304.265 17.6643 304.233 17.6974C304.659 17.8626 305.119 18.094 305.579 18.3915C305.71 18.4906 305.644 18.8542 305.382 19.5152C305.316 19.5813 305.283 19.6474 305.316 19.6804C305.71 19.6143 306.169 19.5152 306.727 19.416C308.139 18.9864 308.796 18.9864 308.763 19.4821C308.697 20.011 308.697 20.4076 308.73 20.6389C308.73 20.9364 308.237 21.0025 307.253 20.8703C305.71 21.1347 304.495 21.3991 303.609 21.6305C303.478 21.7957 303.379 22.1262 303.281 22.5559C303.182 23.0517 303.215 23.4813 303.379 23.8118C303.642 23.944 304.167 23.911 304.955 23.6796C305.71 23.4813 306.301 23.283 306.727 23.1178C307.056 22.9525 307.286 22.9855 307.45 23.283C307.581 23.6135 307.778 23.8779 308.008 24.1093C308.205 24.3406 308.336 24.605 308.369 24.9356C308.369 25.3322 308.205 25.4644 307.844 25.3322C307.351 25.2 306.531 25.233 305.382 25.4313C304.233 25.6296 303.576 25.8279 303.412 25.9932C303.182 26.0923 302.788 25.6957 302.263 24.7703C301.935 23.8118 301.803 23.0517 301.869 22.5228C301.869 22.3576 301.869 22.1923 301.836 22.0601C301.607 22.1262 301.475 22.1923 301.475 22.2584C301.016 22.622 300.622 22.3906 300.293 21.6305C299.9 20.8703 300.031 20.5067 300.72 20.5728C300.917 20.5728 302.033 20.3745 304.036 19.9449C303.97 19.7796 303.904 19.6143 303.872 19.4821C303.478 18.8542 303.182 18.3254 303.018 17.9287C301.541 18.3254 300.359 18.722 299.538 19.1516C299.407 21.333 299.407 24.0101 299.506 27.183C299.637 28.5381 299.44 29.3313 298.882 29.4966C298.291 29.6618 297.996 29.4966 297.963 29.0008C297.897 28.5712 297.831 27.9432 297.799 27.1169C297.635 22.3906 297.733 17.3338 298.127 11.8804ZM301.344 13.9957C302.033 13.6982 302.854 13.4008 303.74 13.1033C303.872 13.0372 303.97 13.0372 304.069 13.1033C304.069 13.2025 304.003 13.3677 303.904 13.5991C303.576 14.0287 303.248 14.5906 302.92 15.2186C302.723 15.3508 302.624 15.516 302.624 15.7143C302.559 15.9126 302.427 15.9457 302.23 15.8465C301.935 15.7143 301.508 15.3838 300.95 14.855C300.523 14.2601 300.425 13.9626 300.72 13.9957C301.048 14.0618 301.245 14.0618 301.344 13.9957Z" fill="#132344"/>
<path d="M91.5389 55V54.58L93.6389 54.398H94.0449L96.1729 54.58V55H91.5389ZM93.0929 55C93.1349 53.446 93.1349 51.864 93.1349 50.254V49.526C93.1349 47.93 93.1349 46.334 93.0929 44.766H94.6189C94.5769 46.32 94.5769 47.916 94.5769 49.526V50.254C94.5769 51.836 94.5769 53.432 94.6189 55H93.0929ZM89.4809 47.496L89.5789 44.766H98.1329L98.2449 47.496H97.6009L97.0269 44.766L97.7129 45.27H89.9989L90.6989 44.766L90.1109 47.496H89.4809ZM98.1817 55V54.608L102.774 47.888V48.28L102.662 48.154H98.9097L99.3437 47.888L98.8117 49.904L98.2237 49.848L98.3357 47.706H104.062V48.112L99.4977 54.832L99.5817 54.286L99.5957 54.566H103.474L103.11 54.804L103.67 52.648H104.272L104.132 55H98.1817ZM108.316 55.224C106.972 55.224 106.188 54.482 106.216 52.396L106.244 48.182L106.594 48.434L105.124 48.224V47.86L107.49 47.594L107.644 47.748L107.574 49.652V52.452C107.574 53.866 108.064 54.356 108.932 54.356C109.786 54.356 110.57 53.824 111.214 52.97L111.578 53.558H111.13C110.416 54.538 109.478 55.224 108.316 55.224ZM111.032 55.154L110.976 53.432V53.404L111.004 48.364L109.912 48.238V47.874L112.25 47.594L112.39 47.748L112.334 49.652V54.51L113.37 54.622V55.014L111.032 55.154ZM123.451 55.238C120.427 55.238 118.243 53.292 118.243 49.932C118.243 46.558 120.497 44.514 123.451 44.514C124.627 44.514 125.481 44.78 126.391 45.298L126.405 47.608H125.747L125.201 45.074L125.985 45.34V45.816C125.215 45.256 124.557 45.032 123.675 45.032C121.435 45.032 119.797 46.726 119.797 49.89C119.797 53.082 121.435 54.748 123.647 54.748C124.515 54.748 125.271 54.524 126.069 53.95V54.426L125.299 54.65L125.845 52.172H126.517L126.503 54.454C125.579 55 124.627 55.238 123.451 55.238ZM127.796 55V54.608L129.294 54.454H129.882L131.338 54.608V55H127.796ZM128.902 55C128.93 54.314 128.944 52.732 128.944 51.78V44.584L127.754 44.514V44.136L130.106 43.674L130.316 43.8L130.274 45.998V49.12L130.302 49.302V51.78C130.302 52.732 130.316 54.314 130.344 55H128.902ZM132.598 55V54.608L134.082 54.454H134.656L136.14 54.608V55H132.598ZM133.676 55C133.704 54.314 133.718 52.774 133.718 51.78V50.086C133.718 48.77 133.242 48.294 132.472 48.294C131.828 48.294 130.974 48.658 130.008 49.75L129.7 49.232H130.078C131.058 48.014 132.01 47.496 133.046 47.496C134.306 47.496 135.09 48.252 135.09 50.156V51.78C135.09 52.774 135.104 54.314 135.132 55H133.676ZM137.189 55V54.608L138.701 54.454H139.275L140.759 54.608V55H137.189ZM138.295 55C138.323 54.314 138.351 52.732 138.351 51.78V50.884C138.351 49.946 138.323 49.246 138.295 48.546L137.091 48.49V48.126L139.569 47.524L139.737 47.636L139.695 49.652V51.78C139.695 52.732 139.709 54.314 139.751 55H138.295ZM138.925 45.83C138.435 45.83 138.043 45.48 138.043 44.976C138.043 44.486 138.435 44.122 138.925 44.122C139.401 44.122 139.807 44.486 139.807 44.976C139.807 45.48 139.401 45.83 138.925 45.83ZM149.002 55.084L146.062 44.766H147.574L149.94 53.67H149.688L149.758 53.46L152.32 44.766H153.104L155.722 53.726H155.484L155.54 53.488L157.836 44.766H158.466L155.596 55.084H154.812L152.152 46.264H152.404L152.348 46.474L149.786 55.084H149.002ZM145.04 45.2V44.766H149.142V45.2L147.252 45.354H146.902L145.04 45.2ZM150.752 45.2V44.766H154.798V45.2L153.006 45.354H152.474L150.752 45.2ZM156.282 45.2V44.766H159.684V45.2L158.13 45.354H157.822L156.282 45.2ZM162.717 55.224C160.757 55.224 159.133 53.852 159.133 51.346C159.133 48.84 160.841 47.496 162.717 47.496C164.593 47.496 166.301 48.84 166.301 51.346C166.301 53.88 164.663 55.224 162.717 55.224ZM162.717 54.776C164.033 54.776 164.831 53.6 164.831 51.374C164.831 49.134 164.033 47.944 162.717 47.944C161.401 47.944 160.603 49.134 160.603 51.374C160.603 53.6 161.401 54.776 162.717 54.776ZM167.498 55V54.608L169.038 54.44H169.794L171.362 54.608V55H167.498ZM168.604 55C168.646 54.314 168.66 52.732 168.66 51.78V50.87C168.66 49.918 168.646 49.26 168.604 48.574L167.414 48.504V48.14L169.738 47.524L169.92 47.636L170.018 49.624V51.78C170.018 52.732 170.032 54.314 170.06 55H168.604ZM170.004 50.534L169.654 49.778H169.948C170.368 48.364 171.362 47.496 172.328 47.496C172.888 47.496 173.364 47.72 173.49 48.21C173.476 48.728 173.238 49.064 172.706 49.064C172.314 49.064 172.048 48.854 171.726 48.476L171.404 48.154L172.006 48.196C171.068 48.504 170.466 49.204 170.004 50.534ZM173.813 55V54.608L175.423 54.454H175.997L177.635 54.608V55H173.813ZM175.017 55C175.045 54.104 175.059 52.802 175.059 51.78V44.584L173.869 44.514V44.136L176.249 43.674L176.459 43.8L176.417 45.998V51.78C176.417 52.802 176.431 54.104 176.459 55H175.017ZM181.833 55.224C180.041 55.224 178.725 53.726 178.725 51.444C178.725 48.994 180.195 47.496 182.029 47.496C182.883 47.496 183.653 47.888 184.311 48.812H184.451L184.255 49.148C183.639 48.476 183.079 48.196 182.449 48.196C181.203 48.196 180.181 49.092 180.181 51.402C180.181 53.558 181.119 54.496 182.351 54.496C183.065 54.496 183.625 54.216 184.227 53.502L184.437 53.866H184.297C183.667 54.762 182.813 55.224 181.833 55.224ZM184.143 55.154L184.059 53.796V48.868L184.101 48.728V44.584L182.855 44.514V44.136L185.249 43.674L185.459 43.8L185.417 45.956V54.524L186.635 54.608V55L184.143 55.154ZM194.693 55.084L191.753 44.766H193.265L195.631 53.67H195.379L195.449 53.46L198.011 44.766H198.795L201.413 53.726H201.175L201.231 53.488L203.527 44.766H204.157L201.287 55.084H200.503L197.843 46.264H198.095L198.039 46.474L195.477 55.084H194.693ZM190.731 45.2V44.766H194.833V45.2L192.943 45.354H192.593L190.731 45.2ZM196.443 45.2V44.766H200.489V45.2L198.697 45.354H198.165L196.443 45.2ZM201.973 45.2V44.766H205.375V45.2L203.821 45.354H203.513L201.973 45.2ZM205.671 55V54.608L207.183 54.454H207.757L209.241 54.608V55H205.671ZM206.777 55C206.805 54.314 206.833 52.732 206.833 51.78V50.884C206.833 49.946 206.805 49.246 206.777 48.546L205.573 48.49V48.126L208.051 47.524L208.219 47.636L208.177 49.652V51.78C208.177 52.732 208.191 54.314 208.233 55H206.777ZM207.407 45.83C206.917 45.83 206.525 45.48 206.525 44.976C206.525 44.486 206.917 44.122 207.407 44.122C207.883 44.122 208.289 44.486 208.289 44.976C208.289 45.48 207.883 45.83 207.407 45.83ZM213.538 55.224C211.746 55.224 210.43 53.726 210.43 51.444C210.43 48.994 211.9 47.496 213.734 47.496C214.588 47.496 215.358 47.888 216.016 48.812H216.156L215.96 49.148C215.344 48.476 214.784 48.196 214.154 48.196C212.908 48.196 211.886 49.092 211.886 51.402C211.886 53.558 212.824 54.496 214.056 54.496C214.77 54.496 215.33 54.216 215.932 53.502L216.142 53.866H216.002C215.372 54.762 214.518 55.224 213.538 55.224ZM215.848 55.154L215.764 53.796V48.868L215.806 48.728V44.584L214.56 44.514V44.136L216.954 43.674L217.164 43.8L217.122 45.956V54.524L218.34 54.608V55L215.848 55.154ZM222.998 55.224C220.87 55.224 219.344 53.908 219.344 51.36C219.344 48.952 220.996 47.496 222.9 47.496C224.776 47.496 225.868 48.784 225.868 50.45C225.868 50.786 225.84 51.066 225.784 51.29H219.96V50.842H223.894C224.412 50.842 224.566 50.59 224.566 49.96C224.566 48.756 223.922 47.944 222.844 47.944C221.696 47.944 220.786 49.092 220.786 51.192C220.786 53.474 221.878 54.468 223.404 54.468C224.398 54.468 225.084 54.104 225.644 53.432L225.868 53.628C225.266 54.622 224.3 55.224 222.998 55.224ZM235.984 55.238C232.96 55.238 230.776 53.292 230.776 49.932C230.776 46.558 233.03 44.514 235.984 44.514C237.16 44.514 238.014 44.78 238.924 45.298L238.938 47.608H238.28L237.734 45.074L238.518 45.34V45.816C237.748 45.256 237.09 45.032 236.208 45.032C233.968 45.032 232.33 46.726 232.33 49.89C232.33 53.082 233.968 54.748 236.18 54.748C237.048 54.748 237.804 54.524 238.602 53.95V54.426L237.832 54.65L238.378 52.172H239.05L239.036 54.454C238.112 55 237.16 55.238 235.984 55.238ZM243.969 55.224C242.009 55.224 240.385 53.852 240.385 51.346C240.385 48.84 242.093 47.496 243.969 47.496C245.845 47.496 247.553 48.84 247.553 51.346C247.553 53.88 245.915 55.224 243.969 55.224ZM243.969 54.776C245.285 54.776 246.083 53.6 246.083 51.374C246.083 49.134 245.285 47.944 243.969 47.944C242.653 47.944 241.855 49.134 241.855 51.374C241.855 53.6 242.653 54.776 243.969 54.776ZM248.764 55V54.608L250.262 54.454H250.85L252.306 54.608V55H248.764ZM249.856 55C249.898 54.314 249.912 52.732 249.912 51.78V50.856C249.912 49.918 249.898 49.26 249.856 48.574L248.666 48.49V48.14L250.99 47.524L251.172 47.636L251.27 49.218V51.78C251.27 52.732 251.284 54.314 251.312 55H249.856ZM253.398 55V54.608L254.882 54.454H255.47L256.912 54.608V55H253.398ZM254.49 55C254.518 54.314 254.532 52.774 254.532 51.78V50.128C254.532 48.812 254.098 48.308 253.37 48.308C252.656 48.308 251.872 48.742 250.976 49.778L250.864 49.246H251.032C251.914 48.098 252.838 47.496 253.888 47.496C255.148 47.496 255.862 48.266 255.862 50.142V51.78C255.862 52.774 255.876 54.314 255.904 55H254.49ZM258.018 55V54.608L259.46 54.454H260.062L261.532 54.608V55H258.018ZM259.082 55C259.124 54.314 259.138 52.774 259.138 51.78V50.128C259.138 48.756 258.69 48.308 257.906 48.308C257.22 48.308 256.45 48.672 255.554 49.708L255.428 49.148H255.61C256.492 48 257.416 47.496 258.438 47.496C259.768 47.496 260.468 48.266 260.468 50.142V51.78C260.468 52.774 260.482 54.314 260.51 55H259.082ZM262.545 55V54.608L264.043 54.454H264.631L266.087 54.608V55H262.545ZM263.637 55C263.679 54.314 263.693 52.732 263.693 51.78V50.856C263.693 49.918 263.679 49.26 263.637 48.574L262.447 48.49V48.14L264.771 47.524L264.953 47.636L265.051 49.218V51.78C265.051 52.732 265.065 54.314 265.093 55H263.637ZM267.179 55V54.608L268.663 54.454H269.251L270.693 54.608V55H267.179ZM268.271 55C268.299 54.314 268.313 52.774 268.313 51.78V50.128C268.313 48.812 267.879 48.308 267.151 48.308C266.437 48.308 265.653 48.742 264.757 49.778L264.645 49.246H264.813C265.695 48.098 266.619 47.496 267.669 47.496C268.929 47.496 269.643 48.266 269.643 50.142V51.78C269.643 52.774 269.657 54.314 269.685 55H268.271ZM271.799 55V54.608L273.241 54.454H273.843L275.313 54.608V55H271.799ZM272.863 55C272.905 54.314 272.919 52.774 272.919 51.78V50.128C272.919 48.756 272.471 48.308 271.687 48.308C271.001 48.308 270.231 48.672 269.335 49.708L269.209 49.148H269.391C270.273 48 271.197 47.496 272.219 47.496C273.549 47.496 274.249 48.266 274.249 50.142V51.78C274.249 52.774 274.263 54.314 274.291 55H272.863ZM279.379 55.224C278.035 55.224 277.251 54.482 277.279 52.396L277.307 48.182L277.657 48.434L276.187 48.224V47.86L278.553 47.594L278.707 47.748L278.637 49.652V52.452C278.637 53.866 279.127 54.356 279.995 54.356C280.849 54.356 281.633 53.824 282.277 52.97L282.641 53.558H282.193C281.479 54.538 280.541 55.224 279.379 55.224ZM282.095 55.154L282.039 53.432V53.404L282.067 48.364L280.975 48.238V47.874L283.313 47.594L283.453 47.748L283.397 49.652V54.51L284.433 54.622V55.014L282.095 55.154ZM285.555 55V54.608L287.053 54.454H287.641L289.097 54.608V55H285.555ZM286.647 55C286.689 54.314 286.703 52.732 286.703 51.78V50.87C286.703 49.932 286.689 49.26 286.647 48.574L285.457 48.504V48.14L287.781 47.524L287.963 47.636L288.061 49.26V51.78C288.061 52.732 288.075 54.314 288.103 55H286.647ZM290.329 55V54.608L291.827 54.454H292.401L293.885 54.608V55H290.329ZM291.421 55C291.449 54.314 291.463 52.774 291.463 51.78V50.086C291.463 48.77 291.029 48.294 290.245 48.294C289.615 48.294 288.733 48.658 287.767 49.75L287.655 49.246H287.823C288.845 47.972 289.825 47.496 290.805 47.496C292.051 47.496 292.821 48.266 292.821 50.142V51.78C292.821 52.774 292.835 54.314 292.863 55H291.421ZM294.935 55V54.608L296.447 54.454H297.021L298.505 54.608V55H294.935ZM296.041 55C296.069 54.314 296.097 52.732 296.097 51.78V50.884C296.097 49.946 296.069 49.246 296.041 48.546L294.837 48.49V48.126L297.315 47.524L297.483 47.636L297.441 49.652V51.78C297.441 52.732 297.455 54.314 297.497 55H296.041ZM296.671 45.83C296.181 45.83 295.789 45.48 295.789 44.976C295.789 44.486 296.181 44.122 296.671 44.122C297.147 44.122 297.553 44.486 297.553 44.976C297.553 45.48 297.147 45.83 296.671 45.83ZM301.289 48.238V47.706H303.921V48.238H301.289ZM302.395 55.224C301.177 55.224 300.589 54.608 300.589 53.306C300.589 52.83 300.603 52.522 300.603 51.99V48.238H299.259V47.804L300.897 47.664L300.631 47.86L301.107 45.494H302.017L301.961 47.93V53.334C301.961 54.188 302.311 54.538 302.913 54.538C303.319 54.538 303.585 54.412 303.963 54.174L304.159 54.412C303.767 54.944 303.193 55.224 302.395 55.224ZM305.517 58.794C304.873 58.794 304.243 58.5 304.201 57.982C304.271 57.548 304.663 57.352 305.083 57.352C305.489 57.352 305.825 57.576 306.147 57.912L306.553 58.346L306.105 58.584L305.825 58.346C306.735 58.066 307.421 57.156 307.953 55.77L308.359 54.748L308.443 54.524L309.689 51.108L310.851 47.706H311.397L308.443 55.644C307.589 57.912 306.651 58.794 305.517 58.794ZM308.177 55.812L304.901 47.706H306.399L308.723 54.02L308.807 54.202L308.177 55.812ZM304.215 48.098V47.706H307.827V48.098L306.371 48.238H305.601L304.215 48.098ZM309.311 48.098V47.706H312.153V48.098L311.019 48.238H310.795L309.311 48.098Z" fill="#1B2D58"/>
<defs>
<clipPath id="clip0_2069_6393">
<rect width="77.1725" height="40" fill="white" transform="translate(0 9.5)"/>
</clipPath>
</defs>
</svg>
