<svg width="100%" height="100%" viewBox="0 0 234 56" fill="none" xmlns="http://www.w3.org/2000/svg">
<g clip-path="url(#clip0_4394_1359)">
<path d="M26.4172 32.8691C29.8755 36.3274 34.0816 38.1559 38.5739 38.1559C50.8066 38.1559 57.478 24.8542 57.478 18.0134C57.5422 15.8578 57.1158 14.263 56.3096 13.7373C53.3244 11.494 46.4954 9.15147 38.5564 9.29751C31.1374 9.15731 24.1506 11.5057 20.7974 13.7431C20.0263 14.263 19.629 15.8578 19.6582 18.0134C19.6758 21.9333 21.7847 28.2424 26.4172 32.8691Z" fill="white"/>
<path d="M26.9997 20.6484C26.9238 20.6484 26.8654 20.7302 26.7777 20.7536C26.6901 20.777 26.5441 20.847 26.5674 20.8938C26.6667 21.0398 26.8887 20.9873 27.0406 20.8938C27.1925 20.8003 27.1166 20.666 26.9997 20.6484Z" fill="#95969B"/>
<path d="M26.9661 20.0394C27.0449 20.0158 27.1213 19.9845 27.1939 19.946C27.219 19.9261 27.2388 19.9003 27.2514 19.8708C27.264 19.8414 27.2691 19.8093 27.2662 19.7774C27.2633 19.7455 27.2525 19.7149 27.2348 19.6882C27.2171 19.6615 27.193 19.6397 27.1647 19.6247C26.9661 19.5838 26.785 19.7824 26.5806 19.8116C26.639 19.9518 26.8025 20.1095 26.9661 20.0394Z" fill="#95969B"/>
<path d="M38.5714 39.3061C51.4759 39.2711 58.8132 25.7006 58.8249 17.7733C58.8249 17.6331 58.8249 17.4871 58.8249 17.341C58.8249 15.2029 58.3985 13.5555 57.382 12.8428C53.9061 10.2432 46.7558 8.00584 39.2725 8H37.888C30.3988 8 23.3711 10.179 19.7784 12.8545C18.8145 13.5964 18.3589 15.1912 18.3472 17.3469C18.3472 17.4871 18.3472 17.6331 18.3472 17.7791C18.3355 25.7006 25.6845 39.2711 38.5714 39.3061ZM20.0997 13.3394C23.5464 10.7748 30.5039 8.60169 37.8704 8.60753H39.2549C46.6331 8.60753 53.725 10.8449 57.0432 13.3394C57.75 13.7834 58.2407 15.2789 58.2115 17.341C58.2115 17.4812 58.2115 17.6214 58.2115 17.7616C58.2115 21.5763 56.4123 26.8456 53.0474 31.1218C49.6825 35.398 44.7812 38.7161 38.5597 38.7161C32.3382 38.7161 27.4604 35.4213 24.078 31.1218C20.6956 26.8222 18.908 21.5763 18.9138 17.7733C18.9138 17.6214 18.9138 17.4812 18.9138 17.3469C18.908 15.2905 19.4162 13.8301 20.0997 13.3394Z" fill="#95969B"/>
<path d="M25.0148 19.707C24.8104 19.5142 24.4307 19.707 24.3314 19.8939C24.232 20.0808 24.5709 20.1042 24.7461 20.0692C24.9214 20.0341 25.1901 19.8705 25.0148 19.707Z" fill="#95969B"/>
<path d="M26.4172 32.8691C29.8755 36.3274 34.0816 38.1559 38.5739 38.1559C50.8066 38.1559 57.478 24.8542 57.478 18.0134C57.5422 15.8578 57.1158 14.263 56.3096 13.7373C53.3244 11.494 46.4954 9.15147 38.5564 9.29751C31.1374 9.15731 24.1506 11.5057 20.7974 13.7431C20.0263 14.263 19.629 15.8578 19.6582 18.0134C19.6758 21.9333 21.7847 28.2424 26.4172 32.8691ZM24.2674 20.3911C24.0045 20.2567 23.6248 19.9588 23.8234 19.7076C23.952 19.544 24.3024 19.6199 24.5011 19.4272C24.5712 19.3571 24.6413 19.2169 24.7406 19.2811C24.8399 19.3454 25.0911 19.2811 25.2255 19.3863C25.3598 19.4914 25.7279 19.6316 25.7279 19.8828C25.7279 20.134 25.3715 20.2041 25.3248 20.4027C25.278 20.6014 25.6461 20.6715 25.7688 20.8642C25.8914 21.057 25.5993 21.3549 25.3657 21.4484C25.1389 21.5437 24.8911 21.5777 24.647 21.547C24.403 21.5162 24.1713 21.4218 23.9753 21.2732C23.6365 20.9752 23.9344 20.5313 24.2674 20.3911ZM25.9382 21.7873C26.0139 21.7765 26.0911 21.7879 26.1606 21.8201C26.23 21.8522 26.2887 21.9037 26.3296 21.9683C26.3938 22.1202 26.4639 22.3831 26.3296 22.4707C26.1952 22.5584 25.8096 22.4707 25.8272 22.2137C25.8155 22.056 25.8096 21.8106 25.9382 21.7814V21.7873ZM26.0959 31.6073C25.9977 31.5603 25.9176 31.4823 25.8681 31.3853C25.8681 31.3444 25.8681 31.2977 25.909 31.3094C27.0253 31.5201 28.1753 31.4681 29.268 31.1575C29.379 31.1166 29.4783 31.1925 29.303 31.3327C28.9542 31.5765 28.5548 31.7383 28.1347 31.8059C27.4516 31.9711 26.7326 31.899 26.0959 31.6014V31.6073ZM30.8686 33.1028C30.3604 32.9217 30.413 32.8282 30.5064 32.8049C30.9403 32.7866 31.372 32.7339 31.7975 32.6471C32.2742 32.3917 32.7803 32.1955 33.3046 32.063C33.6674 32.004 34.0394 32.0508 34.3762 32.198C34.7129 32.3451 35.0001 32.5862 35.2032 32.8925C35.285 33.0385 34.8001 32.8925 34.619 32.8633C33.8778 32.8257 33.1376 32.9534 32.4518 33.2371C31.9231 33.3665 31.3664 33.3172 30.8686 33.0969V33.1028ZM39.7073 34.4464C38.13 34.756 36.8682 33.8622 35.3668 33.5877C35.0198 33.5408 34.6681 33.5408 34.3211 33.5877C33.737 33.6227 33.217 33.9382 32.6037 33.8914C32.4167 33.8914 32.6037 33.7921 32.6037 33.7863C33.1889 33.5295 33.7947 33.3224 34.4146 33.167C34.9493 33.0473 35.5039 33.0473 36.0386 33.167C36.4801 33.2618 36.9013 33.4339 37.2829 33.6753C37.464 33.7921 37.686 33.944 37.8671 33.8505C37.9722 33.7921 38.0657 33.7045 38.1884 33.7454C38.4747 33.8505 38.3461 33.9557 39.0121 34.1251C39.2394 34.1671 39.4638 34.2237 39.6839 34.2945C39.9234 34.3763 39.7481 34.4406 39.7073 34.4464ZM34.2686 27.6758C34.1576 27.6758 34.1751 27.74 34.1751 27.8218V28.33C34.1751 28.3477 34.1716 28.3652 34.1649 28.3815C34.1581 28.3978 34.1482 28.4126 34.1357 28.425C34.1233 28.4375 34.1084 28.4474 34.0921 28.4542C34.0758 28.4609 34.0584 28.4644 34.0407 28.4644C34.0238 28.4637 34.0073 28.4596 33.992 28.4524C33.9767 28.4453 33.9629 28.4352 33.9515 28.4227C33.9401 28.4102 33.9313 28.3956 33.9255 28.3797C33.9198 28.3638 33.9173 28.3469 33.9181 28.33V27.5414C33.9173 27.5248 33.9198 27.5082 33.9257 27.4927C33.9315 27.4771 33.9404 27.4629 33.9518 27.4509C33.9633 27.4388 33.9771 27.4293 33.9924 27.4228C34.0077 27.4162 34.0241 27.4129 34.0407 27.4129H36.8214C36.8555 27.4129 36.8882 27.4264 36.9123 27.4505C36.9364 27.4746 36.9499 27.5073 36.9499 27.5414C36.9507 27.5588 36.948 27.5761 36.9419 27.5924C36.9358 27.6087 36.9264 27.6235 36.9144 27.6361C36.9024 27.6486 36.888 27.6586 36.872 27.6655C36.856 27.6723 36.8388 27.6758 36.8214 27.6758H34.2686ZM36.4651 28.0204C36.4651 28.0628 36.4487 28.1036 36.4193 28.1341C36.3898 28.1646 36.3497 28.1825 36.3073 28.184H35.9685C35.9261 28.1825 35.886 28.1646 35.8566 28.1341C35.8272 28.1036 35.8108 28.0628 35.8108 28.0204C35.8108 27.9786 35.8274 27.9385 35.857 27.9089C35.8865 27.8793 35.9267 27.8627 35.9685 27.8627H36.3073C36.3299 27.8593 36.353 27.8609 36.3749 27.8673C36.3968 27.8737 36.4171 27.8848 36.4343 27.8998C36.4515 27.9148 36.4653 27.9333 36.4746 27.9541C36.484 27.975 36.4887 27.9976 36.4884 28.0204H36.4651ZM35.2208 28.0204C35.2193 28.0633 35.2016 28.1041 35.1712 28.1345C35.1409 28.1648 35.1001 28.1825 35.0572 28.184H34.7242C34.6808 28.184 34.6392 28.1668 34.6086 28.1361C34.5779 28.1054 34.5606 28.0638 34.5606 28.0204C34.5606 27.9992 34.5649 27.9782 34.5732 27.9587C34.5815 27.9392 34.5936 27.9215 34.6089 27.9068C34.6242 27.8921 34.6422 27.8806 34.662 27.873C34.6819 27.8654 34.703 27.8619 34.7242 27.8627H35.0572C35.0801 27.8594 35.1034 27.861 35.1256 27.8673C35.1478 27.8737 35.1684 27.8847 35.1861 27.8996C35.2038 27.9145 35.2181 27.933 35.2281 27.9538C35.2381 27.9746 35.2435 27.9973 35.2441 28.0204H35.2208ZM36.5001 25.0995C36.5197 25.0954 36.54 25.0957 36.5594 25.1003C36.5789 25.105 36.597 25.114 36.6126 25.1266C36.6281 25.1392 36.6407 25.1551 36.6493 25.1731C36.6579 25.1912 36.6624 25.211 36.6624 25.231C36.6624 25.251 36.6579 25.2708 36.6493 25.2888C36.6407 25.3069 36.6281 25.3228 36.6126 25.3354C36.597 25.348 36.5789 25.3569 36.5594 25.3616C36.54 25.3663 36.5197 25.3666 36.5001 25.3624H34.8702C34.7592 25.3624 34.7768 25.4267 34.7768 25.5085V26.0926C34.7768 26.11 34.7733 26.1272 34.7665 26.1432C34.7597 26.1592 34.7497 26.1736 34.7371 26.1857C34.7245 26.1977 34.7097 26.207 34.6934 26.2131C34.6771 26.2192 34.6598 26.222 34.6424 26.2212C34.6084 26.2212 34.5757 26.2076 34.5515 26.1835C34.5274 26.1594 34.5139 26.1267 34.5139 26.0926V25.2164C34.5131 25.199 34.5159 25.1817 34.522 25.1654C34.5281 25.1491 34.5374 25.1343 34.5494 25.1217C34.5614 25.1091 34.5759 25.0991 34.5918 25.0923C34.6078 25.0855 34.6251 25.082 34.6424 25.082L36.5001 25.0995ZM35.285 24.714V23.4113C35.285 23.3818 35.2967 23.3536 35.3175 23.3328C35.3384 23.312 35.3666 23.3003 35.396 23.3003C35.4255 23.3003 35.4537 23.312 35.4745 23.3328C35.4953 23.3536 35.507 23.3818 35.507 23.4113V24.714C35.507 24.7286 35.5041 24.743 35.4986 24.7565C35.493 24.7699 35.4848 24.7822 35.4745 24.7925C35.4642 24.8028 35.4519 24.8109 35.4385 24.8165C35.425 24.8221 35.4106 24.825 35.396 24.825C35.3814 24.825 35.367 24.8221 35.3535 24.8165C35.3401 24.8109 35.3278 24.8028 35.3175 24.7925C35.3072 24.7822 35.299 24.7699 35.2935 24.7565C35.2879 24.743 35.285 24.7286 35.285 24.714ZM42.523 20.4787C42.6924 20.5313 42.7684 20.7065 42.8618 20.8526C43.0896 21.2425 43.27 21.6583 43.3993 22.091C43.6929 23.2594 43.7248 24.4782 43.4927 25.6603C43.3107 26.3664 43.0211 27.0403 42.634 27.6582C42.2551 28.2686 41.7415 28.7841 41.1327 29.1654C41.1327 29.1654 41.0742 29.1654 41.045 29.1654C41.4189 28.1723 40.9866 26.7411 39.7715 26.6593C39.7715 26.6593 39.7715 26.6242 39.7715 26.6126C40.6711 25.5494 40.7179 24.0655 40.6303 22.7336C40.2099 22.1578 39.6594 21.6895 39.0238 21.3666V21.5594C38.9378 21.5233 38.8539 21.4823 38.7726 21.4367V21.2381C37.6919 20.3969 36.5994 19.8069 35.5304 19.0182V18.5451C35.9568 18.6327 36.5761 18.7904 37.0025 18.9072C38.9537 19.4505 40.6887 19.912 42.5464 20.5021L42.523 20.4787ZM38.7726 19.2285V17.9317L39.0238 18.0018V19.2928L38.7726 19.2285ZM39.5379 19.1C39.6051 18.9462 39.7048 18.8088 39.8299 18.6969C39.9293 18.5918 40.0402 18.3873 40.1454 18.4341C40.4897 18.5638 40.8038 18.7626 41.0684 19.0182C41.0684 19.0182 41.0684 19.1117 41.0684 19.1176C40.5671 19.1632 40.0628 19.1651 39.5612 19.1234L39.5379 19.1ZM41.8746 30.2812C41.8746 30.2812 41.8045 30.3864 41.7928 30.3805C40.8116 29.9065 39.9294 29.2503 39.1932 28.4469V27.8627C39.984 28.7881 40.8844 29.614 41.8746 30.3221V30.2812ZM36.6987 20.1106C37.4231 20.6189 38.054 21.0337 38.7784 21.5419C39.3005 21.8775 39.7947 22.2545 40.2564 22.6693C40.4509 23.4312 40.3808 24.2366 40.0577 24.9535C39.8256 25.7123 39.3818 26.3892 38.7784 26.9046C38.7784 26.9046 38.7258 26.9046 38.7317 26.9046C38.7781 26.7652 38.7852 26.6156 38.7522 26.4724C38.7192 26.3292 38.6475 26.1978 38.5447 26.0926C37.6334 25.0703 36.5235 24.1123 35.5421 23.2126V19.3337C35.84 19.5966 36.3599 19.8945 36.6987 20.134V20.1106ZM39.0354 27.0215V28.038C39.0354 28.0736 39.0213 28.1078 38.9961 28.133C38.9709 28.1582 38.9367 28.1723 38.9011 28.1723C38.8654 28.1723 38.8313 28.1582 38.8061 28.133C38.7809 28.1078 38.7667 28.0736 38.7667 28.038V27.0215C38.7667 26.9859 38.7809 26.9517 38.8061 26.9265C38.8313 26.9013 38.8654 26.8871 38.9011 26.8871C38.9367 26.8871 38.9709 26.9013 38.9961 26.9265C39.0213 26.9517 39.0354 26.9859 39.0354 27.0215ZM38.5856 27.8277C37.9454 27.1425 37.3503 26.4166 36.8039 25.6545V25.0995C37.0843 25.4793 37.9372 26.4957 38.5564 27.226L38.5856 27.8277ZM36.43 25.8239C36.4285 25.8663 36.4106 25.9064 36.3801 25.9358C36.3496 25.9652 36.3088 25.9817 36.2664 25.9817H35.9334C35.8911 25.9817 35.8503 25.9652 35.8198 25.9358C35.7893 25.9064 35.7714 25.8663 35.7699 25.8239C35.7714 25.781 35.7891 25.7402 35.8194 25.7099C35.8498 25.6795 35.8905 25.6618 35.9334 25.6603H36.2664C36.2907 25.6594 36.3149 25.6636 36.3374 25.6729C36.3599 25.6821 36.3802 25.696 36.3968 25.7138C36.4134 25.7315 36.4261 25.7526 36.4338 25.7756C36.4415 25.7987 36.4442 25.8231 36.4417 25.8473L36.43 25.8239ZM35.6122 25.8239C35.6122 25.8657 35.5955 25.9059 35.5659 25.9354C35.5364 25.965 35.4962 25.9817 35.4544 25.9817H35.1156C35.0738 25.9817 35.0337 25.965 35.0041 25.9354C34.9745 25.9059 34.9579 25.8657 34.9579 25.8239C34.9579 25.7815 34.9743 25.7408 35.0037 25.7103C35.0331 25.6798 35.0733 25.6619 35.1156 25.6603H35.4544C35.478 25.6601 35.5014 25.665 35.5229 25.6746C35.5445 25.6842 35.5637 25.6984 35.5792 25.7162C35.5947 25.734 35.6063 25.7549 35.613 25.7775C35.6197 25.8001 35.6214 25.8239 35.618 25.8473L35.6122 25.8239ZM36.6286 26.3029C36.6627 26.3029 36.6954 26.3165 36.7195 26.3406C36.7436 26.3647 36.7572 26.3974 36.7572 26.4315C36.7572 26.4655 36.7436 26.4982 36.7195 26.5223C36.6954 26.5464 36.6627 26.56 36.6286 26.56H34.5781C34.4613 26.56 34.4847 26.6301 34.4847 26.7119V27.2201C34.4847 27.2557 34.4705 27.2899 34.4453 27.3151C34.4201 27.3403 34.386 27.3545 34.3503 27.3545C34.333 27.3545 34.3157 27.351 34.2998 27.3442C34.2838 27.3373 34.2693 27.3273 34.2573 27.3148C34.2453 27.3022 34.236 27.2873 34.2299 27.2711C34.2238 27.2548 34.221 27.2375 34.2218 27.2201V26.4315C34.2218 26.4141 34.2253 26.3969 34.2321 26.3809C34.2389 26.3649 34.2489 26.3505 34.2615 26.3385C34.2741 26.3264 34.2889 26.3171 34.3052 26.311C34.3215 26.3049 34.3388 26.3022 34.3562 26.3029H36.6286ZM36.43 26.9572C36.4286 27.0001 36.4109 27.0409 36.3805 27.0713C36.3501 27.1016 36.3094 27.1193 36.2664 27.1208H35.9334C35.8905 27.1193 35.8498 27.1016 35.8194 27.0713C35.7891 27.0409 35.7714 27.0001 35.7699 26.9572C35.7714 26.9143 35.7891 26.8735 35.8194 26.8432C35.8498 26.8128 35.8905 26.7951 35.9334 26.7936H36.2664C36.2907 26.7927 36.3149 26.7969 36.3374 26.8062C36.3599 26.8154 36.3802 26.8293 36.3968 26.8471C36.4134 26.8648 36.4261 26.8859 36.4338 26.9089C36.4415 26.932 36.4442 26.9564 36.4417 26.9806L36.43 26.9572ZM35.4136 26.9572C35.4121 27.0001 35.3944 27.0409 35.364 27.0713C35.3337 27.1016 35.2929 27.1193 35.25 27.1208H34.917C34.8741 27.1193 34.8333 27.1016 34.803 27.0713C34.7726 27.0409 34.7549 27.0001 34.7534 26.9572C34.7549 26.9143 34.7726 26.8735 34.803 26.8432C34.8333 26.8128 34.8741 26.7951 34.917 26.7936H35.25C35.2743 26.7927 35.2985 26.7969 35.321 26.8062C35.3435 26.8154 35.3637 26.8293 35.3803 26.8471C35.3969 26.8648 35.4096 26.8859 35.4173 26.9089C35.425 26.932 35.4277 26.9564 35.4252 26.9806L35.4136 26.9572ZM36.9324 26.9572V26.3497C37.3939 26.9806 39.7423 29.9658 41.7928 30.6376C42.066 30.79 42.3737 30.87 42.6866 30.87C42.9994 30.87 43.3071 30.79 43.5804 30.6376L43.4577 31.1808C42.8826 31.3551 42.2659 31.3325 41.7051 31.1166C40.8756 30.9063 38.8427 29.6036 36.9441 26.9864L36.9324 26.9572ZM37.1193 27.4947C37.5808 28.1256 39.5846 30.6609 41.6409 31.3269C42.2165 31.5466 42.8529 31.5466 43.4285 31.3269L43.3116 31.8176C42.7346 31.982 42.1198 31.9554 41.5591 31.7416C40.7529 31.5255 39.0296 30.7427 37.131 28.1197L37.1193 27.4947ZM41.7928 31.987C42.3346 32.1133 42.8983 32.1133 43.4402 31.987C43.4402 31.987 43.8257 30.0417 43.8666 29.8255C43.9075 29.6094 43.9484 29.8255 43.9484 29.8255C43.9484 29.8255 43.5394 31.9695 43.5979 31.9461L43.4635 32.4952C42.9304 32.6705 42.3551 32.6705 41.822 32.4952C40.5368 32.2674 39.4152 31.1224 37.3881 30.4448V28.8324C37.8437 29.5159 40.1454 31.8059 41.7869 32.0162L41.7928 31.987ZM37.4231 30.9588C37.6015 31.3684 37.9296 31.6944 38.3403 31.8702C38.6323 31.9812 39.0354 31.5956 39.3275 31.7475C39.4327 31.8001 39.0588 31.9812 38.831 31.9928C38.5264 32.031 38.2172 31.9884 37.9343 31.8695C37.6513 31.7506 37.4045 31.5595 37.2186 31.3152C36.7922 30.585 36.4417 30.0534 35.9685 30.1819C35.729 30.252 35.7407 30.3455 35.6122 30.2987C35.4836 30.252 35.4895 30.0884 35.7232 29.9424C36.2022 29.6503 37.0025 29.662 37.4173 30.9881L37.4231 30.9588ZM39.8708 32.4719C39.7794 32.3613 39.6626 32.2743 39.5304 32.2184C39.3982 32.1625 39.2545 32.1392 39.1114 32.1506C39.0121 32.1506 38.9303 31.9753 39.4327 31.9227C40.1805 31.8526 40.6712 32.5712 41.1385 32.6822C41.8395 32.8574 41.6935 33.1378 41.5766 33.0794C41.3132 32.9656 41.0266 32.9158 40.7403 32.9341C40.454 32.9524 40.176 33.0382 39.9292 33.1846C39.7551 33.2557 39.5601 33.2557 39.386 33.1846C38.8602 33.0619 38.4221 32.7873 37.8846 32.6705C37.5984 32.6121 37.3472 32.8516 37.0668 32.7114C36.8506 32.3317 37.8087 32.466 37.8087 32.466C38.2877 32.6062 38.7959 32.5829 39.2925 32.6997C39.4716 32.7377 39.6567 32.7377 39.8358 32.6997C39.8883 32.7114 39.976 32.6588 39.865 32.5011L39.8708 32.4719ZM44.2229 34.645C43.0195 35.1182 40.4842 34.8027 40.2681 34.645C39.9293 34.4113 41.968 34.4931 41.968 34.4931C42.6994 34.6421 43.4521 34.654 44.1879 34.5282C44.2405 34.5574 44.2346 34.6684 44.2171 34.6742L44.2229 34.645ZM44.5851 34.3179C43.2568 34.4163 41.9219 34.3791 40.6011 34.2069C40.2389 34.1485 39.4327 34.0316 39.8124 33.8681C40.3323 33.6344 40.6595 33.9265 41.1969 33.7278C41.4738 33.5955 41.7635 33.4918 42.0615 33.4182C42.6982 33.4173 43.3284 33.5466 43.9133 33.798C44.3807 33.9382 44.7838 33.798 45.2628 33.9791C45.549 34.1309 45.6776 34.2069 44.5793 34.3471L44.5851 34.3179ZM48.984 32.7815C48.6043 32.7815 48.3472 32.5887 47.9909 32.6004C47.8602 32.6164 47.7388 32.6761 47.6463 32.7698C47.5411 32.875 47.7397 32.8925 47.7689 32.9801C47.7869 33.0464 47.7824 33.1169 47.7559 33.1804C47.7295 33.2438 47.6827 33.2967 47.6229 33.3306C47.0036 33.722 46.3377 33.4533 44.9766 32.7873C44.5735 32.5887 43.89 32.9743 43.7381 33.0152C43.411 33.1028 43.4635 32.8399 43.5745 32.7932C43.6864 32.7041 43.8191 32.645 43.9602 32.6215C44.1013 32.598 44.246 32.6108 44.3807 32.6588C44.626 32.7289 44.7604 32.3959 45.1109 32.5361C45.8645 32.8282 46.6648 33.243 47.4476 32.91C47.6346 32.8341 47.4476 32.8282 47.4476 32.6705C47.5002 32.4018 47.6579 32.244 48.0318 32.2382C48.2538 32.2382 48.5225 32.4719 48.7445 32.5186C48.9665 32.5653 49.1418 32.3433 49.2527 32.4894C49.3637 32.6354 49.1885 32.799 48.9782 32.8107L48.984 32.7815ZM48.3998 22.0267C48.3998 22.2371 48.2129 22.3539 48.1661 22.5584C48.1516 22.6387 48.1153 22.7135 48.061 22.7745C47.7981 23.0023 47.6638 23.2944 47.4067 23.5164C47.3862 23.5361 47.3603 23.5494 47.3322 23.5546C47.3042 23.5598 47.2753 23.5567 47.249 23.5456C47.1377 23.4618 47.0601 23.3409 47.0301 23.2049C47.0001 23.0689 47.0198 22.9266 47.0854 22.8037C47.3703 22.3983 47.7083 22.0328 48.0902 21.7171C48.1486 21.6646 48.1895 21.5711 48.2479 21.5068C48.3064 21.4426 48.3648 21.5068 48.394 21.5068C48.4232 21.5068 48.394 21.7171 48.3648 21.8281C48.3356 21.9391 48.3881 21.9917 48.3881 22.056L48.3998 22.0267ZM50.6957 20.8233C50.6139 21.0395 50.3568 21.1154 50.2108 21.279C50.1924 21.312 50.1827 21.3492 50.1827 21.3871C50.1827 21.4249 50.1924 21.4621 50.2108 21.4952C50.5413 21.5173 50.8732 21.4957 51.198 21.4309C51.198 21.3608 51.198 21.2732 51.1571 21.2323C50.8767 20.8526 51.0754 20.3502 51.0169 19.9354C50.9781 19.6226 50.8214 19.3364 50.5788 19.1351C50.2517 18.9131 49.7434 19.1351 49.3404 19.0241C49.0483 18.9306 49.3404 18.5743 49.539 18.4866C49.9625 18.3579 50.4089 18.322 50.8475 18.3815C51.017 18.3815 51.052 18.066 51.2506 18.031C51.4492 17.9959 51.5953 17.8849 51.7706 17.9258C51.9458 17.9667 51.7705 18.3756 51.9283 18.4341C52.5587 18.5683 53.2001 18.6446 53.8444 18.6619C53.932 18.6619 54.0547 18.7437 54.0138 18.8897C54.0138 18.9364 53.9729 18.9715 53.9378 18.9773C53.2952 19.1584 52.4774 18.8021 52.0159 19.4797C51.8849 19.6173 51.7711 19.7703 51.6771 19.9354C51.5953 20.1282 51.6128 20.3326 51.5077 20.5196C51.4025 20.7065 51.5077 20.8818 51.4668 21.0629C51.4259 21.244 51.2506 21.4075 51.3558 21.425C51.7825 21.4931 52.2152 21.5167 52.6468 21.4952C52.7695 21.4952 52.7695 21.2907 52.6877 21.2381C52.3489 21.0278 51.9925 20.6948 52.0743 20.3911C52.1561 20.0873 52.7344 19.4622 53.0733 19.6959C53.1492 19.7485 53.0732 19.8478 53.1258 19.9354C53.2559 20.1209 53.4281 20.2731 53.6282 20.3794C54.1832 20.6948 54.6564 21.1505 55.3223 21.168C55.3632 21.168 55.4509 21.2264 55.4509 21.2498C55.4498 21.3093 55.4349 21.3678 55.4075 21.4206C55.38 21.4734 55.3407 21.5192 55.2926 21.5543C55.2445 21.5893 55.1889 21.6128 55.1302 21.6228C55.0715 21.6329 55.0113 21.6291 54.9543 21.612C54.7096 21.558 54.4708 21.4797 54.2416 21.3783C53.9612 21.2498 53.8035 20.9402 53.4997 20.835C53.0148 21.7347 53.3712 22.7278 53.2777 23.6917C53.2718 23.7189 53.2602 23.7446 53.2436 23.7671C53.2271 23.7895 53.206 23.8083 53.1818 23.822C53.1576 23.8358 53.1306 23.8443 53.1029 23.847C53.0751 23.8497 53.0471 23.8465 53.0207 23.8377C52.6877 23.715 52.6994 23.3412 52.676 23.0257C51.8639 22.8139 51.017 22.7701 50.1874 22.8972C50.0531 22.8972 50.018 23.0724 49.9946 23.1659C49.9479 23.4288 49.9129 23.7968 49.6091 23.7501C49.5157 23.7253 49.4348 23.6668 49.382 23.5859C49.3291 23.505 49.3081 23.4074 49.3228 23.3119C49.6617 22.5058 49.907 21.5594 49.3696 20.8175C49.206 20.5897 48.838 20.911 48.5225 20.8759C48.4987 20.8747 48.4756 20.8678 48.4549 20.856C48.4343 20.8441 48.4167 20.8276 48.4036 20.8077C48.3906 20.7878 48.3823 20.7651 48.3797 20.7414C48.377 20.7177 48.3799 20.6938 48.3881 20.6715C48.4109 20.6031 48.4527 20.5426 48.5085 20.4971C48.5644 20.4516 48.6321 20.4229 48.7036 20.4144C49.3696 20.4144 49.7843 19.9412 50.3393 19.6784C50.3766 19.6537 50.4202 19.6406 50.4649 19.6406C50.5096 19.6406 50.5532 19.6537 50.5905 19.6784C50.6957 19.7835 50.5905 19.9471 50.5905 20.0347C50.7046 20.2914 50.7372 20.5768 50.684 20.8526L50.6957 20.8233ZM48.0493 18.8255C48.3064 18.8897 48.6861 19.1175 48.5517 19.4447C48.4699 19.6258 48.248 19.5557 48.0785 19.5323C47.6586 19.4536 47.2673 19.264 46.9452 18.9832C47.1061 18.8815 47.2878 18.8171 47.4769 18.7949C47.6659 18.7727 47.8575 18.7931 48.0376 18.8547L48.0493 18.8255ZM46.2968 20.7416C46.5015 20.569 46.7465 20.4512 47.0091 20.3991C47.2716 20.347 47.5431 20.3623 47.7981 20.4436C47.8682 20.4436 47.9325 20.5137 47.9266 20.5722C47.9266 20.724 47.7923 20.8058 47.6638 20.8701C47.5352 20.9343 47.3834 21.1505 47.2023 21.1563C46.9619 21.1816 46.7236 21.2246 46.4896 21.2848C46.4357 21.3023 46.3775 21.3002 46.3251 21.2788C46.2727 21.2574 46.2295 21.2182 46.2033 21.168C46.1712 21.1038 46.1596 21.0313 46.17 20.9602C46.1805 20.8892 46.2125 20.823 46.2617 20.7708L46.2968 20.7416ZM45.1284 28.441C45.3037 28.6163 45.6191 28.6922 45.6483 28.9376C45.71 29.4568 45.6238 29.9829 45.3995 30.4552C45.1752 30.9276 44.822 31.3269 44.3807 31.6073C44.2702 31.6908 44.1529 31.7651 44.0302 31.8293C44.0302 31.8293 43.9718 31.8293 43.9776 31.8293C44.3639 31.4209 44.6131 30.9022 44.6903 30.3455C44.8364 29.6269 44.6027 29.2881 44.5384 29.329C44.0583 29.6805 43.5363 29.9709 42.9845 30.1936C42.9319 30.1936 42.7976 30.2228 42.8092 30.1936C42.9626 29.8761 43.0233 29.5217 42.9845 29.1713C42.9378 28.996 42.6807 28.9376 42.7216 28.774C42.7625 28.6105 42.8735 28.6338 42.9494 28.552C43.4291 27.9882 43.7551 27.3101 43.8958 26.5834C44.103 25.7902 44.0746 24.9538 43.814 24.1765C43.7732 24.0889 43.7673 23.9312 43.814 23.9137C44.0763 23.9477 44.3288 24.0352 44.5559 24.1707C44.7495 24.2443 44.9193 24.3696 45.0467 24.5329C45.1393 24.6704 45.1955 24.8292 45.2102 24.9944C45.35 26.1517 45.3145 27.3235 45.1051 28.4702L45.1284 28.441ZM44.2697 18.1186C44.9118 19.3822 45.21 20.7925 45.1343 22.2078C45.1343 22.3422 45.1343 22.5175 45.0408 22.6401C44.9298 22.4298 44.9064 22.1903 44.813 21.9742C44.4648 21.1101 43.9597 20.3178 43.3233 19.6375C43.3233 19.6375 43.3233 19.433 43.3233 19.3162C43.4143 18.7553 43.3964 18.1821 43.2707 17.6279C43.4666 17.6081 43.6639 17.647 43.8376 17.7396C44.0113 17.8321 44.1535 17.9742 44.2463 18.1478L44.2697 18.1186ZM43.1013 18.7028C43.0856 19.1943 42.9426 19.6733 42.6866 20.0931C42.6782 20.1065 42.6656 20.1166 42.6508 20.1219C42.6359 20.1272 42.6197 20.1274 42.6048 20.1223C42.5183 19.8477 42.3772 19.5934 42.19 19.3746C41.9669 19.1189 41.6998 18.9053 41.4014 18.7437C40.8189 18.3727 40.1851 18.0893 39.5203 17.9025C38.9845 17.7215 38.4178 17.6499 37.8539 17.6921C37.2899 17.7342 36.7402 17.8892 36.2372 18.1478C36.2372 18.1478 36.1321 18.1478 36.1438 18.1478C36.2472 17.9508 36.3705 17.7648 36.5118 17.5928C36.7713 17.2141 36.9227 16.7718 36.9499 16.3135C36.9549 15.5389 36.7291 14.7804 36.3015 14.1345C36.6812 14.2338 37.1953 14.5025 37.5224 14.1345C37.6998 14.3845 37.9575 14.5659 38.2527 14.6486C38.395 14.6763 38.5419 14.6706 38.6818 14.6321C38.8216 14.5936 38.9507 14.5233 39.0588 14.4266C39.2633 14.596 39.4444 14.8005 39.754 14.7537C39.9526 14.7537 40.1279 14.485 40.2505 14.5785C40.4842 14.7537 40.677 15.0108 40.9749 15.0575C41.1983 15.0937 41.4272 15.0736 41.6409 14.9991C41.7752 14.9582 41.933 14.8005 41.9856 14.8589C42.4112 15.405 42.7247 16.0299 42.9081 16.6976C43.0916 17.3652 43.1414 18.0626 43.0546 18.7495L43.1013 18.7028ZM39.1348 11.5174C39.4777 11.5338 39.8128 11.6255 40.1162 11.7861C40.233 11.8504 40.268 11.9789 40.3849 12.0315C40.5981 12.1511 40.7945 12.2984 40.9691 12.4696C41.0505 12.5332 41.1181 12.6127 41.1677 12.7033C41.1677 12.7033 41.1677 12.7617 41.1677 12.7558C40.6928 12.6346 40.2028 12.5835 39.7131 12.604C39.528 12.6352 39.3447 12.6762 39.164 12.7266C39.164 12.7266 39.1114 12.6916 39.1172 12.6799C39.215 12.3129 39.2049 11.9255 39.088 11.5641L39.1348 11.5174ZM35.6297 13.6847L37.4874 13.9184L38.8836 13.1063L38.9595 11.3889H39.0354L39.0763 13.083L40.4083 14.2981L42.0206 14.5084V14.6194L35.5947 13.7957L35.6297 13.6847ZM35.4136 15.3963H35.4778L35.5129 16.4011C35.5479 16.3252 35.5128 16.1265 35.5654 16.0564C35.618 15.9863 35.4836 15.4723 35.5362 15.4723C35.8186 15.7147 36.0859 15.9742 36.3365 16.2492C36.4066 16.331 36.6345 16.588 36.5702 16.553C36.1555 16.3544 35.7173 16.5004 35.5187 16.4303L35.583 18.3581L35.3551 18.2646L35.4136 15.3963ZM35.3551 18.4574V18.9131C35.139 18.7028 34.7417 18.4224 34.5723 18.2354C34.8268 18.2977 35.0736 18.3878 35.3084 18.5042L35.3551 18.4574ZM32.4693 17.0554C33.2988 17.6396 33.9764 18.1829 34.7651 18.8079C34.9988 18.9832 35.1273 19.0416 35.3493 19.1993V22.9614C35.3493 22.9614 35.2441 22.9614 35.2383 22.9614C34.9579 22.3247 35.0981 21.6003 34.7359 20.9752C33.9706 19.6316 33.1411 18.4574 32.3992 17.1021C32.3349 17.0963 32.3992 17.0846 32.4226 17.1021L32.4693 17.0554ZM31.4937 28.7098C32.6036 27.9795 33.7895 28.8616 34.2686 29.8781C34.1611 29.5676 34.0363 29.2633 33.8947 28.9668C33.7603 28.6513 33.8596 28.5812 34.0057 28.4294H37.0376C37.0726 28.4278 37.1075 28.4332 37.1404 28.4454C37.1733 28.4575 37.2034 28.4761 37.229 28.5001C37.2545 28.524 37.2751 28.5528 37.2894 28.5848C37.3036 28.6168 37.3114 28.6514 37.3121 28.6864C37.3121 28.8383 37.1135 28.8967 37.0025 28.8967H34.7651C34.5723 28.8967 34.695 29.1304 34.7651 29.1304H35.7348C35.8575 29.1304 35.9451 29.2063 35.9334 29.2472C35.9218 29.2881 35.8634 29.3465 35.7407 29.3348C35.618 29.3231 35.0572 29.3348 34.7768 29.3348C34.6658 29.3348 34.6541 29.5568 34.7768 29.5568H35.472C35.5946 29.5568 35.6472 29.6036 35.6414 29.6444C35.6308 29.6788 35.6089 29.7086 35.5791 29.7288C35.5494 29.7489 35.5136 29.7584 35.4778 29.7554H34.7885C34.695 29.7554 34.7885 30.0767 34.7885 30.0767C34.8469 30.2482 34.8804 30.4273 34.8878 30.6083C34.8002 30.7719 34.5957 30.5266 34.4672 30.3396C34.8294 30.966 35.3723 31.4685 36.0248 31.7812C36.6773 32.0939 37.409 32.2023 38.1241 32.0922C38.3519 32.0454 38.3753 32.1798 38.1592 32.2732C36.7837 32.4417 35.3882 32.24 34.1167 31.6891C33.3806 31.2918 32.4927 31.4963 31.6865 31.6891C30.045 32.0863 29.157 32.8574 27.7199 32.5946C27.235 32.5069 26.1251 32.0863 26.6509 32.0746C28.1347 32.5128 28.8883 32.1097 30.0917 31.3269C31.5054 30.398 32.4284 31.4379 33.2112 30.4798C33.5617 30.0242 33.2112 29.6152 32.849 29.3699C32.4868 29.1245 31.9727 29.2005 31.8617 29.5919C31.78 29.8898 32.1772 30.176 32.4985 30.0417C32.6036 30.0008 32.5744 30.0943 32.5335 30.1644C32.4139 30.3159 32.2452 30.421 32.0565 30.4615C31.8677 30.502 31.6708 30.4754 31.4996 30.3863C31.3271 30.3235 31.1798 30.2063 31.0797 30.0525C30.9796 29.8987 30.9322 29.7165 30.9446 29.5334C30.969 29.3759 31.0263 29.2253 31.1129 29.0914C31.1994 28.9575 31.3133 28.8434 31.447 28.7565L31.4937 28.7098ZM30.4422 22.8037C30.2669 23.1309 30.0508 23.3879 29.858 23.715C29.7155 23.8833 29.5232 24.002 29.3089 24.0539C29.2271 24.0539 29.2037 24.1999 29.1219 24.1999C28.7707 24.2424 28.4148 24.2226 28.0704 24.1415C26.9021 23.7793 25.944 22.9381 24.6939 22.757C24.6238 22.757 24.5829 22.6635 24.5069 22.6518C24.4174 22.658 24.3277 22.658 24.2382 22.6518C24.0454 22.5876 24.1681 22.3364 24.2382 22.2137C24.3157 22.0887 24.43 21.9908 24.5654 21.9333C24.91 21.8807 25.0677 22.3539 25.4066 22.5175C26.4582 23.0238 27.6166 23.2683 28.7831 23.2302C29.0818 23.2469 29.3809 23.2038 29.6628 23.1035C29.9446 23.0032 30.2036 22.8476 30.4246 22.646C30.413 22.6109 30.448 22.7628 30.3954 22.8504L30.4422 22.8037ZM27.422 21.6938C27.5414 21.6629 27.6668 21.6627 27.7863 21.6934C27.9058 21.724 28.0156 21.7844 28.1055 21.869C28.1331 21.8932 28.1532 21.9246 28.1636 21.9598C28.1739 21.995 28.174 22.0324 28.1639 22.0676C28.1388 22.1337 28.0907 22.1885 28.0284 22.2217C27.9661 22.255 27.8939 22.2646 27.825 22.2487C27.7024 22.2195 27.6732 22.0735 27.5797 22.0384C27.3402 22.0092 27.2 21.8165 27.3753 21.7405L27.422 21.6938ZM22.842 18.8255C22.9121 18.5217 23.2802 18.399 23.5489 18.4107C23.9401 18.4512 24.3355 18.4235 24.7172 18.3289C24.8925 18.0836 24.8983 17.4819 25.3014 17.6746C25.5351 17.7915 25.3014 18.3114 25.4591 18.3406C25.7846 18.4013 26.117 18.4151 26.4464 18.3815C26.6216 18.3815 26.7852 17.9901 26.8027 17.7973C26.8378 17.3241 27.3869 17.3767 27.7374 17.3825C27.8718 17.8031 27.2409 17.92 27.1533 18.2822C27.1559 18.3277 27.1733 18.3711 27.2028 18.4059C27.2323 18.4407 27.2723 18.4649 27.3168 18.475C27.9653 18.5451 28.602 18.5567 29.2504 18.6268C29.2688 18.6321 29.2858 18.6411 29.3006 18.6532C29.3153 18.6653 29.3274 18.6803 29.3362 18.6972C29.3449 18.7142 29.3502 18.7328 29.3515 18.7518C29.3528 18.7708 29.3502 18.7899 29.3439 18.8079C29.3016 18.8873 29.2384 18.9537 29.1613 19C29.0841 19.0464 28.9958 19.0708 28.9058 19.0708C28.3216 19.1234 27.8075 18.9598 27.2467 18.9773C27.2 18.9773 27.1591 19.0299 27.1883 19.0533C27.4512 19.2636 27.7725 19.4038 27.8367 19.7368C27.901 20.0698 27.5096 20.0814 27.4979 20.321C27.4862 20.5605 27.9069 20.613 27.7783 20.9051C27.6959 21.0433 27.5858 21.163 27.4549 21.2567C27.324 21.3503 27.1753 21.4159 27.0178 21.4494C26.8604 21.4829 26.6978 21.4834 26.5402 21.4511C26.3825 21.4188 26.2333 21.3542 26.1017 21.2615C25.9966 21.2031 26.0258 21.0453 26.0083 20.946C25.9674 20.7007 26.3003 20.5137 26.2595 20.2917C26.2186 20.0698 26.0024 19.9997 26.0316 19.8244C26.0609 19.6491 26.388 19.4973 26.5515 19.287C26.6275 19.1876 26.6508 18.9773 26.5106 18.989C25.7863 19.0708 25.1203 18.8664 24.4193 18.954C24.0203 18.9633 23.6256 19.0383 23.251 19.176C23.0932 19.3162 22.731 19.1292 22.7953 18.8722L22.842 18.8255ZM22.7836 22.7687C22.9764 22.3773 23.4262 22.2896 23.7007 21.9625C23.7007 21.9625 23.8059 21.9625 23.8176 21.9625C23.8818 22.1728 23.7183 22.3364 23.6131 22.5175C23.4568 22.7127 23.3253 22.9266 23.2218 23.1542C23.2083 23.2019 23.1824 23.2451 23.1468 23.2795C23.1112 23.3139 23.0672 23.3383 23.0191 23.3502C22.9711 23.3621 22.9207 23.361 22.8731 23.3471C22.8256 23.3332 22.7826 23.307 22.7485 23.2711C22.5265 23.1659 22.6668 22.9673 22.7661 22.8154L22.7836 22.7687Z" fill="#95969B"/>
<path d="M24.9293 20.5949C24.8183 20.554 24.6722 20.6592 24.6255 20.7819C24.5788 20.9045 24.9176 21.0506 25.0052 20.9454C25.0253 20.9181 25.0393 20.8868 25.0463 20.8536C25.0534 20.8205 25.0533 20.7862 25.0462 20.7531C25.039 20.7199 25.0248 20.6887 25.0047 20.6614C24.9845 20.6342 24.9588 20.6115 24.9293 20.5949Z" fill="#95969B"/>
<path d="M76.6797 23.1482C75.7625 23.008 74.5007 23.5688 73.7588 23.9778C72.8742 24.3642 72.1399 25.0288 71.6674 25.8705C66.4858 34.4988 60.4746 37.3321 53.774 39.8265C52.7982 40.2047 51.789 40.4903 50.7597 40.6794C50.5844 40.6794 50.3157 40.7671 50.6604 40.6794C57.6296 38.5004 71.4513 32.3549 72.421 18.0542C72.6138 15.0924 71.8719 15.0749 71.3695 15.2034C70.4838 15.5008 69.6572 15.9516 68.9276 16.5353C67.6074 17.5343 66.848 18.9655 66.3397 20.7589C64.5346 27.109 60.6031 32.9157 53.0088 37.2328C52.2493 37.6651 52.6349 37.3671 52.9211 37.1685L53.5754 36.7304C60.8192 31.9868 64.7274 25.5375 65.7088 17.1312C66.0827 13.889 65.5102 9.95163 64.7566 8.70733C64.6865 8.5905 64.5638 8.40939 64.4937 8.2984C64.3733 8.17916 64.2224 8.09538 64.0575 8.05623C63.8927 8.01707 63.7202 8.02406 63.559 8.07643C62.2869 8.81195 61.1635 9.77881 60.2467 10.9272C59.8787 11.5114 58.944 12.709 59.2595 14.2045C60.5388 20.1981 58.2138 26.1801 53.9201 31.9343C51.8965 34.5665 49.2752 36.6791 46.2732 38.0974C43.8629 39.1982 41.244 39.768 38.5941 39.768C35.9443 39.768 33.3255 39.1982 30.9151 38.0974C27.9155 36.6753 25.295 34.5634 23.2682 31.9343C18.9745 26.1801 16.6437 20.1981 17.923 14.2045C18.2443 12.709 17.3096 11.4997 16.9474 10.9272C16.0293 9.78014 14.9061 8.81351 13.6351 8.07643C13.473 8.02423 13.2997 8.0173 13.134 8.05642C12.9682 8.09555 12.8163 8.17922 12.6946 8.2984C12.6245 8.40939 12.5018 8.5905 12.4317 8.70733C11.6781 9.95163 11.0998 13.889 11.4795 17.1312C12.4668 25.5375 16.3749 31.9868 23.6129 36.7304C23.8407 36.8764 24.1095 37.0634 24.2672 37.1685C24.5534 37.3671 24.9448 37.6651 24.1737 37.2328C16.5794 32.9157 12.6479 27.109 10.8544 20.7589C10.4865 19.1006 9.57328 17.6135 8.26068 16.5353C7.52821 15.9527 6.69995 15.502 5.81297 15.2034C5.31057 15.0749 4.56868 15.0924 4.7673 18.0542C5.72535 32.3374 19.547 38.5004 26.5338 40.6561C26.8785 40.7495 26.5981 40.6911 26.4287 40.6561C25.3995 40.4662 24.3903 40.1806 23.4143 39.8032C16.7079 37.3087 10.6967 34.4754 5.52088 25.8471C5.0467 25.0067 4.31294 24.3426 3.42954 23.9544C2.67595 23.5455 1.41413 22.9847 0.508651 23.1249C-0.192364 23.2358 0.0179234 24.3341 0.199019 24.8774C4.66798 37.6475 18.18 41.8478 29.1042 43.2381C29.3086 43.2381 29.3846 43.3491 27.7022 43.2031C24.0663 42.7664 20.4595 42.1149 16.9007 41.2519C16.2172 41.0767 14.71 40.51 13.4307 40.9189C12.4025 41.2519 11.351 41.8186 11.5613 42.9052C11.7015 43.6003 13.2321 44.2546 13.9798 44.5175C15.6622 45.1017 23.2274 46.1649 33.7309 45.9838C35.0252 47.2741 36.7782 47.9986 38.6058 47.9986C40.4334 47.9986 42.1865 47.2741 43.4808 45.9838C53.996 46.1649 61.5495 45.1017 63.2319 44.5175C63.9796 44.2546 65.516 43.6003 65.6504 42.9052C65.8607 41.8186 64.8092 41.2519 63.7868 40.9189C62.5016 40.51 60.9945 41.0767 60.3169 41.2519C56.7559 42.1142 53.1472 42.7657 49.5096 43.2031C47.8271 43.3491 47.9031 43.2615 48.1134 43.2381C59.0317 41.8478 72.5437 37.6475 77.0185 24.8774C77.1762 24.3575 77.3807 23.2592 76.6797 23.1482Z" fill="#95969B"/>
<path d="M51.3921 19.4087C51.4272 19.4087 51.4447 19.3152 51.5031 19.2918C51.5377 19.2801 51.5679 19.2582 51.5897 19.229C51.6116 19.1998 51.6242 19.1647 51.6258 19.1283C51.6258 18.9997 51.4622 19.0582 51.3863 19.0582C51.0007 19.0406 51.2461 19.3853 51.3921 19.4087Z" fill="#95969B"/>
<path d="M38.7874 14.1458L38.8283 13.2754L37.5957 13.9881L38.7874 14.1458Z" fill="#95969B"/>
<path d="M52.8211 20.9749C52.938 20.9749 52.9847 20.6945 53.1074 20.5777C53.1289 20.5635 53.1451 20.5427 53.1535 20.5184C53.162 20.4941 53.1622 20.4677 53.1541 20.4433C53.0899 20.3206 52.9029 20.2973 52.8445 20.268C52.7861 20.2388 52.6751 20.3615 52.6166 20.4725C52.5582 20.5835 52.5407 20.5251 52.5582 20.566C52.6459 20.7178 52.7393 20.9749 52.8211 20.9749Z" fill="#95969B"/>
<path d="M39.7063 12.136H39.4668V12.469H39.5602V12.2295H39.7063V12.469H40.0451V12.3755H39.7998L39.8056 12.2295H40.0451V11.8965H39.9516V12.136H39.8056H39.7998V11.8965H39.4609V11.99H39.7063V12.136Z" fill="#95969B"/>
<path d="M49.9048 20.6247C49.9048 20.7006 49.9749 20.835 50.0391 20.8116C50.1034 20.7882 50.1618 20.6948 50.2202 20.6071C50.2786 20.5195 50.3546 20.3851 50.267 20.3501C50.2246 20.3384 50.1801 20.3367 50.1369 20.345C50.0938 20.3533 50.0531 20.3714 50.0181 20.398C49.9831 20.4245 49.9546 20.4588 49.935 20.4981C49.9153 20.5374 49.905 20.5807 49.9048 20.6247Z" fill="#95969B"/>
<path d="M50.0452 22.5234C50.8631 22.3014 51.7277 22.5234 52.5572 22.4533C52.7091 22.4533 52.6623 22.0444 52.4696 22.0444C52.0221 21.9677 51.5677 21.9403 51.1143 21.9626C50.8164 22.0269 50.2847 22.0327 50.1445 22.097C50.0949 22.1548 50.0599 22.2238 50.0426 22.298C50.0253 22.3723 50.0262 22.4496 50.0452 22.5234Z" fill="#95969B"/>
<path d="M34.2184 29.9297C34.2169 29.955 34.2169 29.9803 34.2184 30.0056C34.2184 30.0056 34.2301 29.9531 34.2184 29.9297Z" fill="#95969B"/>
<path d="M34.2987 30.111C34.2987 30.1519 34.3454 30.187 34.3629 30.222C34.3221 30.1519 34.287 30.076 34.252 30.0059C34.2699 30.0398 34.2856 30.0749 34.2987 30.111Z" fill="#95969B"/>
<path d="M39.057 14.175L40.1845 14.321L39.0278 13.252L39.057 14.175Z" fill="#95969B"/>
<path d="M34.4027 30.3221C34.4173 30.3511 34.435 30.3785 34.4553 30.4038L34.3618 30.252C34.3618 30.252 34.3852 30.2695 34.4027 30.3221Z" fill="#95969B"/>
<path d="M35.679 16.2474H35.7725L35.7783 16.3993H35.9886V16.3409H35.8368V16.2474H35.9886V16.0312H35.9302V16.189H35.8368L35.8309 16.0312H35.6206V16.0897H35.7725V16.189H35.6206V16.3993H35.679V16.2474Z" fill="#95969B"/>
</g>
<path d="M122.77 27.64C119.57 27.8 117.57 27.8 116.73 27.72C115.89 27.64 115.49 27.4 115.57 26.92C115.17 25.88 114.53 24.96 113.73 24.2C112.85 23.48 111.97 22.88 111.05 22.44C110.13 22 109.13 21.12 108.09 19.88C107.01 18.64 105.89 17.8 104.69 17.24C104.53 17.24 104.45 17.24 104.41 17.24C104.37 17.36 104.29 17.48 104.25 17.56C102.45 20.04 100.81 22 99.3299 23.36C97.7299 24.76 97.0099 25.72 97.0899 26.12C97.0899 26.52 96.8499 26.96 96.4499 27.36C95.8499 27.68 95.1299 28.04 94.4099 28.48C93.6499 29 91.8099 29.36 88.9299 29.48C87.8899 29.48 87.7299 29.24 88.4899 28.84C89.4899 28.04 91.2899 26.96 93.8899 25.52C96.2899 23.64 98.1699 21.72 99.5699 19.76C100.93 17.8 102.17 16.04 103.41 14.4C104.57 12.76 105.29 11.6 105.45 11C105.53 10.44 106.05 10.64 107.05 11.48C107.97 12.4 108.29 12.92 107.97 13.16C107.53 13.4 106.97 14 106.25 14.84C106.41 15.2 106.81 15.6 107.37 16.04C108.13 16.76 109.09 17.44 110.17 18.04C111.17 18.68 112.09 19.4 112.93 20.16C113.81 20.96 114.73 21.68 115.81 22.36C116.81 23.2 118.17 24 119.93 24.68C121.65 25.4 122.73 25.96 123.09 26.24C123.89 26.68 124.21 27 124.13 27.2C123.97 27.44 123.49 27.6 122.77 27.64ZM106.21 40.68C101.53 41 97.8899 41.52 95.3299 42.28C94.9299 42.52 94.3699 42 93.7299 40.8C93.0099 39.56 93.4099 39.2 94.9699 39.6C97.3299 39.2 100.01 38.76 103.13 38.28C103.29 37.52 103.45 35.92 103.61 33.48C102.45 33.68 101.37 33.88 100.37 34.08C99.8099 34.36 99.4099 33.92 99.2499 32.8C99.0099 31.72 99.2099 31.16 99.8899 31.12C101.21 30.84 102.49 30.56 103.73 30.32C103.73 28.76 103.61 27.68 103.41 27C103.33 27 103.33 27 103.37 27C101.81 27.2 100.77 27.48 100.29 27.8C99.7299 28.2 99.3699 27.8 99.2099 26.52C98.8899 25.28 99.0099 24.68 99.4499 24.68C102.37 24.52 105.53 23.96 108.97 22.88C109.57 22.68 110.21 23.16 110.85 24.36C111.37 25.56 111.25 26.04 110.41 25.76C109.77 25.56 108.85 25.68 107.65 26.12C107.41 26.16 107.17 26.24 106.93 26.28C106.77 26.6 106.73 26.88 106.77 27.04C106.69 27.44 106.65 28.36 106.65 29.76C107.61 29.6 108.53 29.48 109.41 29.36C110.21 29.2 110.65 29.68 110.73 30.84C110.73 32 110.49 32.6 110.01 32.56C108.77 32.72 107.61 32.84 106.49 33C106.41 35.68 106.41 37.32 106.57 37.84C108.61 37.64 110.61 37.52 112.53 37.48C114.37 37.48 115.49 37.4 115.89 37.2C116.09 37.12 116.33 37.36 116.53 37.84C116.69 38.32 116.93 38.68 117.29 38.88C117.61 39.12 117.73 39.68 117.65 40.6C117.57 41.52 117.25 41.84 116.69 41.48C113.73 40.68 110.25 40.4 106.21 40.68ZM129.49 33.16C129.89 31.76 130.09 29.72 130.17 27.04C129.13 27.28 128.49 27.56 128.17 27.8C127.77 28.2 127.41 27.88 127.09 26.8C126.81 25.8 126.85 25.28 127.21 25.24C128.09 25.08 129.05 24.84 130.17 24.48C130.09 22.2 129.93 20.72 129.73 20.04C129.25 19.88 128.57 20 127.61 20.4C127.05 20.72 126.73 20.52 126.65 19.8C126.49 19.12 126.29 18.44 125.97 17.8C125.57 17.16 125.97 16.88 127.05 16.92C128.93 16.8 130.57 16.48 132.05 16C133.49 15.52 134.57 15.24 135.37 15.16C135.85 15.12 136.17 15.52 136.33 16.36C136.41 17.24 136.21 17.76 135.81 17.88C134.81 18.32 133.85 18.72 133.05 19.08C132.81 19.76 132.57 21.32 132.41 23.68C132.81 23.52 133.29 23.36 133.77 23.16C134.33 22.88 134.93 23.28 135.57 24.32C136.21 25.36 136.09 25.8 135.33 25.6C134.85 25.52 134.17 25.68 133.33 26.08C132.93 26.2 132.53 26.36 132.17 26.44C132.01 29.36 132.17 31.04 132.69 31.4C134.41 30.48 135.57 29.88 136.21 29.64C136.37 29.6 136.45 29.72 136.49 30.04C136.49 30.36 136.37 30.64 136.13 30.8C134.33 32.6 132.61 34.08 130.89 35.24C129.09 36.44 127.93 37.36 127.37 37.92C126.93 38.56 126.25 38.44 125.45 37.56C124.61 36.68 124.21 36.16 124.29 35.84C124.29 35.6 124.57 35.4 125.13 35.16C126.53 34.56 128.01 33.92 129.49 33.16ZM133.41 35.68C132.93 35.24 132.89 34.96 133.21 34.88C133.73 34.76 134.77 34.24 136.29 33.24C137.77 32.28 139.89 31.08 142.61 29.64C143.09 29.48 143.17 29.68 142.81 30.16C142.09 31.24 141.01 32.44 139.57 33.64C138.09 34.88 136.85 36.04 135.89 37.04C135.65 37.76 135.33 37.84 134.81 37.24C134.25 36.64 133.77 36.16 133.41 35.68ZM151.69 12.48C152.37 12.12 152.77 12.4 152.93 13.32C152.93 13.92 153.41 14.68 154.33 15.72C154.97 16.4 155.13 17 154.73 17.4C154.25 17.84 153.93 18.04 153.73 17.88C152.77 17.52 152.01 17.32 151.41 17.28C150.93 17.2 150.65 16.48 150.65 15.12C150.57 13.76 150.93 12.84 151.69 12.48ZM138.41 28.16C138.17 27.2 138.25 26.4 138.57 25.88C139.25 24.76 139.85 24.56 140.37 25.2C140.41 25.36 140.57 25.68 140.77 26.12C140.93 26.56 141.13 27 141.41 27.32C141.65 27.68 141.85 27.96 142.05 28.28C142.13 28.48 142.05 28.72 141.77 29C141.45 29.28 141.01 29.32 140.45 29.12C139.85 28.92 139.37 28.76 139.01 28.68C138.65 28.6 138.41 28.44 138.41 28.16ZM143.85 34.96C143.77 32.4 143.69 28.2 143.69 22.36C143.49 22.4 143.25 22.44 143.09 22.44C141.29 22.6 140.13 22.88 139.57 23.28C139.01 23.68 138.69 23.24 138.49 22C138.17 20.76 138.29 20.16 138.73 20.16C140.33 20.08 141.97 19.88 143.69 19.52C143.69 15.2 143.65 12.4 143.57 11.12C143.33 10.28 143.97 10.08 145.53 10.48C147.05 10.96 147.49 11.4 147.01 11.8C146.45 12.36 146.13 14.76 146.05 19.08C147.13 18.8 148.29 18.48 149.53 18.12C150.17 17.88 150.81 18.4 151.53 19.64C152.13 20.96 152.01 21.44 151.09 21.12C150.37 20.92 149.33 21.04 147.93 21.44C147.29 21.64 146.65 21.8 146.01 21.96C145.93 23.44 145.93 25.12 146.01 26.92C146.09 27.12 146.25 27.32 146.41 27.48C146.41 27.56 146.45 27.64 146.57 27.68C148.21 26.52 149.85 25.12 151.57 23.44C151.81 23.04 152.05 23.12 152.37 23.6C152.61 24.16 152.93 24.6 153.29 24.92C153.61 25.28 153.61 25.48 153.29 25.56C152.89 25.6 152.33 25.88 151.73 26.4C151.01 26.96 150.17 27.48 149.17 27.92C148.41 28.32 147.97 28.8 147.89 29.36C148.13 29.64 148.49 30 148.85 30.36C149.97 31.52 150.97 32.48 151.97 33.08C152.89 33.88 154.13 34.6 155.61 35.24C157.05 35.92 158.01 36.52 158.49 37.12C158.73 37.52 158.65 37.76 158.25 37.76C157.13 37.84 155.65 37.84 153.77 37.76C151.85 37.68 150.85 37.36 150.85 36.8C150.77 36.24 150.65 35.84 150.49 35.48C150.21 34.72 149.69 34.08 149.05 33.52C148.37 32.96 147.69 32.2 147.05 31.16C146.73 30.68 146.37 30.32 146.05 30.04C146.05 33.16 146.17 36.72 146.41 40.72C146.33 42.2 146.29 43.2 146.29 43.68C146.29 44.16 145.89 44.2 145.21 43.76C142.77 42.44 140.65 40.76 138.89 38.6C138.13 37.64 138.13 37.4 138.93 37.84C140.65 39.12 142.09 39.6 143.33 39.32C143.77 39.04 143.93 37.6 143.85 34.96ZM167.61 16.2C166.89 14.92 166.61 13.84 166.81 12.92C167.21 11.28 167.89 10.84 168.77 11.44C169.01 11.6 169.29 11.96 169.69 12.52C170.05 13.08 170.49 13.56 170.97 13.92C171.41 14.32 171.81 14.68 172.21 15.04C172.37 15.2 172.33 15.52 172.09 16C171.77 16.44 171.29 16.68 170.49 16.64C169.65 16.6 169.01 16.6 168.53 16.64C168.01 16.68 167.69 16.52 167.61 16.2ZM164.21 24.08C166.33 22.04 168.89 19.92 171.93 17.68C172.09 17.6 172.21 17.6 172.37 17.68C172.45 17.8 172.41 17.88 172.29 18.04C169.57 21.32 167.77 24.12 166.93 26.32C166.77 27.44 166.45 27.84 165.93 27.56C165.29 27.28 164.69 26.68 164.13 25.8C163.49 24.88 163.29 24.44 163.57 24.36C163.81 24.32 164.01 24.24 164.21 24.08ZM170.61 37.56C170.29 33.24 170.21 29.68 170.45 26.88C170.45 26.24 170.65 25.96 171.05 25.88C171.37 25.8 171.93 25.64 172.81 25.36C176.33 24.64 178.85 24.4 180.49 24.48C181.37 24.52 182.37 24.76 183.61 25.2C184.77 25.64 185.09 26.16 184.53 26.68C183.89 27.12 183.61 30.72 183.73 37.52C183.81 38.2 183.21 38.68 181.97 38.88C181.57 38.88 181.29 38.92 181.13 38.92C182.69 39.48 184.17 40.12 185.53 40.88C185.77 41 185.81 41.72 185.69 43.04C185.53 44.44 185.21 45.2 184.81 45.36C184.37 45.56 184.05 45.48 183.89 45.12C183.65 44.76 183.29 44.32 182.85 43.68C180.65 41.6 178.93 39.96 177.73 38.8C177.25 38.4 177.41 38.2 178.17 38.12C178.89 38.28 179.69 38.48 180.45 38.72C180.29 38.6 180.25 38.4 180.33 38.12C180.33 37.6 180.33 37.08 180.33 36.56C180.25 36.56 180.17 36.56 180.09 36.52C178.93 36.68 177.89 36.84 177.01 37C177.09 37.24 177.05 37.4 176.89 37.48C176.41 37.68 175.97 38.12 175.41 38.88C174.77 39.6 174.29 40.24 173.85 40.76C173.37 41.24 173.01 41.92 172.73 42.72C172.57 42.96 171.89 43.24 170.73 43.52C169.49 43.8 167.85 43.64 165.77 43C165.37 42.84 165.49 42.68 166.17 42.4C168.49 41.72 170.05 41.16 170.93 40.76C172.17 39.96 173.17 38.92 174.05 37.56C173.09 37.76 172.61 37.88 172.53 38C172.37 38.04 172.25 38.08 172.25 38.08C172.01 38.28 171.81 38.4 171.61 38.48C170.85 38.72 170.53 38.4 170.61 37.56ZM172.61 35.68C173.77 35.52 176.09 35.2 179.53 34.64C179.73 34.56 180.01 34.48 180.33 34.44C180.33 30.68 180.33 28.56 180.33 28.04C180.25 27.48 180.13 27.08 179.97 26.88C179.21 26.24 178.05 26.12 176.45 26.4C174.81 26.72 173.77 27.2 173.37 27.8C173.13 28 173.01 28.28 172.93 28.56C173.01 28.6 173.13 28.6 173.37 28.56C174.93 28.4 176.53 28.2 178.17 27.96C178.49 27.92 178.65 28.2 178.69 28.8C178.69 29.44 178.57 29.76 178.37 29.76C176.97 29.92 175.41 30.16 173.69 30.48C173.21 30.56 172.89 30.72 172.57 30.88C172.57 31.16 172.57 31.52 172.57 31.92C172.73 32.04 172.97 32.08 173.21 32C174.93 31.8 176.65 31.56 178.45 31.24C178.77 31.16 178.93 31.44 179.01 32.08C179.01 32.72 178.89 33.04 178.69 33.08C177.13 33.24 175.41 33.52 173.53 33.92C173.13 34 172.81 34.12 172.57 34.24C172.57 34.64 172.57 35.12 172.61 35.68ZM185.37 14.08C184.29 13.04 181.41 13.96 176.85 16.72C176.69 16.8 176.61 16.88 176.57 16.92C176.05 17.64 175.45 18.28 174.81 18.84C174.13 19.4 173.61 19.64 173.25 19.56C172.89 19.48 172.97 19.16 173.57 18.48C175.45 15.6 176.65 13.44 177.21 11.96C177.69 10.56 177.97 9.6 178.05 9.16C178.05 8.44 178.45 8.32 179.29 8.8C179.97 9.28 180.53 9.6 180.93 9.8C181.25 10.04 181.21 10.32 180.77 10.64C180.37 10.88 180.05 11.24 179.77 11.8C179.57 12.2 179.25 12.8 178.85 13.48C179.25 13.72 180.05 13.56 181.37 12.96C182.93 12.28 184.33 12.16 185.61 12.6C189.05 14.12 190.25 15.2 189.17 15.88C188.85 16 188.41 16.2 187.93 16.52C187.37 16.88 186.21 17.16 184.41 17.4C183.29 17.56 182.61 17.56 182.29 17.32C181.97 17.08 182.21 16.84 183.05 16.56C183.89 16.24 184.57 15.84 185.01 15.28C185.41 14.76 185.53 14.4 185.37 14.08ZM179.85 18.88C181.89 19.52 185.01 20.76 189.21 22.56C189.61 22.64 189.89 23.08 190.13 23.96C190.37 24.84 190.33 25.56 190.01 26.04C189.65 26.52 189.37 26.68 189.17 26.44C188.93 26.24 188.33 25.8 187.41 25C184.13 22.76 181.37 21.04 179.25 19.8C179.17 19.92 179.09 20.04 179.09 20.12C178.21 21.48 177.25 22.48 176.21 23.08C175.09 23.72 174.21 24.04 173.49 24C172.09 23.76 171.89 23.48 173.01 23.12C174.49 22.64 175.77 21.56 176.85 20C177.89 18.48 178.41 17.36 178.57 16.6C178.73 15.92 179.29 15.84 180.25 16.36C181.21 16.92 181.45 17.4 181.01 17.72C180.69 17.88 180.29 18.28 179.85 18.88ZM202.49 16.28C202.05 14.76 202.05 13.56 202.45 12.64C203.25 11.12 204.01 10.84 204.73 11.64C204.89 11.84 205.13 12.28 205.37 12.96C205.61 13.68 205.89 14.32 206.29 14.76C206.69 15.28 207.01 15.76 207.29 16.2C207.37 16.44 207.25 16.76 206.93 17.12C206.53 17.52 205.93 17.64 205.25 17.4C204.45 17.16 203.85 17 203.37 16.92C202.81 16.84 202.53 16.64 202.49 16.28ZM195.45 22.08C195.21 21.52 195.37 21.28 195.89 21.32C196.37 21.56 197.49 21.48 199.29 21.08C201.01 20.68 202.45 20.24 203.73 19.76C204.89 19.32 206.25 18.96 207.85 18.64C208.33 18.48 208.65 18.56 208.73 18.88C208.73 19.2 208.93 19.48 209.29 19.76C209.61 20.08 209.89 20.64 210.05 21.36C210.13 22.16 209.77 22.36 209.01 21.96C207.37 21.56 205.89 21.64 204.57 22.2C203.17 22.76 201.93 23.04 200.77 23.08C199.61 23.16 198.49 23.48 197.37 24C196.45 24.64 195.97 24.64 195.89 23.96C195.73 23.24 195.61 22.64 195.45 22.08ZM199.09 26.68C198.81 25.8 198.89 25.32 199.33 25.28C200.21 25.12 201.05 24.88 202.01 24.48C202.85 24.2 204.53 23.76 207.13 23.16C207.57 23 207.85 23.32 207.93 24.04C208.01 24.8 207.69 25.28 207.05 25.36C205.77 25.92 204.45 26.28 203.05 26.48C201.65 26.72 200.65 27.12 200.05 27.6C199.65 27.88 199.33 27.64 199.09 26.68ZM199.21 30.44C199.01 29.56 199.05 29.16 199.49 29.12C200.29 28.96 201.13 28.72 202.05 28.36C202.89 28.04 204.53 27.64 206.97 27.08C207.41 26.92 207.69 27.24 207.77 27.92C207.77 28.72 207.45 29.2 206.85 29.28C205.69 29.72 204.37 30.08 203.05 30.24C201.65 30.48 200.69 30.84 200.13 31.24C199.73 31.56 199.41 31.28 199.21 30.44ZM209.17 34.08C208.73 34.44 208.09 36.08 207.29 39.04C207.29 39.48 207.17 39.72 207.01 39.84C206.77 40 206.13 40.04 205.21 39.96C204.89 39.96 204.09 40.04 202.93 40.16C202.17 40.24 201.69 40.36 201.53 40.52C201.29 40.72 201.01 40.4 200.73 39.6C199.41 38 198.57 36.28 198.21 34.48C198.05 33.84 198.13 33.52 198.49 33.44C198.73 33.44 199.09 33.36 199.65 33.12C200.21 32.92 201.13 32.68 202.41 32.28C204.05 31.76 205.09 31.52 205.57 31.52C207.65 31.76 209.01 32.32 209.69 33.16C209.77 33.4 209.57 33.72 209.17 34.08ZM202.69 34.16C201.85 34.36 201.25 34.52 200.93 34.76C200.77 35.08 200.85 35.64 201.17 36.32C201.49 37.08 201.73 37.52 201.97 37.64C201.97 37.72 202.45 37.6 203.45 37.28C204.37 36.96 204.85 36.72 204.93 36.56C205.09 36.32 205.25 35.84 205.41 35.04C205.49 34.32 205.49 33.88 205.45 33.76C205.13 33.6 204.73 33.6 204.29 33.72C203.77 33.88 203.25 34.04 202.69 34.16ZM220.21 34.4C219.41 31.84 219.33 27.28 219.93 20.64C220.17 19.08 219.61 18.16 218.29 17.88C217.81 17.68 216.85 17.96 215.37 18.84C214.49 19.28 213.85 19.64 213.37 19.96C213.37 19.96 213.41 19.96 213.49 19.96C214.41 19.92 215.21 20.12 215.85 20.6C216.25 20.84 216.33 21.12 216.17 21.4C215.93 21.72 215.81 22.6 215.81 23.92C215.73 24.28 215.69 24.6 215.69 24.96C215.77 24.96 215.93 24.92 216.17 24.84C217.57 24.24 218.37 24.12 218.45 24.44C218.45 24.76 218.53 25.24 218.65 25.84C218.73 26.44 218.41 26.92 217.69 27.16C217.01 27.48 216.29 27.8 215.53 28.04C215.37 29.68 215.33 31.24 215.33 32.72C215.25 35.36 215.29 37.8 215.41 39.96C215.57 41.4 214.93 41.8 213.61 41.16C212.05 40.64 211.57 40.16 212.21 39.76C212.65 39.52 212.97 38.84 213.13 37.64C213.21 35.6 213.33 32.76 213.41 29.04C213.41 28.92 213.41 28.8 213.41 28.72C212.01 29.16 211.13 29.52 210.89 29.88C210.69 30.28 210.25 29.88 209.69 28.72C209.05 27.56 208.97 27 209.33 27.04C209.49 27.04 210.81 26.6 213.41 25.76C213.33 23.64 213.29 22.04 213.21 20.88C213.05 20.48 213.05 20.2 213.25 20.04C212.69 20.36 212.37 20.64 212.13 20.84C211.65 21.12 211.09 20.8 210.53 19.68C209.89 18.64 210.01 18.08 210.81 18.08C213.09 17.36 215.37 16.52 217.61 15.6C219.81 14.68 221.45 14.44 222.49 14.8C224.93 15.44 225.69 16.24 224.65 17.24C222.93 19.2 222.01 22.32 221.85 26.56C221.61 30.84 222.25 34.16 223.77 36.56C224.93 38.04 226.17 38.48 227.49 37.84C228.29 36.4 228.37 33.32 227.69 28.56C227.53 27.8 227.73 27.8 228.29 28.52C230.25 32.36 231.17 36.72 231.17 41.56C231.17 42.36 230.45 42.6 228.89 42.24C225.73 41.32 223.61 40.16 222.45 38.68C221.29 37.28 220.53 35.88 220.21 34.4Z" fill="#1B2D58"/>
<defs>
<clipPath id="clip0_4394_1359">
<rect width="77.17" height="39.9987" fill="white" transform="translate(0 8)"/>
</clipPath>
</defs>
</svg>
