<svg width="114" height="45" viewBox="0 0 114 45" fill="none" xmlns="http://www.w3.org/2000/svg">
<g clip-path="url(#clip0_10374_14795)">
<path d="M16.4316 15.8409C18.5827 17.992 21.1989 19.1294 23.9932 19.1294C31.602 19.1294 35.7515 10.8556 35.7515 6.60068C35.7915 5.25987 35.5263 4.26789 35.0248 3.94087C33.1681 2.54556 28.9204 1.08849 23.9823 1.17933C19.3676 1.09213 15.0218 2.55283 12.9361 3.94451C12.4565 4.2679 12.2094 5.25987 12.2276 6.60068C12.2385 9.03883 13.5502 12.9631 16.4316 15.8409Z" fill="white"/>
<path d="M16.7938 8.23926C16.7466 8.23926 16.7102 8.29013 16.6557 8.30466C16.6012 8.31919 16.5104 8.36279 16.5249 8.39186C16.5867 8.4827 16.7248 8.45 16.8193 8.39186C16.9137 8.33373 16.8665 8.25016 16.7938 8.23926Z" fill="#95969B"/>
<path d="M16.773 7.86103C16.822 7.84636 16.8695 7.82688 16.9147 7.80289C16.9303 7.79052 16.9425 7.77446 16.9504 7.75616C16.9582 7.73786 16.9614 7.71789 16.9596 7.69805C16.9578 7.67822 16.9511 7.65915 16.9401 7.64257C16.929 7.62598 16.9141 7.6124 16.8965 7.60304C16.773 7.57761 16.6603 7.70115 16.5331 7.71932C16.5695 7.80653 16.6712 7.90463 16.773 7.86103Z" fill="#95969B"/>
<path d="M23.9917 19.8451C32.0184 19.8233 36.5822 11.3824 36.5895 6.45158C36.5895 6.36438 36.5895 6.27354 36.5895 6.1827C36.5895 4.8528 36.3242 3.82811 35.692 3.38481C33.53 1.76786 29.0824 0.376192 24.4278 0.372559H23.5666C18.9083 0.372559 14.5371 1.72789 12.3024 3.39209C11.7029 3.85356 11.4194 4.84553 11.4122 6.18634C11.4122 6.27354 11.4122 6.36438 11.4122 6.45522C11.4049 11.3824 15.976 19.8233 23.9917 19.8451ZM12.5023 3.69367C14.6461 2.09852 18.9737 0.746812 23.5557 0.750446H24.4169C29.0061 0.750446 33.4173 2.14212 35.4812 3.69367C35.9209 3.96983 36.2261 4.90003 36.2079 6.1827C36.2079 6.2699 36.2079 6.35711 36.2079 6.44432C36.2079 8.81707 35.0888 12.0946 32.9958 14.7544C30.9029 17.4142 27.8543 19.4781 23.9845 19.4781C20.1147 19.4781 17.0806 17.4287 14.9768 14.7544C12.8729 12.08 11.761 8.81706 11.7646 6.45158C11.7646 6.35711 11.7646 6.26991 11.7646 6.18634C11.761 4.9073 12.0771 3.9989 12.5023 3.69367Z" fill="#95969B"/>
<path d="M15.5594 7.65425C15.4322 7.53434 15.196 7.65425 15.1342 7.77053C15.0725 7.88681 15.2832 7.90135 15.3922 7.87954C15.5012 7.85774 15.6684 7.75599 15.5594 7.65425Z" fill="#95969B"/>
<path d="M16.4316 15.8409C18.5827 17.992 21.1989 19.1294 23.9932 19.1294C31.602 19.1294 35.7515 10.8556 35.7515 6.60068C35.7915 5.25987 35.5263 4.26789 35.0248 3.94087C33.1681 2.54556 28.9204 1.08849 23.9823 1.17933C19.3676 1.09213 15.0218 2.55283 12.9361 3.94451C12.4565 4.2679 12.2094 5.25987 12.2276 6.60068C12.2385 9.03883 13.5502 12.9631 16.4316 15.8409ZM15.0945 8.07956C14.931 7.99598 14.6948 7.81067 14.8183 7.65442C14.8983 7.55268 15.1163 7.59992 15.2398 7.48001C15.2834 7.43641 15.327 7.3492 15.3888 7.38917C15.4506 7.42914 15.6068 7.38917 15.6904 7.45458C15.774 7.51998 16.0029 7.60719 16.0029 7.76343C16.0029 7.91968 15.7812 7.96328 15.7522 8.08682C15.7231 8.21036 15.952 8.25397 16.0283 8.37388C16.1046 8.49379 15.9229 8.6791 15.7776 8.73724C15.6366 8.79653 15.4824 8.81766 15.3306 8.79853C15.1788 8.77939 15.0347 8.72067 14.9128 8.62824C14.7021 8.44292 14.8874 8.16676 15.0945 8.07956ZM16.1337 8.948C16.1808 8.94133 16.2288 8.94842 16.272 8.9684C16.3152 8.98838 16.3517 9.02041 16.3771 9.06064C16.4171 9.15511 16.4607 9.31862 16.3771 9.37312C16.2936 9.42763 16.0537 9.37312 16.0647 9.21324C16.0574 9.11514 16.0538 8.96253 16.1337 8.94436V8.948ZM16.2318 15.0561C16.1707 15.0269 16.1209 14.9783 16.0901 14.918C16.0901 14.8926 16.0901 14.8635 16.1155 14.8708C16.8099 15.0018 17.5252 14.9695 18.2049 14.7763C18.2739 14.7509 18.3357 14.7981 18.2267 14.8853C18.0097 15.037 17.7613 15.1376 17.4999 15.1796C17.075 15.2824 16.6278 15.2376 16.2318 15.0525V15.0561ZM19.2005 15.9863C18.8843 15.8737 18.917 15.8155 18.9752 15.801C19.245 15.7896 19.5136 15.7568 19.7782 15.7029C20.0747 15.544 20.3895 15.422 20.7157 15.3395C20.9413 15.3028 21.1727 15.332 21.3822 15.4235C21.5916 15.515 21.7702 15.665 21.8966 15.8555C21.9475 15.9463 21.6459 15.8555 21.5332 15.8373C21.0722 15.814 20.6117 15.8934 20.1852 16.0699C19.8563 16.1503 19.5101 16.1196 19.2005 15.9827V15.9863ZM24.6981 16.822C23.717 17.0146 22.9322 16.4587 21.9983 16.2879C21.7825 16.2587 21.5638 16.2587 21.3479 16.2879C20.9846 16.3097 20.6612 16.5059 20.2797 16.4768C20.1634 16.4768 20.2797 16.4151 20.2797 16.4114C20.6437 16.2517 21.0205 16.1229 21.4061 16.0263C21.7387 15.9518 22.0836 15.9518 22.4162 16.0263C22.6908 16.0852 22.9528 16.1922 23.1902 16.3424C23.3028 16.4151 23.4409 16.5095 23.5535 16.4514C23.6189 16.4151 23.6771 16.3606 23.7534 16.386C23.9314 16.4514 23.8515 16.5168 24.2657 16.6222C24.4071 16.6483 24.5467 16.6835 24.6836 16.7275C24.8326 16.7784 24.7235 16.8184 24.6981 16.822ZM21.3152 12.6107C21.2462 12.6107 21.2571 12.6506 21.2571 12.7015V13.0176C21.2571 13.0286 21.2549 13.0395 21.2507 13.0496C21.2465 13.0598 21.2404 13.069 21.2326 13.0767C21.2248 13.0845 21.2156 13.0906 21.2055 13.0948C21.1953 13.099 21.1845 13.1012 21.1735 13.1012C21.163 13.1007 21.1527 13.0982 21.1432 13.0938C21.1337 13.0893 21.1251 13.083 21.118 13.0753C21.1109 13.0675 21.1054 13.0584 21.1019 13.0485C21.0983 13.0386 21.0967 13.0281 21.0972 13.0176V12.5271C21.0967 12.5168 21.0983 12.5065 21.1019 12.4968C21.1056 12.4871 21.1111 12.4782 21.1182 12.4708C21.1254 12.4633 21.134 12.4574 21.1435 12.4533C21.153 12.4492 21.1632 12.4471 21.1735 12.4472H22.9031C22.9243 12.4472 22.9446 12.4556 22.9596 12.4706C22.9746 12.4856 22.9831 12.5059 22.9831 12.5271C22.9836 12.5379 22.9818 12.5487 22.978 12.5588C22.9742 12.5689 22.9684 12.5782 22.961 12.586C22.9535 12.5938 22.9445 12.6 22.9346 12.6043C22.9246 12.6085 22.9139 12.6107 22.9031 12.6107H21.3152ZM22.6815 12.8251C22.6815 12.8514 22.6713 12.8768 22.653 12.8957C22.6347 12.9147 22.6097 12.9259 22.5833 12.9268H22.3726C22.3462 12.9259 22.3213 12.9147 22.303 12.8957C22.2847 12.8768 22.2745 12.8514 22.2745 12.8251C22.2745 12.799 22.2848 12.7741 22.3032 12.7557C22.3216 12.7373 22.3466 12.7269 22.3726 12.7269H22.5833C22.5974 12.7248 22.6117 12.7258 22.6254 12.7298C22.639 12.7338 22.6516 12.7407 22.6623 12.75C22.673 12.7593 22.6816 12.7709 22.6874 12.7838C22.6932 12.7968 22.6961 12.8109 22.696 12.8251H22.6815ZM21.9075 12.8251C21.9066 12.8517 21.8956 12.8771 21.8767 12.896C21.8578 12.9149 21.8324 12.9259 21.8058 12.9268H21.5986C21.5716 12.9268 21.5458 12.9161 21.5267 12.897C21.5076 12.8779 21.4969 12.852 21.4969 12.8251C21.4969 12.8119 21.4996 12.7988 21.5047 12.7867C21.5099 12.7745 21.5174 12.7635 21.5269 12.7544C21.5364 12.7452 21.5477 12.7381 21.56 12.7333C21.5723 12.7286 21.5854 12.7265 21.5986 12.7269H21.8058C21.82 12.7249 21.8345 12.7259 21.8483 12.7298C21.8621 12.7338 21.875 12.7406 21.8859 12.7499C21.8969 12.7592 21.9058 12.7706 21.912 12.7836C21.9183 12.7966 21.9217 12.8107 21.922 12.8251H21.9075ZM22.7033 11.0082C22.7154 11.0057 22.728 11.0058 22.7401 11.0087C22.7522 11.0117 22.7635 11.0172 22.7732 11.0251C22.7829 11.0329 22.7907 11.0428 22.796 11.054C22.8014 11.0653 22.8042 11.0776 22.8042 11.09C22.8042 11.1025 22.8014 11.1147 22.796 11.126C22.7907 11.1372 22.7829 11.1471 22.7732 11.1549C22.7635 11.1628 22.7522 11.1684 22.7401 11.1713C22.728 11.1742 22.7154 11.1743 22.7033 11.1718H21.6895C21.6204 11.1718 21.6313 11.2117 21.6313 11.2626V11.626C21.6314 11.6368 21.6292 11.6475 21.6249 11.6574C21.6207 11.6674 21.6145 11.6763 21.6067 11.6838C21.5988 11.6913 21.5896 11.6971 21.5795 11.7009C21.5693 11.7047 21.5586 11.7064 21.5478 11.7059C21.5266 11.7059 21.5062 11.6975 21.4912 11.6825C21.4763 11.6675 21.4678 11.6472 21.4678 11.626V11.0809C21.4673 11.0701 21.469 11.0593 21.4728 11.0492C21.4766 11.0391 21.4824 11.0298 21.4899 11.022C21.4974 11.0142 21.5064 11.008 21.5163 11.0038C21.5263 10.9995 21.537 10.9973 21.5478 10.9973L22.7033 11.0082ZM21.9475 10.7684V9.95814C21.9475 9.93983 21.9547 9.92226 21.9677 9.90932C21.9806 9.89637 21.9982 9.8891 22.0165 9.8891C22.0348 9.8891 22.0524 9.89637 22.0653 9.90932C22.0783 9.92226 22.0855 9.93983 22.0855 9.95814V10.7684C22.0855 10.7775 22.0838 10.7865 22.0803 10.7949C22.0768 10.8032 22.0717 10.8108 22.0653 10.8173C22.0589 10.8237 22.0513 10.8287 22.0429 10.8322C22.0345 10.8357 22.0256 10.8375 22.0165 10.8375C22.0074 10.8375 21.9985 10.8357 21.9901 10.8322C21.9817 10.8287 21.9741 10.8237 21.9677 10.8173C21.9613 10.8108 21.9562 10.8032 21.9527 10.7949C21.9493 10.7865 21.9475 10.7775 21.9475 10.7684ZM26.4495 8.13406C26.5549 8.16676 26.6021 8.27578 26.6603 8.36662C26.8019 8.60918 26.9142 8.86778 26.9946 9.13694C27.1772 9.86367 27.1971 10.6218 27.0527 11.3571C26.9395 11.7963 26.7593 12.2154 26.5186 12.5998C26.2829 12.9794 25.9634 13.3001 25.5847 13.5372C25.5847 13.5372 25.5484 13.5372 25.5302 13.5372C25.7628 12.9195 25.4939 12.0293 24.7381 11.9784C24.7381 11.9784 24.7381 11.9566 24.7381 11.9494C25.2977 11.288 25.3267 10.3651 25.2722 9.53664C25.0107 9.1785 24.6684 8.88717 24.273 8.68638V8.80628C24.2195 8.7838 24.1674 8.75833 24.1167 8.72998V8.60644C23.4445 8.0832 22.765 7.71619 22.1001 7.22566V6.93133C22.3653 6.98584 22.7505 7.08394 23.0157 7.15662C24.2294 7.49454 25.3086 7.7816 26.464 8.1486L26.4495 8.13406ZM24.1167 7.35647V6.54981L24.273 6.59341V7.39644L24.1167 7.35647ZM24.5927 7.27653C24.6346 7.18088 24.6966 7.09536 24.7744 7.02581C24.8362 6.96041 24.9052 6.83323 24.9706 6.8623C25.1848 6.94302 25.3801 7.06667 25.5447 7.22566C25.5447 7.22566 25.5447 7.2838 25.5447 7.28743C25.233 7.31582 24.9193 7.31703 24.6073 7.29106L24.5927 7.27653ZM26.0462 14.2313C26.0462 14.2313 26.0026 14.2967 25.9953 14.293C25.385 13.9982 24.8363 13.5901 24.3784 13.0903V12.7269C24.8702 13.3026 25.4303 13.8163 26.0462 14.2567V14.2313ZM22.8268 7.90514C23.2774 8.22126 23.6698 8.47926 24.1204 8.79538C24.4451 9.00414 24.7525 9.23865 25.0397 9.49666C25.1607 9.97056 25.1171 10.4715 24.9161 10.9174C24.7717 11.3894 24.4957 11.8104 24.1204 12.131C24.1204 12.131 24.0877 12.131 24.0913 12.131C24.1202 12.0443 24.1246 11.9513 24.1041 11.8622C24.0836 11.7731 24.0389 11.6914 23.975 11.626C23.4082 10.9901 22.7178 10.3942 22.1073 9.83459V7.42187C22.2927 7.58539 22.616 7.7707 22.8268 7.91968V7.90514ZM24.2802 12.2037V12.836C24.2802 12.8581 24.2714 12.8794 24.2558 12.895C24.2401 12.9107 24.2188 12.9195 24.1967 12.9195C24.1745 12.9195 24.1532 12.9107 24.1376 12.895C24.1219 12.8794 24.1131 12.8581 24.1131 12.836V12.2037C24.1131 12.1815 24.1219 12.1603 24.1376 12.1446C24.1532 12.1289 24.1745 12.1201 24.1967 12.1201C24.2188 12.1201 24.2401 12.1289 24.2558 12.1446C24.2714 12.1603 24.2802 12.1815 24.2802 12.2037ZM24.0005 12.7051C23.6023 12.279 23.2321 11.8275 22.8922 11.3534V11.0082C23.0666 11.2444 23.5971 11.8767 23.9823 12.3309L24.0005 12.7051ZM22.6597 11.4588C22.6587 11.4852 22.6476 11.5101 22.6286 11.5284C22.6096 11.5467 22.5843 11.5569 22.5579 11.5569H22.3508C22.3244 11.5569 22.2991 11.5467 22.2801 11.5284C22.2611 11.5101 22.25 11.4852 22.2491 11.4588C22.25 11.4321 22.261 11.4068 22.2799 11.3879C22.2988 11.369 22.3241 11.358 22.3508 11.3571H22.5579C22.573 11.3565 22.5881 11.3591 22.6021 11.3649C22.6161 11.3706 22.6287 11.3793 22.639 11.3903C22.6493 11.4013 22.6572 11.4145 22.662 11.4288C22.6668 11.4431 22.6685 11.4583 22.6669 11.4733L22.6597 11.4588ZM22.1509 11.4588C22.1509 11.4848 22.1406 11.5098 22.1222 11.5282C22.1038 11.5466 22.0789 11.5569 22.0528 11.5569H21.8421C21.8161 11.5569 21.7911 11.5466 21.7727 11.5282C21.7543 11.5098 21.744 11.4848 21.744 11.4588C21.744 11.4324 21.7542 11.4071 21.7725 11.3881C21.7908 11.3692 21.8158 11.358 21.8421 11.3571H22.0528C22.0675 11.3569 22.0821 11.3599 22.0955 11.3659C22.1089 11.3719 22.1208 11.3808 22.1305 11.3918C22.1401 11.4029 22.1473 11.4159 22.1515 11.4299C22.1556 11.444 22.1567 11.4588 22.1546 11.4733L22.1509 11.4588ZM22.7832 11.7568C22.8044 11.7568 22.8247 11.7652 22.8397 11.7802C22.8547 11.7952 22.8631 11.8155 22.8631 11.8367C22.8631 11.8579 22.8547 11.8783 22.8397 11.8932C22.8247 11.9082 22.8044 11.9167 22.7832 11.9167H21.5078C21.4351 11.9167 21.4497 11.9603 21.4497 12.0111V12.3273C21.4497 12.3494 21.4409 12.3707 21.4252 12.3863C21.4095 12.402 21.3883 12.4108 21.3661 12.4108C21.3553 12.4108 21.3446 12.4086 21.3346 12.4044C21.3247 12.4002 21.3157 12.394 21.3082 12.3861C21.3008 12.3783 21.295 12.3691 21.2912 12.359C21.2874 12.3488 21.2857 12.338 21.2861 12.3273V11.8367C21.2861 11.8259 21.2883 11.8152 21.2926 11.8053C21.2968 11.7953 21.303 11.7863 21.3108 11.7789C21.3186 11.7714 21.3279 11.7656 21.338 11.7618C21.3481 11.758 21.3589 11.7563 21.3697 11.7568H22.7832ZM22.6597 12.1637C22.6588 12.1904 22.6477 12.2158 22.6289 12.2347C22.61 12.2536 22.5846 12.2646 22.5579 12.2655H22.3508C22.3241 12.2646 22.2988 12.2536 22.2799 12.2347C22.261 12.2158 22.25 12.1904 22.2491 12.1637C22.25 12.137 22.261 12.1117 22.2799 12.0928C22.2988 12.0739 22.3241 12.0629 22.3508 12.062H22.5579C22.573 12.0614 22.5881 12.064 22.6021 12.0698C22.6161 12.0755 22.6287 12.0842 22.639 12.0952C22.6493 12.1062 22.6572 12.1194 22.662 12.1337C22.6668 12.148 22.6685 12.1632 22.6669 12.1783L22.6597 12.1637ZM22.0274 12.1637C22.0265 12.1904 22.0155 12.2158 21.9966 12.2347C21.9777 12.2536 21.9524 12.2646 21.9257 12.2655H21.7185C21.6919 12.2646 21.6665 12.2536 21.6476 12.2347C21.6287 12.2158 21.6177 12.1904 21.6168 12.1637C21.6177 12.137 21.6287 12.1117 21.6476 12.0928C21.6665 12.0739 21.6919 12.0629 21.7185 12.062H21.9257C21.9408 12.0614 21.9558 12.064 21.9698 12.0698C21.9838 12.0755 21.9964 12.0842 22.0067 12.0952C22.0171 12.1062 22.0249 12.1194 22.0297 12.1337C22.0346 12.148 22.0362 12.1632 22.0347 12.1783L22.0274 12.1637ZM22.9721 12.1637V11.7858C23.2592 12.1783 24.7199 14.0351 25.9953 14.4529C26.1653 14.5477 26.3566 14.5975 26.5512 14.5975C26.7459 14.5975 26.9372 14.5477 27.1072 14.4529L27.0309 14.7908C26.6732 14.8992 26.2896 14.8852 25.9408 14.7509C25.4248 14.6201 24.1603 13.8098 22.9794 12.1819L22.9721 12.1637ZM23.0884 12.498C23.3755 12.8905 24.6218 14.4674 25.9008 14.8817C26.2589 15.0184 26.6547 15.0184 27.0127 14.8817L26.94 15.1869C26.5811 15.2892 26.1987 15.2726 25.85 15.1397C25.3485 15.0052 24.2766 14.5183 23.0957 12.8868L23.0884 12.498ZM25.9953 15.2923C26.3324 15.3709 26.683 15.3709 27.02 15.2923C27.02 15.2923 27.2598 14.0823 27.2852 13.9478C27.3107 13.8134 27.3361 13.9478 27.3361 13.9478C27.3361 13.9478 27.0818 15.2814 27.1181 15.2668L27.0345 15.6084C26.7029 15.7174 26.3451 15.7174 26.0135 15.6084C25.2141 15.4667 24.5164 14.7545 23.2556 14.333V13.3301C23.539 13.7553 24.9706 15.1796 25.9917 15.3104L25.9953 15.2923ZM23.2774 14.6528C23.3883 14.9075 23.5924 15.1103 23.8478 15.2196C24.0295 15.2886 24.2802 15.0488 24.4619 15.1433C24.5273 15.176 24.2948 15.2886 24.1531 15.2959C23.9636 15.3196 23.7713 15.2932 23.5953 15.2192C23.4193 15.1452 23.2658 15.0263 23.1502 14.8744C22.8849 14.4202 22.6669 14.0896 22.3726 14.1695C22.2236 14.2131 22.2309 14.2712 22.1509 14.2422C22.071 14.2131 22.0746 14.1114 22.22 14.0205C22.5179 13.8388 23.0158 13.8461 23.2737 14.6709L23.2774 14.6528ZM24.7999 15.5939C24.743 15.5251 24.6703 15.471 24.5881 15.4362C24.5059 15.4014 24.4165 15.387 24.3275 15.394C24.2657 15.394 24.2149 15.285 24.5273 15.2523C24.9924 15.2087 25.2977 15.6556 25.5884 15.7247C26.0244 15.8337 25.9335 16.0081 25.8609 15.9718C25.697 15.901 25.5188 15.87 25.3407 15.8814C25.1626 15.8927 24.9897 15.9461 24.8362 16.0372C24.7279 16.0814 24.6066 16.0814 24.4983 16.0372C24.1712 15.9609 23.8987 15.7901 23.5644 15.7174C23.3864 15.6811 23.2301 15.8301 23.0557 15.7428C22.9213 15.5067 23.5172 15.5902 23.5172 15.5902C23.8151 15.6774 24.1313 15.6629 24.4401 15.7356C24.5515 15.7592 24.6666 15.7592 24.778 15.7356C24.8107 15.7428 24.8653 15.7101 24.7962 15.612L24.7999 15.5939ZM27.5069 16.9456C26.7584 17.2399 25.1814 17.0437 25.0469 16.9456C24.8362 16.8002 26.1043 16.8511 26.1043 16.8511C26.5593 16.9438 27.0274 16.9512 27.4851 16.8729C27.5178 16.8911 27.5141 16.9601 27.5032 16.9637L27.5069 16.9456ZM27.7322 16.7421C26.9059 16.8033 26.0756 16.7802 25.2541 16.673C25.0288 16.6367 24.5273 16.564 24.7635 16.4623C25.0869 16.317 25.2904 16.4986 25.6247 16.3751C25.7969 16.2928 25.9771 16.2282 26.1625 16.1825C26.5585 16.1819 26.9505 16.2623 27.3143 16.4187C27.605 16.5059 27.8557 16.4187 28.1537 16.5313C28.3317 16.6258 28.4117 16.6731 27.7286 16.7603L27.7322 16.7421ZM30.4683 15.7864C30.2321 15.7864 30.0722 15.6665 29.8506 15.6738C29.7693 15.6838 29.6937 15.7209 29.6362 15.7792C29.5708 15.8446 29.6943 15.8555 29.7125 15.91C29.7237 15.9513 29.7209 15.9951 29.7044 16.0346C29.688 16.074 29.6588 16.1069 29.6217 16.128C29.2365 16.3715 28.8223 16.2043 27.9756 15.7901C27.7249 15.6665 27.2998 15.9064 27.2053 15.9318C27.0018 15.9863 27.0345 15.8228 27.1036 15.7937C27.1731 15.7383 27.2557 15.7016 27.3435 15.6869C27.4312 15.6723 27.5212 15.6803 27.605 15.7101C27.7576 15.7537 27.8412 15.5466 28.0592 15.6338C28.5279 15.8155 29.0257 16.0735 29.5126 15.8664C29.6289 15.8191 29.5126 15.8155 29.5126 15.7174C29.5453 15.5503 29.6435 15.4522 29.876 15.4485C30.0141 15.4485 30.1812 15.5939 30.3193 15.6229C30.4574 15.652 30.5664 15.5139 30.6354 15.6048C30.7045 15.6956 30.5955 15.7974 30.4647 15.8046L30.4683 15.7864ZM30.1049 9.09696C30.1049 9.22777 29.9886 9.30045 29.9596 9.42762C29.9505 9.4776 29.9279 9.52412 29.8942 9.56207C29.7307 9.70378 29.6471 9.88546 29.4872 10.0235C29.4744 10.0358 29.4583 10.0441 29.4409 10.0473C29.4234 10.0505 29.4054 10.0486 29.3891 10.0417C29.3199 9.98955 29.2716 9.91439 29.253 9.82977C29.2343 9.74516 29.2465 9.65666 29.2874 9.58024C29.4646 9.32806 29.6748 9.10075 29.9123 8.90438C29.9487 8.87168 29.9741 8.81355 30.0104 8.77358C30.0468 8.73361 30.0831 8.77358 30.1013 8.77358C30.1195 8.77358 30.1013 8.90438 30.0831 8.97342C30.065 9.04246 30.0977 9.07517 30.0977 9.11514L30.1049 9.09696ZM31.5329 8.34844C31.4821 8.48288 31.3222 8.53012 31.2313 8.63186C31.2199 8.65242 31.2139 8.67555 31.2139 8.69908C31.2139 8.72261 31.2199 8.74576 31.2313 8.76632C31.4369 8.78008 31.6434 8.76664 31.8454 8.72634C31.8454 8.68274 31.8454 8.62823 31.82 8.6028C31.6456 8.36661 31.7691 8.05412 31.7328 7.79614C31.7086 7.60157 31.6111 7.42354 31.4603 7.29833C31.2568 7.16026 30.9407 7.29833 30.6899 7.22929C30.5083 7.17116 30.6899 6.9495 30.8135 6.895C31.0769 6.81493 31.3546 6.79262 31.6274 6.82959C31.7328 6.82959 31.7546 6.63338 31.8781 6.61158C32.0017 6.58977 32.0925 6.52074 32.2015 6.54617C32.3105 6.57161 32.2015 6.82596 32.2996 6.8623C32.6917 6.94582 33.0907 6.99326 33.4915 7.00401C33.546 7.00401 33.6223 7.05488 33.5968 7.14572C33.5968 7.17479 33.5714 7.19659 33.5496 7.20022C33.1499 7.31286 32.6412 7.09122 32.3541 7.51271C32.2726 7.59827 32.2018 7.69345 32.1434 7.79614C32.0925 7.91605 32.1034 8.04322 32.038 8.1595C31.9726 8.27577 32.038 8.38478 32.0126 8.49742C31.9871 8.61006 31.8781 8.7118 31.9435 8.7227C32.209 8.76506 32.4781 8.77968 32.7466 8.76632C32.8229 8.76632 32.8229 8.63914 32.772 8.60644C32.5612 8.47563 32.3396 8.26851 32.3905 8.07956C32.4413 7.89061 32.8011 7.50181 33.0118 7.64716C33.0591 7.67986 33.0118 7.74163 33.0445 7.79614C33.1254 7.91154 33.2325 8.00617 33.357 8.07229C33.7022 8.26851 33.9965 8.55192 34.4107 8.56282C34.4362 8.56282 34.4907 8.59916 34.4907 8.6137C34.49 8.65072 34.4808 8.68708 34.4637 8.71994C34.4466 8.7528 34.4222 8.78125 34.3923 8.80308C34.3623 8.8249 34.3278 8.83951 34.2913 8.84573C34.2547 8.85196 34.2173 8.84965 34.1818 8.83898C34.0296 8.8054 33.8811 8.75671 33.7385 8.69364C33.5641 8.6137 33.466 8.42112 33.2771 8.35572C32.9755 8.91529 33.1971 9.533 33.139 10.1325C33.1353 10.1495 33.1281 10.1655 33.1178 10.1795C33.1075 10.1934 33.0944 10.2051 33.0793 10.2136C33.0642 10.2222 33.0475 10.2275 33.0302 10.2292C33.013 10.2309 32.9956 10.2289 32.9791 10.2234C32.772 10.1471 32.7793 9.91453 32.7647 9.71832C32.2596 9.58655 31.7328 9.55935 31.2168 9.63838C31.1332 9.63838 31.1114 9.74739 31.0969 9.80552C31.0678 9.96904 31.046 10.198 30.8571 10.1689C30.799 10.1534 30.7487 10.1171 30.7158 10.0668C30.6829 10.0164 30.6699 9.95575 30.679 9.89636C30.8898 9.39493 31.0424 8.80628 30.7081 8.34482C30.6064 8.2031 30.3775 8.40294 30.1812 8.38114C30.1665 8.38036 30.152 8.37611 30.1392 8.36873C30.1263 8.36136 30.1154 8.35107 30.1073 8.33869C30.0992 8.32632 30.094 8.31219 30.0924 8.29748C30.0907 8.28276 30.0925 8.26786 30.0977 8.25397C30.1118 8.21145 30.1378 8.17384 30.1725 8.14553C30.2073 8.11722 30.2494 8.09938 30.2939 8.0941C30.7081 8.0941 30.9661 7.79977 31.3113 7.63626C31.3345 7.62094 31.3616 7.61278 31.3894 7.61278C31.4172 7.61278 31.4444 7.62094 31.4675 7.63626C31.5329 7.70166 31.4675 7.80341 31.4675 7.85791C31.5385 8.01754 31.5588 8.19509 31.5257 8.36662L31.5329 8.34844ZM29.8869 7.10575C30.0468 7.14572 30.283 7.28743 30.1994 7.49091C30.1485 7.60356 30.0105 7.55995 29.9051 7.54542C29.6438 7.49648 29.4005 7.37855 29.2002 7.20386C29.3002 7.1406 29.4132 7.10058 29.5308 7.08675C29.6484 7.07291 29.7676 7.08561 29.8796 7.12392L29.8869 7.10575ZM28.7968 8.29758C28.9241 8.19026 29.0765 8.11697 29.2399 8.08456C29.4032 8.05215 29.572 8.06168 29.7307 8.11226C29.7743 8.11226 29.8142 8.15586 29.8106 8.1922C29.8106 8.28667 29.727 8.33755 29.6471 8.37752C29.5671 8.41749 29.4727 8.55193 29.36 8.55556C29.2105 8.57129 29.0623 8.59801 28.9167 8.6355C28.8832 8.64637 28.847 8.64504 28.8144 8.63174C28.7818 8.61844 28.755 8.59402 28.7387 8.56282C28.7187 8.52288 28.7115 8.47776 28.718 8.43357C28.7245 8.38938 28.7444 8.34824 28.775 8.31574L28.7968 8.29758ZM28.0701 13.0867C28.1791 13.1957 28.3753 13.2429 28.3935 13.3955C28.4319 13.7185 28.3782 14.0457 28.2387 14.3395C28.0992 14.6333 27.8795 14.8817 27.605 15.0561C27.5363 15.1081 27.4633 15.1542 27.387 15.1942C27.387 15.1942 27.3506 15.1942 27.3543 15.1942C27.5946 14.9402 27.7495 14.6175 27.7976 14.2712C27.8884 13.8243 27.7431 13.6135 27.7031 13.639C27.4045 13.8576 27.0798 14.0383 26.7366 14.1768C26.7039 14.1768 26.6203 14.1949 26.6276 14.1768C26.723 13.9793 26.7607 13.7589 26.7366 13.5409C26.7075 13.4319 26.5476 13.3955 26.573 13.2938C26.5985 13.1921 26.6675 13.2066 26.7148 13.1557C27.0131 12.805 27.2159 12.3832 27.3034 11.9312C27.4323 11.4378 27.4146 10.9176 27.2526 10.4341C27.2271 10.3796 27.2235 10.2815 27.2526 10.2706C27.4157 10.2918 27.5727 10.3462 27.714 10.4305C27.8344 10.4763 27.94 10.5542 28.0192 10.6558C28.0769 10.7413 28.1118 10.8401 28.121 10.9428C28.2079 11.6627 28.1859 12.3916 28.0556 13.1048L28.0701 13.0867ZM27.536 6.66608C27.9354 7.45201 28.1209 8.32926 28.0737 9.20961C28.0737 9.29318 28.0737 9.40219 28.0156 9.4785C27.9466 9.34769 27.932 9.19871 27.8739 9.06426C27.6573 8.52679 27.3432 8.03401 26.9473 7.61082C26.9473 7.61082 26.9473 7.48365 26.9473 7.41097C27.0039 7.06208 26.9928 6.70555 26.9146 6.36086C27.0364 6.34856 27.1591 6.37274 27.2672 6.43032C27.3752 6.4879 27.4637 6.57628 27.5214 6.68425L27.536 6.66608ZM26.8092 7.02944C26.7994 7.33516 26.7105 7.63311 26.5512 7.89424C26.546 7.90254 26.5382 7.90885 26.529 7.91215C26.5197 7.91544 26.5097 7.91554 26.5004 7.91241C26.4466 7.74159 26.3588 7.58339 26.2424 7.44731C26.1036 7.28829 25.9375 7.15538 25.7519 7.05488C25.3896 6.82416 24.9953 6.64786 24.5818 6.53164C24.2486 6.41906 23.8961 6.37457 23.5453 6.40079C23.1945 6.427 22.8526 6.52339 22.5397 6.68425C22.5397 6.68425 22.4744 6.68425 22.4816 6.68425C22.546 6.56169 22.6227 6.44602 22.7105 6.33905C22.8719 6.10345 22.9661 5.82836 22.9831 5.54329C22.9861 5.0615 22.8457 4.5897 22.5797 4.18796C22.8159 4.24973 23.1357 4.41688 23.3391 4.18796C23.4495 4.34343 23.6098 4.45631 23.7933 4.50772C23.8819 4.52493 23.9733 4.52142 24.0603 4.49747C24.1472 4.47351 24.2275 4.42977 24.2948 4.36964C24.422 4.47502 24.5346 4.60219 24.7272 4.57312C24.8507 4.57312 24.9597 4.40597 25.036 4.46411C25.1814 4.57312 25.3013 4.733 25.4866 4.76207C25.6256 4.78458 25.7679 4.77209 25.9008 4.72573C25.9844 4.70029 26.0825 4.60219 26.1152 4.63853C26.38 4.97824 26.575 5.3669 26.6891 5.78219C26.8032 6.19748 26.8341 6.63123 26.7802 7.05851L26.8092 7.02944ZM24.342 2.5601C24.5553 2.5703 24.7637 2.62736 24.9525 2.72724C25.0251 2.76721 25.0469 2.84716 25.1196 2.87986C25.2522 2.95426 25.3744 3.0459 25.483 3.15238C25.5336 3.19192 25.5756 3.24138 25.6065 3.29772C25.6065 3.29772 25.6065 3.33406 25.6065 3.33042C25.3111 3.25502 25.0063 3.2232 24.7017 3.23596C24.5866 3.25541 24.4726 3.28088 24.3602 3.31226C24.3602 3.31226 24.3275 3.29045 24.3311 3.28319C24.3919 3.05491 24.3856 2.81395 24.313 2.58918L24.342 2.5601ZM22.1619 3.90817L23.3173 4.05352L24.1858 3.54844L24.233 2.48016H24.2802L24.3057 3.53391L25.1341 4.2897L26.137 4.42051V4.48955L22.1401 3.97721L22.1619 3.90817ZM22.0274 4.97282H22.0674L22.0892 5.59781C22.111 5.55057 22.0892 5.42702 22.1219 5.38341C22.1546 5.33981 22.071 5.02005 22.1037 5.02005C22.2793 5.17084 22.4456 5.33224 22.6015 5.50333C22.6451 5.5542 22.7868 5.71407 22.7469 5.69227C22.4889 5.56873 22.2164 5.65957 22.0928 5.61597L22.1328 6.81506L21.9911 6.75692L22.0274 4.97282ZM21.9911 6.87683V7.16025C21.8566 7.02944 21.6096 6.85503 21.5042 6.73875C21.6625 6.77747 21.816 6.83352 21.962 6.9059L21.9911 6.87683ZM20.1961 6.00477C20.712 6.36813 21.1335 6.70606 21.6241 7.09485C21.7694 7.20386 21.8494 7.24019 21.9874 7.3383V9.67834C21.9874 9.67834 21.922 9.67834 21.9184 9.67834C21.744 9.28228 21.8312 8.83172 21.6059 8.44292C21.1299 7.60719 20.6139 6.87683 20.1525 6.03383C20.1125 6.0302 20.1525 6.02293 20.167 6.03383L20.1961 6.00477ZM19.5893 13.2538C20.2796 12.7996 21.0173 13.3483 21.3152 13.9805C21.2484 13.7874 21.1707 13.5981 21.0827 13.4137C20.9991 13.2175 21.0609 13.1739 21.1517 13.0794H23.0375C23.0593 13.0784 23.0811 13.0818 23.1015 13.0894C23.122 13.0969 23.1407 13.1085 23.1566 13.1234C23.1725 13.1383 23.1853 13.1562 23.1942 13.1761C23.2031 13.196 23.2079 13.2175 23.2083 13.2393C23.2083 13.3338 23.0848 13.3701 23.0157 13.3701H21.6241C21.5042 13.3701 21.5805 13.5154 21.6241 13.5154H22.2273C22.3036 13.5154 22.3581 13.5627 22.3508 13.5881C22.3435 13.6136 22.3072 13.6499 22.2309 13.6426C22.1546 13.6353 21.8058 13.6426 21.6313 13.6426C21.5623 13.6426 21.555 13.7807 21.6313 13.7807H22.0637C22.1401 13.7807 22.1727 13.8098 22.1691 13.8352C22.1626 13.8566 22.1489 13.8751 22.1304 13.8876C22.1119 13.9002 22.0897 13.906 22.0674 13.9042H21.6386C21.5805 13.9042 21.6386 14.1041 21.6386 14.1041C21.675 14.2108 21.6958 14.3221 21.7004 14.4347C21.6459 14.5365 21.5187 14.3839 21.4388 14.2676C21.6641 14.6572 22.0017 14.9697 22.4076 15.1642C22.8135 15.3588 23.2686 15.4262 23.7134 15.3577C23.8551 15.3286 23.8696 15.4122 23.7352 15.4703C22.8796 15.5751 22.0116 15.4497 21.2207 15.107C20.7629 14.8599 20.2106 14.9871 19.7092 15.107C18.6881 15.354 18.1358 15.8337 17.2419 15.6702C16.9403 15.6157 16.25 15.354 16.577 15.3468C17.4999 15.6193 17.9687 15.3686 18.7172 14.8817C19.5965 14.3039 20.1706 14.9507 20.6575 14.3548C20.8756 14.0714 20.6575 13.817 20.4323 13.6644C20.207 13.5118 19.8872 13.559 19.8182 13.8025C19.7673 13.9878 20.0144 14.1659 20.2142 14.0823C20.2796 14.0568 20.2615 14.115 20.236 14.1586C20.1616 14.2528 20.0567 14.3182 19.9393 14.3434C19.8219 14.3686 19.6994 14.3521 19.5929 14.2967C19.4857 14.2576 19.394 14.1847 19.3318 14.089C19.2695 13.9933 19.24 13.88 19.2477 13.7662C19.2629 13.6682 19.2985 13.5745 19.3524 13.4912C19.4062 13.4079 19.477 13.3369 19.5602 13.2829L19.5893 13.2538ZM18.9352 9.58024C18.8262 9.78372 18.6918 9.9436 18.5719 10.1471C18.4832 10.2518 18.3636 10.3256 18.2303 10.3578C18.1794 10.3578 18.1649 10.4487 18.114 10.4487C17.8956 10.4751 17.6742 10.4628 17.46 10.4123C16.7332 10.1871 16.1373 9.66381 15.3597 9.55117C15.3161 9.55117 15.2907 9.49303 15.2435 9.48576C15.1878 9.48962 15.132 9.48962 15.0763 9.48576C14.9564 9.44579 15.0327 9.28955 15.0763 9.21324C15.1245 9.1355 15.1956 9.07459 15.2798 9.03884C15.4942 9.00613 15.5923 9.30046 15.803 9.4022C16.4571 9.71714 17.1777 9.86922 17.9033 9.84549C18.0891 9.85588 18.2751 9.82909 18.4504 9.7667C18.6257 9.70431 18.7868 9.60756 18.9243 9.48213C18.917 9.46032 18.9388 9.5548 18.9061 9.6093L18.9352 9.58024ZM17.0566 8.88986C17.1309 8.87063 17.2089 8.87054 17.2832 8.8896C17.3576 8.90866 17.4259 8.94625 17.4818 8.99886C17.4989 9.01386 17.5115 9.03345 17.5179 9.05534C17.5244 9.07722 17.5244 9.10049 17.5181 9.1224C17.5025 9.16349 17.4726 9.19754 17.4338 9.21826C17.3951 9.23897 17.3501 9.24492 17.3073 9.23504C17.231 9.21688 17.2129 9.12604 17.1547 9.10424C17.0058 9.08607 16.9186 8.96616 17.0276 8.91892L17.0566 8.88986ZM14.2079 7.10575C14.2515 6.9168 14.4804 6.84049 14.6476 6.84776C14.8909 6.87297 15.1368 6.85576 15.3743 6.79689C15.4833 6.64428 15.4869 6.27002 15.7376 6.38993C15.883 6.4626 15.7376 6.78599 15.8357 6.80416C16.0382 6.84193 16.245 6.8505 16.4498 6.82959C16.5588 6.82959 16.6606 6.58614 16.6715 6.46623C16.6933 6.17191 17.0348 6.20462 17.2528 6.20825C17.3364 6.46987 16.944 6.54255 16.8895 6.76783C16.8912 6.79614 16.902 6.82315 16.9203 6.84477C16.9387 6.8664 16.9636 6.88148 16.9912 6.88773C17.3945 6.93134 17.7906 6.93861 18.1939 6.98221C18.2053 6.9855 18.216 6.99107 18.2251 6.9986C18.2343 7.00613 18.2418 7.01546 18.2473 7.026C18.2527 7.03655 18.256 7.0481 18.2568 7.05993C18.2576 7.07177 18.256 7.08365 18.2521 7.09485C18.2257 7.14424 18.1865 7.18554 18.1385 7.21435C18.0905 7.24315 18.0355 7.25836 17.9796 7.25836C17.6162 7.29106 17.2964 7.18932 16.9476 7.20022C16.9185 7.20022 16.8931 7.23292 16.9113 7.24746C17.0748 7.37827 17.2746 7.46548 17.3146 7.67259C17.3546 7.87971 17.1111 7.88698 17.1039 8.03596C17.0966 8.18493 17.3582 8.21764 17.2783 8.39932C17.227 8.48528 17.1585 8.55972 17.0771 8.61798C16.9957 8.67623 16.9032 8.71704 16.8053 8.73785C16.7073 8.75866 16.6062 8.75902 16.5081 8.7389C16.4101 8.71879 16.3173 8.67864 16.2354 8.62096C16.17 8.58463 16.1882 8.48653 16.1773 8.42476C16.1519 8.27214 16.359 8.15586 16.3335 8.01778C16.3081 7.8797 16.1737 7.8361 16.1918 7.7271C16.21 7.61809 16.4135 7.52361 16.5152 7.3928C16.5625 7.33103 16.577 7.20023 16.4898 7.20749C16.0392 7.25836 15.625 7.13119 15.189 7.18569C14.9408 7.19149 14.6953 7.23815 14.4622 7.32377C14.3641 7.41098 14.1388 7.2947 14.1788 7.13482L14.2079 7.10575ZM14.1716 9.55844C14.2915 9.31499 14.5712 9.26048 14.742 9.057C14.742 9.057 14.8074 9.057 14.8147 9.057C14.8547 9.18781 14.7529 9.28956 14.6875 9.4022C14.5903 9.52361 14.5085 9.65665 14.4441 9.79826C14.4357 9.8279 14.4196 9.85478 14.3975 9.87619C14.3753 9.8976 14.3479 9.91278 14.318 9.92016C14.2881 9.92754 14.2568 9.92688 14.2272 9.91823C14.1977 9.90958 14.1709 9.89326 14.1497 9.87092C14.0117 9.80552 14.0989 9.68198 14.1606 9.5875L14.1716 9.55844Z" fill="#95969B"/>
<path d="M15.5062 8.20651C15.4372 8.18108 15.3463 8.24648 15.3173 8.32279C15.2882 8.3991 15.4989 8.48994 15.5534 8.42453C15.5659 8.40753 15.5746 8.38806 15.579 8.36743C15.5834 8.34681 15.5834 8.32549 15.5789 8.30488C15.5744 8.28427 15.5656 8.26485 15.5531 8.2479C15.5406 8.23094 15.5246 8.21683 15.5062 8.20651Z" fill="#95969B"/>
<path d="M47.6951 9.79441C47.1247 9.70721 46.3398 10.056 45.8783 10.3104C45.3281 10.5508 44.8714 10.9641 44.5775 11.4877C41.3545 16.8545 37.6155 18.6168 33.4478 20.1684C32.8408 20.4036 32.2131 20.5812 31.5728 20.6989C31.4638 20.6989 31.2967 20.7534 31.5111 20.6989C35.8459 19.3435 44.4431 15.521 45.0462 6.6259C45.1662 4.78366 44.7047 4.77276 44.3922 4.8527C43.8413 5.03767 43.3272 5.3181 42.8734 5.68116C42.0522 6.30251 41.5798 7.19275 41.2637 8.30827C40.1409 12.258 37.6955 15.8698 32.9718 18.555C32.4994 18.8239 32.7392 18.6386 32.9173 18.5151L33.3242 18.2426C37.8299 15.2921 40.2608 11.2806 40.8712 6.0518C41.1038 4.03514 40.7477 1.58609 40.279 0.812127C40.2354 0.739455 40.159 0.626808 40.1154 0.55777C40.0405 0.483604 39.9467 0.431493 39.8441 0.407138C39.7416 0.382782 39.6343 0.387131 39.5341 0.419702C38.7428 0.877199 38.044 1.47859 37.4738 2.19289C37.2449 2.55626 36.6635 3.30115 36.8597 4.23136C37.6555 7.95944 36.2093 11.6803 33.5386 15.2594C32.2799 16.8966 30.6495 18.2107 28.7822 19.0928C27.283 19.7776 25.654 20.132 24.0058 20.132C22.3576 20.132 20.7287 19.7776 19.2295 19.0928C17.3636 18.2083 15.7337 16.8947 14.473 15.2594C11.8023 11.6803 10.3525 7.95944 11.1483 4.23136C11.3482 3.30115 10.7668 2.54899 10.5415 2.19289C9.97038 1.47942 9.2718 0.878171 8.48122 0.419702C8.38038 0.387233 8.27259 0.382925 8.16949 0.40726C8.06639 0.431595 7.97189 0.483639 7.89622 0.55777C7.85261 0.626808 7.7763 0.739455 7.7327 0.812127C7.26396 1.58609 6.90423 4.03514 7.14042 6.0518C7.7545 11.2806 10.1854 15.2921 14.6874 18.2426C14.8291 18.3334 14.9963 18.4497 15.0944 18.5151C15.2724 18.6386 15.5159 18.8239 15.0362 18.555C10.3126 15.8698 7.86714 12.258 6.75162 8.30827C6.52279 7.27678 5.95474 6.35179 5.1383 5.68116C4.6827 5.31879 4.16752 5.03845 3.61581 4.8527C3.30332 4.77276 2.84186 4.78366 2.9654 6.6259C3.56132 15.5101 12.1584 19.3435 16.5042 20.6843C16.7186 20.7425 16.5442 20.7061 16.4388 20.6843C15.7987 20.5662 15.171 20.3886 14.5639 20.1538C10.3925 18.6023 6.65351 16.84 3.43413 11.4731C3.13919 10.9504 2.68279 10.5373 2.13331 10.2959C1.66458 10.0415 0.879719 9.69267 0.316509 9.77988C-0.119524 9.84891 0.0112753 10.532 0.123917 10.87C2.90363 18.813 11.3082 21.4256 18.103 22.2904C18.2302 22.2904 18.2774 22.3594 17.231 22.2686C14.9695 21.997 12.726 21.5917 10.5124 21.055C10.0873 20.946 9.14982 20.5935 8.35405 20.8479C7.71454 21.055 7.06048 21.4074 7.19129 22.0833C7.2785 22.5157 8.23051 22.9226 8.69561 23.0862C9.74209 23.4495 14.4476 24.1108 20.9809 23.9982C21.7859 24.8008 22.8763 25.2514 24.0131 25.2514C25.1499 25.2514 26.2403 24.8008 27.0454 23.9982C33.5858 24.1108 38.2841 23.4495 39.3306 23.0862C39.7957 22.9226 40.7513 22.5157 40.8349 22.0833C40.9657 21.4074 40.3116 21.055 39.6758 20.8479C38.8764 20.5935 37.9389 20.946 37.5174 21.055C35.3025 21.5913 33.0579 21.9966 30.7952 22.2686C29.7488 22.3594 29.796 22.3049 29.9268 22.2904C36.718 21.4256 45.1226 18.813 47.9059 10.87C48.004 10.5466 48.1312 9.86345 47.6951 9.79441Z" fill="#95969B"/>
<path d="M31.9662 7.46894C31.988 7.46894 31.9989 7.41079 32.0353 7.39626C32.0568 7.38896 32.0755 7.37535 32.0892 7.35719C32.1028 7.33904 32.1106 7.31719 32.1116 7.29452C32.1116 7.21458 32.0098 7.25092 31.9626 7.25092C31.7228 7.24002 31.8754 7.4544 31.9662 7.46894Z" fill="#95969B"/>
<path d="M24.1258 4.19522L24.1513 3.65381L23.3846 4.09711L24.1258 4.19522Z" fill="#95969B"/>
<path d="M32.8552 8.44238C32.9278 8.44238 32.9569 8.26797 33.0332 8.1953C33.0466 8.18651 33.0567 8.17355 33.0619 8.15844C33.0672 8.14333 33.0673 8.12691 33.0623 8.11172C33.0223 8.03542 32.906 8.02089 32.8697 8.00272C32.8334 7.98455 32.7643 8.06086 32.728 8.1299C32.6916 8.19894 32.6808 8.16259 32.6917 8.18803C32.7462 8.2825 32.8043 8.44238 32.8552 8.44238Z" fill="#95969B"/>
<path d="M24.6977 2.94536H24.5487V3.15248H24.6068V3.0035H24.6977V3.15248H24.9084V3.09434H24.7558L24.7594 3.0035H24.9084V2.79639H24.8503V2.94536H24.7594H24.7558V2.79639H24.545V2.85452H24.6977V2.94536Z" fill="#95969B"/>
<path d="M31.041 8.22477C31.041 8.272 31.0846 8.35558 31.1245 8.34104C31.1645 8.32651 31.2008 8.26837 31.2372 8.21387C31.2735 8.15936 31.3207 8.07579 31.2662 8.05399C31.2399 8.04673 31.2122 8.04565 31.1854 8.05081C31.1585 8.05598 31.1332 8.06726 31.1114 8.08377C31.0897 8.10028 31.072 8.12159 31.0597 8.14605C31.0475 8.1705 31.0411 8.19743 31.041 8.22477Z" fill="#95969B"/>
<path d="M31.1286 9.40574C31.6373 9.26766 32.175 9.40574 32.691 9.36214C32.7855 9.36214 32.7564 9.10778 32.6365 9.10778C32.3582 9.06009 32.0755 9.04304 31.7935 9.05692C31.6082 9.09689 31.2775 9.10053 31.1903 9.1405C31.1594 9.17646 31.1377 9.21936 31.1269 9.26555C31.1162 9.31173 31.1167 9.35982 31.1286 9.40574Z" fill="#95969B"/>
<path d="M21.284 14.0127C21.283 14.0284 21.283 14.0442 21.284 14.0599C21.284 14.0599 21.2912 14.0272 21.284 14.0127Z" fill="#95969B"/>
<path d="M21.3337 14.1257C21.3337 14.1512 21.3628 14.1729 21.3737 14.1947C21.3482 14.1511 21.3264 14.1039 21.3046 14.0603C21.3158 14.0814 21.3255 14.1033 21.3337 14.1257Z" fill="#95969B"/>
<path d="M24.2936 4.21327L24.9949 4.30411L24.2755 3.63916L24.2936 4.21327Z" fill="#95969B"/>
<path d="M21.3986 14.2565C21.4077 14.2745 21.4187 14.2916 21.4313 14.3074L21.3732 14.2129C21.3732 14.2129 21.3877 14.2238 21.3986 14.2565Z" fill="#95969B"/>
<path d="M22.1926 5.5031H22.2507L22.2544 5.59757H22.3852V5.56123H22.2907V5.5031H22.3852V5.36865H22.3488V5.46676H22.2907L22.2871 5.36865H22.1562V5.40499H22.2507V5.46676H22.1562V5.59757H22.1926V5.5031Z" fill="#95969B"/>
</g>
<g clip-path="url(#clip1_10374_14795)">
<path d="M63.9369 6.31427C63.7016 6.73241 63.4232 7.12484 63.1064 7.48517C62.276 8.83877 61.321 9.75224 60.3826 11.0145C60.3826 11.0145 60.474 11.1889 60.557 11.0975C60.6401 11.0062 60.8228 10.9148 60.9058 10.8235C61.6102 10.7313 62.2748 10.4436 62.8241 9.99306C62.9071 9.81037 62.9071 9.63598 62.9902 9.54463C62.9996 9.29905 63.053 9.05715 63.148 8.83047C63.4137 8.91351 63.4884 8.55643 63.6711 8.63947C63.8538 8.72251 64.1196 8.8969 64.3853 8.88029C64.3853 9.23738 64.5846 9.6692 64.3853 9.8602C64.186 10.0512 63.9618 10.4 63.7957 10.6906C63.6296 10.9813 63.3722 11.3217 63.1978 11.6788C62.6111 12.4075 61.9728 13.0929 61.2878 13.73C61.6449 13.8961 62.1764 13.8795 62.3424 13.6054C62.8573 12.9743 63.3722 12.4262 64.078 12.501C64.3844 12.5202 64.6743 12.6462 64.8974 12.8571C65.1204 13.068 65.2625 13.3504 65.2988 13.6552C65.3532 13.8249 65.3594 14.0063 65.3169 14.1793C65.2744 14.3522 65.1848 14.5101 65.0579 14.6352C64.6741 15.1473 64.1208 15.5064 63.4967 15.6483C62.8387 15.8722 62.2859 16.3303 61.9438 16.9354C61.8691 17.2925 62.3923 17.1015 62.658 17.1763C62.7494 17.2676 62.4836 17.359 62.4919 17.4503C62.9487 17.9652 63.3971 18.2807 63.8538 18.7375H64.1196C64.9534 19.6682 65.8348 20.5552 66.7603 21.3948C66.5859 21.5775 66.6773 21.7519 66.86 21.835C66.6856 21.9263 66.5942 21.9346 66.5195 22.2003C66.4438 22.3574 66.3348 22.496 66.1999 22.6064C66.0651 22.7169 65.9077 22.7965 65.7389 22.8398C64.9544 22.9985 64.1614 23.1122 63.3639 23.1802C61.5951 23.1387 59.901 22.7484 58.1405 22.7152C57.6098 22.6736 57.0767 22.6736 56.5461 22.7152C56.2803 22.8149 56.0229 23.0889 55.7572 23.0059C55.3102 22.8405 54.8882 22.6141 54.5032 22.3332C54.5032 22.2502 54.5032 22.1588 54.5032 22.0675C54.5032 21.9761 54.1461 21.9097 54.1378 21.727C54.3039 21.4613 54.1378 21.2869 53.9468 21.1208C53.9221 21.1429 53.902 21.1697 53.8877 21.1996C53.8735 21.2296 53.8653 21.262 53.8638 21.2952C53.9385 20.9381 54.0216 20.6724 54.0963 20.4066C54.3415 19.8896 54.417 19.3083 54.3122 18.7458C54.3122 18.6544 54.2209 18.5714 54.1378 18.6627C53.4106 19.5952 52.8153 20.6236 52.369 21.7187C52.369 21.7187 52.1946 21.81 52.1946 21.9014C52.1946 22.4246 51.7794 22.7318 51.6216 23.2384C51.6216 23.3297 51.3642 23.6038 51.2812 23.7782C51.1981 23.9525 51.2064 24.3096 51.032 24.4093C50.9403 24.5224 50.8205 24.6095 50.6845 24.6617C50.5485 24.7139 50.4012 24.7294 50.2574 24.7067C50.1135 24.684 49.9781 24.6238 49.8649 24.5323C49.7516 24.4407 49.6644 24.321 49.612 24.1851C49.4538 23.9528 49.365 23.6802 49.3562 23.3993C49.3474 23.1183 49.4188 22.8407 49.5622 22.5989C49.6535 22.4163 49.5622 22.1505 49.7283 21.9761C49.5456 21.8848 49.6286 21.7104 49.6286 21.619C49.9068 20.6341 49.8749 19.5874 49.5373 18.6212C49.5373 18.4385 49.1802 18.3638 48.9061 18.1977C48.3664 17.9402 48.6985 17.2261 49.0473 16.8607C49.3961 16.4953 49.8777 16.1299 50.2763 16.5617C50.7331 17.2593 50.5836 18.2226 51.4805 18.4717C51.5257 18.4213 51.5876 18.3889 51.6548 18.3804L51.8375 18.5548C51.9037 18.5381 51.964 18.5036 52.0119 18.4551C52.095 18.4551 52.1033 18.6295 52.1033 18.7209C51.8458 18.9949 51.4971 19.0032 51.14 19.1859C51.605 19.7921 51.3642 20.5063 51.5552 21.1208C51.5552 21.2952 51.3061 21.5692 51.4888 21.835C52.2661 20.9017 52.9192 19.8717 53.432 18.7707C53.598 18.4966 53.9468 18.3139 53.9385 18.0482C53.9302 17.7825 53.6728 18.0482 53.5897 18.0482C53.4664 17.5869 53.394 17.1135 53.3738 16.6365C53.3061 16.402 53.3268 16.1508 53.432 15.9306C53.7348 15.6708 53.9954 15.3654 54.2043 15.0255C54.2043 14.9341 54.5447 14.6601 54.2873 14.6684C53.4569 14.6019 52.4604 15.6068 51.904 14.8261C51.713 14.5687 52.0618 14.112 52.0451 13.6719C52.0285 13.2317 52.5517 12.9494 52.8091 12.6753H53.0666C54.196 11.8449 54.7274 10.7654 55.4582 9.68581C55.6938 9.39673 55.9742 9.14722 56.2886 8.94673C55.9315 8.78894 55.4997 9.06299 55.234 9.07129C54.5364 9.27059 53.897 8.75573 53.1911 8.59795C52.9835 7.344 54.3122 6.9537 55.2838 6.83744C56.2554 6.72118 57.4928 6.83744 58.456 6.38901C59.5183 5.92759 60.3954 5.12358 60.9473 4.10534C61.2795 3.47421 61.0885 2.68531 60.557 2.70191C60.0287 2.78345 59.5355 3.01682 59.1374 3.37362C58.7393 3.73043 58.4535 4.19526 58.3149 4.71155C58.3149 4.89424 58.0574 4.98559 57.8831 5.07694C57.5913 5.25052 57.2592 5.34498 56.9198 5.35098C56.6998 5.45386 56.4639 5.51846 56.2222 5.54198C56.1309 5.54198 56.1225 5.37589 56.0395 5.37589C55.3963 5.40458 54.7638 5.20452 54.2541 4.8112C54.0063 4.6792 53.8124 4.46477 53.706 4.20499C53.706 3.93925 53.7807 3.76486 53.598 3.49912C53.5067 3.49912 53.5067 3.59047 53.5067 3.68182C53.4154 3.50743 53.5897 3.41608 53.5897 3.32474L53.6811 3.40778C53.8555 3.23339 53.7558 2.96765 53.8389 2.78496C53.9577 2.53655 54.1343 2.32016 54.3537 2.15383C55.1842 1.77184 56.2222 2.62718 57.0941 2.24518C57.6173 1.97114 58.1488 2.04588 58.672 1.76353C59.7931 1.22053 61.022 0.936716 62.2677 0.933105C62.7733 0.950628 63.2537 1.15821 63.613 1.5144C64.9998 3.41608 62.2013 4.64511 61.1217 5.91567C61.0304 6.00701 61.2878 5.73297 61.3792 5.91567C61.7863 5.5906 62.2642 5.36587 62.7743 5.25963C63.1314 5.25963 63.7459 5.25963 64.0282 5.66654C64.0576 5.77507 64.0647 5.88844 64.049 5.99978C64.0333 6.11112 63.9952 6.21811 63.9369 6.31427ZM62.8656 15.1002C62.8859 14.982 62.8859 14.8613 62.8656 14.7431C61.811 14.8677 60.9473 15.4241 59.9757 15.5735C59.8002 15.6395 59.6109 15.6604 59.4252 15.6343C59.2395 15.6082 59.0633 15.5359 58.9128 15.4241C58.8131 15.2497 58.9128 14.9839 58.9128 14.7182C59.0041 14.7182 59.0955 14.7182 59.0872 14.6268C59.0789 14.5355 58.9958 14.5355 58.9128 14.5438C59.3446 14.2615 59.5024 13.7134 59.9342 13.4476C60.3461 13.3016 60.6874 13.0049 60.8892 12.6172C60.8892 12.5342 60.6152 12.5425 60.5321 12.5425C60.0089 12.8248 59.4775 12.9245 58.9626 13.2068C58.6969 13.2982 58.4228 13.049 58.2401 12.8746C58.0574 12.7003 58.3066 12.1688 58.3066 11.9861C58.7218 11.0062 59.7681 10.5328 60.2664 9.62768L60.5155 9.0962C60.9686 8.56813 61.3129 7.95573 61.5286 7.29418C61.5228 7.24935 61.5012 7.20806 61.4677 7.17764C61.4343 7.14723 61.3911 7.12967 61.3459 7.12809C60.6401 7.32739 60.0256 7.42704 59.411 7.62635C58.6658 7.9013 57.9506 8.25191 57.2768 8.67268C57.3307 8.72949 57.3722 8.79686 57.3986 8.87054C57.425 8.94422 57.4359 9.02259 57.4304 9.10068C57.4249 9.17877 57.4033 9.25487 57.3669 9.32415C57.3304 9.39342 57.28 9.45437 57.2187 9.50311C57.2187 9.42007 57.1274 9.32872 57.036 9.42007C56.5639 10.0296 56.2245 10.7311 56.0395 11.4795C55.9565 11.6622 55.6077 11.8532 55.5246 12.0276C55.4416 12.202 55.699 12.1107 55.7904 12.1107C56.571 11.6456 56.8035 10.6657 57.4097 10.0346C57.3184 10.0346 57.3184 9.94324 57.3184 9.85189C57.5841 9.93493 57.5758 9.6692 57.7502 9.57785C57.9246 9.4865 57.7502 9.40346 57.6588 9.40346C58.099 9.4782 58.4893 8.93842 58.9792 9.2789C59.1536 9.36194 59.1702 9.80207 59.0872 10.0678C58.5776 11.0358 57.9858 11.9582 57.3184 12.8248C58.0242 12.9743 58.3149 13.6552 58.6803 14.195C58.8713 14.5438 58.5225 14.8178 58.4477 15.1749C58.4477 15.1749 58.265 15.1749 58.265 15.0919C57.6588 15.5486 57.3267 16.2711 56.7205 16.7527C56.326 16.8711 55.9448 17.0298 55.5828 17.2261C56.0535 17.4974 56.4126 17.9271 56.5959 18.4385C56.6955 18.7873 57.4844 18.4966 57.9163 18.3056C58.0271 18.079 58.1081 17.8389 58.1571 17.5915C58.4062 16.8773 59.1951 16.5867 59.71 16.1299C59.793 16.0469 60.1418 15.7645 60.3245 16.0303C60.4338 16.2484 60.5014 16.4849 60.5238 16.7278C60.5327 16.7761 60.5521 16.8217 60.5807 16.8616C60.6093 16.9014 60.6463 16.9344 60.6892 16.9583C60.7321 16.9821 60.7797 16.9961 60.8286 16.9993C60.8776 17.0026 60.9266 16.9949 60.9722 16.977C61.7508 16.5201 62.4019 15.8747 62.8656 15.1002ZM56.8367 14.5687C56.8948 14.2947 56.9862 13.6802 56.7205 13.6885C56.2886 13.8795 55.9565 14.5936 55.616 15.0504C56.1475 15.2081 56.762 14.9258 56.8367 14.5687ZM60.6484 20.9132C61.4788 20.9879 62.1598 21.3035 62.9487 21.0211C62.7494 20.1409 62.1182 19.543 61.9106 18.6627C62.1681 19.2095 62.5194 19.707 62.9487 20.1326C63.04 20.2239 63.123 20.1326 63.123 20.0412C62.929 19.2496 62.4307 18.5663 61.7362 18.1396C61.3792 17.9735 60.9556 18.4302 60.6069 18.7873C60.5155 18.6129 60.3411 18.7125 60.2498 18.7125C59.9923 18.8952 59.6436 19.0862 59.4193 19.2689C58.8962 19.4599 58.5308 19.0281 57.9993 18.9534C57.4678 18.8786 57.1191 19.0696 56.6706 18.8205C56.5045 19.2689 56.7786 19.7008 56.6125 20.1492C56.6302 20.2238 56.6648 20.2934 56.7138 20.3525C56.7628 20.4115 56.8247 20.4585 56.8948 20.4897C58.1346 20.7186 59.3888 20.8601 60.6484 20.9132ZM63.3224 18.7956C63.118 18.3012 62.7674 17.881 62.3175 17.5915C62.2728 17.6398 62.2438 17.7006 62.2345 17.7659C62.2345 17.6828 62.2345 17.5915 62.1431 17.5998C62.0518 17.6081 62.0601 17.8655 61.9771 17.9569C62.6007 18.4156 63.0792 19.044 63.3556 19.7672L63.4386 19.6758C63.53 19.7589 63.5383 19.9416 63.7127 20.0246C63.7698 19.889 63.79 19.7407 63.771 19.5948C63.752 19.4489 63.6946 19.3106 63.6047 19.1942C63.5556 19.2429 63.526 19.3079 63.5217 19.3769C63.6877 19.1361 63.422 19.0613 63.3224 18.7956ZM65.4399 18.7375C65.5015 18.6621 65.5871 18.6103 65.6824 18.5906C65.7776 18.5709 65.8768 18.5847 65.9631 18.6295C66.5859 18.7873 67.134 19.4599 67.8316 19.1028C68.0973 19.0115 68.363 19.1776 68.662 18.9035C68.8281 18.8122 69.0938 18.7208 69.1769 18.5382C69.2676 18.1842 69.2263 17.8092 69.0606 17.4835C69.0606 17.3008 68.8696 17.1347 68.7783 16.869H68.5125C68.2419 16.4915 67.9006 16.17 67.5077 15.9223C66.9422 15.7111 66.3272 15.6707 65.7389 15.8061C65.2979 15.9505 64.885 16.1696 64.5182 16.4538C64.2607 16.6448 64.0946 17.0849 64.2773 17.168C64.7354 17.4627 65.1589 17.8081 65.5396 18.1977C65.6974 18.3721 65.2655 18.5631 65.4399 18.7375Z" fill="#1B2D58"/>
<path d="M86.0491 4.52044C85.4927 4.66162 84.9114 4.52044 84.5377 5.08513C84.5377 5.00209 84.5377 4.91905 84.4463 4.92735C84.1225 5.027 83.8235 5.45052 83.6159 5.45883C83.0144 5.57917 82.423 5.74575 81.8471 5.95708C81.5518 5.99828 81.252 5.9236 81.0105 5.74867C80.769 5.57375 80.6046 5.31216 80.5516 5.0187C80.7177 5.0187 80.7842 4.76127 80.9419 4.67823C81.2658 4.57857 81.5814 4.40418 81.8222 4.47062C82.2371 4.47633 82.6491 4.40014 83.0346 4.2464C83.7178 4.24542 84.3735 3.97717 84.8615 3.49902C85.0193 3.33293 85.0027 3.08381 85.0692 2.84298C84.947 2.76208 84.8077 2.71089 84.6622 2.69351C84.4962 2.78485 84.3965 2.38625 84.2387 2.39455C83.8614 2.32023 83.4772 2.28682 83.0927 2.2949C82.7689 2.22847 82.6609 1.74682 82.7274 1.46447C82.8397 1.17153 83.0297 0.914715 83.2769 0.721594C83.5242 0.528473 83.8193 0.406341 84.1308 0.36831C84.6813 0.286084 85.2411 0.286084 85.7916 0.36831C86.0052 0.367389 86.2118 0.444124 86.3729 0.584221C86.5897 0.740667 86.7876 0.921812 86.9625 1.124C87.0622 1.35652 87.1535 1.59734 87.2449 1.83817C87.4276 2.23677 87.0456 2.74333 87.0705 3.22498C87.9454 2.86015 88.9199 2.81025 89.8275 3.08381C90.1597 3.23328 90.6579 3.77306 90.359 4.03049C90.06 4.28793 89.6448 4.2298 89.1549 4.17997C88.7195 4.18545 88.2857 4.23273 87.8594 4.32114C87.6513 4.30181 87.4514 4.23041 87.2781 4.11354C86.838 4.0471 86.456 4.39588 86.0491 4.52044Z" fill="#1B2D58"/>
<path d="M88.142 10.4746C88.225 10.3916 88.142 10.2338 88.2915 10.2255C88.2762 10.1846 88.2519 10.1477 88.2204 10.1175C88.1889 10.0873 88.151 10.0646 88.1095 10.051C88.068 10.0374 88.024 10.0334 87.9808 10.0392C87.9375 10.0449 87.8961 10.0604 87.8596 10.0843C87.6188 10.2587 87.6437 10.7487 87.8596 10.8151C88.0008 10.8151 88.0672 10.566 88.142 10.4746Z" fill="#1B2D58"/>
<path d="M87.3537 6.13148C86.7424 6.40641 86.2068 6.82525 85.7925 7.3522C86.1911 7.56847 86.4891 7.93211 86.623 8.36532C86.9292 9.15876 87.0012 10.0234 86.8306 10.8566C86.9967 10.8566 86.9302 11.0974 87.005 11.0974C87.2203 10.6658 87.2818 10.1736 87.1793 9.70231C87.2334 9.21705 87.2082 8.72622 87.1046 8.24906C87.1046 8.08298 86.9967 7.85046 87.1046 7.68437C87.171 7.3522 87.578 7.41033 87.935 7.31068C88.1546 7.19721 88.3471 7.03749 88.499 6.84252C88.651 6.64756 88.7589 6.42197 88.8153 6.1813C88.9648 5.84913 88.8153 5.2097 89.0893 5.11005C89.7205 4.83601 90.6505 5.6 90.6838 6.16469C90.7751 6.48856 90.3267 7.07816 89.8533 7.10308C89.6872 7.02834 89.5128 6.79582 89.3551 6.88716C88.8734 6.99512 88.5246 7.41033 88.0928 7.60133C88.2589 7.67607 88.1925 7.91689 88.1925 7.99994C88.1925 8.08298 87.9683 8.41515 88.1343 8.48989C88.5496 8.54802 88.8983 9.1044 89.2886 8.75563C89.3634 8.67258 89.2886 8.67258 89.1973 8.59784C89.1059 8.52311 88.9648 8.77223 89.0395 8.59784C89.1032 8.4874 89.1954 8.39604 89.3064 8.33324C89.4174 8.27045 89.5431 8.23852 89.6706 8.24076C89.9115 8.14941 89.9779 7.90029 90.0443 7.65116C90.6588 6.97021 91.4976 7.57642 91.7716 8.13281C92.0373 8.52311 91.6637 9.11271 91.182 9.30371C90.8945 9.28807 90.6126 9.2176 90.3516 9.0961C90.1108 9.02967 89.5212 9.22066 89.6374 9.2954C90.908 10.4497 92.6353 10.8483 94.3625 11.2469C94.6864 11.3133 94.9438 11.5459 95.276 11.604C96.1064 11.8946 97.0614 11.7618 97.8254 12.2849C97.9085 12.368 98.2489 12.6752 98.0081 12.7666C96.9037 13.3894 95.7577 13.0406 94.5535 13.3479C94.1466 13.4475 93.7231 13.6302 93.4159 13.406C92.5688 12.8247 92.0124 12.2351 91.182 11.7867C90.4743 11.2428 89.6836 10.8166 88.8402 10.5244C88.5994 10.4497 88.616 10.8566 88.4665 11.031C88.807 11.3383 89.38 11.4711 89.5627 11.7867C89.7454 12.1022 89.4298 12.4427 89.4464 12.7666C89.3478 12.9682 89.33 13.2 89.3966 13.4143C89.3966 13.8212 89.1973 14.2447 89.2969 14.5603C89.4879 15.1167 89.2969 15.9388 89.4796 16.5782C89.3966 16.5782 89.3135 16.5782 89.3218 16.6696C89.3302 16.7609 89.4049 16.7443 89.4879 16.7443C89.38 17.882 89.6872 19.0031 89.4215 20.1574C89.4215 20.2404 89.5876 20.2321 89.5876 20.3069C89.5876 20.3816 89.4298 20.3069 89.4381 20.4813C89.4464 20.6556 89.5212 20.556 89.6042 20.556C89.6311 20.652 89.6376 20.7526 89.6233 20.8513C89.609 20.95 89.5742 21.0446 89.5212 21.129C89.5212 21.212 89.5212 21.3698 89.6125 21.3698C89.7038 21.3698 89.6872 21.2785 89.6872 21.2037C89.8074 21.5989 89.8074 22.0209 89.6872 22.4161C89.6872 22.6653 89.38 22.9227 89.2388 23.1718C89.0801 23.8102 88.8371 24.4245 88.5163 24.9988C88.4416 25.1649 88.2921 25.3309 88.126 25.2562C87.882 25.0595 87.7218 24.7776 87.6776 24.4673C87.5295 23.4221 87.5016 22.3633 87.5946 21.3117C87.7502 20.4826 87.7046 19.6282 87.4617 18.8204C87.4617 18.5796 87.6693 18.0813 87.3454 18.0979C87.1877 18.0979 87.1295 18.5131 86.8804 18.5214C86.1509 18.5788 85.4247 18.673 84.7047 18.8038C84.3868 18.9833 84.0313 19.0857 83.6666 19.1027C83.4175 19.1027 83.2763 19.4432 83.2846 19.6093C83.2726 19.9872 83.163 20.3555 82.9666 20.6785C82.7702 21.0016 82.4935 21.2683 82.1636 21.4529C82.1636 21.5276 82.1636 21.6106 82.1636 21.6937C81.8314 21.6272 81.7733 21.9511 81.5408 22.1338C81.5408 21.8847 81.2833 21.8182 81.2584 21.4944C81.2584 21.4113 81.0093 21.3449 80.9179 21.1871C80.8183 20.7885 81.1255 20.448 81.192 20.1242C81.308 19.6099 81.3885 19.0883 81.4328 18.563C81.5045 18.1043 81.5351 17.6402 81.5241 17.1762C81.3913 16.1298 81.0176 15.1748 80.9678 14.1202C80.9678 14.0371 81.5241 14.0122 81.5989 13.7631C81.657 13.3562 81.2335 13.0489 81.0591 12.7334C81.0591 12.5756 81.4494 12.4759 81.4411 12.3099C81.4328 12.1438 81.2667 12.0773 81.1754 12.0026C81.4245 12.0026 81.7567 12.2102 82.0058 12.0026C82.7117 11.3964 82.4957 10.4331 82.7781 9.61097C82.8109 9.46654 82.8101 9.31648 82.7755 9.17246C82.7409 9.02843 82.6736 8.89432 82.5788 8.78054C82.4791 8.37363 82.0058 8.72241 81.9394 8.97154C81.4434 10.3791 80.7769 11.7205 79.9546 12.9659C79.6491 13.3918 79.2201 13.7136 78.7256 13.8877C78.4017 13.979 78.2606 14.4773 78.0363 14.8177C78.0363 14.8925 78.0363 14.9755 78.1277 14.9672L78.0447 14.8925C77.7456 15.3083 77.4949 15.7569 77.2973 16.2295L77.4634 16.3872C77.2225 16.3872 77.2391 16.6364 77.1561 16.7277C77.2028 16.7673 77.2611 16.7906 77.3222 16.7942C77.2474 16.8855 77.0814 16.7277 77.0897 16.8938C77.1217 16.923 77.1466 16.9591 77.1625 16.9994C77.1783 17.0397 77.1846 17.0832 77.181 17.1263C77.1063 17.2924 77.0149 17.1263 76.9402 17.1263C76.8654 17.1263 76.7907 17.4585 76.6412 17.6329C76.6412 17.7159 76.6412 17.7907 76.7243 17.7824C76.9734 17.7824 76.9568 17.5332 76.9485 17.3672C76.9485 17.4502 77.0315 17.4502 77.1146 17.4419C77.034 17.5733 76.9298 17.6887 76.8073 17.7824C76.8904 17.7824 76.9734 17.8571 76.8987 17.9401C76.5831 18.1976 76.608 18.6875 76.3008 18.945C76.3838 18.945 76.4668 19.0197 76.3921 19.1027C76.2239 19.2009 76.0904 19.3489 76.0101 19.5263C75.9047 20.3007 75.6204 21.0399 75.1797 21.6854C75.096 21.7759 74.9853 21.8371 74.8641 21.8598C74.5403 21.8016 74.125 21.7352 74.1167 21.4113C73.8802 20.9748 73.752 20.4878 73.743 19.9913C73.8046 19.7272 73.9024 19.4729 74.0337 19.2356C74.0356 19.1926 74.0285 19.1497 74.0127 19.1096C73.997 19.0696 73.973 19.0333 73.9423 19.0031C75.4122 17.6246 75.1299 15.3658 75.0385 13.5887C74.9813 12.9856 74.757 12.4104 74.3908 11.9279C74.2164 11.6953 74.2745 11.2884 74.2579 10.9646C74.2579 10.7985 74.4821 10.6241 74.4821 10.6241C74.993 10.6274 75.4982 10.7318 75.9686 10.9313C76.4389 11.1309 76.8651 11.4216 77.2225 11.7867C77.646 12.1687 77.2807 12.9161 76.8073 13.1901C76.4834 13.2815 76.0848 13.3064 76.1015 13.6302C75.9271 15.1001 75.5119 16.4205 75.4205 17.7824C76.5665 16.3374 77.3803 14.7513 78.601 13.3147C78.8253 12.9742 78.9664 12.5673 79.1906 12.1438C79.4149 11.7202 80.0211 11.4545 80.2619 10.9563C80.3283 10.6241 80.9595 10.1258 80.6273 10.0428C79.9712 9.99296 78.9083 9.81027 78.8751 9.07949C78.8751 8.91341 78.7588 8.5148 78.9996 8.42345C79.5455 8.29229 80.1147 8.29229 80.6605 8.42345C81.574 8.7058 82.4127 7.59303 83.2431 7.96672C83.4715 8.0863 83.6529 8.2794 83.758 8.5148C83.9877 8.7703 84.1909 9.04854 84.3642 9.34523C84.4639 9.6691 84.5635 9.98466 84.3642 10.2421C84.1649 10.4995 83.8826 10.35 83.7331 10.5992C83.5842 11.0543 83.4731 11.5209 83.4009 11.9943C83.2681 12.4514 82.9727 12.8442 82.5705 13.0988C82.3679 13.4055 82.0789 13.6454 81.7401 13.788C81.8171 13.854 81.9124 13.895 82.0133 13.9054C82.1142 13.9157 82.2159 13.8951 82.3047 13.8461C82.4291 13.8075 82.5608 13.7987 82.6891 13.8203C82.8175 13.8419 82.939 13.8935 83.0438 13.9707C83.3213 14.1829 83.6442 14.3278 83.9871 14.394C84.3301 14.4603 84.6837 14.4462 85.0202 14.3527C85.3441 14.3527 85.0618 13.6219 84.9704 13.4641C84.6075 12.7874 84.3499 12.0594 84.2064 11.305C84.3725 11.305 84.5469 11.5376 84.6133 11.305C84.6798 11.0725 84.2895 11.2386 84.3559 10.9978C84.7711 11.2137 85.4521 11.7535 85.6763 11.3299C85.8199 11.0223 85.8852 10.6838 85.8663 10.3448C85.8475 10.0058 85.7451 9.67665 85.5683 9.38675C85.477 9.14593 84.987 9.0878 84.8957 8.85528C84.0652 7.59303 85.7676 6.86225 86.4486 5.84913C85.7842 5.72457 85.3441 6.48026 84.8791 6.90377C84.7556 6.93171 84.643 6.99523 84.5552 7.08647C84.5124 7.40696 84.3563 7.70154 84.1151 7.91689C83.9063 7.99525 83.6761 7.99525 83.4673 7.91689C83.1269 7.60964 82.6369 7.63455 82.3712 7.16121C82.1054 6.68786 82.1719 6.43873 82.4874 6.25604C83.0355 5.82422 83.8659 6.25604 84.5054 5.9903C85.4013 5.75382 86.2458 5.35406 86.9967 4.8111C87.1044 4.74455 87.2245 4.70051 87.3498 4.68163C87.475 4.66275 87.6028 4.66941 87.7254 4.70123C87.848 4.73304 87.9629 4.78934 88.0631 4.86674C88.1634 4.94413 88.2469 5.04102 88.3087 5.15157C88.4665 5.67474 87.9101 5.94048 87.3537 6.13148ZM87.4285 13.9292C87.4454 13.3813 87.2723 12.8443 86.9385 12.4095C86.8472 12.1687 87.1544 11.7452 86.9385 11.7618C86.7226 11.7784 86.8804 12.2517 86.5565 12.3431C86.6479 12.5839 86.4984 12.7583 86.4237 12.9244C86.3801 13.0463 86.3086 13.1564 86.2148 13.2458C86.1211 13.3352 86.0078 13.4015 85.8839 13.4392C85.9835 13.7548 85.668 14.0205 85.8341 14.087C86.1828 14.4773 86.9551 13.788 87.0714 14.4357C87.1952 14.6938 87.2386 14.9831 87.196 15.2662C87.1212 15.3492 86.9634 15.5983 86.8887 15.6066C85.8673 16.3042 84.713 15.9554 83.6666 16.1796C83.6666 16.3374 83.6085 16.5035 83.7663 16.5782C83.6668 16.7521 83.6206 16.9513 83.6334 17.1512C84.8043 17.6578 85.8008 16.6364 87.0216 16.736C87.1112 16.7165 87.1942 16.6741 87.2626 16.613C87.331 16.5519 87.3824 16.4741 87.4119 16.3872C87.4533 15.9814 87.4533 15.5724 87.4119 15.1665C87.47 14.7347 87.3703 14.3361 87.4285 13.9292Z" fill="#1B2D58"/>
<path d="M76.7998 7.73417C76.4685 7.35775 76.0951 7.02061 75.687 6.72935C75.4775 6.58702 75.2551 6.46468 75.0227 6.36396C74.9618 6.37196 74.9059 6.40141 74.8649 6.447C74.2088 6.32244 74.0344 5.61658 73.503 5.21797C73.4199 5.14323 73.503 4.97715 73.503 4.81106C73.7106 3.98064 74.4414 4.12181 74.9894 3.68168C75.0725 3.68168 75.2303 3.59034 75.3216 3.74812C75.3963 3.74812 75.3963 3.66507 75.3963 3.58203C75.5624 3.73151 75.795 3.58203 75.961 3.63186C76.1271 3.68168 76.3763 3.77303 76.5423 3.84777C76.7084 3.92251 76.7749 3.67338 76.8579 3.66507C77.4411 3.87821 77.9983 4.1568 78.5188 4.4955C78.7769 4.78837 79.0103 5.10225 79.2163 5.43388C79.2163 5.50862 79.3824 5.6664 79.2163 5.84079C79.3431 5.93265 79.4486 6.05058 79.526 6.18666C79.6033 6.32274 79.6507 6.47381 79.6647 6.6297C79.6066 7.03661 79.5402 7.36047 79.482 7.77569C79.4239 8.1909 78.934 8.29055 78.5935 7.98329C78.5188 8.06634 78.4357 8.06634 78.444 8.23242C78.2476 8.25817 78.0584 8.32312 77.8876 8.42342C77.5721 8.68085 77.2814 9.34519 76.7832 9.12928C76.534 8.97981 77.0821 8.62272 77.1485 8.29886C77.1324 8.18581 77.093 8.07731 77.033 7.98015C76.973 7.88299 76.8936 7.79925 76.7998 7.73417Z" fill="#1B2D58"/>
</g>
<path d="M1.62 44.6163V31.2003H2.412V44.6163H1.62ZM17.1707 31.6803C17.1347 31.8123 16.9907 31.9203 16.7147 31.9083C16.1987 32.3283 15.3467 32.9163 14.6387 33.3243H14.4947C14.7467 32.7243 15.0707 31.8003 15.2507 31.1643L17.1707 31.6803ZM9.44269 31.1643C12.5867 31.4643 11.3747 33.8403 10.1627 32.9283C10.1267 32.3163 9.74269 31.6323 9.34669 31.2363L9.44269 31.1643ZM14.1347 31.2003C14.1107 31.3563 14.0267 31.4643 13.7267 31.5123V33.3243H12.3227V31.0563L14.1347 31.2003ZM16.5227 33.1203L17.2907 32.3523L18.6107 33.6123C18.5267 33.7083 18.4067 33.7443 18.1547 33.7683C17.8067 34.1163 17.1827 34.6083 16.7027 34.8963L16.6067 34.8243C16.6427 34.3443 16.6667 33.5643 16.6547 33.1203H16.5227ZM9.01069 32.4723C9.64669 33.8763 9.27469 34.8843 8.68669 35.1843C8.26669 35.4003 7.73869 35.2683 7.58269 34.8003C7.47469 34.3563 7.75069 34.0323 8.13469 33.8523C8.53069 33.6483 8.92669 33.0963 8.84269 32.4843L9.01069 32.4723ZM17.1467 33.1203V33.4683H8.91469V33.1203H17.1467ZM14.6627 34.3323L15.2867 33.6723L16.6067 34.6443C16.5347 34.7283 16.3907 34.8243 16.1747 34.8723V36.1803C16.1627 36.2643 15.4547 36.4803 15.0227 36.4803H14.7827V34.3323H14.6627ZM11.2547 36.4563C11.2547 36.5643 10.6427 36.8523 10.0787 36.8523H9.89869V33.7803L11.3267 34.3323H15.2627V34.6803H11.2547V36.4563ZM15.3587 35.9043V36.2523H10.7147V35.9043H15.3587ZM17.2667 38.8563C17.2667 38.8563 18.1067 39.4203 18.6347 39.8403C18.5987 39.9723 18.4667 40.0323 18.2987 40.0323H7.66669L7.55869 39.6843H16.5347L17.2667 38.8563ZM15.9827 37.6923C15.9827 37.6923 16.7507 38.2203 17.2427 38.6163C17.2067 38.7483 17.0867 38.8083 16.9067 38.8083H9.02269L8.92669 38.4603H15.3107L15.9827 37.6923ZM13.6907 40.9083C13.6907 41.7483 13.4267 42.2403 11.7827 42.3483C11.7347 41.9883 11.6627 41.7243 11.4227 41.5443C11.2067 41.3883 10.8947 41.2563 10.1627 41.1483V40.9923C10.1627 40.9923 11.7347 41.0883 12.0467 41.0883C12.2627 41.0883 12.3227 41.0283 12.3227 40.8843V37.1763H13.6907V40.9083ZM16.8227 37.4763C16.7027 37.5843 16.4627 37.5843 16.1387 37.4283C14.1827 37.6203 11.3027 37.7403 8.80669 37.6203L8.77069 37.4043C11.1827 37.2603 14.2067 36.8283 15.8267 36.4083L16.8227 37.4763ZM25.2347 37.0083C25.9907 36.9843 27.7547 36.8643 29.5307 36.7203L29.5427 36.8883C28.7987 37.1763 27.3947 37.7163 25.7387 38.2323L25.2347 37.0083ZM28.3067 35.1963C27.6587 35.8923 26.4587 36.8163 25.5947 37.2723V37.1283H26.1827C26.1347 37.8243 25.8947 38.2683 25.6067 38.3883L25.0547 36.9843C25.0547 36.9843 25.2947 36.9363 25.3787 36.8763C25.8827 36.5763 26.4707 35.5803 26.6627 35.0883H28.3067V35.1963ZM29.3147 34.2003C29.3147 34.2003 30.0467 34.7763 30.5027 35.1963C30.4667 35.3283 30.3347 35.3883 30.1667 35.3883H25.1027L25.0067 35.0403H28.6667L29.3147 34.2003ZM28.2347 35.8683C31.3787 36.6003 30.3827 38.7963 29.2547 37.9923C29.0867 37.2963 28.5707 36.4683 28.1147 35.9403L28.2347 35.8683ZM28.3547 38.0043C28.3307 38.1363 28.2587 38.2323 28.0187 38.2683V41.6883H26.7227V37.8603L28.3547 38.0043ZM28.7507 31.8603L29.3387 31.2483L30.5627 32.1483C30.5027 32.2323 30.3707 32.3163 30.1667 32.3523V34.0203C30.1667 34.1043 29.5067 34.3323 29.0867 34.3323H28.8587V31.8603H28.7507ZM29.3507 33.6723V34.0203H24.4187V33.6723H29.3507ZM29.3507 31.8603V32.1963H24.4187V31.8603H29.3507ZM23.6027 31.7403V31.3083L25.1507 31.8603H24.9347V35.0523C24.9347 37.3323 24.7787 40.3443 22.2947 42.3003L22.1627 42.2163C23.4707 40.1043 23.6027 37.4643 23.6027 35.0643V31.7403ZM29.5427 40.6083C29.5427 40.6083 30.3107 41.2563 30.7547 41.7003C30.7307 41.8323 30.5987 41.8923 30.4307 41.8923H24.1787L24.0827 41.5443H28.8707L29.5427 40.6083ZM29.1467 38.5563C29.1467 38.5563 29.8427 39.1443 30.2387 39.5523C30.2027 39.6843 30.0827 39.7443 29.9267 39.7443H24.9827L24.8867 39.3963H28.5347L29.1467 38.5563ZM19.3067 36.9843C19.9667 36.8403 21.7307 36.3483 23.3987 35.8083L23.4467 35.9523C22.7507 36.4683 21.6467 37.2843 20.1467 38.2323C20.0987 38.3883 19.9787 38.5323 19.8347 38.5803L19.3067 36.9843ZM22.5947 31.2483C22.5707 31.4163 22.4507 31.5363 22.1507 31.5723V40.6563C22.1507 41.6283 21.9707 42.1803 20.5427 42.3243C20.5187 41.8683 20.4587 41.5203 20.3267 41.2923C20.1707 41.0643 19.9547 40.9203 19.4867 40.8243V40.6563C19.4867 40.6563 20.3987 40.7163 20.6027 40.7163C20.7827 40.7163 20.8307 40.6563 20.8307 40.5243V31.0683L22.5947 31.2483ZM22.7147 33.0363C22.7147 33.0363 23.3507 33.6363 23.6987 34.0443C23.6747 34.1763 23.5547 34.2363 23.3867 34.2363H19.5347L19.4387 33.8883H22.1627L22.7147 33.0363ZM33.5387 36.0483H38.5547L39.2627 35.1723C39.2627 35.1723 40.0667 35.7723 40.5707 36.2043C40.5347 36.3363 40.4027 36.3963 40.2347 36.3963H33.6347L33.5387 36.0483ZM33.0827 38.6763H39.3707L40.1027 37.7403C40.1027 37.7403 40.9427 38.3883 41.4467 38.8323C41.4227 38.9643 41.2907 39.0243 41.1227 39.0243H33.1787L33.0827 38.6763ZM31.9067 41.5803H40.2467L41.0387 40.5843C41.0387 40.5843 41.9267 41.2563 42.4667 41.7363C42.4307 41.8683 42.2987 41.9283 42.1307 41.9283H32.0027L31.9067 41.5803ZM36.2747 36.0723H37.7627V41.8083H36.2747V36.0723ZM33.5147 31.8003H37.5707V32.1363H33.6227L33.5147 31.8003ZM35.7467 31.8003H37.6187C36.4787 33.9963 34.0907 35.8563 31.4387 36.8883L31.3667 36.7563C33.3347 35.5203 35.1107 33.5643 35.7467 31.8003ZM37.2827 31.8003H36.9947L37.4507 31.0803L38.6867 31.8963C38.5427 32.0643 38.1467 32.1483 37.6787 32.1843C38.5667 33.2763 40.7267 34.4403 42.8867 34.9323L42.8747 35.0883C42.2627 35.2563 41.7707 35.8203 41.5907 36.4083C39.7907 35.3883 38.0267 33.7563 37.2827 31.9923V31.8003ZM46.0667 32.3763V39.0843L44.7467 39.5643V32.3763H46.0667ZM43.2947 39.6003C44.1107 39.3483 45.9587 38.6643 47.6387 37.9203L47.6867 38.0523C46.9427 38.7363 45.8267 39.6843 44.2787 40.7523C44.2547 40.9083 44.1467 41.0523 44.0147 41.1123L43.2947 39.6003ZM46.7267 34.7883C46.7267 34.7883 47.3747 35.4243 47.7227 35.8443C47.6987 35.9763 47.5787 36.0363 47.4227 36.0363H43.6187L43.5227 35.6883H46.1627L46.7267 34.7883ZM46.6187 31.4043C46.6187 31.4043 47.3747 32.0763 47.8067 32.5203C47.7707 32.6523 47.6507 32.7123 47.4827 32.7123H43.5467L43.4507 32.3763H45.9587L46.6187 31.4043ZM54.5147 35.4603C54.4307 35.5683 54.3347 35.5923 54.0827 35.5443C53.4707 36.0483 52.5107 36.7083 51.8267 37.1763L51.6947 37.0203C52.1387 36.2763 52.6427 35.2563 53.0267 34.4163L54.5147 35.4603ZM51.2147 40.7403C51.2147 41.6763 50.9987 42.1803 49.4267 42.3123C49.3907 41.9043 49.3427 41.6043 49.1507 41.4123C48.9587 41.2203 48.7067 41.0763 48.1187 40.9803V40.8123C48.1187 40.8123 49.3187 40.8963 49.5827 40.8963C49.7747 40.8963 49.8347 40.8363 49.8347 40.6803V31.1163L51.6347 31.2963C51.6107 31.4643 51.5147 31.5723 51.2147 31.6203V40.7403ZM51.2147 33.6603C51.6707 37.3323 53.1587 38.8563 54.8387 39.7683L54.8027 39.9003C54.2267 40.0323 53.7827 40.5603 53.5907 41.2563C52.0547 39.6963 51.3827 37.8243 51.1067 33.6963L51.2147 33.6603ZM46.2827 39.6483C46.9667 39.3363 48.7187 38.4483 50.4107 37.5003L50.4707 37.6203C49.8587 38.3163 48.9107 39.3963 47.5307 40.7043C47.5187 40.8603 47.4347 41.0163 47.3147 41.0883L46.2827 39.6483ZM47.5667 34.6563C50.5547 35.8443 49.1627 38.0763 48.0587 36.9963C48.0587 36.2283 47.7587 35.3403 47.4467 34.7043L47.5667 34.6563ZM51.8867 31.4883C54.7427 31.4523 53.8787 33.6363 52.7387 32.9523C52.6307 32.4483 52.1987 31.8723 51.7907 31.5723L51.8867 31.4883ZM53.3627 32.6523C53.3627 32.6523 54.1667 33.3003 54.6587 33.7323C54.6227 33.8643 54.4907 33.9243 54.3227 33.9243H47.0027L46.9067 33.5883H52.6427L53.3627 32.6523ZM60.0347 38.8563C60.0107 39.0123 59.9027 39.1323 59.6507 39.1563V40.5843C59.6507 40.7403 59.7107 40.7883 60.1427 40.7883H61.6307C62.1347 40.7883 62.6147 40.7883 62.8187 40.7643C63.0107 40.7523 63.0827 40.7283 63.1787 40.6083C63.3227 40.4163 63.5027 39.9843 63.7547 39.3363H63.8747L63.9107 40.6323C64.3307 40.7883 64.4387 40.9323 64.4387 41.1723C64.4387 41.7723 63.8627 41.9043 61.4747 41.9043H59.9147C58.5467 41.9043 58.2467 41.6883 58.2467 40.7883V38.7243L60.0347 38.8563ZM65.9147 35.1483C65.8427 35.2803 65.5907 35.3643 65.2187 35.1843L65.5907 35.1363C64.8107 35.8923 63.0347 37.0443 61.6427 37.6203L61.6307 37.4883H62.1467C62.0747 38.1843 61.8107 38.5323 61.5467 38.6163L61.1027 37.3203C61.1027 37.3203 61.3547 37.2723 61.4867 37.2123C62.5547 36.6603 63.9947 35.1003 64.4987 34.2603L65.9147 35.1483ZM64.5227 33.9243C64.4627 34.0803 64.2467 34.2003 63.8387 34.0443L64.2347 33.9963C63.6107 34.5003 62.3987 35.1363 61.4747 35.4363L61.4627 35.3043H61.9907C61.9427 35.9403 61.7387 36.2523 61.4987 36.3603L60.9827 35.1363C60.9827 35.1363 61.1747 35.1003 61.2827 35.0523C61.9067 34.7643 62.6987 33.7563 62.9507 33.2523L64.5227 33.9243ZM61.3667 37.3923C62.0747 37.4043 63.7427 37.3683 65.4347 37.3203L65.4467 37.5003C64.6547 37.7163 63.2267 38.1123 61.6667 38.4603L61.3667 37.3923ZM61.1867 35.2683C61.8107 35.2923 63.1787 35.2923 64.5347 35.2683V35.4483C63.9467 35.6163 62.7827 35.9283 61.5587 36.1923L61.1867 35.2683ZM64.4747 36.3603C67.2707 37.2603 66.0707 39.3483 65.0627 38.4363C65.0627 37.7523 64.7147 36.9483 64.3547 36.4323L64.4747 36.3603ZM61.0547 35.1123C60.9707 35.2443 60.7187 35.3403 60.3467 35.1483L60.7187 35.1003C59.9147 35.8803 58.0667 37.0683 56.6027 37.6803V37.5483H57.1067C57.0347 38.2323 56.7707 38.5803 56.5067 38.6763L56.0747 37.3683C56.0747 37.3683 56.3147 37.3203 56.4587 37.2603C57.5747 36.6963 59.0987 35.0883 59.6387 34.2123L61.0547 35.1123ZM59.6387 33.9363C59.5787 34.0803 59.3627 34.2003 58.9547 34.0563L59.3507 33.9963C58.7147 34.4883 57.4547 35.1243 56.4947 35.4123L56.4827 35.2803H57.0107C56.9627 35.9163 56.7467 36.2283 56.5067 36.3363L56.0027 35.1243C56.0027 35.1243 56.1827 35.0763 56.2907 35.0283C56.9627 34.7403 57.8027 33.7443 58.0787 33.2523L59.6387 33.9363ZM56.3387 37.4283C57.0467 37.4403 58.6907 37.4043 60.3467 37.3563L60.3587 37.5363C59.5907 37.7523 58.1747 38.1483 56.6387 38.4843L56.3387 37.4283ZM56.1827 35.2083C56.7827 35.2323 58.1027 35.2323 59.3987 35.2083V35.4003C58.8347 35.5683 57.7307 35.8683 56.5667 36.1443L56.1827 35.2083ZM65.3507 32.1483C65.3507 32.1483 66.1787 32.7483 66.6947 33.1923C66.6587 33.3243 66.5267 33.3843 66.3587 33.3843H55.5467L55.4507 33.0483H64.6067L65.3507 32.1483ZM64.3667 31.4403C64.3307 31.5963 64.1987 31.7043 63.9227 31.6923C63.4427 32.1483 62.6027 32.7723 61.9187 33.1923H61.7627C61.9787 32.5803 62.2187 31.6683 62.3507 31.0323L64.3667 31.4403ZM59.4347 36.3963C61.9667 37.3563 60.6707 39.2523 59.7707 38.3163C59.8427 37.6923 59.6027 36.9363 59.3027 36.4683L59.4347 36.3963ZM58.2707 31.0683C61.5947 31.3443 60.3587 33.8283 59.0627 32.8923C58.9787 32.2683 58.5827 31.5723 58.1867 31.1403L58.2707 31.0683ZM57.4187 39.0483C57.8747 40.4283 57.3707 41.3883 56.7827 41.6883C56.3867 41.9043 55.8587 41.8203 55.7267 41.4003C55.6067 41.0163 55.8587 40.7043 56.2067 40.5363C56.6867 40.3323 57.2147 39.7443 57.2387 39.0363L57.4187 39.0483ZM64.1747 38.9283C67.6307 39.7443 66.4787 42.3243 65.2427 41.3523C65.1587 40.5243 64.6307 39.5883 64.0667 39.0123L64.1747 38.9283ZM60.7547 38.5323C63.5507 39.2523 62.2547 41.2203 61.2707 40.2963C61.2707 39.7083 60.9707 39.0363 60.6467 38.6043L60.7547 38.5323ZM75.3707 36.3483C75.7427 36.2643 76.5347 36.0363 77.2907 35.8083L77.3507 35.9523C77.0867 36.1923 76.4147 36.7683 75.7907 37.2723L75.3707 36.3483ZM76.2227 34.2963L76.4267 34.4283V36.4563L75.7067 36.7203L76.0667 36.4203C76.1627 36.9723 75.8747 37.2963 75.6707 37.3923L75.2027 36.3963C75.5027 36.2283 75.5507 36.1563 75.5507 35.9643V34.2963H76.2227ZM76.7507 33.8643C76.7387 33.9963 76.6427 34.0803 76.4267 34.1163V34.6563H75.5507V33.7323L76.7507 33.8643ZM73.3187 30.9603C76.1027 31.1043 74.9147 33.2043 73.8107 32.3763C73.7987 31.8843 73.5227 31.3443 73.2227 31.0323L73.3187 30.9603ZM78.5147 33.8523C78.4547 33.9363 78.3467 33.9723 78.1067 33.8883C77.5907 34.0203 76.6067 34.1523 75.9827 34.2363L75.8867 34.1043C76.3547 33.8163 77.0627 33.2763 77.4467 32.9523L78.5147 33.8523ZM72.2987 33.8523L72.8027 33.3483L73.7867 34.1403C73.7147 34.2243 73.5707 34.2843 73.3547 34.3203C73.3307 36.0243 73.2467 36.5283 72.8987 36.8043C72.6467 36.9843 72.3587 37.0443 71.9627 37.0443C71.9627 36.8163 71.9507 36.6123 71.8427 36.4923C71.7347 36.3603 71.6027 36.3003 71.3867 36.2523L71.3987 36.0603C71.5787 36.0723 71.8427 36.0843 72.0107 36.0843C72.1307 36.0843 72.1907 36.0723 72.2387 36.0123C72.3587 35.8923 72.4067 35.3403 72.4187 33.8523H72.2987ZM72.0467 33.8763C71.9627 35.0523 71.6627 36.5403 70.1267 37.5843L69.9587 37.4163C70.9667 36.2523 71.0387 34.9083 71.0627 33.8763H72.0467ZM73.0547 32.8803C75.2387 33.2163 74.3867 34.8003 73.5467 34.1883C73.4987 33.7563 73.2107 33.2523 72.9347 32.9643L73.0547 32.8803ZM76.3427 33.3123C76.2947 33.4323 76.1267 33.5163 75.8867 33.4803C75.4787 33.8763 74.9987 34.2963 74.5787 34.5843L74.3987 34.4763C74.6147 34.0443 74.8907 33.3603 75.1307 32.7123L76.3427 33.3123ZM77.1107 33.8163C77.3867 34.9203 77.9987 35.8323 78.7547 36.2523L78.7427 36.3723C78.3347 36.4803 78.0707 36.8163 77.9387 37.3803C77.3147 36.6123 77.0747 35.4483 76.9547 33.8763L77.1107 33.8163ZM73.1027 37.3203C73.0667 37.4763 72.9827 37.5963 72.7067 37.6323V38.7003C72.6827 39.9723 72.2507 41.5563 70.0067 42.3483L69.9107 42.2403C71.1587 41.2563 71.3387 39.8523 71.3387 38.6763V37.1523L73.1027 37.3203ZM76.8107 39.8763V40.2123H72.1787V39.8763H76.8107ZM76.8107 38.1963V38.5443H72.2027V38.1963H76.8107ZM77.7827 37.2723C77.7587 37.4403 77.6627 37.5603 77.3387 37.6083V41.9403C77.3387 42.0363 76.7387 42.2763 76.1987 42.2763H75.9587V37.1043L77.7827 37.2723ZM75.1907 34.4883C75.1787 34.6203 75.0947 34.7043 74.9027 34.7403V37.1763C74.9027 37.2603 74.4347 37.4523 74.0747 37.4523H73.8827V34.3683L75.1907 34.4883ZM72.8627 33.8523V34.1883H70.4867L70.3787 33.8523H72.8627ZM77.3507 31.5243C77.3507 31.5243 78.1907 32.1603 78.6827 32.6043C78.6467 32.7363 78.5147 32.7963 78.3467 32.7963H70.6427L70.5467 32.4603H76.6187L77.3507 31.5243ZM68.1107 38.7123C68.2667 38.7123 68.3147 38.7003 68.4347 38.4483C68.6387 38.0043 68.6387 38.0043 70.3907 32.8923L70.5947 32.9403C70.2587 34.4763 69.6467 37.3203 69.5267 37.9923C69.4547 38.4123 69.4067 38.8443 69.4067 39.1443C69.4307 39.8043 69.8987 40.2483 69.8627 41.3403C69.8507 41.9283 69.4787 42.3363 68.9147 42.3363C68.6507 42.3363 68.3747 42.1683 68.2907 41.7243C68.5187 40.4763 68.4587 39.3123 68.1947 39.1323C68.0387 39.0123 67.8467 38.9643 67.5947 38.9403V38.7123C67.5947 38.7123 67.9787 38.7123 68.1107 38.7123ZM67.4507 33.9843C70.6067 34.2963 69.5267 36.6243 68.3027 35.7843C68.1827 35.1603 67.7507 34.4883 67.3427 34.0563L67.4507 33.9843ZM68.0867 31.2123C71.3747 31.5723 70.2467 33.9843 68.9867 33.0963C68.8547 32.4603 68.3867 31.7523 67.9907 31.2963L68.0867 31.2123ZM90.7187 36.1683C90.6467 36.2523 90.4667 36.3123 90.2507 36.2043C89.8187 36.5283 88.9307 37.0683 88.1987 37.4523L88.0907 37.3563C88.5587 36.6603 89.1707 35.5443 89.4227 34.9923L90.7187 36.1683ZM87.6347 34.1163C87.5987 34.2363 87.4547 34.2963 87.1907 34.3323V35.1363C87.1547 35.1363 86.9267 35.1363 86.0147 35.1363V33.7083L87.6347 34.1163ZM86.9027 34.6563L87.1907 34.8363V41.1123L86.0867 41.4483L86.5787 41.0523C86.7227 41.7963 86.3627 42.1923 86.1107 42.3243L85.4987 41.0523C85.9307 40.8243 86.0147 40.7283 86.0147 40.4643V34.6563H86.9027ZM85.6667 41.0523C86.1467 40.9323 87.2627 40.5963 88.3427 40.2363L88.3907 40.3803C87.9947 40.7283 87.1547 41.4603 86.2427 42.1563L85.6667 41.0523ZM87.9107 34.1283C88.1507 37.0443 88.9907 39.7923 90.8507 40.8363L90.8267 40.9683C90.4187 41.1123 90.0587 41.5443 89.8907 42.2043C88.1867 40.5603 87.8387 38.0403 87.7187 34.1643L87.9107 34.1283ZM90.3107 34.1403C90.1907 34.2483 89.9387 34.2603 89.6147 34.1403C88.7747 34.3203 87.3947 34.4403 86.2667 34.4403L86.2187 34.2603C87.2147 33.9723 88.4507 33.4083 89.0627 33.0003L90.3107 34.1403ZM90.5267 32.2803C90.3947 32.4123 90.1427 32.4243 89.7827 32.3163C88.5827 32.6283 86.6147 32.9163 84.9347 33.0123L84.8987 32.8443C86.3867 32.4363 88.2107 31.6563 89.1347 31.1043L90.5267 32.2803ZM85.8227 32.7123C85.7867 32.7963 85.6787 32.8443 85.5227 32.8683V36.0483C85.5227 38.0643 85.4147 40.5963 83.3867 42.3243L83.2307 42.1923C84.2387 40.3803 84.2987 38.1483 84.2987 36.0243V32.0163L85.8227 32.7123ZM80.7107 34.2123C83.1227 33.5763 83.0987 35.4123 82.0787 35.2443C81.7667 34.9203 81.1067 34.5363 80.6267 34.3563L80.7107 34.2123ZM80.9387 37.2003C81.2867 37.0443 82.1267 36.6363 82.9547 36.2043L83.0147 36.3363C82.7627 36.6963 82.3307 37.3083 81.7787 38.0283C81.7667 38.1723 81.6827 38.3163 81.5627 38.3883L80.9387 37.2003ZM82.2107 31.9323L82.7507 31.2963L83.9387 32.2203C83.8667 32.3163 83.7107 32.4003 83.4947 32.4483V40.7643C83.4947 41.6043 83.3267 42.0843 82.0187 42.2043C81.9947 41.8323 81.9467 41.5323 81.8147 41.3643C81.6587 41.1963 81.4427 41.0523 80.9867 40.9803V40.8003C80.9867 40.8003 81.8867 40.8723 82.0907 40.8723C82.2827 40.8723 82.3307 40.8003 82.3307 40.6323V31.9323H82.2107ZM83.0147 31.9323V32.2803H80.8427V31.9323H83.0147ZM80.1227 31.8123V31.4283L81.4907 31.9323H81.2987V35.7243C81.2987 37.8243 81.2747 40.4883 79.5107 42.3123L79.3427 42.2163C80.1347 40.3443 80.1227 37.9443 80.1227 35.7363V31.8123ZM91.4387 33.4443H96.0227L96.7067 32.6043C96.7067 32.6043 97.4747 33.1683 97.9427 33.6003C97.9067 33.7323 97.7867 33.7923 97.6067 33.7923H91.5347L91.4387 33.4443ZM91.6307 39.0483H95.8307L96.4547 38.2683C96.4547 38.2683 97.1747 38.8083 97.6307 39.2043C97.5947 39.3363 97.4747 39.3963 97.3067 39.3963H91.7267L91.6307 39.0483ZM91.4747 40.5723C92.5187 40.5243 95.0267 40.3203 97.5947 40.0683L97.6187 40.2243C96.5027 40.6683 94.8707 41.2323 92.4347 41.9523C92.3507 42.0963 92.2187 42.1923 92.0747 42.2283L91.4747 40.5723ZM92.5067 36.1323H96.5507V36.4683H92.5067V36.1323ZM92.5067 37.6083H96.5507V37.9563H92.5067V37.6083ZM96.4427 31.0443L97.6547 32.2803C97.5107 32.4003 97.2467 32.3883 96.9107 32.2443C95.5067 32.4363 93.3227 32.6043 91.4747 32.6163L91.4507 32.4243C93.1307 32.1123 95.3147 31.5003 96.4427 31.0443ZM93.8987 32.2083L95.1227 31.9683V40.5843C95.1107 40.6683 94.7147 40.9443 94.1147 40.9443H93.8987V32.2083ZM91.8107 34.6563V34.1403L93.1427 34.6563H96.0107L96.5987 33.9843L97.7507 34.8603C97.6787 34.9563 97.5707 35.0283 97.3067 35.0763V37.9443C97.3067 38.0043 96.8987 38.2323 96.2627 38.2323H96.0467V34.9923H93.0227V38.1483C93.0227 38.2443 92.6387 38.4483 92.0267 38.4483H91.8107V34.6563ZM97.4267 34.1043H101.495V34.4523H97.5347L97.4267 34.1043ZM98.5907 31.2243L100.367 31.3923C100.331 31.5723 100.211 31.6923 99.9347 31.7283C99.8747 36.7803 100.139 40.2003 96.3107 42.3483L96.1787 42.1803C98.8787 39.6963 98.5907 36.2883 98.5907 31.2243ZM101.003 34.1043H100.859L101.579 33.3723L102.791 34.4403C102.719 34.5483 102.551 34.6323 102.287 34.6683C102.215 39.4323 102.059 41.0283 101.447 41.6643C101.063 42.0603 100.559 42.2283 99.9467 42.2283C99.9587 41.7963 99.9227 41.4843 99.7787 41.3043C99.6227 41.1003 99.3227 40.9563 98.9147 40.8483V40.6803C99.2627 40.7163 99.8147 40.7523 100.043 40.7523C100.235 40.7523 100.331 40.7043 100.439 40.6083C100.823 40.2363 100.931 38.3163 101.003 34.1043ZM105.983 42.1923V41.4843H113.231V42.1923H105.983Z" fill="#333333"/>
<defs>
<clipPath id="clip0_10374_14795">
<rect width="48" height="24.8793" fill="white" transform="translate(0 0.372559)"/>
</clipPath>
<clipPath id="clip1_10374_14795">
<rect width="50" height="24.8879" fill="white" transform="translate(48 0.368408)"/>
</clipPath>
</defs>
</svg>
