<svg width="100%" height="100%" viewBox="0 0 377 53" fill="none" xmlns="http://www.w3.org/2000/svg">
    <g clip-path="url(#clip0_5067_3052)">
        <path
            d="M26.4172 31.0014C29.8755 34.4598 34.0816 36.2883 38.5739 36.2883C50.8066 36.2883 57.478 22.9865 57.478 16.1458C57.5422 13.9902 57.1158 12.3953 56.3096 11.8696C53.3244 9.62633 46.4954 7.28379 38.5564 7.42983C31.1374 7.28963 24.1506 9.63802 20.7974 11.8754C20.0263 12.3953 19.629 13.9902 19.6582 16.1458C19.6758 20.0656 21.7847 26.3747 26.4172 31.0014Z"
            fill="white" />
        <path
            d="M26.9996 18.7804C26.9237 18.7804 26.8652 18.8622 26.7776 18.8855C26.69 18.9089 26.544 18.979 26.5673 19.0257C26.6666 19.1718 26.8886 19.1192 27.0405 19.0257C27.1924 18.9323 27.1164 18.7979 26.9996 18.7804Z"
            fill="#95969B" />
        <path
            d="M26.9661 18.1722C27.0449 18.1487 27.1213 18.1173 27.1939 18.0788C27.219 18.0589 27.2388 18.0331 27.2514 18.0036C27.264 17.9742 27.2691 17.9421 27.2662 17.9102C27.2633 17.8783 27.2525 17.8477 27.2348 17.821C27.2171 17.7943 27.193 17.7725 27.1647 17.7575C26.9661 17.7166 26.785 17.9152 26.5806 17.9444C26.639 18.0846 26.8025 18.2423 26.9661 18.1722Z"
            fill="#95969B" />
        <path
            d="M38.5716 37.4391C51.4761 37.404 58.8133 23.8335 58.825 15.9062C58.825 15.766 58.825 15.62 58.825 15.4739C58.825 13.3358 58.3986 11.6885 57.3821 10.9758C53.9063 8.37617 46.7559 6.13878 39.2726 6.13293H37.8881C30.3989 6.13293 23.3712 8.31192 19.7785 10.9875C18.8147 11.7294 18.359 13.3242 18.3473 15.4798C18.3473 15.62 18.3473 15.766 18.3473 15.9121C18.3356 23.8335 25.6846 37.404 38.5716 37.4391ZM20.0998 11.4723C23.5465 8.90777 30.5041 6.73463 37.8705 6.74047H39.255C46.6332 6.74047 53.7252 8.97787 57.0433 11.4723C57.7501 11.9163 58.2409 13.4118 58.2116 15.4739C58.2116 15.6141 58.2116 15.7543 58.2116 15.8946C58.2116 19.7092 56.4124 24.9785 53.0475 29.2547C49.6827 33.5309 44.7814 36.849 38.5599 36.849C32.3384 36.849 27.4605 33.5543 24.0781 29.2547C20.6957 24.9552 18.9081 19.7092 18.9139 15.9062C18.9139 15.7543 18.9139 15.6142 18.9139 15.4798C18.9081 13.4235 19.4164 11.963 20.0998 11.4723Z"
            fill="#95969B" />
        <path
            d="M25.0148 17.8398C24.8104 17.647 24.4307 17.8398 24.3314 18.0267C24.232 18.2136 24.5709 18.237 24.7461 18.202C24.9214 18.1669 25.1901 18.0033 25.0148 17.8398Z"
            fill="#95969B" />
        <path
            d="M26.4172 31.0014C29.8755 34.4598 34.0816 36.2883 38.5739 36.2883C50.8066 36.2883 57.478 22.9865 57.478 16.1458C57.5422 13.9902 57.1158 12.3953 56.3096 11.8696C53.3244 9.62633 46.4954 7.28379 38.5564 7.42983C31.1374 7.28963 24.1506 9.63802 20.7974 11.8754C20.0263 12.3953 19.629 13.9902 19.6582 16.1458C19.6758 20.0656 21.7847 26.3747 26.4172 31.0014ZM24.2674 18.5234C24.0045 18.389 23.6248 18.0911 23.8234 17.8399C23.952 17.6763 24.3024 17.7523 24.5011 17.5595C24.5712 17.4894 24.6413 17.3492 24.7406 17.4134C24.8399 17.4777 25.0911 17.4134 25.2255 17.5186C25.3598 17.6237 25.7279 17.764 25.7279 18.0151C25.7279 18.2663 25.3715 18.3364 25.3248 18.5351C25.278 18.7337 25.6461 18.8038 25.7688 18.9966C25.8914 19.1893 25.5993 19.4873 25.3657 19.5807C25.1389 19.6761 24.8911 19.71 24.647 19.6793C24.403 19.6485 24.1713 19.5541 23.9753 19.4055C23.6365 19.1076 23.9344 18.6636 24.2674 18.5234ZM25.9382 19.9196C26.0139 19.9089 26.0911 19.9203 26.1606 19.9524C26.23 19.9845 26.2887 20.036 26.3296 20.1007C26.3938 20.2526 26.4639 20.5154 26.3296 20.6031C26.1952 20.6907 25.8096 20.6031 25.8272 20.346C25.8155 20.1883 25.8096 19.9429 25.9382 19.9137V19.9196ZM26.0959 29.7396C25.9977 29.6926 25.9176 29.6146 25.8681 29.5176C25.8681 29.4767 25.8681 29.43 25.909 29.4417C27.0253 29.6524 28.1753 29.6004 29.268 29.2898C29.379 29.2489 29.4783 29.3249 29.303 29.4651C28.9542 29.7089 28.5548 29.8706 28.1347 29.9382C27.4516 30.1035 26.7326 30.0313 26.0959 29.7338V29.7396ZM30.8686 31.2351C30.3604 31.054 30.413 30.9605 30.5064 30.9372C30.9403 30.919 31.372 30.8662 31.7975 30.7795C32.2742 30.524 32.7803 30.3279 33.3046 30.1953C33.6674 30.1363 34.0394 30.1832 34.3762 30.3303C34.7129 30.4774 35.0001 30.7186 35.2032 31.0248C35.285 31.1708 34.8001 31.0248 34.619 30.9956C33.8778 30.958 33.1376 31.0857 32.4518 31.3695C31.9231 31.4988 31.3664 31.4495 30.8686 31.2293V31.2351ZM39.7073 32.5787C38.13 32.8883 36.8682 31.9945 35.3668 31.72C35.0198 31.6731 34.6681 31.6731 34.3211 31.72C33.737 31.755 33.217 32.0705 32.6037 32.0237C32.4167 32.0237 32.6037 31.9244 32.6037 31.9186C33.1889 31.6618 33.7947 31.4547 34.4146 31.2994C34.9493 31.1796 35.5039 31.1796 36.0386 31.2994C36.4801 31.3941 36.9013 31.5662 37.2829 31.8076C37.464 31.9244 37.686 32.0763 37.8671 31.9829C37.9722 31.9244 38.0657 31.8368 38.1884 31.8777C38.4747 31.9828 38.3461 32.088 39.0121 32.2574C39.2394 32.2994 39.4638 32.356 39.6839 32.4268C39.9234 32.5086 39.7481 32.5729 39.7073 32.5787ZM34.2686 25.8081C34.1576 25.8081 34.1751 25.8723 34.1751 25.9541V26.4624C34.1751 26.48 34.1716 26.4975 34.1649 26.5138C34.1581 26.5301 34.1482 26.5449 34.1357 26.5574C34.1233 26.5698 34.1084 26.5798 34.0921 26.5865C34.0758 26.5933 34.0584 26.5967 34.0407 26.5967C34.0238 26.596 34.0073 26.5919 33.992 26.5848C33.9767 26.5776 33.9629 26.5675 33.9515 26.555C33.9401 26.5425 33.9313 26.5279 33.9255 26.512C33.9198 26.4961 33.9173 26.4792 33.9181 26.4624V25.6737C33.9173 25.6571 33.9198 25.6405 33.9257 25.625C33.9315 25.6094 33.9404 25.5952 33.9518 25.5832C33.9633 25.5712 33.9771 25.5616 33.9924 25.5551C34.0077 25.5486 34.0241 25.5452 34.0407 25.5452H36.8214C36.8555 25.5452 36.8882 25.5588 36.9123 25.5829C36.9364 25.607 36.9499 25.6396 36.9499 25.6737C36.9507 25.6911 36.948 25.7084 36.9419 25.7247C36.9358 25.741 36.9264 25.7558 36.9144 25.7684C36.9024 25.781 36.888 25.791 36.872 25.7978C36.856 25.8046 36.8388 25.8081 36.8214 25.8081H34.2686ZM36.4651 26.1528C36.4651 26.1951 36.4487 26.2359 36.4193 26.2664C36.3898 26.2969 36.3497 26.3148 36.3073 26.3163H35.9685C35.9261 26.3148 35.886 26.2969 35.8566 26.2664C35.8272 26.2359 35.8108 26.1951 35.8108 26.1528C35.8108 26.1109 35.8274 26.0708 35.857 26.0412C35.8865 26.0116 35.9267 25.995 35.9685 25.995H36.3073C36.3299 25.9916 36.353 25.9932 36.3749 25.9996C36.3968 26.006 36.4171 26.0171 36.4343 26.0321C36.4515 26.0471 36.4653 26.0656 36.4746 26.0865C36.484 26.1073 36.4887 26.1299 36.4884 26.1528H36.4651ZM35.2208 26.1528C35.2193 26.1957 35.2016 26.2364 35.1712 26.2668C35.1409 26.2972 35.1001 26.3149 35.0572 26.3163H34.7242C34.6808 26.3163 34.6392 26.2991 34.6086 26.2684C34.5779 26.2377 34.5606 26.1961 34.5606 26.1528C34.5606 26.1315 34.5649 26.1105 34.5732 26.091C34.5815 26.0715 34.5936 26.0538 34.6089 26.0391C34.6242 26.0244 34.6422 26.0129 34.662 26.0053C34.6819 25.9977 34.703 25.9942 34.7242 25.995H35.0572C35.0801 25.9917 35.1034 25.9933 35.1256 25.9996C35.1478 26.006 35.1684 26.017 35.1861 26.0319C35.2038 26.0468 35.2181 26.0653 35.2281 26.0861C35.2381 26.1069 35.2435 26.1297 35.2441 26.1528H35.2208ZM36.5001 23.2319C36.5197 23.2277 36.54 23.228 36.5594 23.2327C36.5789 23.2373 36.597 23.2463 36.6126 23.2589C36.6281 23.2715 36.6407 23.2874 36.6493 23.3055C36.6579 23.3235 36.6624 23.3433 36.6624 23.3633C36.6624 23.3833 36.6579 23.4031 36.6493 23.4211C36.6407 23.4392 36.6281 23.4551 36.6126 23.4677C36.597 23.4803 36.5789 23.4893 36.5594 23.4939C36.54 23.4986 36.5197 23.4989 36.5001 23.4947H34.8702C34.7592 23.4947 34.7768 23.559 34.7768 23.6408V24.225C34.7768 24.2424 34.7733 24.2595 34.7665 24.2755C34.7597 24.2915 34.7497 24.306 34.7371 24.318C34.7245 24.33 34.7097 24.3393 34.6934 24.3454C34.6771 24.3515 34.6598 24.3543 34.6424 24.3535C34.6084 24.3535 34.5757 24.3399 34.5515 24.3158C34.5274 24.2917 34.5139 24.2591 34.5139 24.225V23.3487C34.5131 23.3313 34.5159 23.314 34.522 23.2977C34.5281 23.2814 34.5374 23.2666 34.5494 23.254C34.5614 23.2415 34.5759 23.2315 34.5918 23.2246C34.6078 23.2178 34.6251 23.2143 34.6424 23.2143L36.5001 23.2319ZM35.285 22.8463V21.5436C35.285 21.5142 35.2967 21.4859 35.3175 21.4651C35.3384 21.4443 35.3666 21.4326 35.396 21.4326C35.4255 21.4326 35.4537 21.4443 35.4745 21.4651C35.4953 21.4859 35.507 21.5142 35.507 21.5436V22.8463C35.507 22.8609 35.5041 22.8753 35.4986 22.8888C35.493 22.9022 35.4848 22.9145 35.4745 22.9248C35.4642 22.9351 35.4519 22.9433 35.4385 22.9488C35.425 22.9544 35.4106 22.9573 35.396 22.9573C35.3814 22.9573 35.367 22.9544 35.3535 22.9488C35.3401 22.9433 35.3278 22.9351 35.3175 22.9248C35.3072 22.9145 35.299 22.9022 35.2935 22.8888C35.2879 22.8753 35.285 22.8609 35.285 22.8463ZM42.523 18.611C42.6924 18.6636 42.7684 18.8388 42.8618 18.9849C43.0896 19.3749 43.27 19.7906 43.3993 20.2233C43.6929 21.3917 43.7248 22.6105 43.4927 23.7927C43.3107 24.4988 43.0211 25.1726 42.634 25.7906C42.2551 26.4009 41.7415 26.9165 41.1327 27.2977C41.1327 27.2977 41.0742 27.2977 41.045 27.2977C41.4189 26.3046 40.9866 24.8734 39.7715 24.7916C39.7715 24.7916 39.7715 24.7566 39.7715 24.7449C40.6711 23.6817 40.7179 22.1979 40.6303 20.8659C40.2099 20.2902 39.6594 19.8218 39.0238 19.499V19.6917C38.9378 19.6556 38.8539 19.6146 38.7726 19.5691V19.3704C37.6919 18.5292 36.5994 17.9392 35.5304 17.1506V16.6774C35.9568 16.765 36.5761 16.9227 37.0025 17.0396C38.9537 17.5828 40.6887 18.0444 42.5464 18.6344L42.523 18.611ZM38.7726 17.3609V16.064L39.0238 16.1341V17.4251L38.7726 17.3609ZM39.5379 17.2324C39.6051 17.0786 39.7048 16.9411 39.8299 16.8293C39.9293 16.7241 40.0402 16.5196 40.1454 16.5664C40.4897 16.6962 40.8038 16.895 41.0684 17.1506C41.0684 17.1506 41.0684 17.244 41.0684 17.2499C40.5671 17.2955 40.0628 17.2975 39.5612 17.2557L39.5379 17.2324ZM41.8746 28.4135C41.8746 28.4135 41.8045 28.5187 41.7928 28.5128C40.8116 28.0388 39.9294 27.3826 39.1932 26.5792V25.995C39.984 26.9205 40.8844 27.7463 41.8746 28.4544V28.4135ZM36.6987 18.243C37.4231 18.7512 38.054 19.166 38.7784 19.6742C39.3005 20.0098 39.7947 20.3869 40.2564 20.8017C40.4509 21.5636 40.3808 22.3689 40.0577 23.0858C39.8256 23.8447 39.3818 24.5215 38.7784 25.037C38.7784 25.037 38.7258 25.037 38.7317 25.037C38.7781 24.8975 38.7852 24.748 38.7522 24.6047C38.7192 24.4615 38.6475 24.3301 38.5447 24.225C37.6334 23.2027 36.5235 22.2446 35.5421 21.345V17.466C35.84 17.7289 36.3599 18.0268 36.6987 18.2663V18.243ZM39.0354 25.1538V26.1703C39.0354 26.2059 39.0213 26.2401 38.9961 26.2653C38.9709 26.2905 38.9367 26.3046 38.9011 26.3046C38.8654 26.3046 38.8313 26.2905 38.8061 26.2653C38.7809 26.2401 38.7667 26.2059 38.7667 26.1703V25.1538C38.7667 25.1182 38.7809 25.084 38.8061 25.0588C38.8313 25.0336 38.8654 25.0194 38.9011 25.0194C38.9367 25.0194 38.9709 25.0336 38.9961 25.0588C39.0213 25.084 39.0354 25.1182 39.0354 25.1538ZM38.5856 25.96C37.9454 25.2748 37.3503 24.5489 36.8039 23.7868V23.2319C37.0843 23.6116 37.9372 24.6281 38.5564 25.3583L38.5856 25.96ZM36.43 23.9562C36.4285 23.9986 36.4106 24.0387 36.3801 24.0681C36.3496 24.0976 36.3088 24.114 36.2664 24.114H35.9334C35.8911 24.114 35.8503 24.0976 35.8198 24.0681C35.7893 24.0387 35.7714 23.9986 35.7699 23.9562C35.7714 23.9133 35.7891 23.8726 35.8194 23.8422C35.8498 23.8118 35.8905 23.7941 35.9334 23.7927H36.2664C36.2907 23.7917 36.3149 23.796 36.3374 23.8052C36.3599 23.8144 36.3802 23.8283 36.3968 23.8461C36.4134 23.8638 36.4261 23.8849 36.4338 23.908C36.4415 23.931 36.4442 23.9554 36.4417 23.9796L36.43 23.9562ZM35.6122 23.9562C35.6122 23.9981 35.5955 24.0382 35.5659 24.0678C35.5364 24.0973 35.4962 24.114 35.4544 24.114H35.1156C35.0738 24.114 35.0337 24.0973 35.0041 24.0678C34.9745 24.0382 34.9579 23.9981 34.9579 23.9562C34.9579 23.9138 34.9743 23.8731 35.0037 23.8426C35.0331 23.8121 35.0733 23.7942 35.1156 23.7927H35.4544C35.478 23.7924 35.5014 23.7973 35.5229 23.8069C35.5445 23.8166 35.5637 23.8308 35.5792 23.8485C35.5947 23.8663 35.6063 23.8872 35.613 23.9098C35.6197 23.9324 35.6214 23.9563 35.618 23.9796L35.6122 23.9562ZM36.6286 24.4353C36.6627 24.4353 36.6954 24.4488 36.7195 24.4729C36.7436 24.497 36.7572 24.5297 36.7572 24.5638C36.7572 24.5979 36.7436 24.6306 36.7195 24.6547C36.6954 24.6788 36.6627 24.6923 36.6286 24.6923H34.5781C34.4613 24.6923 34.4847 24.7624 34.4847 24.8442V25.3524C34.4847 25.3881 34.4705 25.4222 34.4453 25.4474C34.4201 25.4726 34.386 25.4868 34.3503 25.4868C34.333 25.4868 34.3157 25.4833 34.2998 25.4765C34.2838 25.4697 34.2693 25.4597 34.2573 25.4471C34.2453 25.4346 34.236 25.4197 34.2299 25.4034C34.2238 25.3871 34.221 25.3698 34.2218 25.3524V24.5638C34.2218 24.5464 34.2253 24.5292 34.2321 24.5132C34.2389 24.4972 34.2489 24.4828 34.2615 24.4708C34.2741 24.4588 34.2889 24.4494 34.3052 24.4433C34.3215 24.4372 34.3388 24.4345 34.3562 24.4353H36.6286ZM36.43 25.0895C36.4286 25.1325 36.4109 25.1732 36.3805 25.2036C36.3501 25.234 36.3094 25.2517 36.2664 25.2531H35.9334C35.8905 25.2517 35.8498 25.234 35.8194 25.2036C35.7891 25.1732 35.7714 25.1325 35.7699 25.0895C35.7714 25.0466 35.7891 25.0059 35.8194 24.9755C35.8498 24.9451 35.8905 24.9274 35.9334 24.926H36.2664C36.2907 24.925 36.3149 24.9293 36.3374 24.9385C36.3599 24.9477 36.3802 24.9617 36.3968 24.9794C36.4134 24.9971 36.4261 25.0182 36.4338 25.0413C36.4415 25.0643 36.4442 25.0887 36.4417 25.1129L36.43 25.0895ZM35.4136 25.0895C35.4121 25.1325 35.3944 25.1732 35.364 25.2036C35.3337 25.234 35.2929 25.2517 35.25 25.2531H34.917C34.8741 25.2517 34.8333 25.234 34.803 25.2036C34.7726 25.1732 34.7549 25.1325 34.7534 25.0895C34.7549 25.0466 34.7726 25.0059 34.803 24.9755C34.8333 24.9451 34.8741 24.9274 34.917 24.926H35.25C35.2743 24.925 35.2985 24.9293 35.321 24.9385C35.3435 24.9477 35.3637 24.9617 35.3803 24.9794C35.3969 24.9971 35.4096 25.0182 35.4173 25.0413C35.425 25.0643 35.4277 25.0887 35.4252 25.1129L35.4136 25.0895ZM36.9324 25.0895V24.482C37.3939 25.1129 39.7423 28.0981 41.7928 28.7699C42.066 28.9223 42.3737 29.0024 42.6866 29.0024C42.9994 29.0024 43.3071 28.9223 43.5804 28.7699L43.4577 29.3132C42.8826 29.4874 42.2659 29.4648 41.7051 29.2489C40.8756 29.0386 38.8427 27.7359 36.9441 25.1188L36.9324 25.0895ZM37.1193 25.627C37.5808 26.2579 39.5846 28.7932 41.6409 29.4592C42.2165 29.6789 42.8529 29.6789 43.4285 29.4592L43.3116 29.9499C42.7346 30.1144 42.1198 30.0877 41.5591 29.874C40.7529 29.6578 39.0296 28.875 37.131 26.2521L37.1193 25.627ZM41.7928 30.1193C42.3346 30.2457 42.8983 30.2457 43.4402 30.1193C43.4402 30.1193 43.8257 28.174 43.8666 27.9579C43.9075 27.7417 43.9484 27.9579 43.9484 27.9579C43.9484 27.9579 43.5394 30.1018 43.5979 30.0784L43.4635 30.6276C42.9304 30.8028 42.3551 30.8028 41.822 30.6276C40.5368 30.3997 39.4152 29.2547 37.3881 28.5771V26.9648C37.8437 27.6483 40.1454 29.9382 41.7869 30.1485L41.7928 30.1193ZM37.4231 29.0912C37.6015 29.5007 37.9296 29.8267 38.3403 30.0025C38.6323 30.1135 39.0354 29.7279 39.3275 29.8798C39.4327 29.9324 39.0588 30.1135 38.831 30.1252C38.5264 30.1633 38.2172 30.1208 37.9343 30.0018C37.6513 29.8829 37.4045 29.6918 37.2186 29.4475C36.7922 28.7173 36.4417 28.1857 35.9685 28.3142C35.729 28.3843 35.7407 28.4778 35.6122 28.431C35.4836 28.3843 35.4895 28.2208 35.7232 28.0747C36.2022 27.7826 37.0025 27.7943 37.4173 29.1204L37.4231 29.0912ZM39.8708 30.6042C39.7794 30.4936 39.6626 30.4067 39.5304 30.3507C39.3982 30.2948 39.2545 30.2715 39.1114 30.2829C39.0121 30.2829 38.9303 30.1076 39.4327 30.0551C40.1805 29.985 40.6712 30.7035 41.1385 30.8145C41.8395 30.9898 41.6935 31.2702 41.5766 31.2117C41.3132 31.0979 41.0266 31.0481 40.7403 31.0664C40.454 31.0847 40.176 31.1705 39.9292 31.3169C39.7551 31.388 39.5601 31.388 39.386 31.3169C38.8602 31.1942 38.4221 30.9196 37.8846 30.8028C37.5984 30.7444 37.3472 30.9839 37.0668 30.8437C36.8506 30.464 37.8087 30.5984 37.8087 30.5984C38.2877 30.7386 38.7959 30.7152 39.2925 30.832C39.4716 30.87 39.6567 30.87 39.8358 30.832C39.8883 30.8437 39.976 30.7911 39.865 30.6334L39.8708 30.6042ZM44.2229 32.7773C43.0195 33.2505 40.4842 32.9351 40.2681 32.7773C39.9293 32.5437 41.968 32.6255 41.968 32.6255C42.6994 32.7745 43.4521 32.7864 44.1879 32.6605C44.2405 32.6897 44.2346 32.8007 44.2171 32.8066L44.2229 32.7773ZM44.5851 32.4502C43.2568 32.5486 41.9219 32.5114 40.6011 32.3392C40.2389 32.2808 39.4327 32.164 39.8124 32.0004C40.3323 31.7667 40.6595 32.0588 41.1969 31.8602C41.4738 31.7278 41.7635 31.6241 42.0615 31.5506C42.6982 31.5497 43.3284 31.6789 43.9133 31.9303C44.3807 32.0705 44.7838 31.9303 45.2628 32.1114C45.549 32.2633 45.6776 32.3392 44.5793 32.4794L44.5851 32.4502ZM48.984 30.9138C48.6043 30.9138 48.3472 30.721 47.9909 30.7327C47.8602 30.7487 47.7388 30.8084 47.6463 30.9021C47.5411 31.0073 47.7397 31.0248 47.7689 31.1124C47.7869 31.1788 47.7824 31.2492 47.7559 31.3127C47.7295 31.3762 47.6827 31.429 47.6229 31.4629C47.0036 31.8543 46.3377 31.5856 44.9766 30.9197C44.5735 30.721 43.89 31.1066 43.7381 31.1475C43.411 31.2351 43.4635 30.9722 43.5745 30.9255C43.6864 30.8364 43.8191 30.7773 43.9602 30.7538C44.1013 30.7303 44.246 30.7432 44.3807 30.7911C44.626 30.8612 44.7604 30.5283 45.1109 30.6685C45.8645 30.9606 46.6648 31.3753 47.4476 31.0423C47.6346 30.9664 47.4476 30.9605 47.4476 30.8028C47.5002 30.5341 47.6579 30.3764 48.0318 30.3705C48.2538 30.3705 48.5225 30.6042 48.7445 30.6509C48.9665 30.6977 49.1418 30.4757 49.2527 30.6217C49.3637 30.7678 49.1885 30.9313 48.9782 30.943L48.984 30.9138ZM48.3998 20.1591C48.3998 20.3694 48.2129 20.4862 48.1661 20.6907C48.1516 20.771 48.1153 20.8458 48.061 20.9068C47.7981 21.1347 47.6638 21.4268 47.4067 21.6487C47.3862 21.6685 47.3603 21.6817 47.3322 21.6869C47.3042 21.6921 47.2753 21.689 47.249 21.6779C47.1377 21.5941 47.0601 21.4733 47.0301 21.3372C47.0001 21.2012 47.0198 21.0589 47.0854 20.936C47.3703 20.5306 47.7083 20.1652 48.0902 19.8495C48.1486 19.7969 48.1895 19.7034 48.2479 19.6392C48.3064 19.5749 48.3648 19.6392 48.394 19.6392C48.4232 19.6392 48.394 19.8495 48.3648 19.9605C48.3356 20.0714 48.3881 20.124 48.3881 20.1883L48.3998 20.1591ZM50.6957 18.9557C50.6139 19.1718 50.3568 19.2478 50.2108 19.4113C50.1924 19.4444 50.1827 19.4816 50.1827 19.5194C50.1827 19.5572 50.1924 19.5944 50.2108 19.6275C50.5413 19.6496 50.8732 19.628 51.198 19.5632C51.198 19.4931 51.198 19.4055 51.1571 19.3646C50.8767 18.9849 51.0754 18.4825 51.0169 18.0677C50.9781 17.7549 50.8214 17.4687 50.5788 17.2674C50.2517 17.0454 49.7434 17.2674 49.3404 17.1564C49.0483 17.0629 49.3404 16.7066 49.539 16.619C49.9625 16.4902 50.4089 16.4544 50.8475 16.5138C51.017 16.5138 51.052 16.1983 51.2506 16.1633C51.4492 16.1282 51.5953 16.0173 51.7706 16.0581C51.9458 16.099 51.7705 16.508 51.9283 16.5664C52.5587 16.7007 53.2001 16.7769 53.8444 16.7942C53.932 16.7942 54.0547 16.876 54.0138 17.022C54.0138 17.0688 53.9729 17.1038 53.9378 17.1097C53.2952 17.2908 52.4774 16.9344 52.0159 17.6121C51.8849 17.7496 51.7711 17.9026 51.6771 18.0677C51.5953 18.2605 51.6128 18.465 51.5077 18.6519C51.4025 18.8388 51.5077 19.0141 51.4668 19.1952C51.4259 19.3763 51.2506 19.5398 51.3558 19.5574C51.7825 19.6255 52.2152 19.649 52.6468 19.6275C52.7695 19.6275 52.7695 19.423 52.6877 19.3704C52.3489 19.1601 51.9925 18.8272 52.0743 18.5234C52.1561 18.2196 52.7344 17.5945 53.0733 17.8282C53.1492 17.8808 53.0732 17.9801 53.1258 18.0677C53.2559 18.2533 53.4281 18.4054 53.6282 18.5117C54.1832 18.8272 54.6564 19.2828 55.3223 19.3003C55.3632 19.3003 55.4509 19.3588 55.4509 19.3821C55.4498 19.4417 55.4349 19.5001 55.4075 19.5529C55.38 19.6058 55.3407 19.6515 55.2926 19.6866C55.2445 19.7217 55.1889 19.7452 55.1302 19.7552C55.0715 19.7652 55.0113 19.7615 54.9543 19.7443C54.7096 19.6903 54.4708 19.612 54.2416 19.5106C53.9612 19.3821 53.8035 19.0725 53.4997 18.9674C53.0148 19.867 53.3712 20.8601 53.2777 21.824C53.2718 21.8512 53.2602 21.8769 53.2436 21.8994C53.2271 21.9219 53.206 21.9406 53.1818 21.9544C53.1576 21.9681 53.1306 21.9767 53.1029 21.9794C53.0751 21.9821 53.0471 21.9789 53.0207 21.97C52.6877 21.8474 52.6994 21.4735 52.676 21.158C51.8639 20.9462 51.017 20.9025 50.1874 21.0295C50.0531 21.0295 50.018 21.2048 49.9946 21.2982C49.9479 21.5611 49.9129 21.9291 49.6091 21.8824C49.5157 21.8576 49.4348 21.7991 49.382 21.7182C49.3291 21.6373 49.3081 21.5398 49.3228 21.4443C49.6617 20.6381 49.907 19.6917 49.3696 18.9498C49.206 18.722 48.838 19.0433 48.5225 19.0082C48.4987 19.007 48.4756 19.0001 48.4549 18.9883C48.4343 18.9764 48.4167 18.9599 48.4036 18.94C48.3906 18.9201 48.3823 18.8974 48.3797 18.8737C48.377 18.8501 48.3799 18.8261 48.3881 18.8038C48.4109 18.7354 48.4527 18.675 48.5085 18.6294C48.5644 18.5839 48.6321 18.5553 48.7036 18.5468C49.3696 18.5468 49.7843 18.0736 50.3393 17.8107C50.3766 17.7861 50.4202 17.7729 50.4649 17.7729C50.5096 17.7729 50.5532 17.7861 50.5905 17.8107C50.6957 17.9158 50.5905 18.0794 50.5905 18.167C50.7046 18.4237 50.7372 18.7091 50.684 18.9849L50.6957 18.9557ZM48.0493 16.9578C48.3064 17.022 48.6861 17.2499 48.5517 17.577C48.4699 17.7581 48.248 17.688 48.0785 17.6646C47.6586 17.586 47.2673 17.3964 46.9452 17.1155C47.1061 17.0138 47.2878 16.9495 47.4769 16.9272C47.6659 16.905 47.8575 16.9254 48.0376 16.987L48.0493 16.9578ZM46.2968 18.8739C46.5015 18.7014 46.7465 18.5835 47.0091 18.5314C47.2716 18.4793 47.5431 18.4946 47.7981 18.576C47.8682 18.576 47.9325 18.6461 47.9266 18.7045C47.9266 18.8564 47.7923 18.9382 47.6638 19.0024C47.5352 19.0667 47.3834 19.2828 47.2023 19.2887C46.9619 19.3139 46.7236 19.3569 46.4896 19.4172C46.4357 19.4347 46.3775 19.4325 46.3251 19.4111C46.2727 19.3897 46.2295 19.3505 46.2033 19.3003C46.1712 19.2361 46.1596 19.1636 46.17 19.0925C46.1805 19.0215 46.2125 18.9553 46.2617 18.9031L46.2968 18.8739ZM45.1284 26.5734C45.3037 26.7486 45.6191 26.8246 45.6483 27.0699C45.71 27.5891 45.6238 28.1152 45.3995 28.5876C45.1752 29.0599 44.822 29.4593 44.3807 29.7396C44.2702 29.8232 44.1529 29.8974 44.0302 29.9616C44.0302 29.9616 43.9718 29.9616 43.9776 29.9616C44.3639 29.5533 44.6131 29.0345 44.6903 28.4778C44.8364 27.7593 44.6027 27.4204 44.5384 27.4613C44.0583 27.8128 43.5363 28.1033 42.9845 28.3259C42.9319 28.3259 42.7976 28.3551 42.8092 28.3259C42.9626 28.0084 43.0233 27.6541 42.9845 27.3036C42.9378 27.1283 42.6807 27.0699 42.7216 26.9063C42.7625 26.7428 42.8735 26.7661 42.9494 26.6844C43.4291 26.1205 43.7551 25.4424 43.8958 24.7157C44.103 23.9225 44.0746 23.0861 43.814 22.3089C43.7732 22.2212 43.7673 22.0635 43.814 22.046C44.0763 22.08 44.3288 22.1675 44.5559 22.303C44.7495 22.3766 44.9193 22.5019 45.0467 22.6652C45.1393 22.8027 45.1955 22.9615 45.2102 23.1267C45.35 24.284 45.3145 25.4558 45.1051 26.6026L45.1284 26.5734ZM44.2697 16.2509C44.9118 17.5145 45.21 18.9248 45.1343 20.3402C45.1343 20.4745 45.1343 20.6498 45.0408 20.7725C44.9298 20.5622 44.9064 20.3226 44.813 20.1065C44.4648 19.2424 43.9597 18.4502 43.3233 17.7698C43.3233 17.7698 43.3233 17.5653 43.3233 17.4485C43.4143 16.8876 43.3964 16.3144 43.2707 15.7602C43.4666 15.7404 43.6639 15.7793 43.8376 15.8719C44.0113 15.9645 44.1535 16.1066 44.2463 16.2801L44.2697 16.2509ZM43.1013 16.8351C43.0856 17.3266 42.9426 17.8056 42.6866 18.2254C42.6782 18.2388 42.6656 18.2489 42.6508 18.2542C42.6359 18.2595 42.6197 18.2597 42.6048 18.2547C42.5183 17.98 42.3772 17.7257 42.19 17.5069C41.9669 17.2513 41.6998 17.0376 41.4014 16.876C40.8189 16.5051 40.1851 16.2216 39.5203 16.0348C38.9845 15.8538 38.4178 15.7823 37.8539 15.8244C37.2899 15.8666 36.7402 16.0215 36.2372 16.2801C36.2372 16.2801 36.1321 16.2801 36.1438 16.2801C36.2472 16.0831 36.3705 15.8971 36.5118 15.7252C36.7713 15.3464 36.9227 14.9041 36.9499 14.4458C36.9549 13.6712 36.7291 12.9127 36.3015 12.2668C36.6812 12.3661 37.1953 12.6349 37.5224 12.2668C37.6998 12.5168 37.9575 12.6983 38.2527 12.7809C38.395 12.8086 38.5419 12.8029 38.6818 12.7644C38.8216 12.7259 38.9507 12.6556 39.0588 12.5589C39.2633 12.7283 39.4444 12.9328 39.754 12.8861C39.9526 12.8861 40.1279 12.6173 40.2505 12.7108C40.4842 12.8861 40.677 13.1431 40.9749 13.1898C41.1983 13.226 41.4272 13.2059 41.6409 13.1314C41.7752 13.0905 41.933 12.9328 41.9856 12.9912C42.4112 13.5374 42.7247 14.1622 42.9081 14.8299C43.0916 15.4976 43.1414 16.1949 43.0546 16.8818L43.1013 16.8351ZM39.1348 9.64971C39.4777 9.6661 39.8128 9.75784 40.1162 9.91842C40.233 9.98268 40.268 10.1112 40.3849 10.1638C40.5981 10.2834 40.7945 10.4307 40.9691 10.6019C41.0505 10.6655 41.1181 10.745 41.1677 10.8356C41.1677 10.8356 41.1677 10.894 41.1677 10.8882C40.6928 10.7669 40.2028 10.7158 39.7131 10.7363C39.528 10.7676 39.3447 10.8085 39.164 10.859C39.164 10.859 39.1114 10.8239 39.1172 10.8122C39.215 10.4452 39.2049 10.0578 39.088 9.69645L39.1348 9.64971ZM35.6297 11.817L37.4874 12.0507L38.8836 11.2387L38.9595 9.52119H39.0354L39.0763 11.2153L40.4083 12.4304L42.0206 12.6407V12.7517L35.5947 11.928L35.6297 11.817ZM35.4136 13.5287H35.4778L35.5129 14.5334C35.5479 14.4575 35.5128 14.2589 35.5654 14.1888C35.618 14.1187 35.4836 13.6046 35.5362 13.6046C35.8186 13.847 36.0859 14.1065 36.3365 14.3816C36.4066 14.4633 36.6345 14.7204 36.5702 14.6853C36.1555 14.4867 35.7173 14.6328 35.5187 14.5627L35.583 16.4904L35.3551 16.397L35.4136 13.5287ZM35.3551 16.5898V17.0454C35.139 16.8351 34.7417 16.5547 34.5723 16.3678C34.8268 16.43 35.0736 16.5201 35.3084 16.6365L35.3551 16.5898ZM32.4693 15.1877C33.2988 15.7719 33.9764 16.3152 34.7651 16.9403C34.9988 17.1155 35.1273 17.1739 35.3493 17.3317V21.0938C35.3493 21.0938 35.2441 21.0938 35.2383 21.0938C34.9579 20.457 35.0981 19.7326 34.7359 19.1076C33.9706 17.7639 33.1411 16.5897 32.3992 15.2345C32.3349 15.2286 32.3992 15.2169 32.4226 15.2345L32.4693 15.1877ZM31.4937 26.8421C32.6036 26.1119 33.7895 26.994 34.2686 28.0104C34.1611 27.6999 34.0363 27.3956 33.8947 27.0991C33.7603 26.7837 33.8596 26.7136 34.0057 26.5617H37.0376C37.0726 26.5601 37.1075 26.5656 37.1404 26.5777C37.1733 26.5899 37.2034 26.6084 37.229 26.6324C37.2545 26.6563 37.2751 26.6852 37.2894 26.7172C37.3036 26.7492 37.3114 26.7837 37.3121 26.8187C37.3121 26.9706 37.1135 27.029 37.0025 27.029H34.7651C34.5723 27.029 34.695 27.2627 34.7651 27.2627H35.7348C35.8575 27.2627 35.9451 27.3386 35.9334 27.3795C35.9218 27.4204 35.8634 27.4788 35.7407 27.4672C35.618 27.4555 35.0572 27.4672 34.7768 27.4672C34.6658 27.4672 34.6541 27.6891 34.7768 27.6891H35.472C35.5946 27.6891 35.6472 27.7359 35.6414 27.7768C35.6308 27.8111 35.6089 27.8409 35.5791 27.8611C35.5494 27.8813 35.5136 27.8907 35.4778 27.8878H34.7885C34.695 27.8878 34.7885 28.2091 34.7885 28.2091C34.8469 28.3806 34.8804 28.5596 34.8878 28.7407C34.8002 28.9042 34.5957 28.6589 34.4672 28.4719C34.8294 29.0983 35.3723 29.6008 36.0248 29.9135C36.6773 30.2262 37.409 30.3346 38.1241 30.2245C38.3519 30.1777 38.3753 30.3121 38.1592 30.4056C36.7837 30.574 35.3882 30.3723 34.1167 29.8214C33.3806 29.4242 32.4927 29.6286 31.6865 29.8214C30.045 30.2186 29.157 30.9898 27.7199 30.7269C27.235 30.6393 26.1251 30.2186 26.6509 30.207C28.1347 30.6451 28.8883 30.242 30.0917 29.4592C31.5054 28.5304 32.4284 29.5702 33.2112 28.6121C33.5617 28.1565 33.2112 27.7476 32.849 27.5022C32.4868 27.2568 31.9727 27.3328 31.8617 27.7242C31.78 28.0221 32.1772 28.3084 32.4985 28.174C32.6036 28.1331 32.5744 28.2266 32.5335 28.2967C32.4139 28.4482 32.2452 28.5533 32.0565 28.5938C31.8677 28.6343 31.6708 28.6078 31.4996 28.5187C31.3271 28.4558 31.1798 28.3387 31.0797 28.1848C30.9796 28.031 30.9322 27.8489 30.9446 27.6658C30.969 27.5082 31.0263 27.3576 31.1129 27.2237C31.1994 27.0898 31.3133 26.9757 31.447 26.8888L31.4937 26.8421ZM30.4422 20.936C30.2669 21.2632 30.0508 21.5202 29.858 21.8474C29.7155 22.0157 29.5232 22.1343 29.3089 22.1862C29.2271 22.1862 29.2037 22.3322 29.1219 22.3322C28.7707 22.3747 28.4148 22.355 28.0704 22.2738C26.9021 21.9116 25.944 21.0704 24.6939 20.8893C24.6238 20.8893 24.5829 20.7958 24.5069 20.7841C24.4174 20.7903 24.3277 20.7903 24.2382 20.7841C24.0454 20.7199 24.1681 20.4687 24.2382 20.346C24.3157 20.221 24.43 20.1231 24.5654 20.0656C24.91 20.013 25.0677 20.4862 25.4066 20.6498C26.4582 21.1561 27.6166 21.4006 28.7831 21.3625C29.0818 21.3792 29.3809 21.3361 29.6628 21.2358C29.9446 21.1355 30.2036 20.98 30.4246 20.7783C30.413 20.7433 30.448 20.8951 30.3954 20.9828L30.4422 20.936ZM27.422 19.8261C27.5414 19.7952 27.6668 19.795 27.7863 19.8257C27.9058 19.8563 28.0156 19.9168 28.1055 20.0014C28.1331 20.0255 28.1532 20.057 28.1636 20.0921C28.1739 20.1273 28.174 20.1647 28.1639 20.2C28.1388 20.266 28.0907 20.3208 28.0284 20.3541C27.9661 20.3874 27.8939 20.397 27.825 20.3811C27.7024 20.3519 27.6732 20.2058 27.5797 20.1708C27.3402 20.1416 27.2 19.9488 27.3753 19.8728L27.422 19.8261ZM22.842 16.9578C22.9121 16.654 23.2802 16.5313 23.5489 16.543C23.9401 16.5835 24.3355 16.5559 24.7172 16.4612C24.8925 16.2159 24.8983 15.6142 25.3014 15.807C25.5351 15.9238 25.3014 16.4437 25.4591 16.4729C25.7846 16.5336 26.117 16.5474 26.4464 16.5138C26.6216 16.5138 26.7852 16.1224 26.8027 15.9296C26.8378 15.4564 27.3869 15.509 27.7374 15.5149C27.8718 15.9355 27.2409 16.0523 27.1533 16.4145C27.1559 16.46 27.1733 16.5034 27.2028 16.5382C27.2323 16.573 27.2723 16.5972 27.3168 16.6073C27.9653 16.6774 28.602 16.6891 29.2504 16.7592C29.2688 16.7645 29.2858 16.7734 29.3006 16.7855C29.3153 16.7976 29.3274 16.8126 29.3362 16.8296C29.3449 16.8465 29.3502 16.8651 29.3515 16.8841C29.3528 16.9032 29.3502 16.9223 29.3439 16.9403C29.3016 17.0197 29.2384 17.0861 29.1613 17.1324C29.0841 17.1787 28.9958 17.2031 28.9058 17.2031C28.3216 17.2557 27.8075 17.0921 27.2467 17.1097C27.2 17.1097 27.1591 17.1622 27.1883 17.1856C27.4512 17.3959 27.7725 17.5361 27.8367 17.8691C27.901 18.2021 27.5096 18.2138 27.4979 18.4533C27.4862 18.6928 27.9069 18.7454 27.7783 19.0375C27.6959 19.1757 27.5858 19.2953 27.4549 19.389C27.324 19.4827 27.1753 19.5483 27.0178 19.5817C26.8604 19.6152 26.6978 19.6158 26.5402 19.5834C26.3825 19.5511 26.2333 19.4865 26.1017 19.3938C25.9966 19.3354 26.0258 19.1777 26.0083 19.0784C25.9674 18.833 26.3003 18.6461 26.2595 18.4241C26.2186 18.2021 26.0024 18.132 26.0316 17.9567C26.0609 17.7815 26.388 17.6296 26.5515 17.4193C26.6275 17.32 26.6508 17.1097 26.5106 17.1214C25.7863 17.2031 25.1203 16.9987 24.4193 17.0863C24.0203 17.0956 23.6256 17.1706 23.251 17.3083C23.0932 17.4485 22.731 17.2616 22.7953 17.0045L22.842 16.9578ZM22.7836 20.901C22.9764 20.5096 23.4262 20.422 23.7007 20.0948C23.7007 20.0948 23.8059 20.0948 23.8176 20.0948C23.8818 20.3051 23.7183 20.4687 23.6131 20.6498C23.4568 20.845 23.3253 21.0589 23.2218 21.2866C23.2083 21.3342 23.1824 21.3774 23.1468 21.4118C23.1112 21.4463 23.0672 21.4707 23.0191 21.4825C22.9711 21.4944 22.9207 21.4933 22.8731 21.4794C22.8256 21.4655 22.7826 21.4393 22.7485 21.4034C22.5265 21.2982 22.6668 21.0996 22.7661 20.9477L22.7836 20.901Z"
            fill="#95969B" />
        <path
            d="M24.9294 18.7277C24.8184 18.6868 24.6724 18.7919 24.6256 18.9146C24.5789 19.0373 24.9177 19.1833 25.0053 19.0782C25.0254 19.0508 25.0394 19.0195 25.0465 18.9864C25.0535 18.9532 25.0535 18.9189 25.0463 18.8858C25.0391 18.8527 25.025 18.8215 25.0048 18.7942C24.9847 18.7669 24.959 18.7443 24.9294 18.7277Z"
            fill="#95969B" />
        <path
            d="M76.6797 21.2806C75.7625 21.1403 74.5007 21.7012 73.7588 22.1101C72.8742 22.4965 72.1399 23.1611 71.6674 24.0028C66.4858 32.6311 60.4746 35.4644 53.774 37.9588C52.7982 38.3371 51.789 38.6226 50.7597 38.8118C50.5844 38.8118 50.3157 38.8994 50.6604 38.8118C57.6296 36.6328 71.4513 30.4872 72.421 16.1865C72.6138 13.2247 71.8719 13.2072 71.3695 13.3357C70.4838 13.6331 69.6572 14.0839 68.9276 14.6676C67.6074 15.6666 66.848 17.0978 66.3397 18.8913C64.5346 25.2413 60.6031 31.048 53.0088 35.3651C52.2493 35.7974 52.6349 35.4995 52.9211 35.3008L53.5754 34.8627C60.8192 30.1192 64.7274 23.6698 65.7088 15.2635C66.0827 12.0213 65.5102 8.08396 64.7566 6.83966C64.6865 6.72282 64.5638 6.54172 64.4937 6.43072C64.3733 6.31149 64.2224 6.22771 64.0575 6.18855C63.8927 6.1494 63.7202 6.15639 63.559 6.20875C62.2869 6.94427 61.1635 7.91113 60.2467 9.05953C59.8787 9.64371 58.944 10.8413 59.2595 12.3368C60.5388 18.3305 58.2138 24.3124 53.9201 30.0666C51.8965 32.6988 49.2752 34.8114 46.2732 36.2297C43.8629 37.3306 41.244 37.9003 38.5941 37.9003C35.9443 37.9003 33.3255 37.3306 30.9151 36.2297C27.9155 34.8076 25.295 32.6957 23.2682 30.0666C18.9745 24.3124 16.6437 18.3305 17.923 12.3368C18.2443 10.8413 17.3096 9.63202 16.9474 9.05953C16.0293 7.91246 14.9061 6.94584 13.6351 6.20875C13.473 6.15655 13.2997 6.14962 13.134 6.18875C12.9682 6.22787 12.8163 6.31154 12.6946 6.43072C12.6245 6.54172 12.5018 6.72282 12.4317 6.83966C11.6781 8.08396 11.0998 12.0213 11.4795 15.2635C12.4668 23.6698 16.3749 30.1192 23.6129 34.8627C23.8407 35.0087 24.1095 35.1957 24.2672 35.3008C24.5534 35.4995 24.9448 35.7974 24.1737 35.3651C16.5794 31.048 12.6479 25.2413 10.8544 18.8913C10.4865 17.2329 9.57328 15.7458 8.26068 14.6676C7.52821 14.0851 6.69995 13.6344 5.81297 13.3357C5.31057 13.2072 4.56868 13.2247 4.7673 16.1865C5.72535 30.4697 19.547 36.6328 26.5338 38.7884C26.8785 38.8819 26.5981 38.8234 26.4287 38.7884C25.3995 38.5985 24.3903 38.313 23.4143 37.9355C16.7079 35.441 10.6967 32.6078 5.52088 23.9795C5.0467 23.139 4.31294 22.475 3.42954 22.0867C2.67595 21.6778 1.41413 21.117 0.508651 21.2572C-0.192364 21.3682 0.0179234 22.4664 0.199019 23.0097C4.66798 35.7799 18.18 39.9801 29.1042 41.3704C29.3086 41.3704 29.3846 41.4814 27.7022 41.3354C24.0663 40.8987 20.4595 40.2472 16.9007 39.3842C16.2172 39.209 14.71 38.6423 13.4307 39.0513C12.4025 39.3843 11.351 39.9509 11.5613 41.0375C11.7015 41.7326 13.2321 42.3869 13.9798 42.6498C15.6622 43.234 23.2274 44.2972 33.7309 44.1161C35.0252 45.4064 36.7782 46.1309 38.6058 46.1309C40.4334 46.1309 42.1865 45.4064 43.4808 44.1161C53.996 44.2972 61.5495 43.234 63.2319 42.6498C63.9796 42.3869 65.516 41.7326 65.6504 41.0375C65.8607 39.9509 64.8092 39.3843 63.7868 39.0513C62.5016 38.6423 60.9945 39.209 60.3169 39.3842C56.7559 40.2465 53.1472 40.8981 49.5096 41.3354C47.8271 41.4814 47.9031 41.3938 48.1134 41.3704C59.0317 39.9801 72.5437 35.7799 77.0185 23.0097C77.1762 22.4898 77.3807 21.3915 76.6797 21.2806Z"
            fill="#95969B" />
        <path
            d="M51.3922 17.5419C51.4273 17.5419 51.4448 17.4484 51.5032 17.425C51.5378 17.4133 51.568 17.3914 51.5899 17.3622C51.6118 17.333 51.6243 17.2979 51.6259 17.2614C51.6259 17.1329 51.4623 17.1913 51.3864 17.1913C51.0008 17.1738 51.2462 17.5185 51.3922 17.5419Z"
            fill="#95969B" />
        <path d="M38.7875 12.2786L38.8284 11.4082L37.5958 12.1209L38.7875 12.2786Z" fill="#95969B" />
        <path
            d="M52.8214 19.107C52.9382 19.107 52.9849 18.8266 53.1076 18.7097C53.1291 18.6956 53.1453 18.6748 53.1538 18.6505C53.1622 18.6262 53.1624 18.5998 53.1544 18.5754C53.0901 18.4527 52.9031 18.4293 52.8447 18.4001C52.7863 18.3709 52.6753 18.4936 52.6169 18.6046C52.5585 18.7156 52.541 18.6571 52.5585 18.698C52.6461 18.8499 52.7396 19.107 52.8214 19.107Z"
            fill="#95969B" />
        <path
            d="M39.7064 10.2692H39.4669V10.6022H39.5604V10.3627H39.7064V10.6022H40.0452V10.5088H39.7999L39.8057 10.3627H40.0452V10.0297H39.9518V10.2692H39.8057H39.7999V10.0297H39.4611V10.1232H39.7064V10.2692Z"
            fill="#95969B" />
        <path
            d="M49.9049 18.757C49.9049 18.8329 49.975 18.9673 50.0393 18.9439C50.1035 18.9206 50.1619 18.8271 50.2204 18.7395C50.2788 18.6518 50.3547 18.5175 50.2671 18.4824C50.2247 18.4708 50.1802 18.469 50.1371 18.4773C50.0939 18.4856 50.0532 18.5038 50.0182 18.5303C49.9832 18.5569 49.9548 18.5911 49.9351 18.6304C49.9155 18.6697 49.9051 18.713 49.9049 18.757Z"
            fill="#95969B" />
        <path
            d="M50.0455 20.6557C50.8633 20.4337 51.7279 20.6557 52.5574 20.5856C52.7093 20.5856 52.6626 20.1766 52.4698 20.1766C52.0224 20.1 51.5679 20.0725 51.1145 20.0949C50.8166 20.1591 50.285 20.165 50.1448 20.2292C50.0951 20.287 50.0601 20.356 50.0428 20.4303C50.0256 20.5045 50.0265 20.5818 50.0455 20.6557Z"
            fill="#95969B" />
        <path
            d="M34.2183 28.0623C34.2168 28.0876 34.2168 28.113 34.2183 28.1383C34.2183 28.1383 34.2299 28.0857 34.2183 28.0623Z"
            fill="#95969B" />
        <path
            d="M34.2985 28.244C34.2985 28.2849 34.3452 28.3199 34.3627 28.355C34.3218 28.2849 34.2868 28.209 34.2517 28.1389C34.2697 28.1728 34.2853 28.2079 34.2985 28.244Z"
            fill="#95969B" />
        <path d="M39.0569 12.3077L40.1844 12.4538L39.0277 11.3847L39.0569 12.3077Z" fill="#95969B" />
        <path
            d="M34.4025 28.4543C34.4171 28.4833 34.4347 28.5107 34.4551 28.536L34.3616 28.3842C34.3616 28.3842 34.3849 28.4017 34.4025 28.4543Z"
            fill="#95969B" />
        <path
            d="M35.6793 14.3812H35.7727L35.7786 14.5331H35.9889V14.4747H35.837V14.3812H35.9889V14.165H35.9305V14.3228H35.837L35.8312 14.165H35.6208V14.2235H35.7727V14.3228H35.6208V14.5331H35.6793V14.3812Z"
            fill="#95969B" />
    </g>
    <g clip-path="url(#clip1_5067_3052)">
        <path
            d="M122.638 12.4864C122.143 13.3645 121.559 14.1886 120.894 14.9453C119.15 17.7878 117.144 19.7061 115.174 22.3568C115.174 22.3568 115.366 22.723 115.54 22.5312C115.714 22.3394 116.098 22.1475 116.272 21.9557C117.752 21.7621 119.147 21.158 120.301 20.2118C120.475 19.8282 120.475 19.4619 120.65 19.2701C120.669 18.7544 120.781 18.2464 120.981 17.7704C121.539 17.9448 121.696 17.1949 122.08 17.3693C122.463 17.5437 123.021 17.9099 123.579 17.875C123.579 18.6249 123.998 19.5317 123.579 19.9328C123.161 20.3339 122.69 21.0663 122.341 21.6767C121.992 22.2871 121.452 23.0021 121.085 23.7519C119.854 25.2821 118.513 26.7216 117.075 28.0594C117.824 28.4081 118.94 28.3733 119.289 27.7978C120.37 26.4724 121.452 25.3214 122.934 25.4784C123.577 25.5187 124.186 25.7834 124.655 26.2263C125.123 26.6692 125.421 27.2623 125.498 27.9024C125.612 28.2586 125.625 28.6395 125.536 29.0028C125.446 29.3661 125.258 29.6975 124.992 29.9602C124.186 31.0357 123.024 31.7897 121.713 32.0878C120.331 32.558 119.171 33.5201 118.452 34.7908C118.295 35.5407 119.394 35.1396 119.952 35.2965C120.144 35.4884 119.586 35.6802 119.603 35.872C120.562 36.9532 121.504 37.6159 122.463 38.5751H123.021C124.772 40.5296 126.623 42.3922 128.567 44.1555C128.201 44.5392 128.392 44.9054 128.776 45.0798C128.41 45.2716 128.218 45.2891 128.061 45.8471C127.902 46.1769 127.673 46.4679 127.39 46.6999C127.107 46.9318 126.776 47.0991 126.422 47.1899C124.774 47.5232 123.109 47.762 121.434 47.9049C117.72 47.8177 114.162 46.9981 110.465 46.9283C109.351 46.841 108.231 46.841 107.117 46.9283C106.559 47.1376 106.018 47.7131 105.46 47.5387C104.522 47.1914 103.635 46.716 102.827 46.1261C102.827 45.9517 102.827 45.7599 102.827 45.5681C102.827 45.3762 102.077 45.2367 102.06 44.8531C102.408 44.295 102.06 43.9288 101.658 43.58C101.606 43.6264 101.564 43.6827 101.534 43.7456C101.504 43.8084 101.487 43.8767 101.484 43.9463C101.641 43.1964 101.815 42.6383 101.972 42.0803C102.487 40.9945 102.646 39.7738 102.426 38.5925C102.426 38.4007 102.234 38.2263 102.06 38.4181C100.532 40.3764 99.2824 42.5359 98.3451 44.8356C98.3451 44.8356 97.9789 45.0275 97.9789 45.2193C97.9789 46.318 97.1069 46.9632 96.7756 48.027C96.7756 48.2188 96.235 48.7943 96.0606 49.1605C95.8862 49.5267 95.9036 50.2766 95.5374 50.4859C95.3448 50.7235 95.0931 50.9063 94.8076 51.0159C94.5221 51.1255 94.2127 51.1581 93.9106 51.1104C93.6085 51.0627 93.3242 50.9364 93.0863 50.7441C92.8485 50.5519 92.6653 50.3004 92.5553 50.015C92.223 49.5272 92.0367 48.9548 92.0181 48.3648C91.9996 47.7749 92.1497 47.1919 92.4507 46.6842C92.6425 46.3005 92.4507 45.7425 92.7995 45.3762C92.4158 45.1844 92.5902 44.8182 92.5902 44.6264C93.1744 42.558 93.1074 40.3599 92.3984 38.3309C92.3984 37.9472 91.6485 37.7903 91.073 37.4415C89.9395 36.9009 90.6371 35.4012 91.3695 34.6338C92.1019 33.8665 93.1134 33.0992 93.9505 34.006C94.9096 35.4709 94.5957 37.4938 96.4791 38.017C96.5742 37.9112 96.7042 37.8431 96.8453 37.8252L97.229 38.1914C97.3679 38.1564 97.4945 38.084 97.5952 37.9821C97.7696 37.9821 97.787 38.3483 97.787 38.5402C97.2464 39.1157 96.514 39.1331 95.7641 39.5168C96.7407 40.7898 96.235 42.2896 96.6361 43.58C96.6361 43.9463 96.1129 44.5217 96.4965 45.0798C98.1289 43.1199 99.5005 40.957 100.577 38.6448C100.926 38.0693 101.658 37.6857 101.641 37.1276C101.624 36.5696 101.083 37.1276 100.909 37.1276C100.65 36.1589 100.498 35.1648 100.455 34.163C100.313 33.6706 100.356 33.1432 100.577 32.6807C101.213 32.1351 101.76 31.4938 102.199 30.7798C102.199 30.588 102.914 30.0125 102.373 30.03C100.63 29.8904 98.5369 32.0006 97.3685 30.3613C96.9674 29.8207 97.6998 28.8615 97.665 27.9373C97.6301 27.013 98.7287 26.4201 99.2693 25.8446H99.8099C102.182 24.1007 103.298 21.8336 104.832 19.5666C105.327 18.9595 105.916 18.4355 106.576 18.0145C105.826 17.6832 104.92 18.2587 104.362 18.2761C102.897 18.6946 101.554 17.6134 100.072 17.2821C99.6356 14.6488 102.426 13.8292 104.466 13.585C106.507 13.3409 109.105 13.585 111.128 12.6433C113.359 11.6743 115.201 9.98591 116.36 7.8476C117.057 6.52224 116.656 4.86553 115.54 4.90041C114.43 5.07164 113.395 5.56172 112.559 6.311C111.723 7.06028 111.123 8.03644 110.831 9.12064C110.831 9.5043 110.291 9.69613 109.925 9.88796C109.312 10.2525 108.615 10.4509 107.902 10.4634C107.44 10.6795 106.944 10.8152 106.437 10.8645C106.245 10.8645 106.227 10.5158 106.053 10.5158C104.702 10.576 103.374 10.1559 102.304 9.32991C101.783 9.05271 101.376 8.60241 101.153 8.05686C101.153 7.49882 101.31 7.1326 100.926 6.57455C100.734 6.57455 100.734 6.76638 100.734 6.95821C100.542 6.59199 100.909 6.40016 100.909 6.20833L101.1 6.38272C101.467 6.01651 101.257 5.45846 101.432 5.0748C101.681 4.55314 102.052 4.09872 102.513 3.74944C104.257 2.94725 106.437 4.74346 108.268 3.94127C109.366 3.36578 110.483 3.52273 111.581 2.92981C113.936 1.78951 116.516 1.1935 119.132 1.18591C120.194 1.22271 121.203 1.65863 121.957 2.40664C124.87 6.40016 118.993 8.98113 116.726 11.6493C116.534 11.8411 117.075 11.2656 117.266 11.6493C118.121 10.9667 119.125 10.4947 120.196 10.2716C120.946 10.2716 122.236 10.2716 122.829 11.1261C122.891 11.354 122.906 11.5921 122.873 11.8259C122.84 12.0597 122.76 12.2844 122.638 12.4864ZM120.388 30.9368C120.431 30.6886 120.431 30.435 120.388 30.1869C118.173 30.4485 116.36 31.6169 114.319 31.9308C113.951 32.0694 113.553 32.1132 113.163 32.0584C112.773 32.0035 112.403 31.8517 112.087 31.6169C111.878 31.2507 112.087 30.6926 112.087 30.1346C112.279 30.1346 112.471 30.1346 112.453 29.9428C112.436 29.7509 112.261 29.7509 112.087 29.7684C112.994 29.1754 113.325 28.0245 114.232 27.4664C115.097 27.1598 115.814 26.5366 116.237 25.7225C116.237 25.5481 115.662 25.5656 115.488 25.5656C114.389 26.1585 113.273 26.3678 112.192 26.9607C111.634 27.1525 111.058 26.6294 110.674 26.2631C110.291 25.8969 110.814 24.7808 110.814 24.3972C111.686 22.3394 113.883 21.3454 114.93 19.4445L115.453 18.3284C116.404 17.2195 117.127 15.9334 117.58 14.5442C117.568 14.45 117.523 14.3633 117.452 14.2994C117.382 14.2356 117.291 14.1987 117.197 14.1954C115.714 14.6139 114.424 14.8232 113.133 15.2417C111.568 15.8191 110.066 16.5554 108.652 17.439C108.765 17.5583 108.852 17.6998 108.907 17.8545C108.963 18.0093 108.985 18.1738 108.974 18.3378C108.963 18.5018 108.917 18.6616 108.841 18.8071C108.764 18.9526 108.658 19.0806 108.529 19.1829C108.529 19.0085 108.338 18.8167 108.146 19.0085C107.154 20.2885 106.442 21.7617 106.053 23.3334C105.879 23.7171 105.146 24.1181 104.972 24.4844C104.797 24.8506 105.338 24.6588 105.53 24.6588C107.169 23.6822 107.657 21.6244 108.931 20.299C108.739 20.299 108.739 20.1072 108.739 19.9154C109.297 20.0897 109.279 19.5317 109.646 19.3399C110.012 19.148 109.646 18.9737 109.454 18.9737C110.378 19.1306 111.198 17.9971 112.226 18.7121C112.593 18.8865 112.628 19.8107 112.453 20.3688C111.383 22.4015 110.14 24.3385 108.739 26.1585C110.221 26.4724 110.831 27.9024 111.599 29.0359C112 29.7684 111.267 30.3439 111.11 31.0937C111.11 31.0937 110.727 31.0937 110.727 30.9193C109.454 31.8785 108.756 33.3957 107.483 34.4071C106.655 34.6558 105.854 34.9889 105.094 35.4012C106.082 35.9709 106.837 36.8732 107.222 37.9472C107.431 38.6797 109.087 38.0693 109.994 37.6682C110.227 37.1923 110.397 36.6882 110.5 36.1685C111.023 34.6687 112.68 34.0584 113.761 33.0992C113.936 32.9248 114.668 32.3319 115.052 32.8899C115.281 33.3479 115.423 33.8447 115.47 34.3548C115.489 34.4561 115.53 34.552 115.59 34.6357C115.65 34.7194 115.727 34.7887 115.817 34.8387C115.908 34.8887 116.007 34.9182 116.11 34.925C116.213 34.9318 116.316 34.9157 116.412 34.878C118.047 33.9185 119.414 32.5632 120.388 30.9368ZM107.727 29.8207C107.849 29.2452 108.041 27.9547 107.483 27.9722C106.576 28.3733 105.879 29.873 105.164 30.8322C106.28 31.1635 107.57 30.5706 107.727 29.8207ZM115.732 43.1441C117.476 43.301 118.906 43.9637 120.562 43.3708C120.144 41.5222 118.818 40.2666 118.382 38.4181C118.923 39.5664 119.661 40.6111 120.562 41.5048C120.754 41.6966 120.929 41.5048 120.929 41.313C120.521 39.6505 119.475 38.2156 118.016 37.3194C117.266 36.9707 116.377 37.9298 115.645 38.6797C115.453 38.3135 115.086 38.5227 114.895 38.5227C114.354 38.9064 113.622 39.3075 113.151 39.6911C112.052 40.0922 111.285 39.1854 110.169 39.0285C109.053 38.8715 108.32 39.2726 107.378 38.7494C107.03 39.6911 107.605 40.598 107.256 41.5397C107.293 41.6965 107.366 41.8426 107.469 41.9666C107.572 42.0906 107.702 42.1892 107.849 42.2547C110.453 42.7355 113.087 43.0327 115.732 43.1441ZM121.347 38.6971C120.918 37.6589 120.182 36.7766 119.237 36.1685C119.143 36.27 119.082 36.3977 119.063 36.5347C119.063 36.3603 119.063 36.1685 118.871 36.1859C118.679 36.2034 118.696 36.744 118.522 36.9358C119.832 37.8991 120.836 39.2188 121.417 40.7375L121.591 40.5457C121.783 40.72 121.8 41.1037 122.167 41.2781C122.287 40.9934 122.329 40.6819 122.289 40.3755C122.249 40.0691 122.129 39.7787 121.94 39.5342C121.837 39.6364 121.775 39.7729 121.766 39.9179C122.114 39.4121 121.556 39.2552 121.347 38.6971ZM125.794 38.5751C125.923 38.4168 126.103 38.3079 126.303 38.2666C126.503 38.2254 126.711 38.2542 126.893 38.3483C128.201 38.6797 129.352 40.0922 130.816 39.3424C131.374 39.1505 131.933 39.4993 132.56 38.9238C132.909 38.732 133.467 38.5402 133.642 38.1565C133.832 37.4131 133.745 36.6258 133.397 35.9418C133.397 35.5581 132.996 35.2093 132.804 34.6513H132.246C131.678 33.8585 130.961 33.1834 130.136 32.6632C128.949 32.2197 127.657 32.1348 126.422 32.4191C125.496 32.7224 124.629 33.1825 123.858 33.7793C123.318 34.1804 122.969 35.1047 123.353 35.2791C124.315 35.898 125.204 36.6234 126.003 37.4415C126.335 37.8077 125.428 38.2088 125.794 38.5751Z"
            fill="#1B2D58" />
        <path
            d="M169.073 8.71947C167.905 9.01593 166.684 8.71947 165.9 9.90532C165.9 9.73093 165.9 9.55654 165.708 9.57398C165.028 9.78325 164.4 10.6726 163.964 10.6901C162.701 10.9428 161.459 11.2926 160.249 11.7364C159.629 11.8229 158.999 11.6661 158.492 11.2988C157.985 10.9314 157.64 10.3821 157.529 9.76581C157.878 9.76581 158.017 9.2252 158.348 9.05081C159.029 8.84155 159.691 8.47533 160.197 8.61484C161.068 8.62683 161.934 8.46683 162.743 8.14399C164.178 8.14192 165.555 7.5786 166.58 6.57448C166.911 6.2257 166.876 5.70253 167.016 5.1968C166.759 5.02691 166.467 4.91941 166.161 4.8829C165.812 5.07473 165.603 4.23766 165.272 4.2551C164.479 4.09902 163.673 4.02886 162.865 4.04583C162.185 3.90632 161.958 2.89486 162.098 2.30193C162.334 1.68676 162.733 1.14744 163.252 0.741886C163.771 0.336331 164.391 0.0798533 165.045 -1.0401e-05C166.201 -0.172685 167.377 -0.172685 168.533 -1.0401e-05C168.981 -0.00194593 169.415 0.159198 169.754 0.453403C170.209 0.78194 170.624 1.16234 170.992 1.58694C171.201 2.07523 171.393 2.58096 171.585 3.08669C171.968 3.92376 171.166 4.98753 171.218 5.99899C173.056 5.23285 175.102 5.12807 177.008 5.70253C177.706 6.01643 178.752 7.14996 178.124 7.69057C177.496 8.23118 176.624 8.10911 175.596 8.00447C174.681 8.01599 173.77 8.11527 172.875 8.30094C172.438 8.26033 172.018 8.1104 171.654 7.86496C170.73 7.72545 169.928 8.45789 169.073 8.71947Z"
            fill="#1B2D58" />
        <path
            d="M173.469 21.2232C173.643 21.0489 173.469 20.7175 173.782 20.7001C173.75 20.6142 173.699 20.5367 173.633 20.4733C173.567 20.4098 173.487 20.3621 173.4 20.3336C173.313 20.3051 173.221 20.2966 173.13 20.3088C173.039 20.3209 172.952 20.3533 172.876 20.4036C172.37 20.7698 172.422 21.7987 172.876 21.9382C173.172 21.9382 173.312 21.4151 173.469 21.2232Z"
            fill="#1B2D58" />
        <path
            d="M171.813 12.1026C170.529 12.68 169.404 13.5596 168.534 14.6662C169.371 15.1203 169.997 15.884 170.278 16.7937C170.921 18.46 171.073 20.2757 170.714 22.0254C171.063 22.0254 170.924 22.5311 171.08 22.5311C171.533 21.6248 171.662 20.5912 171.447 19.6014C171.56 18.5824 171.507 17.5516 171.29 16.5496C171.29 16.2008 171.063 15.7125 171.29 15.3637C171.429 14.6662 172.284 14.7882 173.034 14.579C173.495 14.3407 173.899 14.0053 174.218 13.5958C174.537 13.1864 174.764 12.7127 174.882 12.2073C175.196 11.5097 174.882 10.1669 175.458 9.95766C176.783 9.38217 178.736 10.9866 178.806 12.1724C178.998 12.8525 178.056 14.0907 177.062 14.143C176.713 13.9861 176.347 13.4978 176.016 13.6896C175.004 13.9163 174.272 14.7883 173.365 15.1893C173.714 15.3463 173.574 15.852 173.574 16.0264C173.574 16.2008 173.103 16.8984 173.452 17.0553C174.324 17.1774 175.057 18.3458 175.876 17.6134C176.033 17.439 175.876 17.439 175.684 17.282C175.493 17.1251 175.196 17.6482 175.353 17.282C175.487 17.0501 175.68 16.8582 175.913 16.7264C176.147 16.5945 176.411 16.5274 176.678 16.5321C177.184 16.3403 177.324 15.8171 177.463 15.294C178.754 13.864 180.515 15.137 181.09 16.3054C181.649 17.1251 180.864 18.3632 179.852 18.7643C179.249 18.7315 178.657 18.5835 178.108 18.3284C177.603 18.1888 176.364 18.5899 176.609 18.7469C179.277 21.1709 182.904 22.008 186.531 22.8451C187.212 22.9846 187.752 23.4729 188.45 23.5949C190.194 24.2053 192.199 23.9263 193.803 25.0249C193.978 25.1993 194.693 25.8446 194.187 26.0364C191.868 27.3443 189.461 26.6119 186.933 27.2571C186.078 27.4664 185.189 27.85 184.543 27.3792C182.765 26.1585 181.596 24.9203 179.852 23.9786C178.366 22.8365 176.706 21.9414 174.935 21.3279C174.429 21.1709 174.464 22.0254 174.15 22.3916C174.865 23.0369 176.068 23.3159 176.452 23.9786C176.835 24.6413 176.173 25.3563 176.208 26.0364C176.001 26.4599 175.963 26.9465 176.103 27.3966C176.103 28.2511 175.684 29.1405 175.894 29.8032C176.295 30.9716 175.894 32.6981 176.277 34.0409C176.103 34.0409 175.929 34.0409 175.946 34.2327C175.963 34.4245 176.12 34.3896 176.295 34.3896C176.068 36.7788 176.713 39.133 176.155 41.5571C176.155 41.7314 176.504 41.714 176.504 41.871C176.504 42.0279 176.173 41.871 176.19 42.2372C176.208 42.6034 176.364 42.3941 176.539 42.3941C176.595 42.5958 176.609 42.807 176.579 43.0142C176.549 43.2215 176.476 43.4201 176.364 43.5974C176.364 43.7718 176.365 44.1031 176.556 44.1031C176.748 44.1031 176.713 43.9113 176.713 43.7544C176.966 44.5843 176.966 45.4705 176.713 46.3005C176.713 46.8236 176.068 47.3642 175.772 47.8874C175.438 49.2279 174.928 50.5181 174.254 51.724C174.097 52.0728 173.784 52.4215 173.435 52.2646C172.922 51.8515 172.586 51.2594 172.493 50.6079C172.182 48.4129 172.123 46.1894 172.319 43.9811C172.645 42.24 172.55 40.4459 172.04 38.7494C172.04 38.2437 172.476 37.1973 171.795 37.2322C171.464 37.2322 171.342 38.1041 170.819 38.1216C169.287 38.2419 167.762 38.4398 166.25 38.7145C165.582 39.0914 164.836 39.3064 164.07 39.3423C163.547 39.3423 163.25 40.0573 163.268 40.4061C163.243 41.1996 163.012 41.9731 162.6 42.6515C162.187 43.3298 161.607 43.89 160.914 44.2775C160.914 44.4345 160.914 44.6089 160.914 44.7833C160.216 44.6438 160.094 45.3239 159.606 45.7075C159.606 45.1844 159.065 45.0449 159.013 44.3647C159.013 44.1903 158.49 44.0508 158.298 43.7195C158.088 42.8824 158.734 42.1674 158.873 41.4873C159.117 40.4074 159.286 39.3119 159.379 38.2088C159.53 37.2457 159.594 36.271 159.571 35.2965C159.292 33.0992 158.507 31.0937 158.402 28.8789C158.402 28.7045 159.571 28.6522 159.728 28.1291C159.85 27.2745 158.96 26.6293 158.594 25.9666C158.594 25.6353 159.414 25.426 159.396 25.0772C159.379 24.7285 159.03 24.5889 158.838 24.432C159.362 24.432 160.059 24.868 160.582 24.432C162.065 23.159 161.611 21.136 162.204 19.4096C162.273 19.1063 162.271 18.7912 162.199 18.4887C162.126 18.1863 161.985 17.9046 161.786 17.6657C161.576 16.8112 160.582 17.5436 160.443 18.0668C159.401 21.0226 158.001 23.8396 156.275 26.4549C155.633 27.3494 154.732 28.0251 153.694 28.3906C153.014 28.5825 152.717 29.6288 152.246 30.3438C152.246 30.5008 152.246 30.6751 152.438 30.6577L152.264 30.5008C151.636 31.3741 151.109 32.316 150.694 33.3084L151.043 33.6398C150.537 33.6398 150.572 34.1629 150.398 34.3548C150.496 34.4378 150.618 34.4868 150.747 34.4943C150.59 34.6861 150.241 34.3548 150.258 34.7035C150.326 34.7648 150.378 34.8406 150.411 34.9253C150.444 35.01 150.458 35.1012 150.45 35.1918C150.293 35.5406 150.101 35.1918 149.944 35.1918C149.788 35.1918 149.631 35.8894 149.317 36.2556C149.317 36.43 149.317 36.587 149.491 36.5695C150.014 36.5695 149.979 36.0463 149.962 35.6976C149.962 35.872 150.136 35.872 150.311 35.8545C150.141 36.1305 149.923 36.3729 149.665 36.5695C149.84 36.5695 150.014 36.7265 149.857 36.9009C149.195 37.4415 149.247 38.4704 148.602 39.011C148.776 39.011 148.95 39.1679 148.793 39.3423C148.44 39.5484 148.16 39.8592 147.991 40.2317C147.77 41.858 147.173 43.4104 146.247 44.7658C146.072 44.956 145.839 45.0845 145.585 45.132C144.905 45.01 144.033 44.8705 144.015 44.1903C143.518 43.2736 143.249 42.2508 143.23 41.2083C143.36 40.6537 143.565 40.1196 143.841 39.6213C143.845 39.531 143.83 39.4409 143.797 39.3568C143.764 39.2727 143.713 39.1965 143.649 39.133C146.736 36.2382 146.143 31.4948 145.951 27.7628C145.831 26.4963 145.36 25.2884 144.591 24.275C144.224 23.7868 144.347 22.9322 144.312 22.2521C144.312 21.9033 144.783 21.5371 144.783 21.5371C145.855 21.544 146.916 21.7633 147.904 22.1824C148.892 22.6014 149.787 23.2119 150.537 23.9786C151.427 24.7808 150.659 26.3503 149.665 26.9258C148.985 27.1176 148.148 27.1699 148.183 27.85C147.817 30.9367 146.945 33.7095 146.753 36.5695C149.16 33.5351 150.869 30.2043 153.432 27.1874C153.903 26.4724 154.2 25.6178 154.67 24.7285C155.141 23.8391 156.414 23.281 156.92 22.2347C157.06 21.5371 158.385 20.4908 157.687 20.3164C156.31 20.2118 154.078 19.8281 154.008 18.2935C154.008 17.9447 153.764 17.1076 154.269 16.9158C155.416 16.6404 156.611 16.6404 157.757 16.9158C159.675 17.5087 161.437 15.1719 163.181 15.9567C163.66 16.2078 164.041 16.6133 164.262 17.1076C164.744 17.6442 165.171 18.2285 165.535 18.8515C165.744 19.5316 165.953 20.1943 165.535 20.7349C165.116 21.2755 164.523 20.9616 164.21 21.4848C163.897 22.4405 163.664 23.4204 163.512 24.4146C163.233 25.3745 162.613 26.1994 161.768 26.7339C161.343 27.3781 160.736 27.8818 160.024 28.1814C160.186 28.32 160.386 28.406 160.598 28.4278C160.81 28.4496 161.023 28.4062 161.21 28.3034C161.471 28.2223 161.748 28.2037 162.017 28.2492C162.287 28.2946 162.542 28.4028 162.762 28.565C163.345 29.0105 164.023 29.3149 164.743 29.454C165.463 29.5932 166.206 29.5635 166.913 29.3672C167.593 29.3672 167 27.8326 166.808 27.5013C166.046 26.0802 165.505 24.5512 165.204 22.9671C165.552 22.9671 165.919 23.4554 166.058 22.9671C166.198 22.4788 165.378 22.8276 165.517 22.3219C166.389 22.7753 167.819 23.9088 168.29 23.0194C168.592 22.3733 168.729 21.6626 168.689 20.9506C168.65 20.2386 168.435 19.5475 168.064 18.9387C167.872 18.433 166.843 18.3109 166.651 17.8226C164.907 15.1719 168.482 13.6373 169.912 11.5097C168.517 11.2481 167.593 12.8351 166.616 13.7245C166.357 13.7831 166.12 13.9165 165.936 14.1081C165.846 14.7812 165.518 15.3998 165.012 15.852C164.573 16.0166 164.09 16.0166 163.651 15.852C162.936 15.2068 161.908 15.2591 161.35 14.2651C160.792 13.2711 160.931 12.7479 161.594 12.3642C162.745 11.4574 164.489 12.3642 165.831 11.8062C167.713 11.3096 169.486 10.4701 171.063 9.32985C171.289 9.19011 171.542 9.09763 171.805 9.05797C172.068 9.01832 172.336 9.03232 172.593 9.09912C172.851 9.16593 173.092 9.28416 173.303 9.4467C173.513 9.60923 173.689 9.8127 173.818 10.0449C174.15 11.1435 172.981 11.7016 171.813 12.1026ZM171.97 28.4778C172.005 27.3272 171.642 26.1997 170.941 25.2865C170.749 24.7808 171.394 23.8914 170.941 23.9263C170.488 23.9611 170.819 24.9552 170.139 25.147C170.331 25.6527 170.017 26.0189 169.86 26.3677C169.768 26.6239 169.618 26.855 169.421 27.0428C169.224 27.2305 168.986 27.3696 168.726 27.4489C168.935 28.1116 168.273 28.6697 168.622 28.8092C169.354 29.6288 170.976 28.1814 171.22 29.5416C171.48 30.0836 171.571 30.6911 171.482 31.2855C171.325 31.4599 170.993 31.9831 170.836 32.0005C168.691 33.4654 166.267 32.7329 164.07 33.2038C164.07 33.5351 163.948 33.8839 164.279 34.0409C164.07 34.4059 163.973 34.8244 164 35.2442C166.459 36.3079 168.552 34.1629 171.115 34.3722C171.304 34.3312 171.478 34.2422 171.622 34.1139C171.765 33.9855 171.873 33.8222 171.935 33.6398C172.022 32.7875 172.022 31.9285 171.935 31.0762C172.057 30.1694 171.848 29.3323 171.97 28.4778Z"
            fill="#1B2D58" />
        <path
            d="M149.65 15.4683C148.954 14.6779 148.17 13.9698 147.313 13.3582C146.873 13.0593 146.406 12.8024 145.918 12.5909C145.79 12.6077 145.673 12.6695 145.587 12.7653C144.209 12.5037 143.843 11.0214 142.727 10.1843C142.552 10.0274 142.727 9.67859 142.727 9.32981C143.163 7.58591 144.697 7.88237 145.848 6.95811C146.023 6.95811 146.354 6.76628 146.546 7.09762C146.703 7.09762 146.703 6.92323 146.703 6.74884C147.052 7.06274 147.54 6.74884 147.889 6.85347C148.237 6.95811 148.761 7.14994 149.109 7.30689C149.458 7.46384 149.598 6.94067 149.772 6.92323C150.997 7.37081 152.167 7.95585 153.26 8.66713C153.802 9.28215 154.292 9.9413 154.725 10.6377C154.725 10.7947 155.073 11.126 154.725 11.4922C154.991 11.6851 155.213 11.9328 155.375 12.2186C155.537 12.5043 155.637 12.8216 155.666 13.1489C155.544 14.0034 155.405 14.6836 155.283 15.5555C155.161 16.4275 154.132 16.6367 153.417 15.9915C153.26 16.1659 153.085 16.1659 153.103 16.5147C152.69 16.5687 152.293 16.7051 151.934 16.9158C151.272 17.4564 150.661 18.8515 149.615 18.3981C149.092 18.0842 150.243 17.3343 150.382 16.6542C150.348 16.4168 150.266 16.1889 150.14 15.9849C150.014 15.7809 149.847 15.605 149.65 15.4683Z"
            fill="#1B2D58" />
    </g>
    <path
        d="M208.6 39.1723V19.0483H209.788V39.1723H208.6ZM231.926 19.7683C231.872 19.9663 231.656 20.1283 231.242 20.1103C230.468 20.7403 229.19 21.6223 228.128 22.2343H227.912C228.29 21.3343 228.776 19.9483 229.046 18.9943L231.926 19.7683ZM220.334 18.9943C225.05 19.4443 223.232 23.0083 221.414 21.6403C221.36 20.7223 220.784 19.6963 220.19 19.1023L220.334 18.9943ZM227.372 19.0483C227.336 19.2823 227.21 19.4443 226.76 19.5163V22.2343H224.654V18.8323L227.372 19.0483ZM230.954 21.9283L232.106 20.7763L234.086 22.6663C233.96 22.8103 233.78 22.8643 233.402 22.9003C232.88 23.4223 231.944 24.1603 231.224 24.5923L231.08 24.4843C231.134 23.7643 231.17 22.5943 231.152 21.9283H230.954ZM219.686 20.9563C220.64 23.0623 220.082 24.5743 219.2 25.0243C218.57 25.3483 217.778 25.1503 217.544 24.4483C217.382 23.7823 217.796 23.2963 218.372 23.0263C218.966 22.7203 219.56 21.8923 219.434 20.9743L219.686 20.9563ZM231.89 21.9283V22.4503H219.542V21.9283H231.89ZM228.164 23.7463L229.1 22.7563L231.08 24.2143C230.972 24.3403 230.756 24.4843 230.432 24.5563V26.5183C230.414 26.6443 229.352 26.9683 228.704 26.9683H228.344V23.7463H228.164ZM223.052 26.9323C223.052 27.0943 222.134 27.5263 221.288 27.5263H221.018V22.9183L223.16 23.7463H229.064V24.2683H223.052V26.9323ZM229.208 26.1043V26.6263H222.242V26.1043H229.208ZM232.07 30.5323C232.07 30.5323 233.33 31.3783 234.122 32.0083C234.068 32.2063 233.87 32.2963 233.618 32.2963H217.67L217.508 31.7743H230.972L232.07 30.5323ZM230.144 28.7863C230.144 28.7863 231.296 29.5783 232.034 30.1723C231.98 30.3703 231.8 30.4603 231.53 30.4603H219.704L219.56 29.9383H229.136L230.144 28.7863ZM226.706 33.6103C226.706 34.8703 226.31 35.6083 223.844 35.7703C223.772 35.2303 223.664 34.8343 223.304 34.5643C222.98 34.3303 222.512 34.1323 221.414 33.9703V33.7363C221.414 33.7363 223.772 33.8803 224.24 33.8803C224.564 33.8803 224.654 33.7903 224.654 33.5743V28.0123H226.706V33.6103ZM231.404 28.4623C231.224 28.6243 230.864 28.6243 230.378 28.3903C227.444 28.6783 223.124 28.8583 219.38 28.6783L219.326 28.3543C222.944 28.1383 227.48 27.4903 229.91 26.8603L231.404 28.4623ZM244.022 27.7603C245.156 27.7243 247.802 27.5443 250.466 27.3283L250.484 27.5803C249.368 28.0123 247.262 28.8223 244.778 29.5963L244.022 27.7603ZM248.63 25.0423C247.658 26.0863 245.858 27.4723 244.562 28.1563V27.9403H245.444C245.372 28.9843 245.012 29.6503 244.58 29.8303L243.752 27.7243C243.752 27.7243 244.112 27.6523 244.238 27.5623C244.994 27.1123 245.876 25.6183 246.164 24.8803H248.63V25.0423ZM250.142 23.5483C250.142 23.5483 251.24 24.4123 251.924 25.0423C251.87 25.2403 251.672 25.3303 251.42 25.3303H243.824L243.68 24.8083H249.17L250.142 23.5483ZM248.522 26.0503C253.238 27.1483 251.744 30.4423 250.052 29.2363C249.8 28.1923 249.026 26.9503 248.342 26.1583L248.522 26.0503ZM248.702 29.2543C248.666 29.4523 248.558 29.5963 248.198 29.6503V34.7803H246.254V29.0383L248.702 29.2543ZM249.296 20.0383L250.178 19.1203L252.014 20.4703C251.924 20.5963 251.726 20.7223 251.42 20.7763V23.2783C251.42 23.4043 250.43 23.7463 249.8 23.7463H249.458V20.0383H249.296ZM250.196 22.7563V23.2783H242.798V22.7563H250.196ZM250.196 20.0383V20.5423H242.798V20.0383H250.196ZM241.574 19.8583V19.2103L243.896 20.0383H243.572V24.8263C243.572 28.2463 243.338 32.7643 239.612 35.6983L239.414 35.5723C241.376 32.4043 241.574 28.4443 241.574 24.8443V19.8583ZM250.484 33.1603C250.484 33.1603 251.636 34.1323 252.302 34.7983C252.266 34.9963 252.068 35.0863 251.816 35.0863H242.438L242.294 34.5643H249.476L250.484 33.1603ZM249.89 30.0823C249.89 30.0823 250.934 30.9643 251.528 31.5763C251.474 31.7743 251.294 31.8643 251.06 31.8643H243.644L243.5 31.3423H248.972L249.89 30.0823ZM235.13 27.7243C236.12 27.5083 238.766 26.7703 241.268 25.9603L241.34 26.1763C240.296 26.9503 238.64 28.1743 236.39 29.5963C236.318 29.8303 236.138 30.0463 235.922 30.1183L235.13 27.7243ZM240.062 19.1203C240.026 19.3723 239.846 19.5523 239.396 19.6063V33.2323C239.396 34.6903 239.126 35.5183 236.984 35.7343C236.948 35.0503 236.858 34.5283 236.66 34.1863C236.426 33.8443 236.102 33.6283 235.4 33.4843V33.2323C235.4 33.2323 236.768 33.3223 237.074 33.3223C237.344 33.3223 237.416 33.2323 237.416 33.0343V18.8503L240.062 19.1203ZM240.242 21.8023C240.242 21.8023 241.196 22.7023 241.718 23.3143C241.682 23.5123 241.502 23.6023 241.25 23.6023H235.472L235.328 23.0803H239.414L240.242 21.8023ZM256.478 26.3203H264.002L265.064 25.0063C265.064 25.0063 266.27 25.9063 267.026 26.5543C266.972 26.7523 266.774 26.8423 266.522 26.8423H256.622L256.478 26.3203ZM255.794 30.2623H265.226L266.324 28.8583C266.324 28.8583 267.584 29.8303 268.34 30.4963C268.304 30.6943 268.106 30.7843 267.854 30.7843H255.938L255.794 30.2623ZM254.03 34.6183H266.54L267.728 33.1243C267.728 33.1243 269.06 34.1323 269.87 34.8523C269.816 35.0503 269.618 35.1403 269.366 35.1403H254.174L254.03 34.6183ZM260.582 26.3563H262.814V34.9603H260.582V26.3563ZM256.442 19.9483H262.526V20.4523H256.604L256.442 19.9483ZM259.79 19.9483H262.598C260.888 23.2423 257.306 26.0323 253.328 27.5803L253.22 27.3823C256.172 25.5283 258.836 22.5943 259.79 19.9483ZM262.094 19.9483H261.662L262.346 18.8683L264.2 20.0923C263.984 20.3443 263.39 20.4703 262.688 20.5243C264.02 22.1623 267.26 23.9083 270.5 24.6463L270.482 24.8803C269.564 25.1323 268.826 25.9783 268.556 26.8603C265.856 25.3303 263.21 22.8823 262.094 20.2363V19.9483ZM275.27 20.8123V30.8743L273.29 31.5943V20.8123H275.27ZM271.112 31.6483C272.336 31.2703 275.108 30.2443 277.628 29.1283L277.7 29.3263C276.584 30.3523 274.91 31.7743 272.588 33.3763C272.552 33.6103 272.39 33.8263 272.192 33.9163L271.112 31.6483ZM276.26 24.4303C276.26 24.4303 277.232 25.3843 277.754 26.0143C277.718 26.2123 277.538 26.3023 277.304 26.3023H271.598L271.454 25.7803H275.414L276.26 24.4303ZM276.098 19.3543C276.098 19.3543 277.232 20.3623 277.88 21.0283C277.826 21.2263 277.646 21.3163 277.394 21.3163H271.49L271.346 20.8123H275.108L276.098 19.3543ZM287.942 25.4383C287.816 25.6003 287.672 25.6363 287.294 25.5643C286.376 26.3203 284.936 27.3103 283.91 28.0123L283.712 27.7783C284.378 26.6623 285.134 25.1323 285.71 23.8723L287.942 25.4383ZM282.992 33.3583C282.992 34.7623 282.668 35.5183 280.31 35.7163C280.256 35.1043 280.184 34.6543 279.896 34.3663C279.608 34.0783 279.23 33.8623 278.348 33.7183V33.4663C278.348 33.4663 280.148 33.5923 280.544 33.5923C280.832 33.5923 280.922 33.5023 280.922 33.2683V18.9223L283.622 19.1923C283.586 19.4443 283.442 19.6063 282.992 19.6783V33.3583ZM282.992 22.7383C283.676 28.2463 285.908 30.5323 288.428 31.9003L288.374 32.0983C287.51 32.2963 286.844 33.0883 286.556 34.1323C284.252 31.7923 283.244 28.9843 282.83 22.7923L282.992 22.7383ZM275.594 31.7203C276.62 31.2523 279.248 29.9203 281.786 28.4983L281.876 28.6783C280.958 29.7223 279.536 31.3423 277.466 33.3043C277.448 33.5383 277.322 33.7723 277.142 33.8803L275.594 31.7203ZM277.52 24.2323C282.002 26.0143 279.914 29.3623 278.258 27.7423C278.258 26.5903 277.808 25.2583 277.34 24.3043L277.52 24.2323ZM284 19.4803C288.284 19.4263 286.988 22.7023 285.278 21.6763C285.116 20.9203 284.468 20.0563 283.856 19.6063L284 19.4803ZM286.214 21.2263C286.214 21.2263 287.42 22.1983 288.158 22.8463C288.104 23.0443 287.906 23.1343 287.654 23.1343H276.674L276.53 22.6303H285.134L286.214 21.2263ZM296.222 30.5323C296.186 30.7663 296.024 30.9463 295.646 30.9823V33.1243C295.646 33.3583 295.736 33.4303 296.384 33.4303H298.616C299.372 33.4303 300.092 33.4303 300.398 33.3943C300.686 33.3763 300.794 33.3403 300.938 33.1603C301.154 32.8723 301.424 32.2243 301.802 31.2523H301.982L302.036 33.1963C302.666 33.4303 302.828 33.6463 302.828 34.0063C302.828 34.9063 301.964 35.1043 298.382 35.1043H296.042C293.99 35.1043 293.54 34.7803 293.54 33.4303V30.3343L296.222 30.5323ZM305.042 24.9703C304.934 25.1683 304.556 25.2943 303.998 25.0243L304.556 24.9523C303.386 26.0863 300.722 27.8143 298.634 28.6783L298.616 28.4803H299.39C299.282 29.5243 298.886 30.0463 298.49 30.1723L297.824 28.2283C297.824 28.2283 298.202 28.1563 298.4 28.0663C300.002 27.2383 302.162 24.8983 302.918 23.6383L305.042 24.9703ZM302.954 23.1343C302.864 23.3683 302.54 23.5483 301.928 23.3143L302.522 23.2423C301.586 23.9983 299.768 24.9523 298.382 25.4023L298.364 25.2043H299.156C299.084 26.1583 298.778 26.6263 298.418 26.7883L297.644 24.9523C297.644 24.9523 297.932 24.8983 298.094 24.8263C299.03 24.3943 300.218 22.8823 300.596 22.1263L302.954 23.1343ZM298.22 28.3363C299.282 28.3543 301.784 28.3003 304.322 28.2283L304.34 28.4983C303.152 28.8223 301.01 29.4163 298.67 29.9383L298.22 28.3363ZM297.95 25.1503C298.886 25.1863 300.938 25.1863 302.972 25.1503V25.4203C302.09 25.6723 300.344 26.1403 298.508 26.5363L297.95 25.1503ZM302.882 26.7883C307.076 28.1383 305.276 31.2703 303.764 29.9023C303.764 28.8763 303.242 27.6703 302.702 26.8963L302.882 26.7883ZM297.752 24.9163C297.626 25.1143 297.248 25.2583 296.69 24.9703L297.248 24.8983C296.042 26.0683 293.27 27.8503 291.074 28.7683V28.5703H291.83C291.722 29.5963 291.326 30.1183 290.93 30.2623L290.282 28.3003C290.282 28.3003 290.642 28.2283 290.858 28.1383C292.532 27.2923 294.818 24.8803 295.628 23.5663L297.752 24.9163ZM295.628 23.1523C295.538 23.3683 295.214 23.5483 294.602 23.3323L295.196 23.2423C294.242 23.9803 292.352 24.9343 290.912 25.3663L290.894 25.1683H291.686C291.614 26.1223 291.29 26.5903 290.93 26.7523L290.174 24.9343C290.174 24.9343 290.444 24.8623 290.606 24.7903C291.614 24.3583 292.874 22.8643 293.288 22.1263L295.628 23.1523ZM290.678 28.3903C291.74 28.4083 294.206 28.3543 296.69 28.2823L296.708 28.5523C295.556 28.8763 293.432 29.4703 291.128 29.9743L290.678 28.3903ZM290.444 25.0603C291.344 25.0963 293.324 25.0963 295.268 25.0603V25.3483C294.422 25.6003 292.766 26.0503 291.02 26.4643L290.444 25.0603ZM304.196 20.4703C304.196 20.4703 305.438 21.3703 306.212 22.0363C306.158 22.2343 305.96 22.3243 305.708 22.3243H289.49L289.346 21.8203H303.08L304.196 20.4703ZM302.72 19.4083C302.666 19.6423 302.468 19.8043 302.054 19.7863C301.334 20.4703 300.074 21.4063 299.048 22.0363H298.814C299.138 21.1183 299.498 19.7503 299.696 18.7963L302.72 19.4083ZM295.322 26.8423C299.12 28.2823 297.176 31.1263 295.826 29.7223C295.934 28.7863 295.574 27.6523 295.124 26.9503L295.322 26.8423ZM293.576 18.8503C298.562 19.2643 296.708 22.9903 294.764 21.5863C294.638 20.6503 294.044 19.6063 293.45 18.9583L293.576 18.8503ZM292.298 30.8203C292.982 32.8903 292.226 34.3303 291.344 34.7803C290.75 35.1043 289.958 34.9783 289.76 34.3483C289.58 33.7723 289.958 33.3043 290.48 33.0523C291.2 32.7463 291.992 31.8643 292.028 30.8023L292.298 30.8203ZM302.432 30.6403C307.616 31.8643 305.888 35.7343 304.034 34.2763C303.908 33.0343 303.116 31.6303 302.27 30.7663L302.432 30.6403ZM297.302 30.0463C301.496 31.1263 299.552 34.0783 298.076 32.6923C298.076 31.8103 297.626 30.8023 297.14 30.1543L297.302 30.0463ZM319.226 26.7703C319.784 26.6443 320.972 26.3023 322.106 25.9603L322.196 26.1763C321.8 26.5363 320.792 27.4003 319.856 28.1563L319.226 26.7703ZM320.504 23.6923L320.81 23.8903V26.9323L319.73 27.3283L320.27 26.8783C320.414 27.7063 319.982 28.1923 319.676 28.3363L318.974 26.8423C319.424 26.5903 319.496 26.4823 319.496 26.1943V23.6923H320.504ZM321.296 23.0443C321.278 23.2423 321.134 23.3683 320.81 23.4223V24.2323H319.496V22.8463L321.296 23.0443ZM316.148 18.6883C320.324 18.9043 318.542 22.0543 316.886 20.8123C316.868 20.0743 316.454 19.2643 316.004 18.7963L316.148 18.6883ZM323.942 23.0263C323.852 23.1523 323.69 23.2063 323.33 23.0803C322.556 23.2783 321.08 23.4763 320.144 23.6023L320 23.4043C320.702 22.9723 321.764 22.1623 322.34 21.6763L323.942 23.0263ZM314.618 23.0263L315.374 22.2703L316.85 23.4583C316.742 23.5843 316.526 23.6743 316.202 23.7283C316.166 26.2843 316.04 27.0403 315.518 27.4543C315.14 27.7243 314.708 27.8143 314.114 27.8143C314.114 27.4723 314.096 27.1663 313.934 26.9863C313.772 26.7883 313.574 26.6983 313.25 26.6263L313.268 26.3383C313.538 26.3563 313.934 26.3743 314.186 26.3743C314.366 26.3743 314.456 26.3563 314.528 26.2663C314.708 26.0863 314.78 25.2583 314.798 23.0263H314.618ZM314.24 23.0623C314.114 24.8263 313.664 27.0583 311.36 28.6243L311.108 28.3723C312.62 26.6263 312.728 24.6103 312.764 23.0623H314.24ZM315.752 21.5683C319.028 22.0723 317.75 24.4483 316.49 23.5303C316.418 22.8823 315.986 22.1263 315.572 21.6943L315.752 21.5683ZM320.684 22.2163C320.612 22.3963 320.36 22.5223 320 22.4683C319.388 23.0623 318.668 23.6923 318.038 24.1243L317.768 23.9623C318.092 23.3143 318.506 22.2883 318.866 21.3163L320.684 22.2163ZM321.836 22.9723C322.25 24.6283 323.168 25.9963 324.302 26.6263L324.284 26.8063C323.672 26.9683 323.276 27.4723 323.078 28.3183C322.142 27.1663 321.782 25.4203 321.602 23.0623L321.836 22.9723ZM315.824 28.2283C315.77 28.4623 315.644 28.6423 315.23 28.6963V30.2983C315.194 32.2063 314.546 34.5823 311.18 35.7703L311.036 35.6083C312.908 34.1323 313.178 32.0263 313.178 30.2623V27.9763L315.824 28.2283ZM321.386 32.0623V32.5663H314.438V32.0623H321.386ZM321.386 29.5423V30.0643H314.474V29.5423H321.386ZM322.844 28.1563C322.808 28.4083 322.664 28.5883 322.178 28.6603V35.1583C322.178 35.3023 321.278 35.6623 320.468 35.6623H320.108V27.9043L322.844 28.1563ZM318.956 23.9803C318.938 24.1783 318.812 24.3043 318.524 24.3583V28.0123C318.524 28.1383 317.822 28.4263 317.282 28.4263H316.994V23.8003L318.956 23.9803ZM315.464 23.0263V23.5303H311.9L311.738 23.0263H315.464ZM322.196 19.5343C322.196 19.5343 323.456 20.4883 324.194 21.1543C324.14 21.3523 323.942 21.4423 323.69 21.4423H312.134L311.99 20.9383H321.098L322.196 19.5343ZM308.336 30.3163C308.57 30.3163 308.642 30.2983 308.822 29.9203C309.128 29.2543 309.128 29.2543 311.756 21.5863L312.062 21.6583C311.558 23.9623 310.64 28.2283 310.46 29.2363C310.352 29.8663 310.28 30.5143 310.28 30.9643C310.316 31.9543 311.018 32.6203 310.964 34.2583C310.946 35.1403 310.388 35.7523 309.542 35.7523C309.146 35.7523 308.732 35.5003 308.606 34.8343C308.948 32.9623 308.858 31.2163 308.462 30.9463C308.228 30.7663 307.94 30.6943 307.562 30.6583V30.3163C307.562 30.3163 308.138 30.3163 308.336 30.3163ZM307.346 23.2243C312.08 23.6923 310.46 27.1843 308.624 25.9243C308.444 24.9883 307.796 23.9803 307.184 23.3323L307.346 23.2243ZM308.3 19.0663C313.232 19.6063 311.54 23.2243 309.65 21.8923C309.452 20.9383 308.75 19.8763 308.156 19.1923L308.3 19.0663ZM342.248 26.5003C342.14 26.6263 341.87 26.7163 341.546 26.5543C340.898 27.0403 339.566 27.8503 338.468 28.4263L338.306 28.2823C339.008 27.2383 339.926 25.5643 340.304 24.7363L342.248 26.5003ZM337.622 23.4223C337.568 23.6023 337.352 23.6923 336.956 23.7463V24.9523C336.902 24.9523 336.56 24.9523 335.192 24.9523V22.8103L337.622 23.4223ZM336.524 24.2323L336.956 24.5023V33.9163L335.3 34.4203L336.038 33.8263C336.254 34.9423 335.714 35.5363 335.336 35.7343L334.418 33.8263C335.066 33.4843 335.192 33.3403 335.192 32.9443V24.2323H336.524ZM334.67 33.8263C335.39 33.6463 337.064 33.1423 338.684 32.6023L338.756 32.8183C338.162 33.3403 336.902 34.4383 335.534 35.4823L334.67 33.8263ZM338.036 23.4403C338.396 27.8143 339.656 31.9363 342.446 33.5023L342.41 33.7003C341.798 33.9163 341.258 34.5643 341.006 35.5543C338.45 33.0883 337.928 29.3083 337.748 23.4943L338.036 23.4403ZM341.636 23.4583C341.456 23.6203 341.078 23.6383 340.592 23.4583C339.332 23.7283 337.262 23.9083 335.57 23.9083L335.498 23.6383C336.992 23.2063 338.846 22.3603 339.764 21.7483L341.636 23.4583ZM341.96 20.6683C341.762 20.8663 341.384 20.8843 340.844 20.7223C339.044 21.1903 336.092 21.6223 333.572 21.7663L333.518 21.5143C335.75 20.9023 338.486 19.7323 339.872 18.9043L341.96 20.6683ZM334.904 21.3163C334.85 21.4423 334.688 21.5143 334.454 21.5503V26.3203C334.454 29.3443 334.292 33.1423 331.25 35.7343L331.016 35.5363C332.528 32.8183 332.618 29.4703 332.618 26.2843V20.2723L334.904 21.3163ZM327.236 23.5663C330.854 22.6123 330.818 25.3663 329.288 25.1143C328.82 24.6283 327.83 24.0523 327.11 23.7823L327.236 23.5663ZM327.578 28.0483C328.1 27.8143 329.36 27.2023 330.602 26.5543L330.692 26.7523C330.314 27.2923 329.666 28.2103 328.838 29.2903C328.82 29.5063 328.694 29.7223 328.514 29.8303L327.578 28.0483ZM329.486 20.1463L330.296 19.1923L332.078 20.5783C331.97 20.7223 331.736 20.8483 331.412 20.9203V33.3943C331.412 34.6543 331.16 35.3743 329.198 35.5543C329.162 34.9963 329.09 34.5463 328.892 34.2943C328.658 34.0423 328.334 33.8263 327.65 33.7183V33.4483C327.65 33.4483 329 33.5563 329.306 33.5563C329.594 33.5563 329.666 33.4483 329.666 33.1963V20.1463H329.486ZM330.692 20.1463V20.6683H327.434V20.1463H330.692ZM326.354 19.9663V19.3903L328.406 20.1463H328.118V25.8343C328.118 28.9843 328.082 32.9803 325.436 35.7163L325.184 35.5723C326.372 32.7643 326.354 29.1643 326.354 25.8523V19.9663ZM343.328 22.4143H350.204L351.23 21.1543C351.23 21.1543 352.382 22.0003 353.084 22.6483C353.03 22.8463 352.85 22.9363 352.58 22.9363H343.472L343.328 22.4143ZM343.616 30.8203H349.916L350.852 29.6503C350.852 29.6503 351.932 30.4603 352.616 31.0543C352.562 31.2523 352.382 31.3423 352.13 31.3423H343.76L343.616 30.8203ZM343.382 33.1063C344.948 33.0343 348.71 32.7283 352.562 32.3503L352.598 32.5843C350.924 33.2503 348.476 34.0963 344.822 35.1763C344.696 35.3923 344.498 35.5363 344.282 35.5903L343.382 33.1063ZM344.93 26.4463H350.996V26.9503H344.93V26.4463ZM344.93 28.6603H350.996V29.1823H344.93V28.6603ZM350.834 18.8143L352.652 20.6683C352.436 20.8483 352.04 20.8303 351.536 20.6143C349.43 20.9023 346.154 21.1543 343.382 21.1723L343.346 20.8843C345.866 20.4163 349.142 19.4983 350.834 18.8143ZM347.018 20.5603L348.854 20.2003V33.1243C348.836 33.2503 348.242 33.6643 347.342 33.6643H347.018V20.5603ZM343.886 24.2323V23.4583L345.884 24.2323H350.186L351.068 23.2243L352.796 24.5383C352.688 24.6823 352.526 24.7903 352.13 24.8623V29.1643C352.13 29.2543 351.518 29.5963 350.564 29.5963H350.24V24.7363H345.704V29.4703C345.704 29.6143 345.128 29.9203 344.21 29.9203H343.886V24.2323ZM352.31 23.4043H358.412V23.9263H352.472L352.31 23.4043ZM354.056 19.0843L356.72 19.3363C356.666 19.6063 356.486 19.7863 356.072 19.8403C355.982 27.4183 356.378 32.5483 350.636 35.7703L350.438 35.5183C354.488 31.7923 354.056 26.6803 354.056 19.0843ZM357.674 23.4043H357.458L358.538 22.3063L360.356 23.9083C360.248 24.0703 359.996 24.1963 359.6 24.2503C359.492 31.3963 359.258 33.7903 358.34 34.7443C357.764 35.3383 357.008 35.5903 356.09 35.5903C356.108 34.9423 356.054 34.4743 355.838 34.2043C355.604 33.8983 355.154 33.6823 354.542 33.5203V33.2683C355.064 33.3223 355.892 33.3763 356.234 33.3763C356.522 33.3763 356.666 33.3043 356.828 33.1603C357.404 32.6023 357.566 29.7223 357.674 23.4043ZM365.144 35.5363V34.4743H376.016V35.5363H365.144Z"
        fill="#333333" />
    <defs>
        <clipPath id="clip0_5067_3052">
            <rect width="77.17" height="39.9987" fill="white" transform="translate(0 6.13293)" />
        </clipPath>
        <clipPath id="clip1_5067_3052">
            <rect width="105" height="52.2646" fill="white" transform="translate(89.17)" />
        </clipPath>
    </defs>
</svg>