<svg width="100%" height="100%" viewBox="0 0 225 68" fill="none" xmlns="http://www.w3.org/2000/svg">
    <g clip-path="url(#clip0_6896_19425)">
        <path
            d="M21.115 37.7373C23.8792 40.5015 27.241 41.963 30.8317 41.963C40.6091 41.963 45.9414 31.3311 45.9414 25.8634C45.9927 24.1405 45.6519 22.8658 45.0075 22.4455C42.6215 20.6525 37.1632 18.7802 30.8177 18.8969C24.8877 18.7849 19.3033 20.6619 16.6231 22.4502C16.0068 22.8658 15.6893 24.1405 15.7126 25.8634C15.7266 28.9965 17.4122 34.0393 21.115 37.7373Z"
            fill="white" />
        <path
            d="M21.5803 27.9691C21.5196 27.9691 21.4729 28.0345 21.4029 28.0532C21.3328 28.0718 21.2161 28.1279 21.2348 28.1652C21.3142 28.2819 21.4916 28.2399 21.613 28.1652C21.7344 28.0905 21.6737 27.9831 21.5803 27.9691Z"
            fill="#95969B" />
        <path
            d="M21.5535 27.483C21.6165 27.4642 21.6775 27.4391 21.7356 27.4083C21.7557 27.3924 21.7715 27.3718 21.7815 27.3483C21.7916 27.3247 21.7957 27.2991 21.7934 27.2736C21.791 27.2481 21.7824 27.2236 21.7683 27.2023C21.7541 27.181 21.7349 27.1635 21.7123 27.1515C21.5535 27.1188 21.4088 27.2776 21.2454 27.3009C21.2921 27.413 21.4228 27.5391 21.5535 27.483Z"
            fill="#95969B" />
        <path
            d="M30.8298 42.8827C41.1441 42.8547 47.0087 32.008 47.018 25.6719C47.018 25.5598 47.018 25.4431 47.018 25.3264C47.018 23.6174 46.6772 22.3007 45.8647 21.731C43.0865 19.6532 37.3714 17.8649 31.3901 17.8602H30.2835C24.2975 17.8602 18.6804 19.6019 15.8088 21.7404C15.0384 22.3334 14.6741 23.6081 14.6648 25.331C14.6648 25.4431 14.6648 25.5598 14.6648 25.6766C14.6555 32.0081 20.5294 42.8547 30.8298 42.8827ZM16.0656 22.1279C18.8204 20.0781 24.3815 18.3412 30.2694 18.3458H31.376C37.2733 18.3458 42.9418 20.1341 45.5939 22.1279C46.1589 22.4828 46.5511 23.6781 46.5278 25.3264C46.5278 25.4384 46.5278 25.5505 46.5278 25.6625C46.5278 28.7116 45.0897 32.9232 42.4002 36.3411C39.7107 39.759 35.7932 42.4111 30.8204 42.4111C25.8477 42.4111 21.9488 39.7777 19.2453 36.3411C16.5418 32.9045 15.113 28.7116 15.1177 25.6719C15.1177 25.5505 15.1177 25.4384 15.1177 25.331C15.113 23.6875 15.5193 22.5201 16.0656 22.1279Z"
            fill="#95969B" />
        <path
            d="M19.9941 27.2174C19.8306 27.0633 19.5271 27.2174 19.4478 27.3668C19.3684 27.5162 19.6392 27.5349 19.7793 27.5069C19.9194 27.4789 20.1341 27.3481 19.9941 27.2174Z"
            fill="#95969B" />
        <path
            d="M21.115 37.7373C23.8792 40.5015 27.241 41.963 30.8317 41.963C40.6091 41.963 45.9414 31.3311 45.9414 25.8634C45.9927 24.1405 45.6519 22.8658 45.0075 22.4455C42.6215 20.6525 37.1632 18.7802 30.8177 18.8969C24.8877 18.7849 19.3033 20.6619 16.6231 22.4502C16.0068 22.8658 15.6893 24.1405 15.7126 25.8634C15.7266 28.9965 17.4122 34.0393 21.115 37.7373ZM19.3967 27.7638C19.1866 27.6564 18.8831 27.4183 19.0418 27.2175C19.1445 27.0868 19.4247 27.1475 19.5834 26.9934C19.6395 26.9374 19.6955 26.8253 19.7749 26.8767C19.8543 26.928 20.055 26.8767 20.1624 26.9607C20.2698 27.0448 20.564 27.1568 20.564 27.3576C20.564 27.5584 20.2792 27.6144 20.2418 27.7732C20.2045 27.9319 20.4986 27.9879 20.5967 28.142C20.6947 28.2961 20.4613 28.5342 20.2745 28.609C20.0933 28.6851 19.8952 28.7123 19.7001 28.6877C19.505 28.6631 19.3199 28.5877 19.1632 28.4689C18.8924 28.2307 19.1305 27.8759 19.3967 27.7638ZM20.7321 28.8798C20.7926 28.8712 20.8544 28.8803 20.9098 28.906C20.9653 28.9317 21.0122 28.9728 21.0449 29.0245C21.0963 29.1459 21.1523 29.356 21.0449 29.4261C20.9375 29.4961 20.6293 29.4261 20.6434 29.2206C20.634 29.0946 20.6293 28.8984 20.7321 28.8751V28.8798ZM20.8582 36.7288C20.7796 36.6912 20.7156 36.6289 20.676 36.5514C20.676 36.5187 20.676 36.4813 20.7087 36.4907C21.601 36.6591 22.5202 36.6175 23.3936 36.3692C23.4823 36.3366 23.5616 36.3973 23.4216 36.5093C23.1428 36.7042 22.8235 36.8335 22.4877 36.8875C21.9417 37.0196 21.367 36.962 20.8582 36.7241V36.7288ZM24.6729 37.9241C24.2667 37.7794 24.3087 37.7047 24.3834 37.686C24.7302 37.6714 25.0753 37.6293 25.4153 37.5599C25.7964 37.3558 26.2009 37.199 26.62 37.093C26.9099 37.0458 27.2073 37.0833 27.4765 37.2009C27.7456 37.3185 27.9751 37.5112 28.1375 37.756C28.2029 37.8727 27.8153 37.756 27.6706 37.7327C27.0781 37.7027 26.4864 37.8047 25.9383 38.0315C25.5157 38.1349 25.0708 38.0955 24.6729 37.9194V37.9241ZM31.7375 38.998C30.4768 39.2455 29.4682 38.5311 28.2683 38.3117C27.9909 38.2742 27.7098 38.2742 27.4325 38.3117C26.9655 38.3397 26.55 38.5918 26.0597 38.5545C25.9103 38.5545 26.0597 38.4751 26.0597 38.4704C26.5275 38.2652 27.0117 38.0996 27.5072 37.9755C27.9346 37.8797 28.3778 37.8797 28.8052 37.9755C29.1581 38.0512 29.4948 38.1888 29.7998 38.3817C29.9445 38.4751 30.1219 38.5965 30.2667 38.5218C30.3507 38.4751 30.4255 38.405 30.5235 38.4377C30.7523 38.5218 30.6496 38.6058 31.1819 38.7412C31.3636 38.7748 31.5429 38.82 31.7188 38.8766C31.9103 38.942 31.7702 38.9934 31.7375 38.998ZM27.3904 33.5864C27.3017 33.5864 27.3157 33.6377 27.3157 33.7031V34.1093C27.3157 34.1234 27.313 34.1374 27.3076 34.1504C27.3022 34.1635 27.2942 34.1753 27.2843 34.1853C27.2743 34.1952 27.2624 34.2032 27.2494 34.2086C27.2364 34.2139 27.2224 34.2167 27.2083 34.2167C27.1948 34.2161 27.1816 34.2129 27.1694 34.2072C27.1571 34.2014 27.1461 34.1933 27.137 34.1834C27.1279 34.1734 27.1209 34.1617 27.1163 34.149C27.1117 34.1363 27.1097 34.1228 27.1103 34.1093V33.479C27.1097 33.4657 27.1117 33.4525 27.1164 33.44C27.121 33.4276 27.1281 33.4162 27.1373 33.4066C27.1464 33.397 27.1575 33.3894 27.1697 33.3841C27.1819 33.3789 27.195 33.3762 27.2083 33.3763H29.4309C29.4581 33.3763 29.4843 33.3871 29.5035 33.4063C29.5228 33.4256 29.5336 33.4517 29.5336 33.479C29.5343 33.4929 29.5321 33.5067 29.5272 33.5197C29.5223 33.5327 29.5148 33.5446 29.5052 33.5547C29.4956 33.5647 29.4841 33.5727 29.4713 33.5781C29.4585 33.5836 29.4448 33.5864 29.4309 33.5864H27.3904ZM29.1461 33.8619C29.1461 33.8957 29.133 33.9283 29.1095 33.9527C29.0859 33.9771 29.0539 33.9914 29.02 33.9926H28.7492C28.7153 33.9914 28.6833 33.9771 28.6597 33.9527C28.6362 33.9283 28.6231 33.8957 28.6231 33.8619C28.6231 33.8284 28.6364 33.7964 28.66 33.7727C28.6837 33.7491 28.7157 33.7358 28.7492 33.7358H29.02C29.038 33.7331 29.0565 33.7343 29.074 33.7394C29.0915 33.7446 29.1077 33.7534 29.1215 33.7654C29.1352 33.7774 29.1462 33.7922 29.1537 33.8089C29.1612 33.8255 29.1649 33.8436 29.1647 33.8619H29.1461ZM28.1515 33.8619C28.1504 33.8962 28.1362 33.9287 28.1119 33.953C28.0877 33.9773 28.0551 33.9914 28.0208 33.9926H27.7546C27.7199 33.9926 27.6867 33.9788 27.6622 33.9543C27.6377 33.9298 27.6239 33.8965 27.6239 33.8619C27.6239 33.8449 27.6273 33.8281 27.6339 33.8125C27.6405 33.7969 27.6502 33.7828 27.6625 33.771C27.6747 33.7593 27.6891 33.7501 27.7049 33.744C27.7208 33.738 27.7377 33.7352 27.7546 33.7358H28.0208C28.039 33.7332 28.0577 33.7344 28.0755 33.7395C28.0932 33.7446 28.1097 33.7534 28.1238 33.7653C28.1379 33.7772 28.1494 33.7919 28.1574 33.8086C28.1654 33.8252 28.1697 33.8434 28.1702 33.8619H28.1515ZM29.1741 31.5272C29.1897 31.5239 29.2059 31.5241 29.2215 31.5279C29.237 31.5316 29.2515 31.5388 29.264 31.5489C29.2764 31.5589 29.2864 31.5716 29.2933 31.5861C29.3002 31.6005 29.3038 31.6163 29.3038 31.6323C29.3038 31.6483 29.3002 31.6641 29.2933 31.6785C29.2864 31.693 29.2764 31.7057 29.264 31.7157C29.2515 31.7258 29.237 31.733 29.2215 31.7367C29.2059 31.7405 29.1897 31.7407 29.1741 31.7374H27.8713C27.7826 31.7374 27.7967 31.7887 27.7967 31.8541V32.321C27.7967 32.3349 27.7939 32.3486 27.7884 32.3614C27.783 32.3742 27.775 32.3858 27.7649 32.3954C27.7549 32.405 27.743 32.4124 27.73 32.4173C27.717 32.4222 27.7031 32.4244 27.6893 32.4237C27.662 32.4237 27.6359 32.4129 27.6166 32.3936C27.5974 32.3744 27.5865 32.3483 27.5865 32.321V31.6206C27.5859 31.6067 27.5881 31.5929 27.593 31.5799C27.5978 31.5669 27.6053 31.555 27.6149 31.5449C27.6245 31.5349 27.6361 31.5269 27.6488 31.5215C27.6616 31.516 27.6754 31.5132 27.6893 31.5132L29.1741 31.5272ZM28.2029 31.2191V30.1778C28.2029 30.1543 28.2122 30.1317 28.2289 30.1151C28.2455 30.0985 28.2681 30.0891 28.2916 30.0891C28.3151 30.0891 28.3377 30.0985 28.3543 30.1151C28.371 30.1317 28.3803 30.1543 28.3803 30.1778V31.2191C28.3803 31.2307 28.378 31.2423 28.3736 31.253C28.3691 31.2638 28.3626 31.2736 28.3543 31.2818C28.3461 31.29 28.3363 31.2966 28.3255 31.301C28.3148 31.3055 28.3032 31.3078 28.2916 31.3078C28.2799 31.3078 28.2684 31.3055 28.2576 31.301C28.2469 31.2966 28.2371 31.29 28.2289 31.2818C28.2206 31.2736 28.2141 31.2638 28.2096 31.253C28.2052 31.2423 28.2029 31.2307 28.2029 31.2191ZM33.9881 27.8339C34.1235 27.8759 34.1842 28.016 34.2589 28.1327C34.441 28.4444 34.5852 28.7767 34.6885 29.1226C34.9232 30.0564 34.9487 31.0306 34.7632 31.9755C34.6177 32.5398 34.3862 33.0785 34.0768 33.5724C33.7739 34.0602 33.3635 34.4723 32.8768 34.777C32.8768 34.777 32.8301 34.777 32.8067 34.777C33.1056 33.9833 32.7601 32.8393 31.7889 32.7739C31.7889 32.7739 31.7889 32.7459 31.7889 32.7366C32.5079 31.8868 32.5453 30.7008 32.4753 29.6362C32.1392 29.176 31.6993 28.8016 31.1912 28.5436V28.6977C31.1225 28.6688 31.0555 28.636 30.9904 28.5996V28.4409C30.1266 27.7685 29.2534 27.2969 28.399 26.6665V26.2883C28.7398 26.3584 29.2348 26.4844 29.5756 26.5778C31.1352 27.0121 32.5219 27.3809 34.0067 27.8525L33.9881 27.8339ZM30.9904 26.8346V25.7981L31.1912 25.8541V26.886L30.9904 26.8346ZM31.6021 26.7319C31.6559 26.609 31.7355 26.4991 31.8356 26.4097C31.9149 26.3257 32.0036 26.1623 32.0877 26.1996C32.3629 26.3033 32.6139 26.4622 32.8254 26.6665C32.8254 26.6665 32.8254 26.7413 32.8254 26.7459C32.4248 26.7824 32.0217 26.784 31.6208 26.7506L31.6021 26.7319ZM33.4698 35.6689C33.4698 35.6689 33.4138 35.7529 33.4044 35.7482C32.6201 35.3694 31.915 34.8449 31.3266 34.2027V33.7358C31.9587 34.4755 32.6784 35.1356 33.4698 35.7015V35.6689ZM29.3328 27.5397C29.9118 27.9459 30.4161 28.2774 30.9951 28.6837C31.4124 28.9519 31.8074 29.2533 32.1764 29.5848C32.3319 30.1938 32.2759 30.8375 32.0176 31.4105C31.8321 32.017 31.4773 32.558 30.9951 32.97C30.9951 32.97 30.9531 32.97 30.9577 32.97C30.9948 32.8586 31.0005 32.739 30.9742 32.6245C30.9478 32.5101 30.8904 32.405 30.8083 32.321C30.0799 31.5039 29.1928 30.7381 28.4083 30.0191V26.9187C28.6465 27.1288 29.062 27.3669 29.3328 27.5584V27.5397ZM31.2005 33.0634V33.8759C31.2005 33.9044 31.1892 33.9317 31.1691 33.9518C31.1489 33.9719 31.1216 33.9833 31.0931 33.9833C31.0647 33.9833 31.0373 33.9719 31.0172 33.9518C30.9971 33.9317 30.9858 33.9044 30.9858 33.8759V33.0634C30.9858 33.0349 30.9971 33.0076 31.0172 32.9875C31.0373 32.9673 31.0647 32.956 31.0931 32.956C31.1216 32.956 31.1489 32.9673 31.1691 32.9875C31.1892 33.0076 31.2005 33.0349 31.2005 33.0634ZM30.841 33.7078C30.3293 33.1601 29.8536 32.5799 29.4169 31.9708V31.5272C29.641 31.8307 30.3227 32.6432 30.8177 33.2268L30.841 33.7078ZM29.1181 32.1062C29.1168 32.1401 29.1025 32.1721 29.0782 32.1957C29.0538 32.2192 29.0212 32.2323 28.9873 32.2323H28.7212C28.6873 32.2323 28.6547 32.2192 28.6303 32.1957C28.6059 32.1721 28.5916 32.1401 28.5904 32.1062C28.5916 32.0719 28.6057 32.0393 28.63 32.0151C28.6543 31.9908 28.6868 31.9766 28.7212 31.9755H28.9873C29.0067 31.9747 29.0261 31.9781 29.044 31.9855C29.062 31.9928 29.0782 32.004 29.0915 32.0182C29.1048 32.0323 29.1149 32.0492 29.1211 32.0676C29.1273 32.086 29.1294 32.1056 29.1274 32.1249L29.1181 32.1062ZM28.4644 32.1062C28.4644 32.1397 28.4511 32.1717 28.4274 32.1954C28.4038 32.219 28.3717 32.2323 28.3383 32.2323H28.0675C28.034 32.2323 28.002 32.219 27.9783 32.1954C27.9547 32.1717 27.9414 32.1397 27.9414 32.1062C27.9414 32.0723 27.9545 32.0398 27.978 32.0154C28.0015 31.991 28.0336 31.9767 28.0675 31.9755H28.3383C28.3571 31.9753 28.3758 31.9792 28.393 31.9869C28.4103 31.9946 28.4256 32.0059 28.438 32.0201C28.4504 32.0343 28.4597 32.051 28.465 32.0691C28.4704 32.0872 28.4717 32.1062 28.469 32.1249L28.4644 32.1062ZM29.2768 32.4891C29.304 32.4891 29.3302 32.4999 29.3494 32.5192C29.3687 32.5385 29.3795 32.5646 29.3795 32.5918C29.3795 32.6191 29.3687 32.6452 29.3494 32.6645C29.3302 32.6837 29.304 32.6945 29.2768 32.6945H27.6379C27.5445 32.6945 27.5632 32.7506 27.5632 32.816V33.2222C27.5632 33.2507 27.5519 33.278 27.5317 33.2981C27.5116 33.3183 27.4843 33.3296 27.4558 33.3296C27.4419 33.3296 27.4281 33.3268 27.4154 33.3213C27.4026 33.3159 27.3911 33.3079 27.3815 33.2979C27.3718 33.2878 27.3644 33.2759 27.3595 33.2629C27.3546 33.2499 27.3524 33.2361 27.3531 33.2222V32.5918C27.3531 32.5779 27.3559 32.5642 27.3613 32.5514C27.3668 32.5386 27.3747 32.5271 27.3848 32.5175C27.3948 32.5079 27.4067 32.5004 27.4197 32.4955C27.4327 32.4907 27.4466 32.4885 27.4605 32.4891H29.2768ZM29.1181 33.0121C29.1169 33.0464 29.1027 33.079 29.0785 33.1032C29.0542 33.1275 29.0216 33.1416 28.9873 33.1428H28.7212C28.6868 33.1416 28.6543 33.1275 28.63 33.1032C28.6057 33.079 28.5916 33.0464 28.5904 33.0121C28.5916 32.9777 28.6057 32.9452 28.63 32.9209C28.6543 32.8966 28.6868 32.8825 28.7212 32.8813H28.9873C29.0067 32.8805 29.0261 32.884 29.044 32.8913C29.062 32.8987 29.0782 32.9098 29.0915 32.924C29.1048 32.9382 29.1149 32.9551 29.1211 32.9735C29.1273 32.9919 29.1294 33.0114 29.1274 33.0307L29.1181 33.0121ZM28.3056 33.0121C28.3044 33.0464 28.2903 33.079 28.266 33.1032C28.2418 33.1275 28.2092 33.1416 28.1749 33.1428H27.9087C27.8744 33.1416 27.8418 33.1275 27.8176 33.1032C27.7933 33.079 27.7791 33.0464 27.778 33.0121C27.7791 32.9777 27.7933 32.9452 27.8176 32.9209C27.8418 32.8966 27.8744 32.8825 27.9087 32.8813H28.1749C28.1943 32.8805 28.2136 32.884 28.2316 32.8913C28.2496 32.8987 28.2658 32.9098 28.2791 32.924C28.2923 32.9382 28.3024 32.9551 28.3086 32.9735C28.3148 32.9919 28.317 33.0114 28.3149 33.0307L28.3056 33.0121ZM29.5196 33.0121V32.5265C29.8885 33.0307 31.7655 35.4167 33.4044 35.9537C33.6228 36.0755 33.8687 36.1395 34.1188 36.1395C34.3689 36.1395 34.6148 36.0755 34.8332 35.9537L34.7352 36.3879C34.2755 36.5272 33.7826 36.5091 33.3344 36.3366C32.6713 36.1685 31.0465 35.1272 29.529 33.0354L29.5196 33.0121ZM29.669 33.4416C30.0379 33.9459 31.6394 35.9724 33.283 36.5047C33.7431 36.6803 34.2517 36.6803 34.7118 36.5047L34.6184 36.8969C34.1572 37.0283 33.6658 37.007 33.2176 36.8362C32.5733 36.6634 31.1959 36.0377 29.6784 33.9412L29.669 33.4416ZM33.4044 37.0323C33.8375 37.1333 34.2881 37.1333 34.7212 37.0323C34.7212 37.0323 35.0293 35.4774 35.062 35.3047C35.0947 35.1319 35.1274 35.3047 35.1274 35.3047C35.1274 35.3047 34.8005 37.0183 34.8472 36.9996L34.7398 37.4385C34.3137 37.5786 33.8539 37.5786 33.4278 37.4385C32.4005 37.2564 31.5041 36.3412 29.8838 35.7996V34.5109C30.248 35.0572 32.0877 36.8875 33.3998 37.0556L33.4044 37.0323ZM29.9118 36.2105C30.0544 36.5379 30.3166 36.7984 30.6449 36.9389C30.8783 37.0276 31.2005 36.7194 31.434 36.8408C31.518 36.8829 31.2192 37.0276 31.0371 37.0369C30.7937 37.0674 30.5465 37.0334 30.3204 36.9384C30.0942 36.8433 29.897 36.6906 29.7484 36.4953C29.4075 35.9117 29.1274 35.4868 28.7492 35.5895C28.5577 35.6455 28.5671 35.7202 28.4644 35.6829C28.3616 35.6455 28.3663 35.5148 28.5531 35.3981C28.9359 35.1646 29.5756 35.1739 29.9072 36.2339L29.9118 36.2105ZM31.8683 37.4198C31.7951 37.3314 31.7018 37.2619 31.5961 37.2172C31.4905 37.1725 31.3756 37.1539 31.2612 37.163C31.1818 37.163 31.1165 37.0229 31.5181 36.9809C32.1157 36.9249 32.5079 37.4992 32.8815 37.5879C33.4418 37.728 33.3251 37.9521 33.2317 37.9054C33.0211 37.8145 32.7921 37.7747 32.5632 37.7893C32.3343 37.8039 32.1122 37.8725 31.9149 37.9895C31.7758 38.0463 31.6199 38.0463 31.4807 37.9895C31.0605 37.8914 30.7103 37.672 30.2807 37.5786C30.0519 37.5319 29.8511 37.7233 29.627 37.6113C29.4542 37.3078 30.22 37.4152 30.22 37.4152C30.6029 37.5272 31.0091 37.5086 31.406 37.6019C31.5491 37.6323 31.6971 37.6323 31.8402 37.6019C31.8822 37.6113 31.9523 37.5693 31.8636 37.4432L31.8683 37.4198ZM35.3468 39.1568C34.385 39.535 32.3585 39.2829 32.1858 39.1568C31.9149 38.97 33.5445 39.0354 33.5445 39.0354C34.1291 39.1545 34.7307 39.164 35.3188 39.0634C35.3608 39.0868 35.3562 39.1755 35.3421 39.1801L35.3468 39.1568ZM35.6363 38.8953C34.5746 38.974 33.5076 38.9443 32.4519 38.8066C32.1624 38.7599 31.518 38.6665 31.8215 38.5358C32.2371 38.349 32.4986 38.5825 32.9282 38.4237C33.1495 38.3179 33.3811 38.235 33.6192 38.1762C34.1281 38.1755 34.6318 38.2788 35.0994 38.4798C35.4729 38.5918 35.7951 38.4798 36.178 38.6245C36.4068 38.7459 36.5095 38.8066 35.6317 38.9187L35.6363 38.8953ZM39.1523 37.6673C38.8488 37.6673 38.6433 37.5132 38.3585 37.5226C38.254 37.5354 38.157 37.5831 38.083 37.658C37.999 37.742 38.1577 37.756 38.1811 37.8261C38.1955 37.8791 38.1918 37.9354 38.1707 37.9861C38.1496 38.0369 38.1121 38.0791 38.0643 38.1062C37.5694 38.4191 37.0371 38.2043 35.9492 37.672C35.627 37.5132 35.0807 37.8214 34.9593 37.8541C34.6978 37.9241 34.7398 37.714 34.8285 37.6766C34.918 37.6055 35.0241 37.5582 35.1368 37.5394C35.2496 37.5206 35.3652 37.5309 35.4729 37.5692C35.669 37.6253 35.7764 37.3591 36.0566 37.4712C36.6589 37.7047 37.2986 38.0362 37.9243 37.77C38.0737 37.7093 37.9243 37.7047 37.9243 37.5786C37.9663 37.3638 38.0924 37.2377 38.3912 37.2331C38.5686 37.2331 38.7834 37.4198 38.9608 37.4572C39.1382 37.4945 39.2784 37.3171 39.3671 37.4338C39.4558 37.5506 39.3157 37.6813 39.1476 37.6907L39.1523 37.6673ZM38.6853 29.0712C38.6853 29.2393 38.5359 29.3327 38.4986 29.4961C38.487 29.5603 38.4579 29.6201 38.4145 29.6689C38.2044 29.851 38.097 30.0844 37.8916 30.2619C37.8751 30.2776 37.8544 30.2882 37.832 30.2924C37.8096 30.2965 37.7865 30.294 37.7655 30.2852C37.6766 30.2182 37.6145 30.1216 37.5906 30.0129C37.5666 29.9041 37.5823 29.7904 37.6348 29.6922C37.8625 29.3682 38.1326 29.0761 38.4379 28.8237C38.4846 28.7817 38.5173 28.707 38.5639 28.6556C38.6106 28.6043 38.6573 28.6556 38.6807 28.6556C38.704 28.6556 38.6807 28.8237 38.6573 28.9125C38.634 29.0012 38.676 29.0432 38.676 29.0946L38.6853 29.0712ZM40.5204 28.1093C40.455 28.2821 40.2495 28.3428 40.1328 28.4735C40.1181 28.5 40.1104 28.5297 40.1104 28.5599C40.1104 28.5902 40.1181 28.6199 40.1328 28.6463C40.397 28.664 40.6623 28.6467 40.9219 28.5949C40.9219 28.5389 40.9219 28.4689 40.8892 28.4362C40.6651 28.1327 40.8239 27.7311 40.7772 27.3996C40.7461 27.1496 40.6209 26.9208 40.427 26.7599C40.1655 26.5825 39.7593 26.7599 39.4371 26.6712C39.2036 26.5965 39.4371 26.3117 39.5959 26.2416C39.9344 26.1388 40.2911 26.1101 40.6418 26.1576C40.7772 26.1576 40.8052 25.9055 40.9639 25.8774C41.1227 25.8494 41.2394 25.7607 41.3795 25.7934C41.5196 25.8261 41.3795 26.1529 41.5056 26.1996C42.0094 26.3069 42.5221 26.3679 43.0371 26.3817C43.1071 26.3817 43.2052 26.4471 43.1725 26.5638C43.1725 26.6012 43.1398 26.6292 43.1118 26.6339C42.5982 26.7786 41.9445 26.4938 41.5756 27.0354C41.4709 27.1454 41.3799 27.2677 41.3048 27.3996C41.2394 27.5537 41.2534 27.7171 41.1694 27.8665C41.0853 28.016 41.1694 28.156 41.1367 28.3008C41.104 28.4455 40.9639 28.5763 41.048 28.5903C41.3891 28.6447 41.7349 28.6635 42.0799 28.6463C42.178 28.6463 42.1779 28.4829 42.1126 28.4409C41.8417 28.2728 41.5569 28.0066 41.6223 27.7638C41.6877 27.521 42.1499 27.0214 42.4207 27.2082C42.4814 27.2502 42.4207 27.3296 42.4628 27.3996C42.5668 27.5479 42.7044 27.6695 42.8643 27.7545C43.3079 28.0066 43.6861 28.3708 44.2184 28.3848C44.2511 28.3848 44.3211 28.4315 44.3211 28.4502C44.3203 28.4978 44.3084 28.5445 44.2865 28.5867C44.2645 28.6289 44.2331 28.6655 44.1946 28.6936C44.1562 28.7216 44.1118 28.7404 44.0648 28.7484C44.0179 28.7564 43.9698 28.7534 43.9242 28.7397C43.7286 28.6965 43.5378 28.634 43.3546 28.5529C43.1305 28.4502 43.0044 28.2027 42.7616 28.1187C42.374 28.8378 42.6589 29.6315 42.5842 30.4019C42.5794 30.4237 42.5701 30.4443 42.5569 30.4622C42.5437 30.4802 42.5269 30.4951 42.5075 30.5062C42.4881 30.5172 42.4666 30.524 42.4444 30.5261C42.4222 30.5283 42.3999 30.5257 42.3787 30.5187C42.1126 30.4206 42.1219 30.1218 42.1032 29.8697C41.4541 29.7003 40.7772 29.6654 40.1141 29.7669C40.0067 29.7669 39.9787 29.907 39.96 29.9817C39.9227 30.1918 39.8947 30.486 39.6519 30.4486C39.5773 30.4288 39.5126 30.3821 39.4703 30.3174C39.4281 30.2528 39.4113 30.1748 39.4231 30.0984C39.6939 29.4541 39.89 28.6977 39.4604 28.1047C39.3297 27.9226 39.0356 28.1794 38.7834 28.1514C38.7644 28.1504 38.7459 28.1449 38.7294 28.1354C38.7129 28.1259 38.6988 28.1127 38.6884 28.0968C38.6779 28.0809 38.6714 28.0628 38.6692 28.0438C38.6671 28.0249 38.6694 28.0058 38.676 27.9879C38.6942 27.9333 38.7276 27.885 38.7722 27.8486C38.8169 27.8122 38.871 27.7893 38.9282 27.7825C39.4605 27.7825 39.792 27.4043 40.2355 27.1942C40.2653 27.1745 40.3002 27.164 40.3359 27.164C40.3716 27.164 40.4065 27.1745 40.4363 27.1942C40.5204 27.2782 40.4363 27.409 40.4363 27.479C40.5275 27.6841 40.5536 27.9123 40.511 28.1327L40.5204 28.1093ZM38.4052 26.5125C38.6107 26.5638 38.9141 26.7459 38.8068 27.0074C38.7414 27.1521 38.564 27.0961 38.4285 27.0774C38.0929 27.0146 37.7801 26.863 37.5227 26.6385C37.6513 26.5572 37.7965 26.5058 37.9476 26.488C38.0987 26.4703 38.2519 26.4866 38.3959 26.5358L38.4052 26.5125ZM37.0044 28.044C37.168 27.9061 37.3639 27.8119 37.5737 27.7702C37.7836 27.7286 38.0006 27.7408 38.2044 27.8058C38.2604 27.8058 38.3118 27.8619 38.3071 27.9086C38.3071 28.03 38.1997 28.0953 38.097 28.1467C37.9943 28.1981 37.8729 28.3708 37.7282 28.3755C37.536 28.3957 37.3456 28.43 37.1585 28.4782C37.1155 28.4922 37.0689 28.4905 37.027 28.4734C36.9851 28.4563 36.9507 28.4249 36.9297 28.3848C36.904 28.3335 36.8947 28.2755 36.9031 28.2187C36.9114 28.1619 36.937 28.1091 36.9764 28.0673L37.0044 28.044ZM36.0706 34.198C36.2107 34.3381 36.4628 34.3988 36.4861 34.5949C36.5354 35.0099 36.4665 35.4304 36.2872 35.808C36.108 36.1855 35.8257 36.5047 35.4729 36.7288C35.3846 36.7956 35.2909 36.8549 35.1928 36.9062C35.1928 36.9062 35.1461 36.9062 35.1507 36.9062C35.4595 36.5798 35.6586 36.1652 35.7204 35.7202C35.8371 35.1459 35.6503 34.8751 35.599 34.9078C35.2152 35.1887 34.798 35.4209 34.3569 35.5988C34.3149 35.5988 34.2075 35.6222 34.2169 35.5988C34.3395 35.345 34.388 35.0618 34.3569 34.7817C34.3196 34.6416 34.1141 34.5949 34.1468 34.4642C34.1795 34.3335 34.2682 34.3521 34.3289 34.2868C34.7123 33.8361 34.9729 33.2941 35.0853 32.7132C35.251 32.0793 35.2283 31.4108 35.02 30.7895C34.9873 30.7195 34.9826 30.5934 35.02 30.5794C35.2296 30.6066 35.4314 30.6765 35.613 30.7848C35.7677 30.8437 35.9034 30.9438 36.0052 31.0743C36.0792 31.1843 36.1242 31.3112 36.1359 31.4432C36.2476 32.3682 36.2193 33.3048 36.0519 34.2214L36.0706 34.198ZM35.3842 25.9475C35.8974 26.9574 36.1358 28.0847 36.0752 29.216C36.0752 29.3233 36.0752 29.4634 36.0005 29.5615C35.9118 29.3934 35.8931 29.2019 35.8184 29.0292C35.5401 28.3385 35.1364 27.7053 34.6278 27.1615C34.6278 27.1615 34.6278 26.9981 34.6278 26.9047C34.7005 26.4563 34.6862 25.9982 34.5857 25.5553C34.7423 25.5395 34.9 25.5705 35.0388 25.6445C35.1776 25.7185 35.2914 25.8321 35.3655 25.9708L35.3842 25.9475ZM34.4503 26.4144C34.4377 26.8073 34.3235 27.1901 34.1188 27.5257C34.1121 27.5364 34.1021 27.5445 34.0902 27.5487C34.0783 27.5529 34.0654 27.5531 34.0535 27.549C33.9843 27.3295 33.8716 27.1262 33.7219 26.9514C33.5436 26.747 33.3301 26.5762 33.0916 26.4471C32.626 26.1506 32.1194 25.9241 31.5881 25.7747C31.1598 25.6301 30.7069 25.5729 30.2561 25.6066C29.8054 25.6403 29.366 25.7641 28.964 25.9708C28.964 25.9708 28.8799 25.9708 28.8893 25.9708C28.972 25.8133 29.0705 25.6647 29.1834 25.5272C29.3908 25.2245 29.5119 24.871 29.5336 24.5047C29.5375 23.8856 29.3571 23.2793 29.0153 22.7631C29.3188 22.8424 29.7297 23.0572 29.9912 22.7631C30.1329 22.9628 30.339 23.1079 30.5749 23.174C30.6887 23.1961 30.8061 23.1916 30.9178 23.1608C31.0296 23.13 31.1328 23.0738 31.2192 22.9965C31.3826 23.1319 31.5274 23.2953 31.7749 23.258C31.9336 23.258 32.0737 23.0432 32.1717 23.1179C32.3585 23.258 32.5126 23.4634 32.7507 23.5008C32.9293 23.5297 33.1122 23.5137 33.283 23.4541C33.3904 23.4214 33.5165 23.2953 33.5585 23.342C33.8987 23.7786 34.1493 24.278 34.2959 24.8117C34.4426 25.3453 34.4823 25.9027 34.413 26.4518L34.4503 26.4144ZM31.2799 20.6712C31.554 20.6843 31.8218 20.7577 32.0644 20.886C32.1577 20.9374 32.1857 21.0401 32.2791 21.0821C32.4495 21.1777 32.6065 21.2955 32.746 21.4323C32.8111 21.4831 32.8651 21.5467 32.9048 21.6191C32.9048 21.6191 32.9048 21.6658 32.9048 21.6611C32.5252 21.5642 32.1336 21.5233 31.7422 21.5397C31.5943 21.5647 31.4478 21.5974 31.3033 21.6378C31.3033 21.6378 31.2612 21.6097 31.2659 21.6004C31.3441 21.3071 31.336 20.9974 31.2426 20.7086L31.2799 20.6712ZM28.4784 22.4035L29.9632 22.5903L31.0791 21.9413L31.1398 20.5685H31.2005L31.2332 21.9226L32.2978 22.8938L33.5865 23.0619V23.1506L28.4504 22.4922L28.4784 22.4035ZM28.3056 23.7716H28.357L28.385 24.5747C28.413 24.514 28.385 24.3553 28.427 24.2992C28.469 24.2432 28.3616 23.8323 28.4036 23.8323C28.6293 24.0261 28.843 24.2335 29.0433 24.4533C29.0994 24.5187 29.2815 24.7241 29.2301 24.6961C28.8986 24.5374 28.5484 24.6541 28.3897 24.5981L28.441 26.1389L28.2589 26.0642L28.3056 23.7716ZM28.2589 26.2183V26.5825C28.0861 26.4144 27.7686 26.1903 27.6332 26.0409C27.8366 26.0906 28.0339 26.1626 28.2215 26.2556L28.2589 26.2183ZM25.9523 25.0977C26.6153 25.5646 27.157 25.9988 27.7873 26.4985C27.9741 26.6385 28.0768 26.6852 28.2542 26.8113V29.8183C28.2542 29.8183 28.1702 29.8183 28.1655 29.8183C27.9414 29.3093 28.0535 28.7304 27.764 28.2307C27.1523 27.1568 26.4893 26.2183 25.8963 25.135C25.8449 25.1304 25.8963 25.121 25.915 25.135L25.9523 25.0977ZM25.1725 34.4128C26.0597 33.8292 27.0076 34.5342 27.3904 35.3467C27.3046 35.0985 27.2048 34.8553 27.0916 34.6183C26.9842 34.3661 27.0636 34.3101 27.1803 34.1887H29.6036C29.6316 34.1875 29.6596 34.1918 29.6858 34.2015C29.7121 34.2112 29.7362 34.2261 29.7566 34.2452C29.7771 34.2644 29.7935 34.2874 29.8049 34.313C29.8163 34.3386 29.8225 34.3662 29.8231 34.3942C29.8231 34.5156 29.6644 34.5622 29.5756 34.5622H27.7873C27.6332 34.5622 27.7313 34.749 27.7873 34.749H28.5624C28.6605 34.749 28.7305 34.8097 28.7212 34.8424C28.7118 34.8751 28.6651 34.9218 28.5671 34.9124C28.469 34.9031 28.0208 34.9124 27.7967 34.9124C27.7079 34.9124 27.6986 35.0899 27.7967 35.0899H28.3523C28.4503 35.0899 28.4924 35.1272 28.4877 35.1599C28.4793 35.1874 28.4617 35.2112 28.438 35.2273C28.4142 35.2434 28.3856 35.251 28.357 35.2486H27.806C27.7313 35.2486 27.806 35.5054 27.806 35.5054C27.8527 35.6425 27.8794 35.7856 27.8854 35.9303C27.8153 36.0611 27.6519 35.865 27.5492 35.7156C27.8387 36.2162 28.2726 36.6178 28.7941 36.8678C29.3157 37.1177 29.9005 37.2043 30.4721 37.1163C30.6542 37.079 30.6729 37.1864 30.5001 37.2611C29.4007 37.3957 28.2853 37.2345 27.269 36.7942C26.6807 36.4766 25.971 36.6401 25.3266 36.7942C24.0146 37.1117 23.3048 37.728 22.1562 37.5179C21.7686 37.4479 20.8815 37.1117 21.3017 37.1023C22.4877 37.4525 23.09 37.1303 24.0519 36.5047C25.1819 35.7622 25.9196 36.5934 26.5453 35.8276C26.8255 35.4634 26.5453 35.1366 26.2558 34.9405C25.9663 34.7443 25.5554 34.8051 25.4667 35.1179C25.4013 35.356 25.7188 35.5848 25.9756 35.4774C26.0597 35.4447 26.0363 35.5195 26.0036 35.5755C25.9081 35.6966 25.7732 35.7806 25.6224 35.813C25.4715 35.8454 25.3141 35.8241 25.1772 35.7529C25.0394 35.7027 24.9216 35.609 24.8416 35.4861C24.7616 35.3631 24.7237 35.2175 24.7336 35.0712C24.7531 34.9453 24.7989 34.8249 24.8681 34.7179C24.9373 34.6108 25.0283 34.5196 25.1352 34.4502L25.1725 34.4128ZM24.3321 29.6922C24.192 29.9537 24.0192 30.1591 23.8651 30.4206C23.7513 30.5552 23.5976 30.65 23.4262 30.6914C23.3609 30.6914 23.3422 30.8082 23.2768 30.8082C22.9961 30.8421 22.7116 30.8263 22.4364 30.7615C21.5025 30.472 20.7367 29.7996 19.7375 29.6549C19.6815 29.6549 19.6488 29.5802 19.5881 29.5708C19.5166 29.5758 19.4448 29.5758 19.3733 29.5708C19.2192 29.5195 19.3173 29.3187 19.3733 29.2206C19.4353 29.1207 19.5266 29.0424 19.6348 28.9965C19.9103 28.9545 20.0364 29.3327 20.3072 29.4634C21.1477 29.8681 22.0736 30.0636 23.006 30.0331C23.2448 30.0464 23.4838 30.012 23.7091 29.9318C23.9344 29.8517 24.1414 29.7273 24.3181 29.5661C24.3087 29.5381 24.3367 29.6595 24.2947 29.7296L24.3321 29.6922ZM21.9181 28.8051C22.0135 28.7804 22.1137 28.7802 22.2093 28.8047C22.3048 28.8292 22.3926 28.8775 22.4644 28.9451C22.4865 28.9644 22.5026 28.9896 22.5108 29.0177C22.5191 29.0458 22.5192 29.0757 22.5111 29.1039C22.491 29.1567 22.4526 29.2005 22.4028 29.2271C22.353 29.2537 22.2952 29.2613 22.2402 29.2486C22.1422 29.2253 22.1188 29.1086 22.0441 29.0806C21.8527 29.0572 21.7406 28.9031 21.8807 28.8424L21.9181 28.8051ZM18.2574 26.5125C18.3134 26.2697 18.6076 26.1716 18.8224 26.1809C19.1351 26.2133 19.4511 26.1912 19.7562 26.1156C19.8963 25.9195 19.901 25.4385 20.2231 25.5926C20.4099 25.686 20.2231 26.1016 20.3492 26.1249C20.6093 26.1735 20.875 26.1845 21.1383 26.1576C21.2784 26.1576 21.4091 25.8448 21.4231 25.6907C21.4511 25.3125 21.8901 25.3545 22.1702 25.3592C22.2776 25.6953 21.7733 25.7887 21.7033 26.0782C21.7054 26.1146 21.7193 26.1493 21.7429 26.1771C21.7665 26.2049 21.7985 26.2243 21.834 26.2323C22.3523 26.2883 22.8612 26.2977 23.3795 26.3537C23.3942 26.3579 23.4078 26.3651 23.4196 26.3748C23.4314 26.3844 23.4411 26.3964 23.4481 26.41C23.4551 26.4235 23.4592 26.4384 23.4603 26.4536C23.4614 26.4688 23.4593 26.4841 23.4543 26.4985C23.4204 26.5619 23.3699 26.615 23.3083 26.652C23.2466 26.689 23.176 26.7086 23.1041 26.7086C22.6371 26.7506 22.2262 26.6198 21.778 26.6339C21.7406 26.6339 21.708 26.6759 21.7313 26.6946C21.9414 26.8626 22.1982 26.9747 22.2496 27.2409C22.3009 27.507 21.9881 27.5164 21.9788 27.7078C21.9694 27.8992 22.3056 27.9413 22.2029 28.1747C22.137 28.2852 22.049 28.3808 21.9444 28.4557C21.8398 28.5306 21.7209 28.583 21.595 28.6097C21.4692 28.6365 21.3392 28.6369 21.2132 28.6111C21.0872 28.5852 20.968 28.5336 20.8628 28.4595C20.7788 28.4128 20.8021 28.2868 20.7881 28.2074C20.7554 28.0113 21.0216 27.8619 20.9889 27.6844C20.9562 27.507 20.7834 27.451 20.8068 27.3109C20.8301 27.1708 21.0916 27.0494 21.2223 26.8813C21.283 26.8019 21.3017 26.6339 21.1896 26.6432C20.6107 26.7086 20.0784 26.5451 19.5181 26.6152C19.1992 26.6226 18.8837 26.6826 18.5842 26.7926C18.4582 26.9047 18.1687 26.7553 18.22 26.5498L18.2574 26.5125ZM18.2107 29.6642C18.3648 29.3514 18.7243 29.2813 18.9437 29.0198C18.9437 29.0198 19.0278 29.0198 19.0371 29.0198C19.0885 29.1879 18.9578 29.3187 18.8737 29.4634C18.7487 29.6194 18.6436 29.7904 18.5609 29.9724C18.5501 30.0105 18.5295 30.045 18.501 30.0725C18.4726 30.1 18.4374 30.1195 18.3989 30.129C18.3605 30.1385 18.3202 30.1377 18.2823 30.1265C18.2443 30.1154 18.2099 30.0945 18.1827 30.0658C18.0052 29.9817 18.1173 29.823 18.1967 29.7016L18.2107 29.6642Z"
            fill="#95969B" />
        <path
            d="M19.9258 27.927C19.8371 27.8943 19.7203 27.9783 19.683 28.0764C19.6456 28.1744 19.9164 28.2912 19.9865 28.2071C20.0025 28.1853 20.0137 28.1603 20.0193 28.1338C20.025 28.1073 20.0249 28.0799 20.0192 28.0534C20.0135 28.0269 20.0022 28.0019 19.986 27.9802C19.9699 27.9584 19.9494 27.9402 19.9258 27.927Z"
            fill="#95969B" />
        <path
            d="M61.289 29.9674C60.556 29.8554 59.5474 30.3036 58.9544 30.6305C58.2474 30.9393 57.6605 31.4705 57.2828 32.1433C53.1412 39.0398 48.3366 41.3044 42.9809 43.2981C42.201 43.6004 41.3943 43.8287 40.5716 43.9798C40.4315 43.9798 40.2167 44.0499 40.4922 43.9798C46.0626 42.2382 57.1101 37.3262 57.8852 25.8958C58.0392 23.5285 57.4463 23.5145 57.0447 23.6172C56.3367 23.8549 55.6761 24.2153 55.093 24.6818C54.0377 25.4803 53.4307 26.6242 53.0245 28.0577C51.5817 33.1332 48.4393 37.7744 42.3693 41.225C41.7622 41.5705 42.0704 41.3324 42.2992 41.1736L42.8222 40.8234C48.612 37.032 51.7358 31.8771 52.5202 25.1581C52.819 22.5667 52.3614 19.4196 51.7591 18.425C51.7031 18.3316 51.605 18.1869 51.549 18.0982C51.4527 18.0029 51.3321 17.9359 51.2004 17.9046C51.0686 17.8733 50.9307 17.8789 50.8019 17.9208C49.7851 18.5086 48.8872 19.2814 48.1544 20.1993C47.8603 20.6663 47.1132 21.6235 47.3653 22.8188C48.3879 27.6094 46.5296 32.3908 43.0977 36.99C41.4802 39.0939 39.3851 40.7825 36.9856 41.916C35.0591 42.796 32.9658 43.2514 30.8479 43.2514C28.7299 43.2514 26.6367 42.796 24.7101 41.916C22.3126 40.7794 20.2181 39.0914 18.5981 36.99C15.1662 32.3908 13.3032 27.6094 14.3257 22.8188C14.5825 21.6235 13.8354 20.6569 13.5459 20.1993C12.8121 19.2825 11.9144 18.5099 10.8985 17.9208C10.7689 17.879 10.6304 17.8735 10.4979 17.9048C10.3654 17.936 10.244 18.0029 10.1467 18.0982C10.0907 18.1869 9.99265 18.3316 9.93662 18.425C9.33429 19.4196 8.87203 22.5667 9.17553 25.1581C9.96464 31.8771 13.0884 37.032 18.8736 40.8234C19.0557 40.9402 19.2705 41.0896 19.3965 41.1736C19.6253 41.3324 19.9381 41.5705 19.3218 41.225C13.2518 37.7744 10.1094 33.1332 8.67592 28.0577C8.38186 26.7322 7.65192 25.5436 6.60277 24.6818C6.01732 24.2162 5.35531 23.8559 4.64635 23.6172C4.2448 23.5145 3.65181 23.5285 3.81057 25.8958C4.57632 37.3121 15.6238 42.2382 21.2082 43.9612C21.4837 44.0359 21.2596 43.9892 21.1242 43.9612C20.3016 43.8094 19.495 43.5812 18.7148 43.2795C13.3545 41.2857 8.54985 39.0211 4.41289 32.1246C4.03389 31.4529 3.44741 30.9221 2.74132 30.6118C2.13899 30.2849 1.13043 29.8367 0.406695 29.9487C-0.153616 30.0374 0.0144637 30.9153 0.159211 31.3495C3.73119 41.5565 14.5312 44.9137 23.2627 46.025C23.4261 46.025 23.4868 46.1137 22.1421 45.9969C19.236 45.6479 16.3531 45.1272 13.5086 44.4374C12.9623 44.2973 11.7576 43.8444 10.7351 44.1713C9.91329 44.4374 9.07282 44.8903 9.24091 45.7588C9.35297 46.3145 10.5763 46.8374 11.174 47.0475C12.5187 47.5145 18.5654 48.3643 26.9607 48.2195C27.9952 49.2508 29.3964 49.8299 30.8572 49.8299C32.318 49.8299 33.7192 49.2508 34.7537 48.2195C43.1584 48.3643 49.1957 47.5145 50.5404 47.0475C51.1381 46.8374 52.3661 46.3145 52.4735 45.7588C52.6416 44.8903 51.8011 44.4374 50.984 44.1713C49.9568 43.8444 48.7521 44.2973 48.2105 44.4374C45.3643 45.1266 42.4799 45.6474 39.5724 45.9969C38.2276 46.1137 38.2883 46.0436 38.4564 46.025C47.1832 44.9137 57.9832 41.5565 61.5599 31.3495C61.6859 30.9339 61.8493 30.0561 61.289 29.9674Z"
            fill="#95969B" />
        <path
            d="M41.0771 26.9792C41.1052 26.9792 41.1192 26.9045 41.1659 26.8858C41.1935 26.8765 41.2176 26.859 41.2351 26.8356C41.2526 26.8123 41.2626 26.7842 41.2639 26.7551C41.2639 26.6524 41.1332 26.6991 41.0725 26.6991C40.7643 26.6851 40.9604 26.9605 41.0771 26.9792Z"
            fill="#95969B" />
        <path d="M31.0021 22.7724L31.0348 22.0767L30.0496 22.6463L31.0021 22.7724Z" fill="#95969B" />
        <path
            d="M42.2195 28.2302C42.3128 28.2302 42.3502 28.0061 42.4482 27.9127C42.4654 27.9014 42.4784 27.8848 42.4852 27.8653C42.4919 27.8459 42.4921 27.8248 42.4856 27.8053C42.4342 27.7073 42.2848 27.6886 42.2381 27.6652C42.1914 27.6419 42.1027 27.7399 42.056 27.8287C42.0093 27.9174 41.9953 27.8707 42.0093 27.9034C42.0794 28.0248 42.1541 28.2302 42.2195 28.2302Z"
            fill="#95969B" />
        <path
            d="M31.7369 21.1663H31.5454V21.4324H31.6201V21.241H31.7369V21.4324H32.0077V21.3577H31.8116L31.8163 21.241H32.0077V20.9749H31.933V21.1663H31.8163H31.8116V20.9749H31.5408V21.0496H31.7369V21.1663Z"
            fill="#95969B" />
        <path
            d="M39.8882 27.9504C39.8882 28.0111 39.9442 28.1185 39.9956 28.0998C40.0469 28.0812 40.0936 28.0065 40.1403 27.9364C40.187 27.8664 40.2477 27.759 40.1777 27.731C40.1438 27.7217 40.1082 27.7203 40.0737 27.7269C40.0392 27.7335 40.0067 27.748 39.9788 27.7692C39.9508 27.7905 39.928 27.8179 39.9123 27.8493C39.8966 27.8807 39.8884 27.9153 39.8882 27.9504Z"
            fill="#95969B" />
        <path
            d="M40.0007 29.468C40.6544 29.2906 41.3455 29.468 42.0085 29.412C42.1299 29.412 42.0925 29.0852 41.9385 29.0852C41.5808 29.0239 41.2176 29.002 40.8552 29.0198C40.6171 29.0712 40.1922 29.0758 40.0801 29.1272C40.0404 29.1734 40.0124 29.2285 39.9986 29.2879C39.9848 29.3472 39.9855 29.409 40.0007 29.468Z"
            fill="#95969B" />
        <path
            d="M27.3502 35.3881C27.3491 35.4083 27.3491 35.4285 27.3502 35.4488C27.3502 35.4488 27.3596 35.4067 27.3502 35.3881Z"
            fill="#95969B" />
        <path
            d="M27.4142 35.5333C27.4142 35.566 27.4515 35.594 27.4655 35.622C27.4329 35.5659 27.4048 35.5052 27.3768 35.4492C27.3912 35.4763 27.4037 35.5044 27.4142 35.5333Z"
            fill="#95969B" />
        <path d="M31.2177 22.7956L32.1188 22.9123L31.1943 22.0579L31.2177 22.7956Z" fill="#95969B" />
        <path
            d="M27.4975 35.7013C27.5092 35.7245 27.5233 35.7464 27.5396 35.7667L27.4648 35.6453C27.4648 35.6453 27.4835 35.6593 27.4975 35.7013Z"
            fill="#95969B" />
        <path
            d="M28.5179 24.453H28.5926L28.5973 24.5744H28.7654V24.5277H28.644V24.453H28.7654V24.2803H28.7187V24.4063H28.644L28.6393 24.2803H28.4712V24.327H28.5926V24.4063H28.4712V24.5744H28.5179V24.453Z"
            fill="#95969B" />
    </g>
    <g clip-path="url(#clip1_6896_19425)">
        <path
            d="M99.1797 9.94849C98.8033 10.6175 98.358 11.2454 97.8511 11.8219C96.5224 13.9877 94.9944 15.4492 93.493 17.4688C93.493 17.4688 93.6391 17.7479 93.772 17.6017C93.9049 17.4555 94.1972 17.3094 94.3301 17.1632C95.4572 17.0157 96.5204 16.5554 97.3993 15.8346C97.5322 15.5422 97.5322 15.2632 97.665 15.1171C97.6801 14.7241 97.7656 14.3371 97.9175 13.9744C98.3427 14.1073 98.4623 13.5359 98.7546 13.6688C99.0469 13.8017 99.4721 14.0807 99.8972 14.0541C99.8972 14.6255 100.216 15.3164 99.8972 15.622C99.5784 15.9276 99.2196 16.4856 98.9539 16.9507C98.6881 17.4157 98.2762 17.9604 97.9972 18.5318C97.0586 19.6976 96.0373 20.7944 94.9412 21.8136C95.5126 22.0794 96.3629 22.0528 96.6287 21.6143C97.4525 20.6045 98.2762 19.7276 99.4056 19.8472C99.8958 19.8779 100.36 20.0796 100.717 20.417C101.073 20.7545 101.301 21.2064 101.359 21.694C101.446 21.9655 101.456 22.2557 101.388 22.5325C101.32 22.8092 101.176 23.0617 100.973 23.2619C100.359 24.0813 99.474 24.6558 98.4755 24.8829C97.4226 25.2411 96.5383 25.9742 95.9909 26.9423C95.8713 27.5137 96.7084 27.2081 97.1336 27.3277C97.2797 27.4738 96.8545 27.62 96.8678 27.7661C97.5986 28.5899 98.3161 29.0948 99.0469 29.8256H99.4721C100.806 31.3148 102.217 32.7339 103.697 34.0774C103.418 34.3697 103.564 34.6487 103.857 34.7816C103.578 34.9277 103.432 34.941 103.312 35.3662C103.191 35.6175 103.016 35.8392 102.801 36.0159C102.585 36.1927 102.333 36.3201 102.063 36.3893C100.808 36.6432 99.539 36.8251 98.263 36.934C95.4329 36.8676 92.7223 36.2431 89.9055 36.19C89.0565 36.1235 88.2035 36.1235 87.3545 36.19C86.9293 36.3494 86.5174 36.7879 86.0922 36.655C85.3771 36.3904 84.7019 36.0282 84.0859 35.5788C84.0859 35.4459 84.0859 35.2998 84.0859 35.1536C84.0859 35.0075 83.5146 34.9012 83.5013 34.6088C83.767 34.1837 83.5013 33.9046 83.1957 33.6389C83.1561 33.6742 83.1239 33.7171 83.1011 33.765C83.0783 33.8129 83.0653 33.8649 83.0628 33.9179C83.1824 33.3466 83.3153 32.9214 83.4348 32.4962C83.8271 31.669 83.948 30.7389 83.7803 29.8389C83.7803 29.6927 83.6342 29.5599 83.5013 29.706C82.3376 31.198 81.3853 32.8434 80.6712 34.5956C80.6712 34.5956 80.3922 34.7417 80.3922 34.8879C80.3922 35.7249 79.7278 36.2166 79.4754 37.0271C79.4754 37.1732 79.0635 37.6117 78.9306 37.8907C78.7977 38.1697 78.811 38.7411 78.532 38.9005C78.3853 39.0815 78.1935 39.2208 77.976 39.3043C77.7584 39.3879 77.5227 39.4127 77.2925 39.3764C77.0623 39.34 76.8458 39.2438 76.6645 39.0973C76.4833 38.9508 76.3438 38.7592 76.26 38.5418C76.0068 38.1701 75.8648 37.7339 75.8507 37.2845C75.8366 36.835 75.9509 36.3908 76.1802 36.004C76.3264 35.7117 76.1802 35.2865 76.446 35.0075C76.1537 34.8613 76.2865 34.5823 76.2865 34.4361C76.7316 32.8602 76.6806 31.1855 76.1404 29.6396C76.1404 29.3473 75.569 29.2277 75.1306 28.9619C74.2669 28.5501 74.7984 27.4074 75.3565 26.8228C75.9145 26.2381 76.6851 25.6535 77.3229 26.3444C78.0537 27.4605 77.8145 29.0018 79.2495 29.4004C79.322 29.3198 79.421 29.2679 79.5285 29.2543L79.8208 29.5333C79.9266 29.5066 80.0231 29.4515 80.0999 29.3738C80.2327 29.3738 80.246 29.6529 80.246 29.799C79.8341 30.2375 79.2761 30.2508 78.7047 30.5431C79.4488 31.513 79.0635 32.6557 79.3691 33.6389C79.3691 33.9179 78.9705 34.3564 79.2628 34.7816C80.5065 33.2884 81.5515 31.6404 82.3719 29.8787C82.6376 29.4403 83.1957 29.148 83.1824 28.7228C83.1691 28.2976 82.7572 28.7228 82.6244 28.7228C82.427 27.9847 82.3112 27.2273 82.2789 26.464C82.1706 26.0889 82.2037 25.687 82.3719 25.3346C82.8564 24.9189 83.2733 24.4303 83.6076 23.8864C83.6076 23.7402 84.1523 23.3018 83.7404 23.315C82.4118 23.2087 80.8173 24.8165 79.9271 23.5675C79.6215 23.1556 80.1796 22.4248 80.153 21.7206C80.1264 21.0164 80.9635 20.5647 81.3754 20.1262H81.7873C83.5943 18.7975 84.4446 17.0702 85.6139 15.3429C85.9909 14.8804 86.4394 14.4812 86.9426 14.1604C86.3712 13.908 85.6803 14.3464 85.2551 14.3597C84.1391 14.6786 83.116 13.8548 81.9866 13.6024C81.6544 11.5961 83.7803 10.9716 85.3349 10.7856C86.8894 10.5995 88.8692 10.7856 90.4104 10.0681C92.1101 9.32979 93.5135 8.04338 94.3965 6.41419C94.928 5.40439 94.6224 4.14214 93.772 4.16872C92.9267 4.29917 92.1375 4.67257 91.5006 5.24345C90.8636 5.81433 90.4064 6.55808 90.1846 7.38413C90.1846 7.67644 89.7727 7.8226 89.4936 7.96875C89.0268 8.24649 88.4955 8.39763 87.9524 8.40722C87.6004 8.57184 87.223 8.67519 86.8363 8.71281C86.6901 8.71281 86.6768 8.44708 86.544 8.44708C85.5149 8.49298 84.5028 8.17289 83.6873 7.54357C83.2909 7.33238 82.9807 6.98929 82.8104 6.57363C82.8104 6.14846 82.9299 5.86943 82.6376 5.44425C82.4915 5.44425 82.4915 5.59041 82.4915 5.73656C82.3453 5.45754 82.6244 5.31139 82.6244 5.16523L82.7705 5.2981C83.0495 5.01908 82.8901 4.5939 83.023 4.30159C83.2131 3.90413 83.4956 3.55791 83.8467 3.29179C85.1754 2.68059 86.8363 4.04914 88.2314 3.43794C89.0685 2.99948 89.9188 3.11906 90.7559 2.66731C92.5497 1.79851 94.516 1.3444 96.5091 1.33862C97.3181 1.36666 98.0867 1.69879 98.6616 2.2687C100.88 5.31139 96.4028 7.27784 94.6755 9.31072C94.5294 9.45688 94.9412 9.01841 95.0874 9.31072C95.7388 8.79062 96.5035 8.43105 97.3196 8.26106C97.8909 8.26106 98.8741 8.26106 99.3259 8.91212C99.373 9.08576 99.3843 9.26715 99.3592 9.4453C99.334 9.62345 99.273 9.79464 99.1797 9.94849ZM97.4657 24.006C97.4982 23.8169 97.4982 23.6237 97.4657 23.4346C95.7783 23.6339 94.3965 24.5241 92.8419 24.7633C92.5611 24.8689 92.2582 24.9023 91.9611 24.8605C91.664 24.8187 91.3821 24.7031 91.1412 24.5241C90.9818 24.2451 91.1412 23.8199 91.1412 23.3948C91.2874 23.3948 91.4335 23.3948 91.4202 23.2486C91.4069 23.1025 91.2741 23.1025 91.1412 23.1157C91.8321 22.664 92.0846 21.7871 92.7755 21.3619C93.4346 21.1282 93.9806 20.6534 94.3035 20.0332C94.3035 19.9003 93.865 19.9136 93.7321 19.9136C92.8951 20.3654 92.0447 20.5248 91.2209 20.9766C90.7958 21.1227 90.3573 20.7241 90.065 20.4451C89.7727 20.1661 90.1713 19.3157 90.1713 19.0234C90.8356 17.4555 92.5098 16.6982 93.307 15.2499L93.7056 14.3996C94.4306 13.5547 94.9814 12.5748 95.3266 11.5163C95.3172 11.4446 95.2826 11.3785 95.2291 11.3299C95.1756 11.2812 95.1065 11.2531 95.0343 11.2506C93.9049 11.5695 92.9216 11.7289 91.9384 12.0478C90.746 12.4877 89.6018 13.0487 88.5237 13.7219C88.6099 13.8128 88.6762 13.9206 88.7185 14.0385C88.7608 14.1564 88.7782 14.2818 88.7694 14.4067C88.7607 14.5317 88.726 14.6534 88.6677 14.7643C88.6094 14.8751 88.5287 14.9726 88.4307 15.0506C88.4307 14.9178 88.2845 14.7716 88.1384 14.9178C87.3831 15.893 86.84 17.0154 86.544 18.2129C86.4111 18.5052 85.8531 18.8108 85.7202 19.0898C85.5873 19.3689 85.9992 19.2227 86.1454 19.2227C87.3943 18.4786 87.7664 16.9108 88.7363 15.901C88.5901 15.901 88.5901 15.7548 88.5901 15.6087C89.0153 15.7415 89.002 15.3164 89.2811 15.1702C89.5601 15.0241 89.2811 14.8912 89.1349 14.8912C89.8391 15.0108 90.4636 14.1471 91.2475 14.6919C91.5265 14.8248 91.5531 15.529 91.4202 15.9541C90.6049 17.5029 89.6581 18.9787 88.5901 20.3654C89.7195 20.6045 90.1846 21.694 90.7692 22.5577C91.0748 23.1157 90.5167 23.5542 90.3971 24.1255C90.3971 24.1255 90.1048 24.1255 90.1048 23.9927C89.1349 24.7234 88.6034 25.8794 87.6335 26.65C87.0024 26.8395 86.3924 27.0933 85.8132 27.4074C86.5664 27.8414 87.1409 28.5289 87.4342 29.3473C87.5936 29.9053 88.8559 29.4403 89.5468 29.1347C89.7241 28.7721 89.8537 28.388 89.9321 27.992C90.3307 26.8493 91.593 26.3843 92.4167 25.6535C92.5496 25.5207 93.1077 25.0689 93.4 25.4941C93.5748 25.843 93.6829 26.2215 93.7189 26.6102C93.733 26.6874 93.7641 26.7604 93.8098 26.8242C93.8556 26.8879 93.9149 26.9408 93.9835 26.9789C94.0521 27.017 94.1283 27.0394 94.2066 27.0446C94.2849 27.0498 94.3633 27.0375 94.4363 27.0088C95.682 26.2778 96.7238 25.2451 97.4657 24.006ZM87.8195 23.1556C87.9125 22.7171 88.0587 21.7339 87.6335 21.7472C86.9426 22.0528 86.4111 23.1955 85.8663 23.9262C86.7167 24.1787 87.6999 23.7269 87.8195 23.1556ZM93.9182 33.3067C95.2468 33.4263 96.3364 33.9312 97.5986 33.4795C97.2797 32.0711 96.2699 31.1144 95.9378 29.706C96.3497 30.5809 96.9119 31.3769 97.5986 32.0578C97.7448 32.2039 97.8776 32.0578 97.8776 31.9116C97.5672 30.6449 96.7699 29.5517 95.6587 28.8689C95.0874 28.6032 94.4098 29.334 93.8517 29.9053C93.7056 29.6263 93.4265 29.7857 93.2804 29.7857C92.8685 30.078 92.3105 30.3836 91.9517 30.6759C91.1146 30.9815 90.53 30.2906 89.6797 30.171C88.8293 30.0515 88.2713 30.3571 87.5538 29.9585C87.288 30.6759 87.7265 31.3669 87.4608 32.0844C87.489 32.2038 87.5445 32.3151 87.6229 32.4096C87.7012 32.5041 87.8004 32.5792 87.9125 32.6291C89.896 32.9954 91.9029 33.2219 93.9182 33.3067ZM98.1965 29.9186C97.8695 29.1275 97.3086 28.4553 96.5888 27.992C96.5172 28.0693 96.4708 28.1667 96.4559 28.271C96.4559 28.1382 96.4559 27.992 96.3098 28.0053C96.1636 28.0186 96.1769 28.4305 96.0441 28.5766C97.0419 29.3106 97.8075 30.3161 98.2497 31.4732L98.3825 31.327C98.5287 31.4599 98.542 31.7522 98.821 31.885C98.9125 31.6681 98.9447 31.4308 98.9144 31.1973C98.884 30.9639 98.7922 30.7427 98.6483 30.5564C98.5697 30.6342 98.5224 30.7383 98.5154 30.8487C98.7811 30.4634 98.356 30.3438 98.1965 29.9186ZM101.585 29.8256C101.683 29.705 101.82 29.6221 101.973 29.5906C102.125 29.5592 102.284 29.5811 102.422 29.6529C103.418 29.9053 104.295 30.9815 105.411 30.4102C105.836 30.2641 106.262 30.5298 106.74 30.0913C107.006 29.9452 107.431 29.799 107.564 29.5067C107.709 28.9403 107.643 28.3404 107.378 27.8193C107.378 27.527 107.072 27.2612 106.926 26.8361H106.501C106.068 26.2321 105.522 25.7177 104.893 25.3214C103.988 24.9834 103.004 24.9188 102.063 25.1353C101.357 25.3664 100.697 25.717 100.11 26.1717C99.6979 26.4773 99.4322 27.1815 99.7245 27.3144C100.457 27.7859 101.135 28.3386 101.744 28.9619C101.997 29.241 101.306 29.5466 101.585 29.8256Z"
            fill="#1B2D58" />
        <path
            d="M134.559 7.07839C133.669 7.30427 132.739 7.07839 132.141 7.98189C132.141 7.84903 132.141 7.71616 131.995 7.72944C131.477 7.88889 130.998 8.56651 130.666 8.5798C129.704 8.77235 128.758 9.03888 127.836 9.37701C127.364 9.44293 126.884 9.32344 126.498 9.04356C126.111 8.76368 125.848 8.34513 125.763 7.8756C126.029 7.8756 126.135 7.46371 126.388 7.33084C126.906 7.1714 127.411 6.89237 127.796 6.99867C128.46 7.00781 129.119 6.8859 129.736 6.63993C130.829 6.63835 131.878 6.20915 132.659 5.44411C132.912 5.17837 132.885 4.77977 132.991 4.39445C132.796 4.26501 132.573 4.1831 132.34 4.15529C132.075 4.30144 131.915 3.66368 131.663 3.67696C131.059 3.55805 130.444 3.50459 129.829 3.51752C129.311 3.41123 129.138 2.64059 129.245 2.18884C129.424 1.72013 129.728 1.30922 130.124 1.00023C130.519 0.691235 130.992 0.495824 131.49 0.434975C132.371 0.303413 133.267 0.303413 134.147 0.434975C134.489 0.4335 134.82 0.556277 135.077 0.780433C135.424 1.03075 135.741 1.32058 136.021 1.64408C136.18 2.01611 136.326 2.40143 136.473 2.78674C136.765 3.42451 136.154 4.23501 136.194 5.00564C137.593 4.42192 139.153 4.34208 140.605 4.77977C141.136 5.01893 141.933 5.88258 141.455 6.29447C140.977 6.70636 140.313 6.61335 139.529 6.53363C138.832 6.54241 138.138 6.61804 137.456 6.75951C137.123 6.72857 136.803 6.61434 136.526 6.42734C135.822 6.32104 135.21 6.87909 134.559 7.07839Z"
            fill="#1B2D58" />
        <path
            d="M137.908 16.6051C138.041 16.4723 137.908 16.2198 138.147 16.2065C138.123 16.1411 138.084 16.0821 138.033 16.0337C137.983 15.9854 137.922 15.949 137.856 15.9273C137.79 15.9056 137.719 15.8991 137.65 15.9084C137.581 15.9176 137.515 15.9423 137.456 15.9806C137.071 16.2597 137.111 17.0436 137.456 17.1499C137.682 17.1499 137.788 16.7513 137.908 16.6051Z"
            fill="#1B2D58" />
        <path
            d="M136.647 9.65611C135.669 10.096 134.812 10.7661 134.149 11.6093C134.786 11.9553 135.263 12.5371 135.478 13.2303C135.967 14.4998 136.083 15.8832 135.81 17.2163C136.075 17.2163 135.969 17.6016 136.089 17.6016C136.433 16.9111 136.532 16.1236 136.368 15.3695C136.454 14.593 136.414 13.8077 136.248 13.0443C136.248 12.7785 136.075 12.4065 136.248 12.1408C136.354 11.6093 137.005 11.7023 137.577 11.5428C137.928 11.3613 138.236 11.1057 138.479 10.7938C138.722 10.4818 138.895 10.1209 138.985 9.73583C139.224 9.20436 138.985 8.18128 139.424 8.02183C140.433 7.58337 141.922 8.80576 141.975 9.70926C142.121 10.2274 141.403 11.1708 140.646 11.2107C140.38 11.0911 140.101 10.7191 139.849 10.8652C139.078 11.0379 138.52 11.7023 137.829 12.0079C138.095 12.1275 137.989 12.5128 137.989 12.6456C137.989 12.7785 137.63 13.31 137.896 13.4296C138.56 13.5226 139.118 14.4128 139.743 13.8548C139.862 13.7219 139.743 13.7219 139.596 13.6023C139.45 13.4827 139.224 13.8813 139.344 13.6023C139.446 13.4256 139.593 13.2794 139.771 13.1789C139.949 13.0785 140.15 13.0274 140.354 13.031C140.739 12.8848 140.845 12.4862 140.952 12.0876C141.935 10.9981 143.277 11.968 143.715 12.8582C144.141 13.4827 143.543 14.4261 142.772 14.7317C142.312 14.7067 141.861 14.5939 141.443 14.3995C141.058 14.2932 140.115 14.5988 140.301 14.7184C142.334 16.5653 145.097 17.203 147.861 17.8408C148.379 17.9471 148.791 18.3191 149.322 18.4121C150.651 18.8772 152.179 18.6646 153.401 19.5017C153.534 19.6345 154.079 20.1261 153.694 20.2723C151.927 21.2688 150.093 20.7108 148.166 21.2024C147.515 21.3618 146.838 21.6541 146.346 21.2954C144.991 20.3653 144.101 19.4219 142.772 18.7044C141.64 17.8343 140.374 17.1523 139.025 16.6848C138.64 16.5653 138.666 17.2163 138.427 17.4953C138.972 17.987 139.889 18.1995 140.181 18.7044C140.473 19.2093 139.968 19.7541 139.995 20.2723C139.837 20.5949 139.809 20.9657 139.915 21.3087C139.915 21.9597 139.596 22.6373 139.756 23.1422C140.061 24.0325 139.756 25.3479 140.048 26.3709C139.915 26.3709 139.782 26.3709 139.796 26.5171C139.809 26.6633 139.929 26.6367 140.061 26.6367C139.889 28.457 140.38 30.2507 139.955 32.0976C139.955 32.2304 140.221 32.2172 140.221 32.3367C140.221 32.4563 139.968 32.3367 139.982 32.6158C139.995 32.8948 140.115 32.7353 140.247 32.7353C140.291 32.889 140.301 33.0499 140.278 33.2078C140.255 33.3657 140.2 33.5171 140.115 33.6521C140.115 33.785 140.115 34.0374 140.261 34.0374C140.407 34.0374 140.38 33.8913 140.38 33.7717C140.573 34.4041 140.573 35.0792 140.38 35.7116C140.38 36.1102 139.889 36.5221 139.663 36.9207C139.409 37.942 139.02 38.925 138.507 39.8438C138.387 40.1095 138.148 40.3753 137.882 40.2557C137.492 39.941 137.236 39.4899 137.165 38.9934C136.928 37.321 136.883 35.627 137.032 33.9444C137.281 32.6179 137.208 31.2509 136.819 29.9584C136.819 29.5731 137.152 28.7759 136.633 28.8024C136.381 28.8024 136.288 29.4668 135.889 29.4801C134.722 29.5718 133.56 29.7225 132.408 29.9318C131.9 30.219 131.331 30.3828 130.747 30.4101C130.349 30.4101 130.123 30.9549 130.136 31.2206C130.117 31.8252 129.942 32.4146 129.627 32.9314C129.313 33.4483 128.87 33.875 128.342 34.1703C128.342 34.2899 128.342 34.4228 128.342 34.5556C127.811 34.4493 127.718 34.9675 127.346 35.2598C127.346 34.8612 126.934 34.7549 126.894 34.2367C126.894 34.1039 126.496 33.9976 126.349 33.7451C126.19 33.1074 126.682 32.5626 126.788 32.0444C126.974 31.2216 127.102 30.387 127.173 29.5465C127.288 28.8127 127.337 28.0701 127.319 27.3276C127.107 25.6535 126.509 24.1255 126.429 22.438C126.429 22.3052 127.319 22.2653 127.439 21.8667C127.532 21.2157 126.854 20.724 126.575 20.2191C126.575 19.9667 127.2 19.8073 127.187 19.5415C127.173 19.2758 126.907 19.1695 126.761 19.0499C127.16 19.0499 127.691 19.3821 128.09 19.0499C129.219 18.08 128.874 16.5387 129.326 15.2233C129.378 14.9922 129.377 14.7521 129.322 14.5217C129.266 14.2912 129.159 14.0767 129.007 13.8946C128.847 13.2436 128.09 13.8016 127.984 14.2002C127.19 16.4522 126.124 18.5985 124.808 20.5912C124.319 21.2727 123.633 21.7875 122.842 22.066C122.324 22.2122 122.098 23.0094 121.739 23.5541C121.739 23.6737 121.739 23.8066 121.885 23.7933L121.752 23.6737C121.274 24.3391 120.873 25.0568 120.556 25.8129L120.822 26.0653C120.437 26.0653 120.463 26.464 120.331 26.6101C120.405 26.6734 120.498 26.7107 120.596 26.7164C120.477 26.8626 120.211 26.6101 120.224 26.8758C120.275 26.9225 120.315 26.9803 120.341 27.0448C120.366 27.1093 120.376 27.1788 120.37 27.2479C120.251 27.5136 120.105 27.2479 119.985 27.2479C119.865 27.2479 119.746 27.7794 119.507 28.0584C119.507 28.1912 119.507 28.3108 119.64 28.2975C120.038 28.2975 120.012 27.8989 119.998 27.6332C119.998 27.7661 120.131 27.7661 120.264 27.7528C120.135 27.963 119.968 28.1477 119.772 28.2975C119.905 28.2975 120.038 28.4171 119.919 28.55C119.414 28.9619 119.454 29.7458 118.962 30.1577C119.095 30.1577 119.228 30.2773 119.108 30.4101C118.839 30.5671 118.625 30.804 118.497 31.0878C118.328 32.3268 117.873 33.5096 117.168 34.5423C117.034 34.6873 116.857 34.7851 116.663 34.8214C116.145 34.7284 115.481 34.6221 115.468 34.1039C115.089 33.4054 114.884 32.6262 114.87 31.8318C114.968 31.4093 115.125 31.0024 115.335 30.6227C115.338 30.5539 115.326 30.4853 115.301 30.4212C115.276 30.3571 115.238 30.299 115.189 30.2507C117.54 28.0451 117.089 24.4311 116.942 21.5877C116.851 20.6227 116.492 19.7024 115.906 18.9303C115.627 18.5583 115.72 17.9072 115.693 17.389C115.693 17.1233 116.052 16.8443 116.052 16.8443C116.87 16.8495 117.678 17.0166 118.431 17.3359C119.183 17.6552 119.865 18.1203 120.437 18.7044C121.114 19.3156 120.53 20.5115 119.772 20.9499C119.254 21.0961 118.617 21.1359 118.643 21.6541C118.364 24.0059 117.7 26.1185 117.554 28.2975C119.387 25.9856 120.689 23.4478 122.642 21.1492C123.001 20.6045 123.227 19.9534 123.586 19.2758C123.945 18.5982 124.914 18.173 125.3 17.3758C125.406 16.8443 126.416 16.0471 125.884 15.9142C124.835 15.8345 123.134 15.5422 123.081 14.3729C123.081 14.1072 122.895 13.4694 123.28 13.3233C124.154 13.1134 125.064 13.1134 125.938 13.3233C127.399 13.775 128.741 11.9946 130.07 12.5925C130.435 12.7838 130.725 13.0928 130.894 13.4694C131.261 13.8782 131.586 14.3234 131.863 14.7981C132.023 15.3163 132.182 15.8212 131.863 16.2331C131.545 16.645 131.093 16.4058 130.854 16.8044C130.615 17.5326 130.438 18.2792 130.322 19.0366C130.11 19.768 129.637 20.3965 128.994 20.8038C128.669 21.2946 128.207 21.6783 127.665 21.9066C127.788 22.0122 127.941 22.0777 128.102 22.0943C128.264 22.1109 128.426 22.0779 128.568 21.9996C128.767 21.9378 128.978 21.9236 129.183 21.9582C129.389 21.9929 129.583 22.0753 129.751 22.1989C130.195 22.5383 130.711 22.7702 131.26 22.8762C131.809 22.9823 132.375 22.9596 132.913 22.8101C133.431 22.8101 132.98 21.6408 132.833 21.3884C132.253 20.3057 131.841 19.1408 131.611 17.9338C131.877 17.9338 132.156 18.3058 132.262 17.9338C132.368 17.5618 131.744 17.8275 131.85 17.4422C132.515 17.7877 133.604 18.6513 133.963 17.9737C134.193 17.4814 134.297 16.9399 134.267 16.3974C134.237 15.855 134.073 15.3284 133.79 14.8646C133.644 14.4792 132.86 14.3862 132.714 14.0142C131.385 11.9946 134.109 10.8254 135.198 9.20436C134.136 9.00506 133.431 10.2142 132.687 10.8918C132.49 10.9365 132.31 11.0381 132.169 11.1841C132.101 11.6969 131.851 12.1682 131.465 12.5128C131.131 12.6382 130.763 12.6382 130.429 12.5128C129.884 12.0212 129.1 12.061 128.675 11.3037C128.249 10.5463 128.356 10.1477 128.861 9.85542C129.738 9.1645 131.066 9.85542 132.089 9.43024C133.523 9.05186 134.874 8.41224 136.075 7.54351C136.248 7.43704 136.44 7.36657 136.64 7.33636C136.841 7.30615 137.045 7.31681 137.241 7.36771C137.438 7.41861 137.621 7.50869 137.782 7.63253C137.942 7.75636 138.076 7.91139 138.175 8.08827C138.427 8.92534 137.537 9.35052 136.647 9.65611ZM136.766 22.1324C136.793 21.2558 136.516 20.3967 135.982 19.701C135.836 19.3156 136.328 18.638 135.982 18.6646C135.637 18.6912 135.889 19.4485 135.371 19.5947C135.517 19.98 135.278 20.259 135.159 20.5247C135.089 20.7199 134.974 20.896 134.824 21.0391C134.675 21.1821 134.493 21.2881 134.295 21.3485C134.454 21.8534 133.95 22.2786 134.215 22.3849C134.773 23.0094 136.009 21.9066 136.195 22.9429C136.393 23.3559 136.462 23.8188 136.394 24.2716C136.275 24.4045 136.022 24.8031 135.903 24.8164C134.268 25.9325 132.422 25.3744 130.747 25.7332C130.747 25.9856 130.654 26.2514 130.907 26.3709C130.748 26.6491 130.674 26.9679 130.694 27.2877C132.568 28.0982 134.162 26.464 136.115 26.6234C136.259 26.5922 136.392 26.5244 136.501 26.4266C136.61 26.3288 136.693 26.2043 136.74 26.0653C136.806 25.416 136.806 24.7615 136.74 24.1122C136.833 23.4213 136.673 22.7835 136.766 22.1324Z"
            fill="#1B2D58" />
        <path
            d="M119.76 12.2204C119.23 11.6182 118.633 11.0787 117.98 10.6127C117.645 10.385 117.289 10.1893 116.917 10.0281C116.82 10.0409 116.73 10.088 116.665 10.161C115.615 9.96168 115.336 8.8323 114.486 8.19453C114.353 8.07495 114.486 7.80921 114.486 7.54348C114.818 6.21479 115.987 6.44067 116.864 5.73647C116.997 5.73647 117.249 5.59031 117.395 5.84276C117.515 5.84276 117.515 5.70989 117.515 5.57703C117.781 5.81619 118.153 5.57703 118.418 5.65675C118.684 5.73647 119.083 5.88262 119.349 6.00221C119.614 6.12179 119.721 5.72318 119.853 5.70989C120.787 6.05091 121.678 6.49665 122.511 7.03858C122.924 7.50717 123.297 8.00938 123.627 8.53999C123.627 8.65957 123.893 8.91202 123.627 9.19104C123.83 9.33802 123.999 9.52671 124.122 9.74444C124.246 9.96216 124.322 10.2039 124.344 10.4533C124.251 11.1043 124.145 11.6225 124.052 12.2869C123.959 12.9512 123.175 13.1107 122.63 12.619C122.511 12.7519 122.378 12.7519 122.391 13.0177C122.077 13.0588 121.774 13.1628 121.501 13.3232C120.996 13.7351 120.531 14.7981 119.734 14.4526C119.335 14.2135 120.212 13.6421 120.318 13.1239C120.293 12.9431 120.23 12.7695 120.134 12.614C120.038 12.4586 119.911 12.3246 119.76 12.2204Z"
            fill="#1B2D58" />
    </g>
    <path
        d="M75.8408 66.7357V48.8477H76.8968V66.7357H75.8408ZM96.575 49.4877C96.527 49.6637 96.335 49.8077 95.967 49.7917C95.279 50.3517 94.143 51.1357 93.199 51.6797H93.007C93.343 50.8797 93.775 49.6477 94.015 48.7997L96.575 49.4877ZM86.271 48.7997C90.463 49.1997 88.847 52.3677 87.231 51.1517C87.183 50.3357 86.671 49.4237 86.143 48.8957L86.271 48.7997ZM92.527 48.8477C92.495 49.0557 92.383 49.1997 91.983 49.2637V51.6797H90.111V48.6557L92.527 48.8477ZM95.711 51.4077L96.735 50.3837L98.495 52.0637C98.383 52.1917 98.223 52.2397 97.887 52.2717C97.423 52.7357 96.591 53.3917 95.951 53.7757L95.823 53.6797C95.871 53.0397 95.903 51.9997 95.887 51.4077H95.711ZM85.695 50.5437C86.543 52.4157 86.047 53.7597 85.263 54.1597C84.703 54.4477 83.999 54.2717 83.791 53.6477C83.647 53.0557 84.015 52.6237 84.527 52.3837C85.055 52.1117 85.583 51.3757 85.471 50.5597L85.695 50.5437ZM96.543 51.4077V51.8717H85.567V51.4077H96.543ZM93.231 53.0237L94.063 52.1437L95.823 53.4397C95.727 53.5517 95.535 53.6797 95.247 53.7437V55.4877C95.231 55.5997 94.287 55.8877 93.711 55.8877H93.391V53.0237H93.231ZM88.687 55.8557C88.687 55.9997 87.871 56.3837 87.119 56.3837H86.879V52.2877L88.783 53.0237H94.031V53.4877H88.687V55.8557ZM94.159 55.1197V55.5837H87.967V55.1197H94.159ZM96.703 59.0557C96.703 59.0557 97.823 59.8077 98.527 60.3677C98.479 60.5437 98.303 60.6237 98.079 60.6237H83.903L83.759 60.1597H95.727L96.703 59.0557ZM94.991 57.5037C94.991 57.5037 96.015 58.2077 96.671 58.7357C96.623 58.9117 96.463 58.9917 96.223 58.9917H85.711L85.583 58.5277H94.095L94.991 57.5037ZM91.935 61.7917C91.935 62.9117 91.583 63.5677 89.391 63.7117C89.327 63.2317 89.231 62.8797 88.911 62.6397C88.623 62.4317 88.207 62.2557 87.231 62.1117V61.9037C87.231 61.9037 89.327 62.0317 89.743 62.0317C90.031 62.0317 90.111 61.9517 90.111 61.7597V56.8157H91.935V61.7917ZM96.111 57.2157C95.951 57.3597 95.631 57.3597 95.199 57.1517C92.591 57.4077 88.751 57.5677 85.423 57.4077L85.375 57.1197C88.591 56.9277 92.623 56.3517 94.783 55.7917L96.111 57.2157ZM107.327 56.5917C108.335 56.5597 110.687 56.3997 113.055 56.2077L113.071 56.4317C112.079 56.8157 110.207 57.5357 107.999 58.2237L107.327 56.5917ZM111.423 54.1757C110.559 55.1037 108.959 56.3357 107.807 56.9437V56.7517H108.591C108.527 57.6797 108.207 58.2717 107.823 58.4317L107.087 56.5597C107.087 56.5597 107.407 56.4957 107.519 56.4157C108.191 56.0157 108.975 54.6877 109.231 54.0317H111.423V54.1757ZM112.767 52.8477C112.767 52.8477 113.743 53.6157 114.351 54.1757C114.303 54.3517 114.127 54.4317 113.903 54.4317H107.151L107.023 53.9677H111.903L112.767 52.8477ZM111.327 55.0717C115.519 56.0477 114.191 58.9757 112.687 57.9037C112.463 56.9757 111.775 55.8717 111.167 55.1677L111.327 55.0717ZM111.487 57.9197C111.455 58.0957 111.359 58.2237 111.039 58.2717V62.8317H109.311V57.7277L111.487 57.9197ZM112.015 49.7277L112.799 48.9117L114.431 50.1117C114.351 50.2237 114.175 50.3357 113.903 50.3837V52.6077C113.903 52.7197 113.023 53.0237 112.463 53.0237H112.159V49.7277H112.015ZM112.815 52.1437V52.6077H106.239V52.1437H112.815ZM112.815 49.7277V50.1757H106.239V49.7277H112.815ZM105.151 49.5677V48.9917L107.215 49.7277H106.927V53.9837C106.927 57.0237 106.719 61.0397 103.407 63.6477L103.231 63.5357C104.975 60.7197 105.151 57.1997 105.151 53.9997V49.5677ZM113.071 61.3917C113.071 61.3917 114.095 62.2557 114.687 62.8477C114.655 63.0237 114.479 63.1037 114.255 63.1037H105.919L105.791 62.6397H112.175L113.071 61.3917ZM112.543 58.6557C112.543 58.6557 113.471 59.4397 113.999 59.9837C113.951 60.1597 113.791 60.2397 113.583 60.2397H106.991L106.863 59.7757H111.727L112.543 58.6557ZM99.423 56.5597C100.303 56.3677 102.655 55.7117 104.879 54.9917L104.943 55.1837C104.015 55.8717 102.543 56.9597 100.543 58.2237C100.479 58.4317 100.319 58.6237 100.127 58.6877L99.423 56.5597ZM103.807 48.9117C103.775 49.1357 103.615 49.2957 103.215 49.3437V61.4557C103.215 62.7517 102.975 63.4877 101.071 63.6797C101.039 63.0717 100.959 62.6077 100.783 62.3037C100.575 61.9997 100.287 61.8077 99.663 61.6797V61.4557C99.663 61.4557 100.879 61.5357 101.151 61.5357C101.391 61.5357 101.455 61.4557 101.455 61.2797V48.6717L103.807 48.9117ZM103.967 51.2957C103.967 51.2957 104.815 52.0957 105.279 52.6397C105.247 52.8157 105.087 52.8957 104.863 52.8957H99.727L99.599 52.4317H103.231L103.967 51.2957ZM118.399 55.3117H125.087L126.031 54.1437C126.031 54.1437 127.103 54.9437 127.775 55.5197C127.727 55.6957 127.551 55.7757 127.327 55.7757H118.527L118.399 55.3117ZM117.791 58.8157H126.175L127.151 57.5677C127.151 57.5677 128.271 58.4317 128.943 59.0237C128.911 59.1997 128.735 59.2797 128.511 59.2797H117.919L117.791 58.8157ZM116.223 62.6877H127.343L128.399 61.3597C128.399 61.3597 129.583 62.2557 130.303 62.8957C130.255 63.0717 130.079 63.1517 129.855 63.1517H116.351L116.223 62.6877ZM122.047 55.3437H124.031V62.9917H122.047V55.3437ZM118.367 49.6477H123.775V50.0957H118.511L118.367 49.6477ZM121.343 49.6477H123.839C122.319 52.5757 119.135 55.0557 115.599 56.4317L115.503 56.2557C118.127 54.6077 120.495 51.9997 121.343 49.6477ZM123.391 49.6477H123.007L123.615 48.6877L125.263 49.7757C125.071 49.9997 124.543 50.1117 123.919 50.1597C125.103 51.6157 127.983 53.1677 130.863 53.8237L130.847 54.0317C130.031 54.2557 129.375 55.0077 129.135 55.7917C126.735 54.4317 124.383 52.2557 123.391 49.9037V49.6477ZM135.103 50.4157V59.3597L133.343 59.9997V50.4157H135.103ZM131.407 60.0477C132.495 59.7117 134.959 58.7997 137.199 57.8077L137.263 57.9837C136.271 58.8957 134.783 60.1597 132.719 61.5837C132.687 61.7917 132.543 61.9837 132.367 62.0637L131.407 60.0477ZM135.983 53.6317C135.983 53.6317 136.847 54.4797 137.311 55.0397C137.279 55.2157 137.119 55.2957 136.911 55.2957H131.839L131.711 54.8317H135.231L135.983 53.6317ZM135.839 49.1197C135.839 49.1197 136.847 50.0157 137.423 50.6077C137.375 50.7837 137.215 50.8637 136.991 50.8637H131.743L131.615 50.4157H134.959L135.839 49.1197ZM146.367 54.5277C146.255 54.6717 146.127 54.7037 145.791 54.6397C144.975 55.3117 143.695 56.1917 142.783 56.8157L142.607 56.6077C143.199 55.6157 143.871 54.2557 144.383 53.1357L146.367 54.5277ZM141.967 61.5677C141.967 62.8157 141.679 63.4877 139.583 63.6637C139.535 63.1197 139.471 62.7197 139.215 62.4637C138.959 62.2077 138.623 62.0157 137.839 61.8877V61.6637C137.839 61.6637 139.439 61.7757 139.791 61.7757C140.047 61.7757 140.127 61.6957 140.127 61.4877V48.7357L142.527 48.9757C142.495 49.1997 142.367 49.3437 141.967 49.4077V61.5677ZM141.967 52.1277C142.575 57.0237 144.559 59.0557 146.799 60.2717L146.751 60.4477C145.983 60.6237 145.391 61.3277 145.135 62.2557C143.087 60.1757 142.191 57.6797 141.823 52.1757L141.967 52.1277ZM135.391 60.1117C136.303 59.6957 138.639 58.5117 140.895 57.2477L140.975 57.4077C140.159 58.3357 138.895 59.7757 137.055 61.5197C137.039 61.7277 136.927 61.9357 136.767 62.0317L135.391 60.1117ZM137.103 53.4557C141.087 55.0397 139.231 58.0157 137.759 56.5757C137.759 55.5517 137.359 54.3677 136.943 53.5197L137.103 53.4557ZM142.863 49.2317C146.671 49.1837 145.519 52.0957 143.999 51.1837C143.855 50.5117 143.279 49.7437 142.735 49.3437L142.863 49.2317ZM144.831 50.7837C144.831 50.7837 145.903 51.6477 146.559 52.2237C146.511 52.3997 146.335 52.4797 146.111 52.4797H136.351L136.223 52.0317H143.871L144.831 50.7837ZM153.727 59.0557C153.695 59.2637 153.551 59.4237 153.215 59.4557V61.3597C153.215 61.5677 153.295 61.6317 153.871 61.6317H155.855C156.527 61.6317 157.167 61.6317 157.439 61.5997C157.695 61.5837 157.791 61.5517 157.919 61.3917C158.111 61.1357 158.351 60.5597 158.687 59.6957H158.847L158.895 61.4237C159.455 61.6317 159.599 61.8237 159.599 62.1437C159.599 62.9437 158.831 63.1197 155.647 63.1197H153.567C151.743 63.1197 151.343 62.8317 151.343 61.6317V58.8797L153.727 59.0557ZM161.567 54.1117C161.471 54.2877 161.135 54.3997 160.639 54.1597L161.135 54.0957C160.095 55.1037 157.727 56.6397 155.871 57.4077L155.855 57.2317H156.543C156.447 58.1597 156.095 58.6237 155.743 58.7357L155.151 57.0077C155.151 57.0077 155.487 56.9437 155.663 56.8637C157.087 56.1277 159.007 54.0477 159.679 52.9277L161.567 54.1117ZM159.711 52.4797C159.631 52.6877 159.343 52.8477 158.799 52.6397L159.327 52.5757C158.495 53.2477 156.879 54.0957 155.647 54.4957L155.631 54.3197H156.335C156.271 55.1677 155.999 55.5837 155.679 55.7277L154.991 54.0957C154.991 54.0957 155.247 54.0477 155.391 53.9837C156.223 53.5997 157.279 52.2557 157.615 51.5837L159.711 52.4797ZM155.503 57.1037C156.447 57.1197 158.671 57.0717 160.927 57.0077L160.943 57.2477C159.887 57.5357 157.983 58.0637 155.903 58.5277L155.503 57.1037ZM155.263 54.2717C156.095 54.3037 157.919 54.3037 159.727 54.2717V54.5117C158.943 54.7357 157.391 55.1517 155.759 55.5037L155.263 54.2717ZM159.647 55.7277C163.375 56.9277 161.775 59.7117 160.431 58.4957C160.431 57.5837 159.967 56.5117 159.487 55.8237L159.647 55.7277ZM155.087 54.0637C154.975 54.2397 154.639 54.3677 154.143 54.1117L154.639 54.0477C153.567 55.0877 151.103 56.6717 149.151 57.4877V57.3117H149.823C149.727 58.2237 149.375 58.6877 149.023 58.8157L148.447 57.0717C148.447 57.0717 148.767 57.0077 148.959 56.9277C150.447 56.1757 152.479 54.0317 153.199 52.8637L155.087 54.0637ZM153.199 52.4957C153.119 52.6877 152.831 52.8477 152.287 52.6557L152.815 52.5757C151.967 53.2317 150.287 54.0797 149.007 54.4637L148.991 54.2877H149.695C149.631 55.1357 149.343 55.5517 149.023 55.6957L148.351 54.0797C148.351 54.0797 148.591 54.0157 148.735 53.9517C149.631 53.5677 150.751 52.2397 151.119 51.5837L153.199 52.4957ZM148.799 57.1517C149.743 57.1677 151.935 57.1197 154.143 57.0557L154.159 57.2957C153.135 57.5837 151.247 58.1117 149.199 58.5597L148.799 57.1517ZM148.591 54.1917C149.391 54.2237 151.151 54.2237 152.879 54.1917V54.4477C152.127 54.6717 150.655 55.0717 149.103 55.4397L148.591 54.1917ZM160.815 50.1117C160.815 50.1117 161.919 50.9117 162.607 51.5037C162.559 51.6797 162.383 51.7597 162.159 51.7597H147.743L147.615 51.3117H159.823L160.815 50.1117ZM159.503 49.1677C159.455 49.3757 159.279 49.5197 158.911 49.5037C158.271 50.1117 157.151 50.9437 156.239 51.5037H156.031C156.319 50.6877 156.639 49.4717 156.815 48.6237L159.503 49.1677ZM152.927 55.7757C156.303 57.0557 154.575 59.5837 153.375 58.3357C153.471 57.5037 153.151 56.4957 152.751 55.8717L152.927 55.7757ZM151.375 48.6717C155.807 49.0397 154.159 52.3517 152.431 51.1037C152.319 50.2717 151.791 49.3437 151.263 48.7677L151.375 48.6717ZM150.239 59.3117C150.847 61.1517 150.175 62.4317 149.391 62.8317C148.863 63.1197 148.159 63.0077 147.983 62.4477C147.823 61.9357 148.159 61.5197 148.623 61.2957C149.263 61.0237 149.967 60.2397 149.999 59.2957L150.239 59.3117ZM159.247 59.1517C163.855 60.2397 162.319 63.6797 160.671 62.3837C160.559 61.2797 159.855 60.0317 159.103 59.2637L159.247 59.1517ZM154.687 58.6237C158.415 59.5837 156.687 62.2077 155.375 60.9757C155.375 60.1917 154.975 59.2957 154.543 58.7197L154.687 58.6237ZM174.175 55.7117C174.671 55.5997 175.727 55.2957 176.735 54.9917L176.815 55.1837C176.463 55.5037 175.567 56.2717 174.735 56.9437L174.175 55.7117ZM175.311 52.9757L175.583 53.1517V55.8557L174.623 56.2077L175.103 55.8077C175.231 56.5437 174.847 56.9757 174.575 57.1037L173.951 55.7757C174.351 55.5517 174.415 55.4557 174.415 55.1997V52.9757H175.311ZM176.015 52.3997C175.999 52.5757 175.871 52.6877 175.583 52.7357V53.4557H174.415V52.2237L176.015 52.3997ZM171.439 48.5277C175.151 48.7197 173.567 51.5197 172.095 50.4157C172.079 49.7597 171.711 49.0397 171.311 48.6237L171.439 48.5277ZM178.367 52.3837C178.287 52.4957 178.143 52.5437 177.823 52.4317C177.135 52.6077 175.823 52.7837 174.991 52.8957L174.863 52.7197C175.487 52.3357 176.431 51.6157 176.943 51.1837L178.367 52.3837ZM170.079 52.3837L170.751 51.7117L172.063 52.7677C171.967 52.8797 171.775 52.9597 171.487 53.0077C171.455 55.2797 171.343 55.9517 170.879 56.3197C170.543 56.5597 170.159 56.6397 169.631 56.6397C169.631 56.3357 169.615 56.0637 169.471 55.9037C169.327 55.7277 169.151 55.6477 168.863 55.5837L168.879 55.3277C169.119 55.3437 169.471 55.3597 169.695 55.3597C169.855 55.3597 169.935 55.3437 169.999 55.2637C170.159 55.1037 170.223 54.3677 170.239 52.3837H170.079ZM169.743 52.4157C169.631 53.9837 169.231 55.9677 167.183 57.3597L166.959 57.1357C168.303 55.5837 168.399 53.7917 168.431 52.4157H169.743ZM171.087 51.0877C173.999 51.5357 172.863 53.6477 171.743 52.8317C171.679 52.2557 171.295 51.5837 170.927 51.1997L171.087 51.0877ZM175.471 51.6637C175.407 51.8237 175.183 51.9357 174.863 51.8877C174.319 52.4157 173.679 52.9757 173.119 53.3597L172.879 53.2157C173.167 52.6397 173.535 51.7277 173.855 50.8637L175.471 51.6637ZM176.495 52.3357C176.863 53.8077 177.679 55.0237 178.687 55.5837L178.671 55.7437C178.127 55.8877 177.775 56.3357 177.599 57.0877C176.767 56.0637 176.447 54.5117 176.287 52.4157L176.495 52.3357ZM171.151 57.0077C171.103 57.2157 170.991 57.3757 170.623 57.4237V58.8477C170.591 60.5437 170.015 62.6557 167.023 63.7117L166.895 63.5677C168.559 62.2557 168.799 60.3837 168.799 58.8157V56.7837L171.151 57.0077ZM176.095 60.4157V60.8637H169.919V60.4157H176.095ZM176.095 58.1757V58.6397H169.951V58.1757H176.095ZM177.391 56.9437C177.359 57.1677 177.231 57.3277 176.799 57.3917V63.1677C176.799 63.2957 175.999 63.6157 175.279 63.6157H174.959V56.7197L177.391 56.9437ZM173.935 53.2317C173.919 53.4077 173.807 53.5197 173.551 53.5677V56.8157C173.551 56.9277 172.927 57.1837 172.447 57.1837H172.191V53.0717L173.935 53.2317ZM170.831 52.3837V52.8317H167.663L167.519 52.3837H170.831ZM176.815 49.2797C176.815 49.2797 177.935 50.1277 178.591 50.7197C178.543 50.8957 178.367 50.9757 178.143 50.9757H167.871L167.743 50.5277H175.839L176.815 49.2797ZM164.495 58.8637C164.703 58.8637 164.767 58.8477 164.927 58.5117C165.199 57.9197 165.199 57.9197 167.535 51.1037L167.807 51.1677C167.359 53.2157 166.543 57.0077 166.383 57.9037C166.287 58.4637 166.223 59.0397 166.223 59.4397C166.255 60.3197 166.879 60.9117 166.831 62.3677C166.815 63.1517 166.319 63.6957 165.567 63.6957C165.215 63.6957 164.847 63.4717 164.735 62.8797C165.039 61.2157 164.959 59.6637 164.607 59.4237C164.399 59.2637 164.143 59.1997 163.807 59.1677V58.8637C163.807 58.8637 164.319 58.8637 164.495 58.8637ZM163.615 52.5597C167.823 52.9757 166.383 56.0797 164.751 54.9597C164.591 54.1277 164.015 53.2317 163.471 52.6557L163.615 52.5597ZM164.463 48.8637C168.847 49.3437 167.343 52.5597 165.663 51.3757C165.487 50.5277 164.863 49.5837 164.335 48.9757L164.463 48.8637ZM194.639 55.4717C194.543 55.5837 194.303 55.6637 194.015 55.5197C193.439 55.9517 192.255 56.6717 191.279 57.1837L191.135 57.0557C191.759 56.1277 192.575 54.6397 192.911 53.9037L194.639 55.4717ZM190.527 52.7357C190.479 52.8957 190.287 52.9757 189.935 53.0237V54.0957C189.887 54.0957 189.583 54.0957 188.367 54.0957V52.1917L190.527 52.7357ZM189.551 53.4557L189.935 53.6957V62.0637L188.463 62.5117L189.119 61.9837C189.311 62.9757 188.831 63.5037 188.495 63.6797L187.679 61.9837C188.255 61.6797 188.367 61.5517 188.367 61.1997V53.4557H189.551ZM187.903 61.9837C188.543 61.8237 190.031 61.3757 191.471 60.8957L191.535 61.0877C191.007 61.5517 189.887 62.5277 188.671 63.4557L187.903 61.9837ZM190.895 52.7517C191.215 56.6397 192.335 60.3037 194.815 61.6957L194.783 61.8717C194.239 62.0637 193.759 62.6397 193.535 63.5197C191.263 61.3277 190.799 57.9677 190.639 52.7997L190.895 52.7517ZM194.095 52.7677C193.935 52.9117 193.599 52.9277 193.167 52.7677C192.047 53.0077 190.207 53.1677 188.703 53.1677L188.639 52.9277C189.967 52.5437 191.615 51.7917 192.431 51.2477L194.095 52.7677ZM194.383 50.2877C194.207 50.4637 193.871 50.4797 193.391 50.3357C191.791 50.7517 189.167 51.1357 186.927 51.2637L186.879 51.0397C188.863 50.4957 191.295 49.4557 192.527 48.7197L194.383 50.2877ZM188.111 50.8637C188.063 50.9757 187.919 51.0397 187.711 51.0717V55.3117C187.711 57.9997 187.567 61.3757 184.863 63.6797L184.655 63.5037C185.999 61.0877 186.079 58.1117 186.079 55.2797V49.9357L188.111 50.8637ZM181.295 52.8637C184.511 52.0157 184.479 54.4637 183.119 54.2397C182.703 53.8077 181.823 53.2957 181.183 53.0557L181.295 52.8637ZM181.599 56.8477C182.063 56.6397 183.183 56.0957 184.287 55.5197L184.367 55.6957C184.031 56.1757 183.455 56.9917 182.719 57.9517C182.703 58.1437 182.591 58.3357 182.431 58.4317L181.599 56.8477ZM183.295 49.8237L184.015 48.9757L185.599 50.2077C185.503 50.3357 185.295 50.4477 185.007 50.5117V61.5997C185.007 62.7197 184.783 63.3597 183.039 63.5197C183.007 63.0237 182.943 62.6237 182.767 62.3997C182.559 62.1757 182.271 61.9837 181.663 61.8877V61.6477C181.663 61.6477 182.863 61.7437 183.135 61.7437C183.391 61.7437 183.455 61.6477 183.455 61.4237V49.8237H183.295ZM184.367 49.8237V50.2877H181.471V49.8237H184.367ZM180.511 49.6637V49.1517L182.335 49.8237H182.079V54.8797C182.079 57.6797 182.047 61.2317 179.695 63.6637L179.471 63.5357C180.527 61.0397 180.511 57.8397 180.511 54.8957V49.6637ZM195.599 51.8397H201.711L202.623 50.7197C202.623 50.7197 203.647 51.4717 204.271 52.0477C204.223 52.2237 204.063 52.3037 203.823 52.3037H195.727L195.599 51.8397ZM195.855 59.3117H201.455L202.287 58.2717C202.287 58.2717 203.247 58.9917 203.855 59.5197C203.807 59.6957 203.647 59.7757 203.423 59.7757H195.983L195.855 59.3117ZM195.647 61.3437C197.039 61.2797 200.383 61.0077 203.807 60.6717L203.839 60.8797C202.351 61.4717 200.175 62.2237 196.927 63.1837C196.815 63.3757 196.639 63.5037 196.447 63.5517L195.647 61.3437ZM197.023 55.4237H202.415V55.8717H197.023V55.4237ZM197.023 57.3917H202.415V57.8557H197.023V57.3917ZM202.271 48.6397L203.887 50.2877C203.695 50.4477 203.343 50.4317 202.895 50.2397C201.023 50.4957 198.111 50.7197 195.647 50.7357L195.615 50.4797C197.855 50.0637 200.767 49.2477 202.271 48.6397ZM198.879 50.1917L200.511 49.8717V61.3597C200.495 61.4717 199.967 61.8397 199.167 61.8397H198.879V50.1917ZM196.095 53.4557V52.7677L197.871 53.4557H201.695L202.479 52.5597L204.015 53.7277C203.919 53.8557 203.775 53.9517 203.423 54.0157V57.8397C203.423 57.9197 202.879 58.2237 202.031 58.2237H201.743V53.9037H197.711V58.1117C197.711 58.2397 197.199 58.5117 196.383 58.5117H196.095V53.4557ZM203.583 52.7197H209.007V53.1837H203.727L203.583 52.7197ZM205.135 48.8797L207.503 49.1037C207.455 49.3437 207.295 49.5037 206.927 49.5517C206.847 56.2877 207.199 60.8477 202.095 63.7117L201.919 63.4877C205.519 60.1757 205.135 55.6317 205.135 48.8797ZM208.351 52.7197H208.159L209.119 51.7437L210.735 53.1677C210.639 53.3117 210.415 53.4237 210.063 53.4717C209.967 59.8237 209.759 61.9517 208.943 62.7997C208.431 63.3277 207.759 63.5517 206.943 63.5517C206.959 62.9757 206.911 62.5597 206.719 62.3197C206.511 62.0477 206.111 61.8557 205.567 61.7117V61.4877C206.031 61.5357 206.767 61.5837 207.071 61.5837C207.327 61.5837 207.455 61.5197 207.599 61.3917C208.111 60.8957 208.255 58.3357 208.351 52.7197ZM214.991 63.5037V62.5597H224.655V63.5037H214.991Z"
        fill="#333333" />
    <defs>
        <clipPath id="clip0_6896_19425">
            <rect width="61.6808" height="31.9704" fill="white" transform="translate(0 17.8602)" />
        </clipPath>
        <clipPath id="clip1_6896_19425">
            <rect width="80" height="39.8206" fill="white" transform="translate(73.6808 0.435059)" />
        </clipPath>
    </defs>
</svg>