<svg width="72" height="72" viewBox="0 0 72 72" fill="none" xmlns="http://www.w3.org/2000/svg">
<g id="Clip path group">
<mask id="mask0_5014_59897" style="mask-type:luminance" maskUnits="userSpaceOnUse" x="0" y="0" width="72" height="72">
<g id="clippath">
<path id="Vector" d="M36 72C55.8823 72 72 55.8823 72 36C72 16.1177 55.8823 0 36 0C16.1177 0 0 16.1177 0 36C0 55.8823 16.1177 72 36 72Z" fill="white"/>
</g>
</mask>
<g mask="url(#mask0_5014_59897)">
<g id="Group">
<path id="Vector_2" d="M15.7466 38.6995C15.7466 39.5395 15.0666 40.2095 14.2366 40.2095C13.4066 40.2095 12.7266 39.5295 12.7266 38.6995C12.7266 37.8695 13.4066 37.1895 14.2366 37.1895C15.0666 37.1895 15.7466 37.8695 15.7466 38.6995Z" fill="#263460"/>
<path id="Vector_3" d="M13.7856 41.1799C13.7856 42.0199 13.1056 42.6899 12.2756 42.6899C11.4456 42.6899 10.7656 42.0099 10.7656 41.1799C10.7656 40.3499 11.4456 39.6699 12.2756 39.6699C13.1056 39.6699 13.7856 40.3499 13.7856 41.1799Z" fill="#263460"/>
<path id="Vector_4" d="M10.9203 42.6597C11.8703 43.7497 11.4003 45.1597 10.3103 46.1097L7.57031 42.6497C8.67031 41.6997 9.97031 41.5597 10.9203 42.6497" fill="#263460"/>
<path id="Vector_5" d="M53.0859 40.2297C53.0859 41.0697 53.7659 41.7397 54.5959 41.7397C55.4259 41.7397 56.1059 41.0597 56.1059 40.2297C56.1059 39.3997 55.4259 38.7197 54.5959 38.7197C53.7659 38.7197 53.0859 39.3997 53.0859 40.2297Z" fill="#263460"/>
<path id="Vector_6" d="M54.8047 42.7102C54.8047 43.5502 55.4847 44.2202 56.3147 44.2202C57.1447 44.2202 57.8247 43.5402 57.8247 42.7102C57.8247 41.8802 57.1447 41.2002 56.3147 41.2002C55.4847 41.2002 54.8047 41.8802 54.8047 42.7102Z" fill="#263460"/>
<path id="Vector_7" d="M57.1838 44.19C56.2338 45.28 56.7038 46.69 57.7938 47.64L60.5338 44.18C59.4338 43.23 58.1338 43.09 57.1838 44.18" fill="#263460"/>
<path id="Vector_8" d="M15.2663 29.46C15.2663 29.46 10.4863 28.12 11.2263 32.86C11.6863 35.81 15.6063 35.64 15.6063 35.64" fill="#F6DBD1"/>
<path id="Vector_9" d="M39.7978 62.44C39.7978 62.44 37.6878 51.04 38.9378 50.67C48.2478 47.91 55.3078 41.75 55.3078 31.55C55.3078 19.12 46.7078 9.04004 34.2878 9.04004C21.8678 9.04004 14.0078 19.11 14.0078 31.54C14.0078 42.27 19.1278 48.1 29.5178 50.76C30.6378 51.05 28.9478 62.45 28.9478 62.45C28.9478 62.45 33.5578 71.63 39.8078 62.45L39.7978 62.44Z" fill="#FBF1E8" stroke="#EFA99A" stroke-width="0.61" stroke-miterlimit="10"/>
<path id="Vector_10" d="M54.2369 38.4793C53.3969 38.4793 50.1569 37.3893 43.7969 23.3493L43.6969 23.1193L43.4469 23.1693C43.3369 23.1893 32.3269 25.6193 25.7069 26.5993C20.5069 27.3693 16.6969 27.4793 14.8869 27.4793C14.5169 27.4793 14.2369 27.4793 14.0469 27.4793C14.0469 23.5893 15.4369 18.1493 19.3269 14.1993C22.8369 10.6293 27.7869 8.81934 34.0469 8.81934C35.2669 8.81934 36.5569 8.88934 37.8769 9.02934C44.8769 9.76934 50.7569 13.7893 53.9969 20.0693C57.0969 26.0793 57.2469 33.2893 54.3869 38.4693C54.3569 38.4693 54.3069 38.4793 54.2369 38.4793Z" fill="#263460"/>
<path id="Vector_11" d="M34.0565 8.50977V9.12976C35.2665 9.12976 36.5465 9.19977 37.8465 9.33977C44.7465 10.0698 50.5265 14.0298 53.7165 20.2198C56.7465 26.0798 56.9165 33.0998 54.1865 38.1798C53.5265 38.1398 50.3765 37.1498 44.0765 23.2298L43.8665 22.7698L43.3765 22.8798C43.2665 22.8998 32.2665 25.3298 25.6565 26.2998C20.4765 27.0698 16.6765 27.1798 14.8765 27.1798C14.6765 27.1798 14.5065 27.1798 14.3565 27.1798C14.4365 23.3798 15.8165 18.1998 19.5465 14.4198C22.9965 10.9098 27.8765 9.13976 34.0465 9.13976V8.51976M34.0465 8.51976C17.0565 8.51976 13.6365 21.7798 13.7365 27.7898C13.7365 27.7898 14.1365 27.8098 14.8765 27.8098C16.6765 27.8098 20.5165 27.6998 25.7465 26.9198C32.4565 25.9298 43.5065 23.4898 43.5065 23.4898C49.8365 37.4698 53.1765 38.7998 54.2265 38.7998C54.4765 38.7998 54.5965 38.7298 54.5965 38.7298C60.5265 28.1898 53.9865 10.4298 37.9065 8.72976C36.5465 8.58976 35.2665 8.51976 34.0465 8.51976Z" fill="#19243F"/>
<path id="Vector_12" d="M50.8087 33.5493C50.8087 33.5493 55.5787 32.2093 54.8487 36.9393C54.3887 39.8893 50.4688 39.7193 50.4688 39.7193" fill="#F6DBD1"/>
<g id="body">
<g id="hand-L">
<g id="Vector_13">
<path d="M20.1065 66.2197C20.1065 66.2197 17.7365 73.4997 13.8665 74.3897C9.18646 75.4697 6.91646 72.2597 5.64646 71.1197C3.76646 69.4397 1.52646 66.3097 0.976462 67.2597C0.756462 67.6397 1.75646 69.3197 2.60646 69.9497C2.60646 69.9497 0.646462 67.9897 -0.0235383 68.0497C-0.923538 68.1297 0.736461 70.0797 1.96646 71.0797C1.96646 71.0797 -0.303537 68.6497 -0.713537 69.1997C-1.12354 69.7497 0.216462 71.3797 1.23646 72.0897C1.23646 72.0897 -0.373538 70.2397 -0.913538 70.8297C-1.45354 71.4097 1.61646 74.3197 2.95646 75.1097C3.05646 75.1697 8.76646 80.9197 15.4365 78.6397C20.2465 76.9997 24.5165 69.1597 24.5165 69.1597" fill="#F9EAE0"/>
<path d="M20.1065 66.2197C20.1065 66.2197 17.7365 73.4997 13.8665 74.3897C9.18646 75.4697 6.91646 72.2597 5.64646 71.1197C3.76646 69.4397 1.52646 66.3097 0.976462 67.2597C0.756462 67.6397 1.75646 69.3197 2.60646 69.9497C2.60646 69.9497 0.646462 67.9897 -0.0235383 68.0497C-0.923538 68.1297 0.736461 70.0797 1.96646 71.0797C1.96646 71.0797 -0.303537 68.6497 -0.713537 69.1997C-1.12354 69.7497 0.216462 71.3797 1.23646 72.0897C1.23646 72.0897 -0.373538 70.2397 -0.913538 70.8297C-1.45354 71.4097 1.61646 74.3197 2.95646 75.1097C3.05646 75.1697 8.76646 80.9197 15.4365 78.6397C20.2465 76.9997 24.5165 69.1597 24.5165 69.1597" stroke="#EEA192" stroke-width="0.58" stroke-linecap="round" stroke-linejoin="round"/>
</g>
<g id="Vector_14">
<path d="M4.17969 70.4598C4.17969 70.4598 5.85969 66.2298 5.72969 72.0098L4.17969 70.4598Z" fill="#F8E5E0"/>
<path d="M4.17969 70.4598C4.17969 70.4598 5.85969 66.2298 5.72969 72.0098" stroke="#E9755D" stroke-width="0.5" stroke-linecap="round" stroke-linejoin="round"/>
</g>
<path id="Vector_15" d="M6.33813 79.0001C9.23813 80.6701 15.6781 81.2101 18.8381 78.4401C23.6281 74.2401 26.9981 64.0501 26.9981 64.0501L26.4981 53.5801C20.2881 56.3101 18.8381 77.7301 8.69812 72.0801L6.32812 79.0001H6.33813Z" fill="white"/>
</g>
<path id="Vector_16" d="M25.7747 53.7698C24.0747 58.0098 23.0347 65.2998 21.8047 77.5698L45.8347 77.5298C45.8247 63.3898 43.6247 57.2998 42.1747 53.8398L34.2047 56.2998L25.7747 53.7598V53.7698Z" fill="#404052"/>
<path id="Vector_17" d="M39.2191 61.4699L34.3791 58.6799L38.6291 66.6199H36.2591L33.6291 61.0399L30.9991 66.6199H28.6391L32.8791 58.6899L28.0391 61.4699V58.3299L33.6391 56.6699L39.2191 58.3299V61.4699Z" fill="#624334"/>
<path id="Vector_18" d="M39.2128 61.4797L34.3728 59.4097L32.8728 59.4197L28.0328 61.4797L27.3828 58.3497L33.6328 56.6797L39.8628 58.3497L39.2128 61.4797Z" fill="#644435"/>
<path id="Vector_19" d="M35.1594 56.6396H32.1094L32.4694 59.9096H34.7994L35.1594 56.6396Z" fill="#56392D"/>
<path id="Vector_20" d="M27.8256 53.04L33.8156 56.17C32.9456 57.54 31.4156 58.46 29.6756 58.46C26.9756 58.46 25.7656 56.76 25.7656 54.06L27.8356 53.05L27.8256 53.04Z" fill="white"/>
<path id="Vector_21" d="M42.615 54.0504C42.615 56.7504 40.915 58.4504 38.215 58.4504C36.505 58.4504 34.505 57.5704 33.625 56.2304L40.535 53.1504L42.615 54.0504Z" fill="white"/>
</g>
<g id="Vector_22">
<path d="M45.118 66.21C45.038 78.96 36.718 86.49 32.358 88.86C29.258 90.54 27.128 91.57 27.638 92.56C27.838 92.95 29.658 91.81 30.648 91.43C30.648 91.43 27.988 93.82 28.698 94.46C29.378 95.07 30.328 93.53 31.768 92.76C31.768 92.76 29.708 94.92 30.168 95.68C30.708 96.57 31.898 94.54 32.918 93.75C32.918 93.75 31.718 95.81 32.198 96.17C32.808 96.63 34.948 93.46 36.028 92.32C37.548 90.71 49.178 82.84 50.108 68.36" fill="#FBF1E8"/>
<path d="M45.118 66.21C45.038 78.96 36.718 86.49 32.358 88.86C29.258 90.54 27.128 91.57 27.638 92.56C27.838 92.95 29.658 91.81 30.648 91.43C30.648 91.43 27.988 93.82 28.698 94.46C29.378 95.07 30.328 93.53 31.768 92.76C31.768 92.76 29.708 94.92 30.168 95.68C30.708 96.57 31.898 94.54 32.918 93.75C32.918 93.75 31.718 95.81 32.198 96.17C32.808 96.63 34.948 93.46 36.028 92.32C37.548 90.71 49.178 82.84 50.108 68.36" stroke="#E9755D" stroke-width="0.63" stroke-linecap="round" stroke-linejoin="round"/>
</g>
<path id="Vector_23" d="M42.9753 55.7995C42.9753 55.7995 42.9253 55.7595 42.9753 55.7895V55.7995Z" fill="#101149"/>
<path id="Vector_24" d="M39.5056 90.3101C45.3556 84.9701 50.3856 78.6901 50.7056 70.2801C51.1856 57.7401 42.9756 55.0801 42.9756 55.0801C46.3856 75.1901 40.5756 81.0501 34.5156 86.2601L39.5056 90.3201V90.3101Z" fill="white"/>
<g id="Vector_25">
<path d="M29.0701 36.5C29.0701 36.5 27.1601 37.66 29.0101 38.54L29.0701 36.5Z" fill="#FBF1E8"/>
<path d="M29.0701 36.5C29.0701 36.5 27.1601 37.66 29.0101 38.54" stroke="#EFA99A" stroke-width="0.62" stroke-miterlimit="10"/>
</g>
<path id="Vector_26" d="M25.0669 35.7502C25.0669 36.5802 24.3869 37.2602 23.5569 37.2602C22.7269 37.2602 22.0469 36.5802 22.0469 35.7502C22.0469 34.9202 22.7269 34.2402 23.5569 34.2402C24.3869 34.2402 25.0669 34.9202 25.0669 35.7502Z" fill="#020B3C"/>
<path id="Vector_27" d="M38.5903 37.2893C38.5903 38.1193 37.9103 38.7993 37.0803 38.7993C36.2503 38.7993 35.5703 38.1293 35.5703 37.2893C35.5703 36.4493 36.2503 35.7793 37.0803 35.7793C37.9103 35.7793 38.5903 36.4593 38.5903 37.2893Z" fill="#020B3C"/>
<path id="Vector_28" d="M27.2656 39.5498C27.2656 39.5498 28.0356 40.5898 29.6756 40.8098C31.8756 41.1098 32.9056 40.0998 32.9056 40.0998" stroke="#E9755D" stroke-width="0.54" stroke-linecap="round" stroke-linejoin="round"/>
<path id="Vector_29" d="M39.87 44.8302C42.4216 44.8302 44.49 43.5139 44.49 41.8902C44.49 40.2665 42.4216 38.9502 39.87 38.9502C37.3184 38.9502 35.25 40.2665 35.25 41.8902C35.25 43.5139 37.3184 44.8302 39.87 44.8302Z" fill="#F4D1C6"/>
<path id="Vector_30" d="M21.3075 43.6593C23.8591 43.6593 25.9275 42.343 25.9275 40.7193C25.9275 39.0956 23.8591 37.7793 21.3075 37.7793C18.7559 37.7793 16.6875 39.0956 16.6875 40.7193C16.6875 42.343 18.7559 43.6593 21.3075 43.6593Z" fill="#F4D1C6"/>
</g>
</g>
</g>
</svg>
