<svg width="50" height="17" viewBox="0 0 50 17" fill="none" xmlns="http://www.w3.org/2000/svg">
<g id="_&#229;&#156;&#150;&#229;&#177;&#164;_1" clip-path="url(#clip0_5014_59946)">
<path id="Vector" d="M6.27781 9.28965L5.75781 10.5496C5.34781 10.4296 4.70781 10.2996 3.85781 10.1596C3.69781 11.0096 3.28781 11.8496 2.61781 12.6696C2.25781 12.4396 1.87781 12.2896 1.46781 12.2096C1.43781 12.1996 1.40781 12.1896 1.39781 12.1896C2.17781 11.3496 2.57781 10.5396 2.60781 9.75965L0.807813 10.6196L0.327813 9.60965L1.05781 9.25965C0.607812 9.21965 0.257812 9.18965 0.0078125 9.18965C0.317813 8.37965 0.377813 7.48965 0.197812 6.51965L1.43781 6.20965C1.49781 6.59965 1.52781 6.83965 1.52781 6.94965L4.20781 5.67965L4.68781 6.67965L3.27781 7.34965L3.50781 7.83965C3.54781 7.92965 3.57781 7.99965 3.59781 8.05965L5.26781 7.25965L5.74781 8.25965L3.95781 9.10965C4.81781 9.14965 5.58781 9.20965 6.27781 9.28965ZM1.34781 9.11965L2.38781 8.62965C2.36781 8.55965 2.32781 8.47965 2.28781 8.38965L2.06781 7.91965L1.51781 8.17965C1.49781 8.45965 1.43781 8.76965 1.35781 9.11965H1.34781ZM5.38781 16.5296L3.20781 11.9596L10.2778 8.58965L12.4478 13.1496L11.1278 13.7796L10.9578 13.4296L6.47781 15.5596L6.64781 15.9196L5.37781 16.5196L5.38781 16.5296ZM4.82781 5.34965L8.94781 3.38965L10.9078 7.50965L6.78781 9.46965L4.82781 5.34965ZM9.43781 10.2296L4.95781 12.3596L5.24781 12.9696L9.72781 10.8396L9.43781 10.2296ZM5.99781 14.5396L10.4778 12.4096L10.1778 11.7796L5.69781 13.9096L5.99781 14.5496V14.5396ZM9.07781 6.96965L8.20781 5.13965L6.56781 5.91965L7.43781 7.74965L9.07781 6.96965Z" fill="#263460"/>
<path id="Vector_2" d="M15.5806 2.06039L16.6806 1.40039C17.6206 2.38039 18.2606 3.21039 18.5906 3.90039L17.3906 4.65039C17.3006 4.44039 17.1906 4.25039 17.0706 4.06039C16.1006 4.29039 14.6606 4.64039 12.7406 5.09039L12.3906 3.77039C12.5706 3.74039 12.8706 3.68039 13.3106 3.58039C13.5206 2.72039 13.6706 1.88039 13.7506 1.06039L15.2706 1.09039C15.0706 2.01039 14.9006 2.73039 14.7506 3.26039L16.3106 2.92039C16.2706 2.86039 16.2306 2.81039 16.1806 2.75039C16.1306 2.69039 16.0806 2.63039 16.0106 2.55039C15.9506 2.47039 15.9006 2.42039 15.8806 2.39039C15.8606 2.36039 15.8006 2.30039 15.7106 2.19039L15.5806 2.04039V2.06039ZM17.8706 4.76039L18.8106 10.1304C18.9106 10.6804 18.8406 11.0804 18.6006 11.3104C18.5706 11.3404 18.5306 11.3704 18.5106 11.3904C18.2006 11.6004 17.6606 11.7804 16.9006 11.9104C16.7506 11.5304 16.5306 11.1404 16.2306 10.7404C16.6306 10.6904 16.9806 10.6304 17.2706 10.5604C17.3806 10.5104 17.4306 10.4404 17.4206 10.3504L17.2806 9.56039L15.5106 9.87039L15.9006 12.1004L14.6006 12.3304L13.4106 5.54039L17.8706 4.76039ZM16.6906 6.17039L14.9206 6.48039L15.0306 7.09039L16.8006 6.78039L16.6906 6.17039ZM15.3406 8.82039L17.1106 8.51039L16.9906 7.82039L15.2206 8.13039L15.3406 8.82039ZM22.3406 5.07039L20.7106 5.36039C19.9606 5.49039 19.4406 5.42039 19.1606 5.16039C18.9506 4.94039 18.7906 4.54039 18.6906 3.96039L18.0706 0.400391L19.4706 0.150391L19.7706 1.84039C20.5406 1.37039 21.1906 0.920391 21.7206 0.490391L22.8006 1.35039C22.1006 1.85039 21.1506 2.40039 19.9706 3.00039L20.0906 3.69039C20.1306 3.94039 20.2106 4.07039 20.3206 4.10039C20.4006 4.10039 20.5306 4.10039 20.7006 4.07039L21.9906 3.84039C22.2006 3.80039 22.3106 3.69039 22.3406 3.51039C22.3606 3.33039 22.3406 3.01039 22.2906 2.54039C22.6506 2.72039 23.0706 2.82039 23.5706 2.84039C23.5906 2.84039 23.6106 2.84039 23.6206 2.84039C23.6906 3.74039 23.5906 4.34039 23.3106 4.64039C23.1206 4.85039 22.8006 4.99039 22.3606 5.07039H22.3406ZM21.7006 9.74039L23.0506 9.50039C23.2606 9.46039 23.3806 9.34039 23.4206 9.14039C23.4406 8.95039 23.4206 8.57039 23.3506 8.00039C23.7106 8.17039 24.1506 8.27039 24.6606 8.30039C24.7406 9.26039 24.6606 9.90039 24.3906 10.2304C24.1906 10.4704 23.8606 10.6304 23.3906 10.7104L21.7206 11.0004C20.9706 11.1304 20.4506 11.0604 20.1706 10.8004C19.9506 10.5804 19.7906 10.1804 19.6906 9.60039L19.0406 5.89039L20.4306 5.65039L20.7106 7.24039C21.6206 6.67039 22.2906 6.17039 22.7306 5.74039L23.8406 6.60039C23.1206 7.17039 22.1506 7.77039 20.9106 8.41039L21.0706 9.34039C21.1106 9.59039 21.1906 9.72039 21.3106 9.74039C21.3906 9.76039 21.5206 9.75039 21.7006 9.72039V9.74039Z" fill="#263460"/>
<path id="Vector_3" d="M27.4375 2.42L29.0475 2.85C28.2475 5.28 27.3975 6.99 26.4975 7.98C26.0575 7.64 25.6175 7.35 25.1875 7.1C26.0175 6.24 26.7175 4.85 27.2875 2.95C27.3475 2.77 27.3975 2.59 27.4475 2.41L27.4375 2.42ZM30.8275 0L32.3675 0.14L31.5075 9.36C31.4475 10.04 31.2375 10.47 30.8975 10.67C30.8175 10.72 30.7275 10.76 30.6275 10.79C30.1475 10.93 29.2975 10.94 28.0675 10.82C28.0275 10.36 27.8775 9.85 27.6475 9.29C28.4475 9.4 29.0875 9.47 29.5675 9.49C29.7975 9.47 29.9275 9.38 29.9575 9.22L30.8175 0H30.8275ZM33.3675 3.38L34.8175 2.99C35.6475 4.83 36.2075 6.47 36.4775 7.91C36.5175 8.14 36.5475 8.36 36.5675 8.55L34.9475 9.01C34.8675 7.79 34.4675 6.23 33.7475 4.32C33.6175 3.99 33.4975 3.68 33.3675 3.38Z" fill="#263460"/>
<path id="Vector_4" d="M37.2687 11.75L36.4688 10.57C37.3487 10.34 38.1187 9.82004 38.7687 9.00004L39.7987 9.88004C38.9787 10.89 38.1387 11.51 37.2687 11.75ZM41.4787 12.12L42.9987 12.7C43.2287 12.79 43.3887 12.77 43.5087 12.65C43.6087 12.53 43.7587 12.26 43.9487 11.85C44.1487 12.15 44.4787 12.46 44.9387 12.77C44.5587 13.54 44.1687 13.97 43.7887 14.08C43.4987 14.15 43.1287 14.1 42.6687 13.93L40.8687 13.25C40.0887 12.95 39.6387 12.62 39.5187 12.26C39.4287 11.98 39.4787 11.59 39.6687 11.08L40.2287 9.61004L41.4087 10.06C41.4087 10.06 41.2787 9.89004 41.1287 9.68004L41.6787 9.51004V9.37004C41.2987 9.26004 40.7587 9.11004 40.0287 8.90004C39.0187 8.60004 38.3087 8.39004 37.8887 8.26004L38.1687 7.17004L39.0687 7.46004C39.4487 7.31004 39.8187 7.14004 40.1587 6.96004C39.9287 6.34004 39.6087 5.72004 39.1987 5.11004L40.2388 4.69004C40.2388 4.69004 40.2987 4.77004 40.3387 4.84004C40.3787 4.91004 40.4087 4.96004 40.4287 4.99004C40.8287 4.68004 41.0787 4.48004 41.1787 4.40004L39.3487 3.70004L39.7687 2.58004L42.1387 3.48004C42.0887 3.11004 42.0088 2.74004 41.8988 2.36004L43.1987 2.29004C43.4387 2.92004 43.5487 3.50004 43.5487 4.01004L45.8487 4.88004C46.3287 4.51004 46.7387 4.14004 47.0687 3.75004L48.4387 4.67004C47.8687 5.04004 47.4687 5.28004 47.2587 5.41004L49.7487 6.36004L49.3288 7.48004L47.2287 6.68004L47.2587 6.70004C46.3587 7.22004 45.8187 7.53004 45.6387 7.63004C45.7387 7.81004 45.8288 7.98004 45.8988 8.16004C46.3988 7.88004 46.8187 7.61004 47.1587 7.35004L48.0788 8.24004C47.1588 8.75004 46.1787 9.22004 45.1587 9.66004L46.5287 10.12C46.4587 9.83004 46.3987 9.61004 46.3587 9.48004L47.4487 9.44004C47.7587 10.24 47.8887 10.96 47.8587 11.6C47.8587 11.66 47.8587 11.71 47.8587 11.76L46.6887 11.8C46.7087 11.66 46.7087 11.48 46.6887 11.25C46.1587 11.09 45.3887 10.85 44.3587 10.52C43.6587 10.31 43.1687 10.15 42.8687 10.05L43.1488 8.96004C43.2888 9.01004 43.5187 9.09004 43.8387 9.20004C44.1387 9.08004 44.4787 8.92004 44.8587 8.72004C44.6287 8.15004 44.2887 7.52004 43.8387 6.84004L44.8587 6.39004C44.8587 6.39004 44.9288 6.49004 44.9888 6.58004C45.0388 6.66004 45.0687 6.71004 45.0887 6.74004C45.4587 6.46004 45.7187 6.27004 45.8487 6.15004L42.5887 4.91004L42.6187 4.93004C42.4687 5.02004 42.2487 5.14004 41.9587 5.31004C41.5087 5.57004 41.1788 5.75004 40.9888 5.86004C41.0988 6.09004 41.1888 6.26004 41.2388 6.37004C41.6588 6.14004 42.0587 5.87004 42.4587 5.58004L43.3787 6.47004C42.4187 7.01004 41.4388 7.48004 40.4688 7.90004L41.5387 8.23004C41.4887 8.05004 41.4387 7.88004 41.3787 7.70004L42.4387 7.65004C42.7187 8.33004 42.8388 8.97004 42.8288 9.57004C42.8288 9.61004 42.8288 9.65004 42.8288 9.68004H42.6087C43.0387 10.3 43.3487 10.85 43.5287 11.34L42.3088 11.77C42.1888 11.37 41.9387 10.85 41.5387 10.23L41.0387 11.56C40.9687 11.74 40.9887 11.86 41.0887 11.93C41.1687 11.99 41.3087 12.05 41.5087 12.13L41.4787 12.12ZM44.5387 11.69L45.8587 11.49C46.3887 12.42 46.7288 13.29 46.8787 14.11C46.9087 14.26 46.9287 14.41 46.9387 14.54L45.5087 14.76C45.4687 14.08 45.2288 13.24 44.8088 12.26C44.7188 12.06 44.6287 11.87 44.5387 11.69Z" fill="#263460"/>
</g>
<defs>
<clipPath id="clip0_5014_59946">
<rect width="49.76" height="16.54" fill="white"/>
</clipPath>
</defs>
</svg>
