<svg viewBox="0 0 18 19" fill="none" xmlns="http://www.w3.org/2000/svg">
  <path d="M15.9291 4.17032H12.0987C11.2767 4.17032 10.4731 4.41114 9.78174 4.86545L8.96477 5.40004L8.14781 4.86545C7.45709 4.41123 6.65262 4.16987 5.83084 4.17032H2.00049C1.70417 4.17032 1.46477 4.41456 1.46477 4.71686V14.418C1.46477 14.7203 1.70417 14.9645 2.00049 14.9645H5.83084C6.65283 14.9645 7.4564 15.2053 8.14781 15.6596L8.89111 16.1481C8.91287 16.1618 8.93799 16.1703 8.9631 16.1703C8.98821 16.1703 9.01332 16.1635 9.03508 16.1481L9.77839 15.6596C10.4715 15.2053 11.2767 14.9645 12.0987 14.9645H15.9291C16.2254 14.9645 16.4648 14.7203 16.4648 14.418V4.71686C16.4648 4.41456 16.2254 4.17032 15.9291 4.17032ZM7.15674 10.874C7.15674 10.944 7.10316 11.0021 7.03787 11.0021H3.92738C3.86209 11.0021 3.80852 10.944 3.80852 10.874V10.1054C3.80852 10.0354 3.86209 9.97732 3.92738 9.97732H7.0362C7.10149 9.97732 7.15506 10.0354 7.15506 10.1054V10.874H7.15674ZM7.15674 8.48287C7.15674 8.5529 7.10316 8.61097 7.03787 8.61097H3.92738C3.86209 8.61097 3.80852 8.5529 3.80852 8.48287V7.7143C3.80852 7.64427 3.86209 7.58621 3.92738 7.58621H7.0362C7.10149 7.58621 7.15506 7.64427 7.15506 7.7143V8.48287H7.15674ZM14.121 10.874C14.121 10.944 14.0675 11.0021 14.0022 11.0021H10.8917C10.8264 11.0021 10.7728 10.944 10.7728 10.874V10.1054C10.7728 10.0354 10.8264 9.97732 10.8917 9.97732H14.0005C14.0658 9.97732 14.1193 10.0354 14.1193 10.1054V10.874H14.121ZM14.121 8.48287C14.121 8.5529 14.0675 8.61097 14.0022 8.61097H10.8917C10.8264 8.61097 10.7728 8.5529 10.7728 8.48287V7.7143C10.7728 7.64427 10.8264 7.58621 10.8917 7.58621H14.0005C14.0658 7.58621 14.1193 7.64427 14.1193 7.7143V8.48287H14.121Z" fill="#8D8D8D"/>
</svg>
