<svg viewBox="0 0 18 19" fill="none" xmlns="http://www.w3.org/2000/svg">
<path d="M15.5 14.624C15.5 14.7566 15.4473 14.8838 15.3536 14.9776C15.2598 15.0713 15.1326 15.124 15 15.124H3C2.86739 15.124 2.74021 15.0713 2.64645 14.9776C2.55268 14.8838 2.5 14.7566 2.5 14.624C2.5 14.4914 2.55268 14.3642 2.64645 14.2705C2.74021 14.1767 2.86739 14.124 3 14.124H15C15.1326 14.124 15.2598 14.1767 15.3536 14.2705C15.4473 14.3642 15.5 14.4914 15.5 14.624ZM15.5 5.12402V12.124C15.5 12.3892 15.3946 12.6436 15.2071 12.8311C15.0196 13.0187 14.7652 13.124 14.5 13.124H3.5C3.23478 13.124 2.98043 13.0187 2.79289 12.8311C2.60536 12.6436 2.5 12.3892 2.5 12.124V5.12402C2.5 4.85881 2.60536 4.60445 2.79289 4.41692C2.98043 4.22938 3.23478 4.12402 3.5 4.12402H14.5C14.7652 4.12402 15.0196 4.22938 15.2071 4.41692C15.3946 4.60445 15.5 4.85881 15.5 5.12402ZM11.25 8.62402C11.25 8.53987 11.2287 8.45709 11.1882 8.38334C11.1476 8.3096 11.0892 8.24727 11.0181 8.20215L8.26813 6.45215C8.19254 6.40413 8.10544 6.37729 8.01593 6.37443C7.92642 6.37158 7.83779 6.39282 7.7593 6.43593C7.68081 6.47904 7.61533 6.54244 7.56972 6.6195C7.52411 6.69657 7.50003 6.78447 7.5 6.87402V10.374C7.50003 10.4636 7.52411 10.5515 7.56972 10.6285C7.61533 10.7056 7.68081 10.769 7.7593 10.8121C7.83779 10.8552 7.92642 10.8765 8.01593 10.8736C8.10544 10.8708 8.19254 10.8439 8.26813 10.7959L11.0181 9.0459C11.0892 9.00077 11.1476 8.93845 11.1882 8.8647C11.2287 8.79096 11.25 8.70817 11.25 8.62402Z" fill="#1B2D58"/>
</svg>
