<svg width="24" height="26" viewBox="0 0 24 26" fill="none" xmlns="http://www.w3.org/2000/svg">
<g clip-path="url(#clip0_7156_45824)">
<path d="M12 25.3203C18.6274 25.3203 24 19.8358 24 13.0703C24 6.30482 18.6274 0.820312 12 0.820312C5.37258 0.820312 0 6.30482 0 13.0703C0 19.8358 5.37258 25.3203 12 25.3203Z" fill="#415997"/>
<path d="M8.03247 13.545V10.886H10.1765V9.55051C10.1562 8.63776 10.4933 7.7532 11.116 7.08552C11.4001 6.76218 11.7507 6.50397 12.1437 6.32854C12.5368 6.15311 12.9631 6.06459 13.3935 6.06901H15.524V8.72851H13.3935C13.3168 8.73323 13.2424 8.75666 13.1769 8.79676C13.1113 8.83685 13.0566 8.89238 13.0175 8.9585C12.9028 9.1237 12.8444 9.3215 12.851 9.52251V10.887H15.524V13.546H12.8505V19.996H10.1765V13.546L8.03247 13.545Z" fill="white"/>
</g>
<defs>
<clipPath id="clip0_7156_45824">
<rect width="24" height="24.5" fill="white" transform="translate(0 0.820312)"/>
</clipPath>
</defs>
</svg>
