<svg width="25" height="25" viewBox="0 0 25 25" fill="none" xmlns="http://www.w3.org/2000/svg">
<g clip-path="url(#clip0_7156_45830)">
<path d="M12.0285 24.8773C18.6717 24.8773 24.057 19.492 24.057 12.8488C24.057 6.20566 18.6717 0.820312 12.0285 0.820312C5.38534 0.820312 0 6.20566 0 12.8488C0 19.492 5.38534 24.8773 12.0285 24.8773Z" fill="#66BE4E"/>
<path d="M19.9034 11.7357C19.9034 8.21125 16.3689 5.34375 12.0284 5.34375C7.68793 5.34375 4.15292 8.21125 4.15292 11.7357C4.15292 14.8932 6.95292 17.5392 10.7389 18.0417C11.6609 18.2417 11.5549 18.5777 11.3474 19.8182C11.3129 20.0182 11.1879 20.5957 12.0284 20.2432C12.8689 19.8907 16.5619 17.5727 18.2179 15.6712C19.2693 14.6279 19.8737 13.2166 19.9034 11.7357Z" fill="white"/>
<path d="M14.3843 10.1863V13.6203C14.3849 13.6404 14.3815 13.6603 14.3742 13.6791C14.3669 13.6978 14.356 13.7149 14.342 13.7293C14.328 13.7437 14.3112 13.7551 14.2927 13.7629C14.2742 13.7708 14.2544 13.7748 14.2343 13.7748H13.6798C13.6556 13.7743 13.6317 13.7684 13.61 13.7576C13.5883 13.7468 13.5693 13.7313 13.5543 13.7123L11.9803 11.5873V13.6248C11.9809 13.6449 11.9775 13.6648 11.9702 13.6836C11.9629 13.7023 11.952 13.7194 11.938 13.7338C11.924 13.7482 11.9072 13.7596 11.8887 13.7674C11.8702 13.7753 11.8504 13.7793 11.8303 13.7793H11.2758C11.2354 13.7798 11.1965 13.7643 11.1675 13.7362C11.1386 13.7081 11.1219 13.6696 11.1213 13.6293V10.1918C11.1207 10.1717 11.1241 10.1517 11.1314 10.133C11.1387 10.1143 11.1496 10.0972 11.1636 10.0828C11.1776 10.0684 11.1943 10.0569 11.2128 10.0491C11.2313 10.0413 11.2512 10.0373 11.2713 10.0373H11.8213C11.8461 10.037 11.8707 10.043 11.8926 10.0548C11.9144 10.0666 11.9329 10.0838 11.9463 10.1048L13.5223 12.2283V10.1918C13.5217 10.1717 13.5251 10.1517 13.5324 10.133C13.5397 10.1143 13.5506 10.0972 13.5646 10.0828C13.5786 10.0684 13.5953 10.0569 13.6138 10.0491C13.6323 10.0413 13.6522 10.0373 13.6723 10.0373H14.2248C14.2448 10.0363 14.2648 10.0394 14.2837 10.0462C14.3026 10.053 14.3199 10.0634 14.3347 10.077C14.3495 10.0905 14.3615 10.1068 14.37 10.1249C14.3785 10.1431 14.3834 10.1628 14.3843 10.1828V10.1863Z" fill="#66BE4E"/>
<path d="M10.4257 10.0313H9.87566C9.85559 10.0307 9.83561 10.0342 9.81689 10.0414C9.79816 10.0487 9.78109 10.0596 9.76668 10.0736C9.75228 10.0876 9.74083 10.1044 9.73301 10.1229C9.72519 10.1414 9.72116 10.1612 9.72117 10.1813V13.6193C9.72056 13.6394 9.724 13.6594 9.73127 13.6781C9.73854 13.6968 9.74949 13.7139 9.76348 13.7283C9.77747 13.7427 9.79421 13.7542 9.8127 13.762C9.8312 13.7698 9.85109 13.7738 9.87118 13.7738H10.4262C10.4462 13.7744 10.4662 13.771 10.485 13.7637C10.5037 13.7565 10.5208 13.7455 10.5352 13.7315C10.5496 13.7175 10.561 13.7008 10.5688 13.6823C10.5767 13.6638 10.5807 13.6439 10.5807 13.6238V10.1863C10.5804 10.1454 10.564 10.1063 10.5351 10.0774C10.5062 10.0485 10.4671 10.0321 10.4262 10.0318L10.4257 10.0313Z" fill="#66BE4E"/>
<path d="M9.09794 12.909H7.59794V10.1865C7.59854 10.1664 7.5951 10.1464 7.58783 10.1277C7.58057 10.109 7.56961 10.0919 7.55562 10.0775C7.54163 10.0631 7.5249 10.0517 7.5064 10.0438C7.4879 10.036 7.46801 10.032 7.44793 10.032H6.89293C6.85257 10.0315 6.81365 10.047 6.78469 10.0751C6.75573 10.1032 6.7391 10.1416 6.73844 10.182V13.6195C6.7377 13.6396 6.74119 13.6597 6.74868 13.6784C6.75617 13.697 6.76749 13.714 6.78193 13.728C6.81136 13.7551 6.84989 13.7703 6.88993 13.7705H9.09594C9.11596 13.7708 9.13586 13.7672 9.15449 13.7599C9.17311 13.7525 9.19011 13.7415 9.2045 13.7276C9.2189 13.7137 9.23041 13.6971 9.23838 13.6787C9.24634 13.6603 9.25061 13.6405 9.25094 13.6205V13.0635C9.2507 13.0234 9.23496 12.9849 9.20701 12.9561C9.17905 12.9273 9.14104 12.9104 9.10093 12.909H9.09794Z" fill="#66BE4E"/>
<path d="M17.2828 10.0312H15.0763C15.0354 10.0316 14.9963 10.048 14.9674 10.0769C14.9385 10.1058 14.9221 10.1449 14.9218 10.1858V13.6193C14.9221 13.6601 14.9385 13.6992 14.9674 13.7281C14.9963 13.757 15.0354 13.7734 15.0763 13.7738H17.2828C17.3028 13.7744 17.3228 13.7709 17.3415 13.7637C17.3603 13.7564 17.3773 13.7454 17.3917 13.7314C17.4061 13.7175 17.4176 13.7007 17.4254 13.6822C17.4332 13.6637 17.4373 13.6438 17.4373 13.6238V13.0693C17.4379 13.0492 17.4344 13.0292 17.4272 13.0105C17.4199 12.9917 17.4089 12.9747 17.3949 12.9603C17.381 12.9459 17.3642 12.9344 17.3457 12.9266C17.3272 12.9188 17.3073 12.9147 17.2873 12.9147H15.7788V12.3368H17.2788C17.2988 12.3374 17.3188 12.3339 17.3375 12.3267C17.3563 12.3194 17.3733 12.3084 17.3877 12.2944C17.4021 12.2805 17.4136 12.2637 17.4214 12.2452C17.4292 12.2267 17.4333 12.2068 17.4333 12.1868V11.6268C17.4339 11.6067 17.4304 11.5867 17.4232 11.568C17.4159 11.5493 17.4049 11.5322 17.3909 11.5178C17.377 11.5034 17.3602 11.4919 17.3417 11.4841C17.3232 11.4763 17.3033 11.4723 17.2833 11.4723H15.7788V10.8932H17.2788C17.2988 10.8939 17.3188 10.8904 17.3375 10.8832C17.3563 10.8759 17.3733 10.8649 17.3877 10.851C17.4021 10.837 17.4136 10.8202 17.4214 10.8017C17.4292 10.7832 17.4333 10.7633 17.4333 10.7433V10.1883C17.4314 10.1479 17.4146 10.1096 17.386 10.081C17.3574 10.0525 17.3191 10.0356 17.2788 10.0338L17.2828 10.0312Z" fill="#66BE4E"/>
</g>
<defs>
<clipPath id="clip0_7156_45830">
<rect width="24.057" height="24.057" fill="white" transform="translate(0 0.820312)"/>
</clipPath>
</defs>
</svg>
