<svg width="32" height="33" viewBox="0 0 32 33" fill="none" xmlns="http://www.w3.org/2000/svg">
    <path
        d="M9.44742 9.90618V13.8193C9.44742 15.5291 10.5359 17.9452 12.8253 19.703L5.63594 22.9481C5.63594 22.9481 4 23.6454 4 24.5135V26.8635C4 27.7285 4.73236 28.4287 5.63594 28.4287H26.3633C27.2676 28.4287 28 27.7285 28 26.8635V24.5135C28 23.5936 26.3633 22.9481 26.3633 22.9481L19.5114 19.7173C21.7799 18.0097 22.5472 15.6986 22.5472 13.8193V9.90618C22.5472 6.49922 19.6144 4.42871 15.9996 4.42871C12.3848 4.42871 9.44742 6.49244 9.44742 9.90618Z"
        fill="#1B2D58" />
</svg>