<svg width="100%" height="100%" viewBox="0 0 10 13" fill="none" xmlns="http://www.w3.org/2000/svg">
    <path
        d="M8.75 4.625C8.68709 3.88223 8.37915 3.18143 7.87457 2.63273C7.37 2.08404 6.6974 1.71856 5.9625 1.59375C6 1.1625 5.95625 0.25 5 0.25C4.04375 0.25 4 1.1625 4.0375 1.59375C3.3026 1.71856 2.63 2.08404 2.12543 2.63273C1.62085 3.18143 1.31291 3.88223 1.25 4.625V8.375L0 9.625V10.25H10V9.625L8.75 8.375V4.625ZM5 12.75C5.49728 12.75 5.97419 12.5525 6.32583 12.2008C6.67746 11.8492 6.875 11.3723 6.875 10.875H3.125C3.125 11.3723 3.32254 11.8492 3.67417 12.2008C4.02581 12.5525 4.50272 12.75 5 12.75Z"
        fill="currentColor" />
</svg>