<svg width="100%" height="100%" viewBox="0 0 48 49" fill="none" xmlns="http://www.w3.org/2000/svg">
<path d="M20.6343 25.9733C21.3606 26.9443 22.2872 27.7477 23.3513 28.3291C24.4155 28.9105 25.5922 29.2562 26.8016 29.3428C28.0111 29.4295 29.2251 29.2549 30.3612 28.8311C31.4973 28.4073 32.529 27.7442 33.3862 26.8866L38.4599 21.8129C40.0003 20.218 40.8526 18.082 40.8334 15.8648C40.8141 13.6476 39.9248 11.5267 38.3569 9.95882C36.7891 8.39097 34.6682 7.50164 32.451 7.48238C30.2338 7.46311 28.0977 8.31545 26.5029 9.85581L23.5939 12.7478" stroke="currentColor" stroke-width="4.5" stroke-linecap="round" stroke-linejoin="round"/>
<path d="M27.3994 22.5908C26.6731 21.6198 25.7464 20.8163 24.6823 20.235C23.6182 19.6536 22.4415 19.3079 21.232 19.2213C20.0225 19.1346 18.8086 19.3091 17.6725 19.7329C16.5364 20.1567 15.5047 20.8199 14.6474 21.6775L9.57371 26.7512C8.03334 28.3461 7.181 30.4821 7.20027 32.6993C7.21954 34.9165 8.10887 37.0374 9.67671 38.6053C11.2446 40.1731 13.3655 41.0624 15.5827 41.0817C17.7999 41.101 19.9359 40.2486 21.5308 38.7083L24.4228 35.8163" stroke="currentColor" stroke-width="4.5" stroke-linecap="round" stroke-linejoin="round"/>
</svg>
