<svg width="100%" height="100%" viewBox="0 0 48 49" fill="none" xmlns="http://www.w3.org/2000/svg">
<path d="M11.2 9.88205C9.50266 9.88205 7.8748 10.4889 6.67457 11.5691C5.47433 12.6493 4.80005 14.1144 4.80005 15.642V16.2209L24 25.5262L43.2001 16.2238V15.642C43.2001 14.1144 42.5258 12.6493 41.3255 11.5691C40.1253 10.4889 38.4974 9.88205 36.8 9.88205H11.2ZM43.2001 19.4926L24.7585 28.4292C24.5254 28.5422 24.2648 28.6013 24 28.6013C23.7353 28.6013 23.4747 28.5422 23.2416 28.4292L4.80005 19.4926V32.922C4.80005 34.4497 5.47433 35.9148 6.67457 36.995C7.8748 38.0752 9.50266 38.682 11.2 38.682H36.8C38.4974 38.682 40.1253 38.0752 41.3255 36.995C42.5258 35.9148 43.2001 34.4497 43.2001 32.922V19.4926Z" fill="currentColor"/>
</svg>
