<svg width="100%" height="100%" viewBox="0 0 48 49" fill="none" xmlns="http://www.w3.org/2000/svg">
<path d="M4 10.282C4 6.96833 6.68629 4.28204 10 4.28204H38C41.3137 4.28204 44 6.96834 44 10.282V38.282C44 41.5958 41.3137 44.282 38 44.282H10C6.68629 44.282 4 41.5958 4 38.282V10.282Z" fill="currentColor"/>
<path d="M31.0338 44.282V30.1415H36.0457L36.797 24.6313H31.0354V21.1128C31.0354 19.5163 31.5019 18.4298 33.9179 18.4298L37 18.4282V13.4993C35.5087 13.3498 34.0099 13.2774 32.5102 13.2823C28.0662 13.2823 25.025 15.8506 25.025 20.5672V24.6313H20V30.1415H25.025V44.282H31.0338Z" fill="white"/>
</svg>
