<svg width="32" height="33" viewBox="0 0 32 33" fill="none" xmlns="http://www.w3.org/2000/svg">
    <path d="M19.0525 9.90114L10.4427 18.2853C9.91577 18.7984 9.61973 19.4944 9.61973 20.2201C9.61973 20.9458 9.91577 21.6417 10.4427 22.1549C10.9697 22.668 11.6844 22.9563 12.4296 22.9563C13.1748 22.9563 13.8895 22.668 14.4165 22.1549L23.0263 13.7707C24.0802 12.7445 24.6722 11.3525 24.6722 9.90114C24.6722 8.44976 24.0802 7.05783 23.0263 6.03155C21.9723 5.00527 20.5429 4.42871 19.0525 4.42871C17.5621 4.42871 16.1327 5.00527 15.0788 6.03155L6.46897 14.4157C4.88812 15.9551 4 18.043 4 20.2201C4 22.3971 4.88812 24.485 6.46897 26.0245C8.04983 27.5639 10.1939 28.4287 12.4296 28.4287C14.6653 28.4287 16.8094 27.5639 18.3902 26.0245L27 17.6403" stroke="currentColor" stroke-width="3" stroke-linecap="round" stroke-linejoin="round"/>
    </svg>
    