<svg width="100%" height="100%" viewBox="0 0 32 32" fill="none" xmlns="http://www.w3.org/2000/svg">
<path d="M3 7.5C3 6.67157 3.67157 6 4.5 6H9V9H4.5C3.67157 9 3 8.32843 3 7.5Z" fill="currentColor"/>
<path d="M14 6H27.5C28.3284 6 29 6.67157 29 7.5C29 8.32843 28.3284 9 27.5 9H14V6Z" fill="currentColor"/>
<rect x="13" y="4" width="7" height="3" rx="1.5" transform="rotate(90 13 4)" fill="currentColor"/>
<path d="M3 23.5C3 22.6716 3.67157 22 4.5 22H9V25H4.5C3.67157 25 3 24.3284 3 23.5Z" fill="currentColor"/>
<path d="M14 22H27.5C28.3284 22 29 22.6716 29 23.5C29 24.3284 28.3284 25 27.5 25H14V22Z" fill="currentColor"/>
<rect x="13" y="20" width="7" height="3" rx="1.5" transform="rotate(90 13 20)" fill="currentColor"/>
<path d="M3 15.5C3 14.6716 3.67157 14 4.5 14H19V17H4.5C3.67157 17 3 16.3284 3 15.5Z" fill="currentColor"/>
<path d="M24 14H27.5C28.3284 14 29 14.6716 29 15.5C29 16.3284 28.3284 17 27.5 17H24V14Z" fill="currentColor"/>
<rect x="23" y="12" width="7" height="3" rx="1.5" transform="rotate(90 23 12)" fill="currentColor"/>
</svg>
