<svg width="100%" height="100%" viewBox="0 0 48 49" fill="none" xmlns="http://www.w3.org/2000/svg">
<path d="M4 10.282C4 6.96833 6.68629 4.28204 10 4.28204H38C41.3137 4.28204 44 6.96834 44 10.282V38.282C44 41.5958 41.3137 44.282 38 44.282H10C6.68629 44.282 4 41.5958 4 38.282V10.282Z" fill="currentColor"/>
<path d="M23.9051 19.4211C22.9633 19.4215 22.0427 19.7011 21.2597 20.2246C20.4768 20.7481 19.8666 21.492 19.5064 22.3623C19.1462 23.2326 19.0522 24.1901 19.2361 25.1138C19.4201 26.0375 19.8738 26.886 20.54 27.5518C21.2061 28.2177 22.0547 28.6711 22.9785 28.8547C23.9022 29.0383 24.8597 28.9439 25.7299 28.5834C26.6 28.2229 27.3437 27.6125 27.8669 26.8293C28.3902 26.0462 28.6694 25.1255 28.6694 24.1836C28.6685 22.9205 28.1662 21.7094 27.2728 20.8164C26.3795 19.9234 25.1682 19.4216 23.9051 19.4211ZM35.04 15.7604C34.7975 15.146 34.4314 14.5879 33.9643 14.1208C33.4973 13.6538 32.9392 13.2877 32.3248 13.0452C30.4498 12.305 25.9855 12.4711 23.9051 12.4711C21.8248 12.4711 17.365 12.2988 15.4846 13.0452C14.8702 13.2877 14.3121 13.6538 13.845 14.1208C13.378 14.5879 13.0119 15.146 12.7694 15.7604C12.0301 17.6354 12.1953 22.1041 12.1953 24.1827C12.1953 26.2613 12.0301 30.7247 12.773 32.6059C13.0154 33.2204 13.3816 33.7784 13.8486 34.2455C14.3157 34.7125 14.8737 35.0787 15.4882 35.3211C17.3632 36.0613 21.8275 35.8952 23.9087 35.8952C25.99 35.8952 30.448 36.0675 32.3284 35.3211C32.9428 35.0787 33.5008 34.7125 33.9679 34.2455C34.435 33.7784 34.8011 33.2204 35.0435 32.6059C35.7891 30.7309 35.6176 26.2622 35.6176 24.1836C35.6176 22.105 35.7891 17.6425 35.0435 15.7613L35.04 15.7604ZM23.9051 31.505C22.4571 31.505 21.0416 31.0756 19.8376 30.2712C18.6336 29.4667 17.6952 28.3232 17.141 26.9854C16.5869 25.6476 16.4419 24.1755 16.7244 22.7553C17.0069 21.335 17.7042 20.0305 18.7281 19.0066C19.752 17.9827 21.0566 17.2854 22.4768 17.0029C23.897 16.7204 25.3691 16.8653 26.7069 17.4195C28.0447 17.9736 29.1882 18.912 29.9927 20.116C30.7972 21.32 31.2266 22.7356 31.2266 24.1836C31.2277 25.1454 31.0392 26.098 30.6716 26.9868C30.3041 27.8756 29.7649 28.6832 29.0848 29.3633C28.4047 30.0434 27.5971 30.5826 26.7083 30.9501C25.8195 31.3176 24.8669 31.5062 23.9051 31.505ZM31.5284 18.264C31.1903 18.2641 30.8598 18.1641 30.5787 17.9764C30.2975 17.7887 30.0784 17.5219 29.9489 17.2096C29.8194 16.8974 29.7854 16.5537 29.8513 16.2222C29.9171 15.8906 30.0798 15.586 30.3187 15.347C30.5577 15.1079 30.8622 14.945 31.1937 14.879C31.5253 14.813 31.8689 14.8468 32.1812 14.9761C32.4935 15.1054 32.7605 15.3245 32.9483 15.6055C33.1361 15.8866 33.2364 16.217 33.2364 16.555C33.2373 16.7795 33.1939 17.002 33.1087 17.2096C33.0235 17.4173 32.8981 17.6061 32.7397 17.7652C32.5814 17.9243 32.3932 18.0506 32.1859 18.1368C31.9786 18.223 31.7564 18.2674 31.5319 18.2675L31.5284 18.264ZM38.0909 30.0765C37.9757 32.3649 37.4533 34.3925 35.7828 36.0586C34.1123 37.7247 32.0864 38.2577 29.8007 38.3666C27.4426 38.4997 20.373 38.4997 18.015 38.3666C15.7266 38.2515 13.706 37.7283 12.0328 36.0586C10.3596 34.389 9.83371 32.3604 9.72478 30.0765C9.59174 27.7175 9.59174 20.647 9.72478 18.2907C9.83996 16.0024 10.356 13.9747 12.0328 12.3086C13.7096 10.6425 15.7355 10.1157 18.015 10.0068C20.373 9.87378 27.4426 9.87378 29.8007 10.0068C32.0891 10.122 34.1158 10.6452 35.7828 12.3149C37.4498 13.9845 37.9819 16.0131 38.0909 18.3015C38.2239 20.6515 38.2239 27.7157 38.0909 30.0765Z" fill="white"/>
</svg>
