<svg width="100%" height="100%" viewBox="0 0 48 49" fill="none" xmlns="http://www.w3.org/2000/svg">
<rect x="7" y="9.28204" width="34" height="30" fill="white"/>
<path d="M27.56 19.202C27.56 19.202 27.36 19.202 27.26 19.262C27.16 19.302 27.08 19.362 27.02 19.422C26.94 19.502 26.9 19.582 26.86 19.662C26.82 19.742 26.8 19.862 26.8 19.962V23.302L24 19.582C23.94 19.462 23.84 19.382 23.72 19.302C23.6 19.242 23.48 19.202 23.34 19.202C23.24 19.202 23.14 19.202 23.04 19.262C22.94 19.302 22.86 19.362 22.8 19.422C22.74 19.482 22.68 19.582 22.64 19.662C22.6 19.742 22.58 19.862 22.58 19.962V25.642C22.58 25.642 22.58 25.842 22.64 25.942C22.68 26.042 22.74 26.122 22.8 26.182C22.88 26.262 22.96 26.302 23.04 26.342C23.12 26.382 23.24 26.402 23.34 26.402C23.44 26.402 23.54 26.402 23.64 26.342C23.74 26.282 23.82 26.242 23.88 26.182C23.96 26.102 24 26.022 24.04 25.942C24.08 25.842 24.1 25.742 24.1 25.642V22.282L26.88 26.102C26.96 26.202 27.06 26.282 27.18 26.322C27.28 26.342 27.36 26.342 27.46 26.322C27.54 26.362 27.64 26.362 27.74 26.362C27.84 26.362 27.92 26.322 28 26.282L28.2 26.142C28.34 26.002 28.42 25.802 28.42 25.602V19.962C28.42 19.862 28.4 19.742 28.36 19.642C28.32 19.542 28.26 19.462 28.16 19.382C28.08 19.302 27.98 19.262 27.88 19.222C27.78 19.182 27.66 19.182 27.56 19.202ZM18.4 24.822H16.28V19.962C16.28 19.762 16.2 19.562 16.06 19.422C15.92 19.282 15.72 19.202 15.52 19.202C15.32 19.202 15.12 19.282 14.98 19.422C14.84 19.562 14.76 19.762 14.76 19.962V25.642C14.76 25.842 14.84 26.042 14.98 26.182C15.12 26.322 15.32 26.402 15.52 26.402H18.4C18.6 26.402 18.8 26.322 18.94 26.182C19.08 26.042 19.18 25.842 19.18 25.642C19.18 25.542 19.18 25.422 19.14 25.322C19.1 25.222 19.04 25.122 18.98 25.062C18.9 24.982 18.82 24.922 18.72 24.882C18.62 24.842 18.52 24.822 18.42 24.822H18.4ZM20.62 19.202C20.42 19.202 20.22 19.282 20.08 19.422C19.94 19.562 19.84 19.762 19.84 19.962V25.642C19.84 25.842 19.92 26.042 20.08 26.182C20.22 26.322 20.42 26.402 20.62 26.402C20.82 26.402 21.02 26.322 21.16 26.182C21.3 26.042 21.38 25.842 21.38 25.642V19.962C21.38 19.762 21.3 19.562 21.16 19.422C21.02 19.282 20.82 19.202 20.62 19.202ZM35.82 4.28204H12.18C10.02 4.28204 7.94 5.14204 6.4 6.68204C4.86 8.22204 4 10.302 4 12.462V36.102C4 38.262 4.86 40.342 6.4 41.882C7.94 43.422 10.02 44.282 12.18 44.282H35.82C37.98 44.282 40.06 43.422 41.6 41.882C43.14 40.342 44 38.262 44 36.102V12.462C44 10.302 43.14 8.22204 41.6 6.68204C40.06 5.14204 37.98 4.28204 35.82 4.28204ZM36.44 28.842C36.36 28.962 36.28 29.082 36.18 29.182C35.7 29.762 35.16 30.302 34.58 30.782C30.58 34.522 23.86 39.002 22.96 38.302C22.06 37.602 24.24 34.782 21.9 34.302C21.74 34.322 21.56 34.322 21.4 34.302C14.52 33.342 9.4 28.522 9.4 22.742C9.4 16.242 15.98 10.982 24.08 10.982C32.18 10.982 38.76 16.242 38.76 22.742C38.7 24.982 37.88 27.122 36.44 28.842ZM33.02 19.222H30C30 19.222 29.8 19.222 29.7 19.282C29.6 19.322 29.52 19.382 29.46 19.442C29.38 19.522 29.34 19.602 29.3 19.682C29.26 19.782 29.24 19.882 29.24 19.982V25.662C29.24 25.862 29.32 26.062 29.46 26.202C29.6 26.342 29.8 26.422 30 26.422H32.96C33.16 26.422 33.36 26.342 33.5 26.202C33.64 26.062 33.72 25.862 33.72 25.662C33.72 25.562 33.72 25.462 33.66 25.362C33.62 25.262 33.56 25.182 33.5 25.122C33.42 25.042 33.34 25.002 33.26 24.962C33.16 24.922 33.06 24.902 32.96 24.902H30.9V23.702H33.02C33.22 23.702 33.42 23.622 33.56 23.462C33.7 23.322 33.78 23.122 33.78 22.922C33.78 22.722 33.7 22.522 33.56 22.382C33.42 22.242 33.22 22.162 33.02 22.162H30.9V20.942H33.02C33.02 20.942 33.22 20.942 33.32 20.882C33.42 20.842 33.5 20.782 33.56 20.722C33.64 20.642 33.68 20.562 33.72 20.482C33.76 20.382 33.78 20.282 33.78 20.182C33.82 20.062 33.82 19.942 33.78 19.822C33.76 19.702 33.7 19.602 33.64 19.502C33.56 19.402 33.48 19.342 33.36 19.282C33.26 19.222 33.14 19.202 33.02 19.222Z" fill="currentColor"/>
</svg>
