<svg width="100%" height="100%" viewBox="0 0 16 17" fill="none" xmlns="http://www.w3.org/2000/svg">
    <path
        d="M7.5999 1.89673C6.22128 1.8983 4.89958 2.4286 3.92475 3.3713C2.94991 4.314 2.40153 5.59212 2.39991 6.9253C2.39826 8.01477 2.76626 9.07469 3.44747 9.94244C3.44747 9.94244 3.58929 10.123 3.61245 10.1491L7.5999 14.6967L11.5892 10.1468C11.61 10.1226 11.7523 9.94244 11.7523 9.94244L11.7528 9.94107C12.4337 9.07369 12.8015 8.01427 12.7999 6.9253C12.7983 5.59212 12.2499 4.314 11.2751 3.3713C10.3002 2.4286 8.97853 1.8983 7.5999 1.89673ZM7.5999 8.75387C7.22592 8.75387 6.86033 8.64663 6.54937 8.4457C6.23841 8.24478 5.99605 7.95919 5.85293 7.62506C5.70981 7.29094 5.67237 6.92327 5.74533 6.56856C5.81829 6.21386 5.99838 5.88803 6.26283 5.6323C6.52728 5.37657 6.8642 5.20242 7.231 5.13186C7.59781 5.06131 7.978 5.09752 8.32352 5.23592C8.66904 5.37432 8.96436 5.60869 9.17213 5.9094C9.37991 6.21011 9.49081 6.56364 9.49081 6.9253C9.49018 7.41008 9.29076 7.87483 8.93629 8.21763C8.58181 8.56042 8.10121 8.75327 7.5999 8.75387Z"
        fill="currentColor" />
</svg>