<svg width="100%" height="100%" viewBox="0 0 32 32" fill="none" xmlns="http://www.w3.org/2000/svg">
    <path
        d="M16.0005 21.695C16.0005 21.695 18.6525 18.8801 18.8239 14.8792C18.9182 12.6788 18.2624 10.1196 16.0005 7.47192C14.2644 9.50379 13.4742 11.4842 13.2441 13.2903"
        stroke="currentColor" stroke-width="1.6" stroke-linecap="round" stroke-linejoin="round" />
    <path
        d="M15.9998 21.6948C15.9998 21.6948 15.8841 17.8282 13.1763 14.879C11.6874 13.2558 9.41408 11.9098 5.94189 11.6383C6.1548 14.3546 7.02499 16.3379 8.17238 17.7854"
        stroke="currentColor" stroke-width="1.6" stroke-linecap="round" stroke-linejoin="round" />
    <path
        d="M16.0002 21.6948C23.459 28.0691 30.2233 21.6948 30.2233 21.6948C30.2233 21.6948 27.8757 19.4829 24.4206 18.9685"
        stroke="currentColor" stroke-width="1.6" stroke-linecap="round" stroke-linejoin="round" />
    <path
        d="M16.0002 21.6949C16.0002 21.6949 19.8725 21.5791 22.8246 18.8642C24.4435 17.3754 25.7867 15.1034 26.0581 11.637C23.359 11.8484 21.3843 12.7101 19.9382 13.8446"
        stroke="currentColor" stroke-width="1.6" stroke-linecap="round" stroke-linejoin="round" />
    <path
        d="M15.9999 21.695C15.9999 21.695 13.185 19.0429 9.18418 18.8715C6.9837 18.7772 4.42457 19.433 1.77686 21.695C7.37093 26.476 12.5749 24.0855 14.8268 22.5909"
        stroke="currentColor" stroke-width="1.6" stroke-linecap="round" stroke-linejoin="round" />
</svg>