<svg width="100%" height="100%" viewBox="0 0 40 41" fill="none" xmlns="http://www.w3.org/2000/svg">
<path d="M6.28571 7.14102H33.7143C34.3205 7.14102 34.9019 7.40441 35.3305 7.87326C35.7592 8.3421 36 8.97798 36 9.64102C36 10.3041 35.7592 10.9399 35.3305 11.4088C34.9019 11.8776 34.3205 12.141 33.7143 12.141H6.28571C5.67951 12.141 5.09813 11.8776 4.66947 11.4088C4.24082 10.9399 4 10.3041 4 9.64102C4 8.97798 4.24082 8.3421 4.66947 7.87326C5.09813 7.40441 5.67951 7.14102 6.28571 7.14102ZM6.28571 27.141H33.7143C34.3205 27.141 34.9019 27.4044 35.3305 27.8733C35.7592 28.3421 36 28.978 36 29.641C36 30.3041 35.7592 30.9399 35.3305 31.4088C34.9019 31.8776 34.3205 32.141 33.7143 32.141H6.28571C5.67951 32.141 5.09813 31.8776 4.66947 31.4088C4.24082 30.9399 4 30.3041 4 29.641C4 28.978 4.24082 28.3421 4.66947 27.8733C5.09813 27.4044 5.67951 27.141 6.28571 27.141ZM6.28571 17.141H33.7143C34.3205 17.141 34.9019 17.4044 35.3305 17.8733C35.7592 18.3421 36 18.978 36 19.641C36 20.3041 35.7592 20.9399 35.3305 21.4088C34.9019 21.8776 34.3205 22.141 33.7143 22.141H6.28571C5.67951 22.141 5.09813 21.8776 4.66947 21.4088C4.24082 20.9399 4 20.3041 4 19.641C4 18.978 4.24082 18.3421 4.66947 17.8733C5.09813 17.4044 5.67951 17.141 6.28571 17.141Z" fill="currentColor"/>
</svg>
