<svg width="100%" height="100%" viewBox="0 0 40 29" fill="none" xmlns="http://www.w3.org/2000/svg">
    <path
        d="M15.8725 19.2401L26.6714 13.6603L15.8725 8.01476V19.2401ZM20.0018 0.00117175C22.5015 0.00117175 24.9157 0.0347619 27.2443 0.101942C29.573 0.169122 31.2802 0.239818 32.3661 0.314029L33.9948 0.407769C34.0096 0.407769 34.1346 0.419096 34.3698 0.441749C34.5654 0.456982 34.7412 0.480417 34.9146 0.513226L34.8841 0.508539C34.9888 0.531193 35.1638 0.564783 35.4091 0.60931C35.6493 0.650321 35.8637 0.712424 36.0664 0.794446L36.0454 0.787416C36.2242 0.861626 36.4328 0.958491 36.6711 1.07801C36.9347 1.21159 37.162 1.35689 37.3729 1.51976L37.3636 1.51273C37.6014 1.69786 37.8123 1.8912 38.0069 2.10095L38.0104 2.10446C38.1299 2.22984 38.2435 2.36459 38.3478 2.5052L38.356 2.51692C38.5927 2.88953 38.8107 3.32074 38.9853 3.77186L39.0028 3.82342C39.2841 4.47843 39.4915 5.23772 39.5899 6.03216L39.5946 6.07318C39.7133 7.02542 39.8071 8.04093 39.8758 9.11972C39.9445 10.1985 39.9855 11.0422 39.9988 11.6507V15.5784L40 15.8866C40 18.0578 39.8535 20.1963 39.57 22.2902L39.5969 22.0465C39.504 22.829 39.3078 23.5957 39.0134 24.3267L39.0345 24.2669C38.8578 24.7615 38.6133 25.2292 38.308 25.6566L38.3197 25.639L38.008 26.014C37.8124 26.225 37.6001 26.4198 37.3729 26.5964L37.3612 26.6057C37.1537 26.7672 36.9294 26.9059 36.6922 27.0194L36.6699 27.0287C36.4316 27.1404 36.2231 27.2342 36.0442 27.31C35.8452 27.3903 35.6382 27.4492 35.4267 27.4857L35.4079 27.4881C35.1626 27.5326 34.9841 27.5662 34.8724 27.5888C34.7607 27.6115 34.5896 27.6338 34.3592 27.6556C34.1288 27.6775 34.0061 27.6888 33.9913 27.6896C30.2612 27.9802 25.5988 28.1255 20.0041 28.1255C16.924 28.0958 14.2493 28.0474 11.98 27.9802C9.71068 27.913 8.21904 27.8572 7.50505 27.8126L6.41064 27.7189L5.60682 27.6252C5.17179 27.5727 4.74051 27.4929 4.31555 27.3861L4.3882 27.4014C3.98218 27.2762 3.58872 27.1134 3.21294 26.9151L3.25043 26.9327C2.78062 26.7035 2.35436 26.3943 1.9908 26.0187L1.98963 26.0175C1.86904 25.891 1.75634 25.7571 1.65217 25.6168L1.64396 25.6051C1.39415 25.2081 1.18342 24.7878 1.01473 24.3501L0.997159 24.2986C0.699666 23.5932 0.502078 22.8498 0.410112 22.0898L0.405425 22.0488C0.286688 21.0966 0.192948 20.081 0.124205 19.0023C0.0554628 17.9235 0.0144516 17.0798 0.00117175 16.4713V12.5436L0 12.2354C0 10.0642 0.146469 7.92571 0.430032 5.8318L0.403082 6.07552C0.496011 5.293 0.692229 4.52626 0.986613 3.7953L0.965521 3.85505C1.15534 3.33128 1.39673 2.87782 1.69201 2.46536L1.68029 2.48294L1.99197 2.10798C2.19 1.89472 2.40091 1.70138 2.62706 1.52562L2.63878 1.51624C2.84032 1.35923 3.06647 1.2151 3.30668 1.09207L3.33128 1.08035C3.56954 0.961616 3.77811 0.864751 3.957 0.789759C4.15601 0.709418 4.36302 0.650498 4.57451 0.613997L4.59326 0.611653C4.83854 0.567127 5.01352 0.533536 5.1182 0.510883C5.25998 0.482761 5.43574 0.459326 5.61502 0.445265L5.6326 0.444093C5.87085 0.421439 5.99584 0.410112 6.00756 0.410112C9.74388 0.136704 14.4098 0 20.0053 0L20.0018 0.00117175Z"
        fill="#1B2D58" />
</svg>