<svg width="24" height="25" viewBox="0 0 24 25" fill="none" xmlns="http://www.w3.org/2000/svg">
<path d="M17.1574 12.3458L15.6548 12.5895C14.9509 12.5895 14.3147 12.3594 13.7462 11.8991C13.2047 11.4118 12.934 10.7215 12.934 9.82808C12.934 8.9076 13.2318 8.13603 13.8274 7.51335C14.423 6.89068 15.2487 6.57935 16.3046 6.57935C17.3875 6.57935 18.2673 6.98544 18.9442 7.79762C19.6481 8.6098 20 9.66564 20 10.9651C20 12.2376 19.4992 13.51 18.4975 14.7824C17.5228 16.0548 16.1151 17.1106 14.2741 17.9499L13.9898 17.2595C16.5347 15.8518 17.8071 14.4304 17.8071 12.9956C17.8071 12.5624 17.5905 12.3458 17.1574 12.3458ZM8.22335 12.3458L6.72081 12.5895C6.01692 12.5895 5.38071 12.3594 4.81218 11.8991C4.27073 11.4118 4 10.7215 4 9.82808C4 8.9076 4.2978 8.13603 4.8934 7.51335C5.489 6.89068 6.31472 6.57935 7.37056 6.57935C8.45347 6.57935 9.33333 6.98544 10.0102 7.79762C10.714 8.6098 11.066 9.66564 11.066 10.9651C11.066 12.2376 10.5651 13.51 9.56345 14.7824C8.58883 16.0548 7.18105 17.1106 5.3401 17.9499L5.05584 17.2595C7.60068 15.8518 8.8731 14.4304 8.8731 12.9956C8.8731 12.5624 8.65651 12.3458 8.22335 12.3458Z" fill="#1B2D58"/>
</svg>
