<svg width="24" height="24" viewBox="0 0 24 24" fill="none" xmlns="http://www.w3.org/2000/svg">
<rect x="2" y="2" width="20" height="20" rx="3.51562" fill="#4F7BBE"/>
<path d="M7.31667 14.849C7.79848 14.849 8.26055 15.0404 8.60124 15.381C8.94194 15.7217 9.13333 16.1838 9.13333 16.6656C9.13333 17.649 8.31667 18.4823 7.31667 18.4823C6.33333 18.4823 5.5 17.649 5.5 16.6656C5.5 16.1838 5.6914 15.7217 6.03209 15.381C6.37278 15.0404 6.83486 14.849 7.31667 14.849ZM5.5 5.51562C8.93897 5.51563 12.2371 6.88175 14.6688 9.31347C17.1005 11.7452 18.4667 15.0433 18.4667 18.4823H16.1083C16.1083 15.6688 14.9907 12.9705 13.0012 10.9811C11.0118 8.99162 8.3135 7.87396 5.5 7.87396V5.51562ZM5.5 10.2323C7.68804 10.2323 9.78646 11.1015 11.3336 12.6487C12.8808 14.1958 13.75 16.2943 13.75 18.4823H11.3917C11.3917 16.9197 10.7709 15.4212 9.66604 14.3163C8.56114 13.2114 7.06257 12.5906 5.5 12.5906V10.2323Z" fill="white"/>
</svg>
