<svg width="100%" height="100%" viewBox="0 0 20 20" fill="none" xmlns="http://www.w3.org/2000/svg">
<path fill-rule="evenodd" clip-rule="evenodd" d="M5.60254 8.71792C5.60254 6.99734 6.99734 5.60254 8.71792 5.60254C10.4385 5.60254 11.8333 6.99734 11.8333 8.71792C11.8333 10.4385 10.4385 11.8333 8.71792 11.8333C6.99734 11.8333 5.60254 10.4385 5.60254 8.71792ZM8.71792 2.60254C5.34049 2.60254 2.60254 5.34049 2.60254 8.71792C2.60254 12.0954 5.34049 14.8333 8.71792 14.8333C9.86266 14.8333 10.9339 14.5188 11.85 13.9714L15.3495 17.4709C15.9353 18.0567 16.8851 18.0567 17.4708 17.4709C18.0566 16.8851 18.0566 15.9354 17.4708 15.3496L13.9714 11.8501C14.5188 10.934 14.8333 9.86269 14.8333 8.71792C14.8333 5.34049 12.0954 2.60254 8.71792 2.60254Z" fill="currentColor"/>
</svg>
