<svg width="100%" height="100%" viewBox="0 0 40 41" fill="none" xmlns="http://www.w3.org/2000/svg">
    <path
        d="M4 10.141C4 6.82731 6.68629 4.14102 10 4.14102H30C33.3137 4.14102 36 6.82731 36 10.141V30.141C36 33.4547 33.3137 36.141 30 36.141H10C6.68629 36.141 4 33.4547 4 30.141V10.141Z"
        fill="currentColor" />
    <path
        d="M23.9241 25.6455L25.8929 16.3642C25.9732 15.9714 25.9263 15.6901 25.7522 15.5205C25.5781 15.3508 25.3482 15.3196 25.0625 15.4267L13.4911 19.8866C13.2321 19.9848 13.0558 20.0964 12.9621 20.2214C12.8683 20.3464 12.8571 20.4647 12.9286 20.5763C13 20.6879 13.1429 20.775 13.3571 20.8375L16.317 21.7616L23.1875 17.4357C23.375 17.3107 23.5179 17.2839 23.6161 17.3553C23.6786 17.4 23.6607 17.4669 23.5625 17.5562L18.0045 22.5785L17.7902 25.6321C17.9955 25.6321 18.1964 25.5339 18.3929 25.3375L19.8393 23.9446L22.8393 26.1544C23.4107 26.4758 23.7723 26.3062 23.9241 25.6455ZM32 20.141C32 21.766 31.683 23.3196 31.0491 24.8017C30.4152 26.2839 29.5625 27.5607 28.4911 28.6321C27.4196 29.7035 26.1429 30.5562 24.6607 31.1901C23.1786 31.8241 21.625 32.141 20 32.141C18.375 32.141 16.8214 31.8241 15.3393 31.1901C13.8571 30.5562 12.5804 29.7035 11.5089 28.6321C10.4375 27.5607 9.58482 26.2839 8.95089 24.8017C8.31696 23.3196 8 21.766 8 20.141C8 18.516 8.31696 16.9625 8.95089 15.4803C9.58482 13.9982 10.4375 12.7214 11.5089 11.65C12.5804 10.5785 13.8571 9.72584 15.3393 9.09191C16.8214 8.45799 18.375 8.14102 20 8.14102C21.625 8.14102 23.1786 8.45799 24.6607 9.09191C26.1429 9.72584 27.4196 10.5785 28.4911 11.65C29.5625 12.7214 30.4152 13.9982 31.0491 15.4803C31.683 16.9625 32 18.516 32 20.141Z"
        fill="white" />
</svg>