<svg width="100%" height="100%" viewBox="0 0 41 40" fill="none" xmlns="http://www.w3.org/2000/svg">
    <path
        d="M4.125 10C4.125 6.68629 6.81129 4 10.125 4H30.125C33.4387 4 36.125 6.68629 36.125 10V30C36.125 33.3137 33.4387 36 30.125 36H10.125C6.81129 36 4.125 33.3137 4.125 30V10Z"
        fill="currentColor" />
    <g clip-path="url(#clip0_4888_38222)">
        <path
            d="M31.8102 17.3752C30.2898 10.8753 24.0902 7.05221 18.02 8.20358C11.1594 9.50584 6.95081 15.7974 8.41545 22.5859C9.98013 29.8402 17.6002 33.7732 24.3526 31.2228C24.7807 31.0604 24.9791 30.8423 24.7971 30.365C24.6134 29.8844 24.4329 29.394 24.3263 28.8938C24.1672 28.1393 23.7949 27.977 23.0995 28.2705C21.7595 28.8364 20.3293 28.9545 18.9254 28.7363C13.7639 27.931 10.505 23.3256 11.5038 18.2149C12.3468 13.8997 16.4242 10.6031 21.3118 11.2854C25.3465 11.8479 28.2298 14.7953 28.8334 18.8119C29.0893 20.5226 28.9105 22.2464 27.9756 23.7799C27.6952 24.2408 27.2966 24.6393 26.6258 24.4195C25.9763 24.2063 25.7483 23.7504 25.75 23.114C25.7532 21.8035 25.75 20.4931 25.75 19.181C25.75 18.0066 25.75 16.8323 25.75 15.658C25.75 14.3016 25.75 14.2901 24.4165 14.3049C23.8737 14.3114 23.1159 14.0556 22.8355 14.4197C22.3549 15.0429 22.0121 14.6476 21.6218 14.5066C19.1977 13.6242 16.3865 14.4656 14.9087 16.5305C13.326 18.7447 13.4014 21.7232 15.0891 23.7274C16.8802 25.853 19.734 26.4566 22.2663 25.1986C22.7288 24.969 22.9191 24.9657 23.175 25.4659C23.6801 26.4484 24.5231 27.1028 25.5761 27.4423C27.9313 28.2033 30.3702 26.8551 31.3116 24.2785C32.1333 22.0282 32.3597 19.7238 31.8102 17.3768V17.3752ZM19.6077 22.8844C18.0069 22.8778 16.7194 21.569 16.7358 19.9633C16.7522 18.4052 18.0414 17.1292 19.6077 17.1242C21.2216 17.1177 22.4943 18.3888 22.4943 20.0043C22.4943 21.6198 21.2216 22.8909 19.6077 22.8844Z"
            fill="#FEFEFE" />
    </g>
    <defs>
        <clipPath id="clip0_4888_38222">
            <rect width="23.9852" height="24" fill="white" transform="translate(8.125 8)" />
        </clipPath>
    </defs>
</svg>