<svg width="100%" height="100%" viewBox="0 0 40 41" fill="none" xmlns="http://www.w3.org/2000/svg">
    <path
        d="M4 10.141C4 6.82731 6.68629 4.14102 10 4.14102H30C33.3137 4.14102 36 6.82731 36 10.141V30.141C36 33.4547 33.3137 36.141 30 36.141H10C6.68629 36.141 4 33.4547 4 30.141V10.141Z"
        fill="currentColor" />
    <g clip-path="url(#clip0_4819_48146)">
        <path
            d="M26.5867 11.901C25.6752 10.8605 25.173 9.52426 25.1733 8.14102H21.0533V24.6744C21.0216 25.5691 20.6438 26.4165 19.9997 27.0383C19.3555 27.66 18.4953 28.0076 17.6 28.0077C15.7067 28.0077 14.1333 26.461 14.1333 24.541C14.1333 22.2477 16.3467 20.5277 18.6267 21.2344V17.021C14.0267 16.4077 10 19.981 10 24.541C10 28.981 13.68 32.141 17.5867 32.141C21.7733 32.141 25.1733 28.741 25.1733 24.541V16.1544C26.844 17.3542 28.8498 17.9979 30.9067 17.9944V13.8744C30.9067 13.8744 28.4 13.9944 26.5867 11.901Z"
            fill="white" />
    </g>
    <defs>
        <clipPath id="clip0_4819_48146">
            <rect width="24" height="24" fill="white" transform="translate(8 8.14102)" />
        </clipPath>
    </defs>
</svg>