<svg width="100%" height="100%" viewBox="0 0 40 41" fill="none" xmlns="http://www.w3.org/2000/svg">
    <path
        d="M4 10.141C4 6.82731 6.68629 4.14102 10 4.14102H30C33.3137 4.14102 36 6.82731 36 10.141V30.141C36 33.4547 33.3137 36.141 30 36.141H10C6.68629 36.141 4 33.4547 4 30.141V10.141Z"
        fill="currentColor" />
    <g clip-path="url(#clip0_4819_48145)">
        <path
            d="M31.9611 20.8613C31.8519 20.52 31.6979 20.2099 31.3945 20.0017C31.0786 19.7855 30.7289 19.6713 30.351 19.6826C30.159 19.6883 30.1216 19.6175 30.1248 19.4395C30.1317 19.0478 30.1304 18.6546 30.1082 18.2633C30.0748 17.686 29.5896 16.9812 29.011 16.8486C28.7201 16.6947 28.4037 16.6985 28.0891 16.6938C27.758 16.6891 27.7455 16.69 27.758 16.3591C27.7649 16.1708 27.6946 16.1382 27.5313 16.1439C27.1927 16.1557 26.8537 16.1472 26.5151 16.1476C26.1701 16.1476 26.1631 16.1476 26.164 16.5092C26.164 16.6532 26.1243 16.7027 25.9809 16.6961C25.7427 16.6853 25.5035 16.6971 25.2649 16.6914C25.1478 16.6886 25.102 16.7287 25.1039 16.8543C25.1094 17.2942 25.1085 17.7336 25.1034 18.1736C25.102 18.2859 25.1377 18.3256 25.2482 18.3227C25.4869 18.3166 25.726 18.3289 25.9642 18.319C26.1076 18.3128 26.1738 18.3478 26.1687 18.5106C26.158 18.8321 26.1571 19.1549 26.1687 19.4764C26.1747 19.6501 26.1048 19.6831 25.9522 19.6798C25.5521 19.6704 25.1515 19.6822 24.7514 19.6737C24.6085 19.6708 24.5673 19.7185 24.5701 19.862C24.578 20.2859 24.5766 20.7102 24.5692 21.1341C24.5669 21.2658 24.6048 21.3144 24.7385 21.3111C25.0692 21.3031 25.4008 21.3026 25.7316 21.3111C25.8819 21.3149 26.0401 21.2663 26.1821 21.3588C26.177 22.4737 26.1738 23.5886 26.1654 24.7031C26.1645 24.8362 26.2256 24.8575 26.3352 24.8565C26.7126 24.8527 27.091 24.839 27.467 24.8608C27.702 24.8744 27.7621 24.8051 27.7589 24.5648C27.7446 23.5518 27.752 22.5379 27.7538 21.525C27.7538 21.432 27.7117 21.3059 27.8796 21.3074C28.5651 21.3121 29.2506 21.3036 29.9352 21.3243C30.233 21.3333 30.394 21.5349 30.3968 21.8351C30.4014 22.3142 30.3935 22.7938 30.4014 23.2724C30.4037 23.414 30.3676 23.4645 30.2219 23.4607C29.8292 23.4508 29.4361 23.4688 29.0438 23.4527C28.8315 23.4442 28.7996 23.5207 28.8445 23.7104C29.0036 24.3868 29.45 24.7659 30.2104 24.8367C30.9375 24.9042 31.6933 24.6786 31.9685 23.7369C32.0087 22.7782 32.0152 21.82 31.9611 20.8613ZM28.412 19.6793C28.1955 19.6557 27.9037 19.7827 27.7825 19.618C27.6798 19.4778 27.7612 19.1969 27.7612 18.9784C27.7575 18.9784 27.7533 18.9784 27.7496 18.9784C27.7496 18.9236 27.7501 18.8689 27.7496 18.8141C27.7422 18.302 27.8519 18.2151 28.3551 18.327C28.5087 18.361 28.5744 18.4606 28.5753 18.6107C28.5776 18.9156 28.5725 19.2205 28.5785 19.5255C28.5813 19.6543 28.5239 19.6911 28.4115 19.6793H28.412Z"
            fill="#FAFBFA" />
        <path
            d="M8.38395 18.318C8.29791 18.7895 8.2956 19.2691 8.25073 19.7445C8.18552 20.4393 8.19754 21.1511 8.04675 21.8251C7.95101 22.2528 7.99911 22.5742 8.21003 22.9132C8.23038 22.9462 8.24472 22.983 8.26276 23.0179C8.44177 23.3691 8.62077 23.7203 8.80902 24.0899C8.85389 24.0366 8.87979 24.0092 8.90246 23.979C9.36361 23.3649 9.59211 22.6521 9.71515 21.9035C9.82847 21.2143 9.84836 20.5139 9.90248 19.8181C9.94133 19.3187 10.0149 18.8212 9.99869 18.318C9.46029 18.318 8.92189 18.318 8.38348 18.318H8.38395Z"
            fill="#FAFBFA" />
        <path
            d="M15.3133 18.327C15.3202 18.3331 15.3271 18.3392 15.3332 18.3463C15.3281 18.3374 15.3202 18.3293 15.3096 18.3218C15.311 18.3237 15.3128 18.3251 15.3142 18.327H15.3137H15.3133Z"
            fill="#FAFBFA" />
        <path
            d="M15.4524 19.8417C15.4363 19.7813 15.4312 19.7194 15.4307 19.6576C15.4094 19.4764 15.3882 19.2951 15.3669 19.1134C15.3669 19.1016 15.3669 19.0898 15.3669 19.078C15.3678 18.9397 15.3701 18.8018 15.3525 18.6649C15.3456 18.6111 15.3359 18.5573 15.3211 18.504C15.3155 18.445 15.31 18.386 15.3044 18.327C14.7859 18.326 14.2674 18.3246 13.7489 18.3237C13.8146 19.2635 13.8821 20.2028 13.945 21.1426C14.0093 22.1074 14.2101 23.0312 14.7202 23.8634C14.7559 23.9214 14.7757 24.0116 14.8484 24.0182C14.9483 24.0271 14.9395 23.9134 14.9779 23.8539C15.2559 23.4211 15.4353 22.9358 15.6726 22.4813C15.7115 22.4067 15.7605 22.3354 15.7272 22.2391C15.4608 21.4612 15.5218 20.6441 15.452 19.8426L15.4524 19.8417Z"
            fill="#FAFBFA" />
        <path
            d="M24.394 23.2176C23.986 23.2266 23.578 23.2181 23.1701 23.2228C23.0535 23.2242 22.9878 23.2101 22.9888 23.0609C22.9962 21.4829 22.9971 19.905 22.9994 18.327C23.2765 18.3246 23.5535 18.3128 23.8297 18.3241C23.9967 18.3312 24.0605 18.2897 24.054 18.1056C24.0401 17.7058 24.0434 17.305 24.0526 16.9052C24.0563 16.7462 24.0161 16.6876 23.8486 16.6891C22.7487 16.6966 21.6488 16.6971 20.5484 16.6905C20.3791 16.6895 20.3435 16.7509 20.3472 16.9081C20.3564 17.3159 20.3587 17.7242 20.3463 18.132C20.3412 18.2991 20.4055 18.3256 20.5461 18.3227C20.807 18.3175 21.0683 18.3293 21.3292 18.3341C21.3343 18.3322 21.3393 18.3303 21.3444 18.3289C21.3537 18.3256 21.3634 18.3223 21.3726 18.319C21.3611 18.3138 21.3495 18.309 21.338 18.3043C21.3454 18.2968 21.3569 18.3015 21.3726 18.319C21.4129 18.3916 21.4032 18.4714 21.4032 18.5493C21.4032 20.0249 21.3995 21.5009 21.4073 22.9764C21.4083 23.1714 21.3592 23.2323 21.1654 23.2252C20.7274 23.2091 20.2884 23.2167 19.8499 23.2143C19.7759 23.2436 19.7598 23.3182 19.7292 23.3791C19.5183 23.8062 19.3143 24.2372 19.0983 24.6616C19.0206 24.8145 19.0391 24.8579 19.2158 24.8574C20.9402 24.8527 22.6641 24.8532 24.3884 24.8574C24.5258 24.8574 24.5795 24.8216 24.5767 24.6734C24.5688 24.2495 24.5684 23.8251 24.5767 23.4017C24.5795 23.2554 24.5337 23.2148 24.3931 23.2181L24.394 23.2176Z"
            fill="#FAFBFA" />
        <path
            d="M30.8797 18.3081C31.0027 18.3081 31.1262 18.3152 31.2484 18.3067C31.6586 18.2783 31.9769 17.938 31.9917 17.5189C32.006 17.1134 31.7206 16.7579 31.3219 16.6857C30.9343 16.6154 30.5559 16.8665 30.4352 17.2654C30.3792 17.4509 30.4001 17.6387 30.3987 17.8257C30.395 18.3119 30.3973 18.3119 30.8797 18.3076V18.3081Z"
            fill="#FAFBFA" />
        <path
            d="M12.6768 18.8132C12.6749 17.9569 12.6703 17.1007 12.6666 16.2444C12.6666 16.2133 12.6666 16.1826 12.6666 16.1514C12.2198 16.1505 11.7725 16.1637 11.3271 16.142C11.1078 16.1311 11.0777 16.2123 11.0791 16.4082C11.0875 17.5864 11.0833 18.765 11.0833 19.9432C11.0833 21.035 11.0828 22.1268 11.081 23.219C11.081 23.3295 11.1148 23.4702 10.927 23.4574C10.6356 23.4617 10.3437 23.4659 10.0523 23.4702C10.0213 23.6519 10.05 23.8237 10.1351 23.9866C10.2854 24.5034 10.6485 24.789 11.2299 24.8471C11.9839 24.9226 12.5759 24.426 12.6435 23.6618C12.6573 23.624 12.6712 23.5863 12.6851 23.5481C12.6846 23.1846 12.6842 22.8211 12.6837 22.4577C12.6819 21.2432 12.6805 20.0282 12.6777 18.8136L12.6768 18.8132Z"
            fill="#FAFBFA" />
        <path
            d="M16.8439 23.17C16.5895 23.0685 16.4655 23.1851 16.4206 23.4333C16.361 23.5103 16.3068 23.5901 16.2911 23.6901L16.2902 23.693C16.1903 23.8379 16.108 23.9917 16.0538 24.1607C16.0367 24.1853 16.0164 24.2084 16.0025 24.2348C15.8169 24.5782 15.9126 24.7895 16.2897 24.8688C16.737 24.8489 17.1838 24.8494 17.6311 24.8678C17.7764 24.8636 17.9211 24.856 18.0664 24.856C18.1478 24.856 18.2158 24.8461 18.2569 24.7607C18.4498 24.3623 18.6455 23.9653 18.8397 23.5679C18.917 23.4716 18.9688 23.3635 19.0086 23.2299C18.275 23.1954 17.5571 23.2644 16.8443 23.1704L16.8439 23.17ZM18.9179 23.2667C18.9179 23.2667 18.9179 23.2672 18.9179 23.2677C18.9179 23.2677 18.917 23.2667 18.9165 23.2667H18.9179Z"
            fill="#FAFBFA" />
        <path
            d="M19.4373 21.8072C19.5238 21.6944 19.5798 21.5655 19.6279 21.4324C19.72 21.313 19.6182 21.3243 19.5525 21.3229C19.3832 21.3191 19.2139 21.3267 19.0446 21.3191C18.7408 21.3059 18.6894 21.2177 18.8134 20.9434C18.8388 20.8872 18.8582 20.8278 18.8804 20.7702C19.299 19.9673 19.6954 19.1535 20.0752 18.3312C19.9794 18.3308 19.8832 18.3303 19.7875 18.3293C19.4272 18.327 19.0664 18.3251 18.7061 18.3227L18.5113 18.3218C18.4244 18.394 18.4628 18.6621 18.231 18.5082C18.1487 18.4039 18.2209 18.3161 18.2639 18.2283C18.5224 17.6968 18.7852 17.1672 19.0396 16.6338C19.1112 16.4832 19.2107 16.3416 19.2408 16.1533C18.8203 16.1533 18.4137 16.1764 18.0109 16.1453C17.7204 16.1231 17.5876 16.2425 17.5317 16.5064C17.497 16.572 17.4623 16.6381 17.4281 16.7037C17.3934 16.7211 17.3906 16.7532 17.3915 16.7872C17.3133 16.9085 17.2421 17.0332 17.2074 17.1757C17.1552 17.2276 17.1237 17.2904 17.1126 17.364C17.0474 17.4495 16.997 17.5429 16.9752 17.6506C16.8323 17.8889 16.7111 18.1377 16.6084 18.3964C16.5178 18.5281 16.4604 18.6753 16.4146 18.8278C16.3933 18.8689 16.3684 18.909 16.3508 18.9515C16.0825 19.6005 16.3068 19.9437 17.0058 19.9503C17.1829 19.9522 17.3601 19.955 17.5368 19.9498C17.6681 19.946 17.701 19.9814 17.6353 20.1103C17.4618 20.4511 17.2962 20.7966 17.1316 21.1421C17.0039 21.4102 16.873 21.6784 16.7995 21.9682C16.7204 22.2783 16.8476 22.5086 17.1436 22.6167C17.2759 22.6654 17.4146 22.672 17.5534 22.6724C17.9692 22.6734 18.3851 22.6625 18.8004 22.6776C18.9868 22.6842 19.0932 22.6318 19.1168 22.4388C19.2463 22.2405 19.3476 22.0272 19.4369 21.8077L19.4373 21.8072Z"
            fill="#FAFBFA" />
    </g>
    <defs>
        <clipPath id="clip0_4819_48145">
            <rect width="24" height="8.72727" fill="white" transform="translate(8 16.141)" />
        </clipPath>
    </defs>
</svg>