<svg width="100%" height="100%" viewBox="0 0 40 41" fill="none" xmlns="http://www.w3.org/2000/svg">
    <rect x="6" y="7.14102" width="28" height="26" fill="white" />
    <path
        d="M8.57143 4.14102C6.05 4.14102 4 6.19102 4 8.71245V31.5696C4 34.091 6.05 36.141 8.57143 36.141H31.4286C33.95 36.141 36 34.091 36 31.5696V8.71245C36 6.19102 33.95 4.14102 31.4286 4.14102H8.57143ZM29.7929 10.141L22.3786 18.6125L31.1 30.141H24.2714L18.9286 23.1482L12.8071 30.141H9.41429L17.3429 21.0767L8.97857 10.141H15.9786L20.8143 16.5339L26.4 10.141H29.7929ZM27.0929 28.1125L14.9571 12.0625H12.9357L25.2071 28.1125H27.0857H27.0929Z"
        fill="currentColor" />
</svg>