<svg width="100%" height="100%" viewBox="0 0 40 41" fill="none" xmlns="http://www.w3.org/2000/svg">
    <path
        d="M4 10.141C4 6.82731 6.68629 4.14102 10 4.14102H30C33.3137 4.14102 36 6.82731 36 10.141V30.141C36 33.4547 33.3137 36.141 30 36.141H10C6.68629 36.141 4 33.4547 4 30.141V10.141Z"
        fill="currentColor" />
    <path
        d="M13.0367 11.6606C13.0364 12.3286 12.7707 12.969 12.2982 13.441C11.8257 13.9131 11.185 14.1781 10.5171 14.1777C9.84919 14.1774 9.20877 13.9118 8.73672 13.4392C8.26467 12.9667 7.99967 12.326 8 11.6581C8.00033 10.9902 8.26598 10.3498 8.7385 9.87774C9.21102 9.40569 9.85171 9.14069 10.5196 9.14102C11.1875 9.14136 11.828 9.407 12.3 9.87952C12.7721 10.352 13.0371 10.9927 13.0367 11.6606ZM13.1123 16.0426H8.07555V31.8075H13.1123V16.0426ZM21.0703 16.0426H16.0588V31.8075H21.0199V23.5347C21.0199 18.9261 27.0262 18.498 27.0262 23.5347V31.8075H32V21.8222C32 14.0531 23.1102 14.3427 21.0199 18.158L21.0703 16.0426Z"
        fill="white" />
</svg>