<svg width="100%" height="100%" viewBox="0 0 40 41" fill="none" xmlns="http://www.w3.org/2000/svg">
    <path
        d="M4 10.141C4 6.82731 6.68629 4.14102 10 4.14102H30C33.3137 4.14102 36 6.82731 36 10.141V30.141C36 33.4547 33.3137 36.141 30 36.141H10C6.68629 36.141 4 33.4547 4 30.141V10.141Z"
        fill="currentColor" />
    <path
        d="M25.7509 19.1216C25.5657 15.7079 23.7006 13.7536 20.5691 13.7342C18.6811 13.7227 17.1029 14.5227 16.136 15.989L17.8594 17.1696C18.584 16.0713 19.728 15.8439 20.5566 15.8519C21.5886 15.8587 22.3657 16.1582 22.8697 16.7433C23.2354 17.1685 23.4811 17.757 23.6034 18.4987C22.6891 18.3433 21.6994 18.2953 20.6434 18.3559C17.6651 18.5273 15.752 20.2645 15.88 22.677C15.9451 23.901 16.5543 24.9547 17.5966 25.6427C18.4766 26.2245 19.6126 26.5079 20.7909 26.4439C22.3486 26.3582 23.5703 25.7639 24.4229 24.6782C25.0697 23.853 25.4789 22.7833 25.6594 21.437C26.4023 21.885 26.9509 22.4736 27.256 23.1822C27.7726 24.3867 27.8023 26.3662 26.1874 27.9799C24.7726 29.3925 23.072 30.005 20.5017 30.0233C17.6503 30.0027 15.4937 29.0873 14.0926 27.3056C12.7783 25.637 12.1006 23.2256 12.0754 20.141C12.1006 17.0553 12.7794 14.645 14.0926 12.9753C15.4937 11.1936 17.6503 10.2793 20.5017 10.2587C23.3737 10.2805 25.5669 11.1982 27.0229 12.9902C27.7371 13.8679 28.2743 14.9719 28.6297 16.2587L30.648 15.7216C30.2171 14.1365 29.5406 12.7707 28.6206 11.6382C26.7543 9.34102 24.0114 8.16502 20.4949 8.14102C16.9851 8.16502 14.2857 9.34674 12.4731 11.6507C10.8606 13.7022 10.0274 16.5719 10 20.149C10.0274 23.7262 10.8606 26.5799 12.4731 28.6313C14.2869 30.9353 16.9989 32.117 20.5074 32.141C23.6286 32.1193 25.8274 31.3022 27.6389 29.493C30.0103 27.1239 29.9383 24.1559 29.1577 22.3342C28.5577 20.9342 27.3634 19.813 25.752 19.1227L25.7509 19.1216ZM20.6789 24.3296C19.3737 24.4027 18.0183 23.8176 17.9509 22.5627C17.9017 21.6325 18.6137 20.5947 20.7589 20.4713C21.7284 20.4062 22.7022 20.4731 23.6537 20.6702C23.4069 23.7582 21.9566 24.2587 20.6789 24.3296Z"
        fill="white" />
</svg>