<svg width="100%" height="100%" viewBox="0 0 40 41" fill="none" xmlns="http://www.w3.org/2000/svg">
<path d="M4 10.141C4 6.82731 6.68629 4.14102 10 4.14102H30C33.3137 4.14102 36 6.82731 36 10.141V30.141C36 33.4547 33.3137 36.141 30 36.141H10C6.68629 36.141 4 33.4547 4 30.141V10.141Z" fill="currentColor"/>
<path d="M23.0641 28.0358V25.1437C23.0641 24.5296 22.8839 24.2226 22.5236 24.2226C22.3124 24.2226 22.1074 24.3208 21.9086 24.5173V28.6437C22.1074 28.8401 22.3124 28.9384 22.5236 28.9384C22.8839 28.9384 23.0641 28.6375 23.0641 28.0358ZM26.4932 25.7884H27.7232V25.1621C27.7232 24.5358 27.5182 24.2226 27.1082 24.2226C26.6982 24.2226 26.4932 24.5358 26.4932 25.1621V25.7884ZM15.8518 20.8884V22.1779H14.3609V29.97H12.9818V22.1779H11.5282V20.8884H15.8518ZM19.5977 23.2094V29.97H18.3491V29.2331C17.8645 29.7858 17.3924 30.0621 16.9327 30.0621C16.5227 30.0621 16.2618 29.8901 16.15 29.5463C16.0755 29.3375 16.0382 29.0059 16.0382 28.5515V23.2094H17.2682V28.1831C17.2682 28.4779 17.2744 28.6375 17.2868 28.6621C17.2992 28.8463 17.3924 28.9384 17.5664 28.9384C17.8148 28.9384 18.0758 28.748 18.3491 28.3673V23.2094H19.5977ZM24.2941 25.2542V27.9437C24.2941 28.5823 24.2506 29.0305 24.1636 29.2884C24.0145 29.8042 23.6853 30.0621 23.1759 30.0621C22.7411 30.0621 22.3186 29.8103 21.9086 29.3068V29.97H20.66V20.8884H21.9086V23.8542C22.3062 23.363 22.7286 23.1173 23.1759 23.1173C23.6853 23.1173 24.0145 23.3752 24.1636 23.891C24.2506 24.1489 24.2941 24.6033 24.2941 25.2542ZM28.9718 27.6305V27.7963C28.9718 28.1524 28.9594 28.4165 28.9345 28.5884C28.8973 28.8586 28.8041 29.1042 28.655 29.3252C28.3195 29.8165 27.8226 30.0621 27.1641 30.0621C26.518 30.0621 26.0148 29.8287 25.6545 29.3621C25.3936 29.0305 25.2632 28.5024 25.2632 27.7779V25.4015C25.2632 24.677 25.3874 24.1489 25.6359 23.8173C25.9962 23.3507 26.4932 23.1173 27.1268 23.1173C27.7605 23.1173 28.245 23.3507 28.5805 23.8173C28.8414 24.1735 28.9718 24.7015 28.9718 25.4015V26.8015H26.4932V27.9989C26.4932 28.6252 26.7044 28.9384 27.1268 28.9384C27.425 28.9384 27.6114 28.7787 27.6859 28.4594C27.6859 28.4472 27.689 28.4042 27.6952 28.3305C27.7014 28.2568 27.7045 28.1555 27.7045 28.0265V27.6305H28.9718ZM20.5668 12.4515V15.3252C20.5668 15.9515 20.368 16.2647 19.9705 16.2647C19.5729 16.2647 19.3741 15.9515 19.3741 15.3252V12.4515C19.3741 11.813 19.5729 11.4937 19.9705 11.4937C20.368 11.4937 20.5668 11.813 20.5668 12.4515ZM30.5 25.5858C30.5 23.4121 30.382 21.8156 30.1459 20.7963C30.0217 20.2559 29.7545 19.8046 29.3445 19.4423C28.9345 19.0801 28.4624 18.8682 27.9282 18.8068C26.2385 18.6226 23.6791 18.5305 20.25 18.5305C16.8333 18.5305 14.2802 18.6226 12.5905 18.8068C12.0438 18.8682 11.5686 19.0801 11.1648 19.4423C10.761 19.8046 10.497 20.2559 10.3727 20.7963C10.1242 21.8647 10 23.4612 10 25.5858C10 27.7472 10.1242 29.3437 10.3727 30.3752C10.497 30.9033 10.761 31.3515 11.1648 31.72C11.5686 32.0884 12.0376 32.3033 12.5718 32.3647C14.2739 32.5489 16.8333 32.641 20.25 32.641C23.6667 32.641 26.2261 32.5489 27.9282 32.3647C28.4624 32.3033 28.9314 32.0884 29.3352 31.72C29.739 31.3515 30.003 30.9033 30.1273 30.3752C30.3758 29.3437 30.5 27.7472 30.5 25.5858ZM16.4295 13.5937L18.1068 8.14102H16.7091L15.7586 11.7331L14.7709 8.14102H13.3173C13.4042 8.42348 13.5471 8.84716 13.7459 9.41207L14.1932 10.6831C14.628 11.948 14.9138 12.9182 15.0505 13.5937V17.2963H16.4295V13.5937ZM21.8155 15.0858V12.691C21.8155 11.9787 21.685 11.4445 21.4241 11.0884C21.0638 10.6217 20.5792 10.3884 19.9705 10.3884C19.3368 10.3884 18.8523 10.6217 18.5168 11.0884C18.2559 11.4445 18.1255 11.9787 18.1255 12.691V15.0858C18.1255 15.798 18.2559 16.3322 18.5168 16.6884C18.8523 17.1551 19.3368 17.3884 19.9705 17.3884C20.5792 17.3884 21.0638 17.1551 21.4241 16.6884C21.685 16.3568 21.8155 15.8226 21.8155 15.0858ZM25.1886 17.2963H26.4373V10.4805H25.1886V15.6937C24.9153 16.0744 24.6544 16.2647 24.4059 16.2647C24.2195 16.2647 24.1201 16.1665 24.1077 15.97C24.0953 15.9454 24.0891 15.7858 24.0891 15.491V10.4805H22.8405V15.8779C22.8405 16.3322 22.8777 16.67 22.9523 16.891C23.0889 17.2226 23.3561 17.3884 23.7536 17.3884C24.2009 17.3884 24.6792 17.1121 25.1886 16.5594V17.2963Z" fill="white"/>
</svg>
