<svg width="100%" height="100%" viewBox="0 0 40 41" fill="none" xmlns="http://www.w3.org/2000/svg">
    <path
        d="M4 10.141C4 6.82731 6.68629 4.14102 10 4.14102H30C33.3137 4.14102 36 6.82731 36 10.141V30.141C36 33.4547 33.3137 36.141 30 36.141H10C6.68629 36.141 4 33.4547 4 30.141V10.141Z"
        fill="currentColor" />
    <path
        d="M28.3999 11.6331C27.2998 10.5218 25.9894 9.64069 24.5451 9.04115C23.1009 8.44161 21.5517 8.13565 19.988 8.14109C13.436 8.14109 8.096 13.4811 8.096 20.0331C8.096 22.1331 8.648 24.173 9.68 25.973L8 32.141L14.3 30.485C16.04 31.433 17.996 31.937 19.988 31.937C26.5399 31.937 31.8799 26.597 31.8799 20.0451C31.8799 16.8651 30.6439 13.8771 28.3999 11.6331ZM19.988 29.921C18.212 29.921 16.472 29.441 14.948 28.541L14.588 28.325L10.844 29.309L11.84 25.661L11.6 25.289C10.6133 23.7134 10.0894 21.8921 10.088 20.0331C10.088 14.5851 14.528 10.1451 19.976 10.1451C22.616 10.1451 25.0999 11.1771 26.9599 13.0491C27.8809 13.9658 28.6108 15.0563 29.1072 16.2572C29.6036 17.4581 29.8568 18.7456 29.8519 20.0451C29.8759 25.493 25.4359 29.921 19.988 29.921ZM25.4119 22.529C25.1119 22.385 23.648 21.6651 23.384 21.5571C23.108 21.4611 22.916 21.4131 22.712 21.7011C22.508 22.0011 21.944 22.6731 21.776 22.8651C21.608 23.069 21.428 23.093 21.128 22.937C20.828 22.793 19.868 22.4691 18.74 21.4611C17.852 20.6691 17.264 19.6971 17.084 19.3971C16.916 19.0971 17.06 18.9411 17.216 18.7851C17.348 18.6531 17.516 18.4371 17.66 18.2691C17.804 18.1011 17.864 17.9691 17.96 17.7771C18.056 17.5731 18.008 17.4051 17.936 17.2611C17.864 17.1171 17.264 15.6531 17.024 15.0531C16.784 14.4771 16.532 14.5491 16.352 14.5371H15.776C15.572 14.5371 15.26 14.6091 14.984 14.9091C14.72 15.2091 13.952 15.9291 13.952 17.3931C13.952 18.8571 15.02 20.2731 15.164 20.4651C15.308 20.6691 17.264 23.669 20.24 24.953C20.948 25.265 21.5 25.445 21.932 25.577C22.64 25.805 23.288 25.769 23.804 25.697C24.3799 25.613 25.5679 24.977 25.8079 24.281C26.0599 23.585 26.0599 22.9971 25.9759 22.8651C25.8919 22.7331 25.7119 22.673 25.4119 22.529Z"
        fill="white" />
</svg>