<svg width="100%" height="100%" viewBox="0 0 48 49" fill="none" xmlns="http://www.w3.org/2000/svg">
<path d="M4 12.282C4 11.2212 4.42143 10.2038 5.17157 9.45362C5.92172 8.70347 6.93913 8.28204 8 8.28204H40C41.0609 8.28204 42.0783 8.70347 42.8284 9.45362C43.5786 10.2038 44 11.2212 44 12.282V34.282C44 35.3429 43.5786 36.3603 42.8284 37.1105C42.0783 37.8606 41.0609 38.282 40 38.282H30.828L25.414 43.696C25.0389 44.071 24.5303 44.2816 24 44.2816C23.4697 44.2816 22.9611 44.071 22.586 43.696L17.172 38.282H8C6.93913 38.282 5.92172 37.8606 5.17157 37.1105C4.42143 36.3603 4 35.3429 4 34.282V12.282ZM40 12.282H8V34.282H18C18.5304 34.2822 19.039 34.4929 19.414 34.868L24 39.454L28.586 34.868C28.961 34.4929 29.4696 34.2822 30 34.282H40V12.282ZM12 19.282C12 18.7516 12.2107 18.2429 12.5858 17.8678C12.9609 17.4928 13.4696 17.282 14 17.282H34C34.5304 17.282 35.0391 17.4928 35.4142 17.8678C35.7893 18.2429 36 18.7516 36 19.282C36 19.8125 35.7893 20.3212 35.4142 20.6963C35.0391 21.0713 34.5304 21.282 34 21.282H14C13.4696 21.282 12.9609 21.0713 12.5858 20.6963C12.2107 20.3212 12 19.8125 12 19.282ZM12 27.282C12 26.7516 12.2107 26.2429 12.5858 25.8678C12.9609 25.4928 13.4696 25.282 14 25.282H26C26.5304 25.282 27.0391 25.4928 27.4142 25.8678C27.7893 26.2429 28 26.7516 28 27.282C28 27.8125 27.7893 28.3212 27.4142 28.6963C27.0391 29.0713 26.5304 29.282 26 29.282H14C13.4696 29.282 12.9609 29.0713 12.5858 28.6963C12.2107 28.3212 12 27.8125 12 27.282Z" fill="currentColor"/>
</svg>
