<svg width="100%" height="100%" viewBox="0 0 32 32" fill="none" xmlns="http://www.w3.org/2000/svg">
<path fill-rule="evenodd" clip-rule="evenodd" d="M28.8165 16.0165C29.061 15.6901 29.061 15.2535 28.8165 14.9272C27.378 13.0068 22.1576 6.66669 15.938 6.66669C9.71838 6.66669 4.49803 13.0068 3.05951 14.9272C2.81502 15.2535 2.81502 15.6901 3.05951 16.0165C4.49803 17.9368 9.71838 24.277 15.938 24.277C22.1576 24.277 27.378 17.9368 28.8165 16.0165ZM15.938 20.2254C18.6866 20.2254 20.9148 17.9972 20.9148 15.2486C20.9148 12.4999 18.6866 10.2717 15.938 10.2717C13.1894 10.2717 10.9612 12.4999 10.9612 15.2486C10.9612 17.9972 13.1894 20.2254 15.938 20.2254Z" fill="currentColor"/>
</svg>
