<svg width="100%" height="100%" viewBox="0 0 48 49" fill="none" xmlns="http://www.w3.org/2000/svg">
<path d="M44 38.282C44 41.5956 41.3136 44.282 38 44.282H10C6.6864 44.282 4 41.5956 4 38.282V10.282C4 6.96844 6.6864 4.28204 10 4.28204H38C41.3136 4.28204 44 6.96844 44 10.282V38.282Z" fill="currentColor"/>
<path d="M30.7744 19.1989C27.5456 19.3669 24.7392 20.3461 22.4592 22.5573C20.1552 24.7909 19.104 27.5285 19.392 30.9221C18.1296 30.7653 16.9808 30.5941 15.8256 30.4965C15.4256 30.4629 14.952 30.5109 14.6144 30.7013C13.4928 31.3349 12.416 32.0501 11.1408 32.8469C11.3744 31.7877 11.5264 30.8613 11.7952 29.9701C11.992 29.3141 11.9008 28.9509 11.2976 28.5237C7.42239 25.7877 5.78879 21.6933 7.01119 17.4773C8.14079 13.5781 10.9184 11.2117 14.6928 9.97968C19.8448 8.29648 25.6336 10.0133 28.7664 14.1029C29.896 15.5797 30.5904 17.2389 30.7744 19.1989ZM15.9152 17.8853C15.9456 17.1141 15.2768 16.4197 14.4832 16.3957C13.6704 16.3717 13.0032 16.9925 12.9792 17.7941C12.9552 18.6053 13.576 19.2565 14.3936 19.2773C15.2048 19.2981 15.8848 18.6757 15.9152 17.8853ZM23.6672 16.3957C22.8704 16.4101 22.1984 17.0885 22.2112 17.8629C22.2256 18.6645 22.8864 19.2933 23.7056 19.2837C24.5264 19.2741 25.1504 18.6389 25.1424 17.8197C25.136 17.0165 24.4784 16.3813 23.6672 16.3957Z" fill="white"/>
<path d="M38.0272 39.3253C37.0048 38.8709 36.0672 38.1877 35.0688 38.0837C34.0736 37.9797 33.0288 38.5541 31.9888 38.6597C28.8192 38.9845 25.9792 38.1013 23.6384 35.9349C19.1856 31.8165 19.8224 25.5013 24.9728 22.1253C29.552 19.1253 36.2672 20.1253 39.4944 24.2885C42.312 27.9205 41.9808 32.7413 38.5408 35.7925C37.5456 36.6757 37.1872 37.4021 37.8256 38.5669C37.9456 38.7829 37.9584 39.0549 38.0272 39.3253ZM26.3904 28.0597C27.0416 28.0597 27.5776 27.5509 27.6016 26.9077C27.6272 26.2277 27.08 25.6565 26.3984 25.6533C25.7232 25.6501 25.1584 26.2293 25.1824 26.8997C25.2048 27.5413 25.744 28.0581 26.3904 28.0597ZM33.8912 25.6565C33.2592 25.6517 32.7232 26.1685 32.6976 26.8069C32.6704 27.4885 33.2 28.0501 33.8752 28.0517C34.528 28.0533 35.0448 27.5605 35.0672 26.9109C35.0944 26.2261 34.5632 25.6613 33.8912 25.6565Z" fill="white"/>
</svg>
