<svg width="48" height="49" viewBox="0 0 48 49" fill="none" xmlns="http://www.w3.org/2000/svg">
<path d="M27.7333 29.8821V33.6154C27.7333 34.1105 27.5366 34.5853 27.1866 34.9353C26.8365 35.2854 26.3617 35.4821 25.8666 35.4821H12.8L7.19995 41.0821V22.4154C7.19995 21.9203 7.39662 21.4455 7.74669 21.0955C8.09675 20.7454 8.57155 20.5487 9.06662 20.5487H12.8M40.8 28.0154L35.2 22.4154H22.1333C21.6382 22.4154 21.1634 22.2187 20.8134 21.8687C20.4633 21.5186 20.2666 21.0438 20.2666 20.5487V9.34872C20.2666 8.85365 20.4633 8.37886 20.8134 8.02879C21.1634 7.67872 21.6382 7.48206 22.1333 7.48206H38.9333C39.4284 7.48206 39.9032 7.67872 40.2532 8.02879C40.6033 8.37886 40.8 8.85365 40.8 9.34872V28.0154Z" stroke="currentColor" stroke-width="4.5" stroke-linecap="round" stroke-linejoin="round"/>
</svg>
