<svg width="100%" height="100%" viewBox="0 0 48 49" fill="none" xmlns="http://www.w3.org/2000/svg">
<path d="M4 10.282C4 6.96833 6.68629 4.28204 10 4.28204H38C41.3137 4.28204 44 6.96834 44 10.282V38.282C44 41.5958 41.3137 44.282 38 44.282H10C6.68629 44.282 4 41.5958 4 38.282V10.282Z" fill="currentColor"/>
<path d="M27.8301 34.1505V30.5353C27.8301 29.7678 27.6049 29.384 27.1545 29.384C26.8905 29.384 26.6343 29.5068 26.3858 29.7524V34.9103C26.6343 35.1559 26.8905 35.2788 27.1545 35.2788C27.6049 35.2788 27.8301 34.9027 27.8301 34.1505ZM32.1165 31.3413H33.654V30.5584C33.654 29.7755 33.3977 29.384 32.8852 29.384C32.3727 29.384 32.1165 29.7755 32.1165 30.5584V31.3413ZM18.8148 25.2163V26.8281H16.9511V36.5682H15.2273V26.8281H13.4102V25.2163H18.8148ZM23.4972 28.1176V36.5682H21.9364V35.6472C21.3307 36.338 20.7405 36.6834 20.1659 36.6834C19.6534 36.6834 19.3273 36.4684 19.1875 36.0386C19.0943 35.7777 19.0477 35.3632 19.0477 34.7952V28.1176H20.5852V34.3347C20.5852 34.7031 20.593 34.9027 20.6085 34.9334C20.6241 35.1636 20.7405 35.2788 20.958 35.2788C21.2686 35.2788 21.5947 35.0408 21.9364 34.5649V28.1176H23.4972ZM29.3676 30.6735V34.0353C29.3676 34.8336 29.3133 35.3939 29.2045 35.7163C29.0182 36.361 28.6066 36.6834 27.9699 36.6834C27.4263 36.6834 26.8983 36.3687 26.3858 35.7393V36.5682H24.825V25.2163H26.3858V28.9235C26.8828 28.3095 27.4108 28.0024 27.9699 28.0024C28.6066 28.0024 29.0182 28.3248 29.2045 28.9695C29.3133 29.2919 29.3676 29.8599 29.3676 30.6735ZM35.2148 33.6439V33.8511C35.2148 34.2963 35.1992 34.6263 35.1682 34.8413C35.1216 35.179 35.0051 35.486 34.8187 35.7623C34.3994 36.3763 33.7782 36.6834 32.9551 36.6834C32.1475 36.6834 31.5186 36.3917 31.0682 35.8084C30.742 35.3939 30.579 34.7338 30.579 33.8281V30.8577C30.579 29.952 30.7343 29.2919 31.0449 28.8774C31.4953 28.2941 32.1165 28.0024 32.9085 28.0024C33.7006 28.0024 34.3062 28.2941 34.7256 28.8774C35.0517 29.3226 35.2148 29.9827 35.2148 30.8577V32.6077H32.1165V34.1044C32.1165 34.8873 32.3805 35.2788 32.9085 35.2788C33.2812 35.2788 33.5142 35.0792 33.6074 34.6801C33.6074 34.6647 33.6113 34.611 33.619 34.5189C33.6268 34.4268 33.6307 34.3001 33.6307 34.139V33.6439H35.2148ZM24.7085 14.6702V18.2623C24.7085 19.0452 24.46 19.4366 23.9631 19.4366C23.4661 19.4366 23.2176 19.0452 23.2176 18.2623V14.6702C23.2176 13.872 23.4661 13.4728 23.9631 13.4728C24.46 13.4728 24.7085 13.872 24.7085 14.6702ZM37.125 31.088C37.125 28.3709 36.9775 26.3752 36.6824 25.1011C36.5271 24.4257 36.1932 23.8615 35.6807 23.4087C35.1682 22.9558 34.578 22.691 33.9102 22.6143C31.7981 22.384 28.5989 22.2689 24.3125 22.2689C20.0417 22.2689 16.8502 22.384 14.7381 22.6143C14.0547 22.691 13.4607 22.9558 12.956 23.4087C12.4512 23.8615 12.1212 24.4257 11.9659 25.1011C11.6553 26.4366 11.5 28.4323 11.5 31.088C11.5 33.7897 11.6553 35.7853 11.9659 37.0748C12.1212 37.7349 12.4512 38.2952 12.956 38.7557C13.4607 39.2163 14.047 39.4849 14.7148 39.5616C16.8424 39.7919 20.0417 39.907 24.3125 39.907C28.5833 39.907 31.7826 39.7919 33.9102 39.5616C34.578 39.4849 35.1643 39.2163 35.669 38.7557C36.1738 38.2952 36.5038 37.7349 36.6591 37.0748C36.9697 35.7853 37.125 33.7897 37.125 31.088ZM19.5369 16.0978L21.6335 9.28204H19.8864L18.6983 13.7722L17.4636 9.28204H15.6466C15.7553 9.63511 15.9339 10.1647 16.1824 10.8709L16.7415 12.4597C17.285 14.0408 17.6422 15.2535 17.8131 16.0978V20.7261H19.5369V16.0978ZM26.2693 17.963V14.9695C26.2693 14.0792 26.1062 13.4114 25.7801 12.9663C25.3297 12.3829 24.7241 12.0913 23.9631 12.0913C23.171 12.0913 22.5653 12.3829 22.146 12.9663C21.8199 13.4114 21.6568 14.0792 21.6568 14.9695V17.963C21.6568 18.8533 21.8199 19.5211 22.146 19.9663C22.5653 20.5496 23.171 20.8413 23.9631 20.8413C24.7241 20.8413 25.3297 20.5496 25.7801 19.9663C26.1062 19.5518 26.2693 18.884 26.2693 17.963ZM30.4858 20.7261H32.0466V12.2064H30.4858V18.7228C30.1441 19.1987 29.818 19.4366 29.5074 19.4366C29.2744 19.4366 29.1502 19.3138 29.1347 19.0682C29.1191 19.0375 29.1114 18.838 29.1114 18.4695V12.2064H27.5506V18.9531C27.5506 19.5211 27.5972 19.9432 27.6903 20.2195C27.8612 20.634 28.1951 20.8413 28.692 20.8413C29.2511 20.8413 29.8491 20.4959 30.4858 19.8051V20.7261Z" fill="white"/>
</svg>
