<svg width="24" height="22" viewBox="0 0 24 22" fill="none" xmlns="http://www.w3.org/2000/svg">
<path d="M11.469 21.7846C11.5387 21.8529 11.6214 21.907 11.7125 21.944C11.8037 21.981 11.9013 22 12 22C12.0987 22 12.1963 21.981 12.2874 21.944C12.3786 21.907 12.4613 21.8529 12.531 21.7846L15.3105 19.0655H21C21.7956 19.0655 22.5587 18.7565 23.1213 18.2064C23.6839 17.6564 24 16.9103 24 16.1324V2.93316C24 2.15524 23.6839 1.40918 23.1213 0.859102C22.5587 0.309028 21.7956 0 21 0H3C2.20435 0 1.44129 0.309028 0.87868 0.859102C0.316071 1.40918 0 2.15524 0 2.93316L0 16.1324C0 16.9103 0.316071 17.6564 0.87868 18.2064C1.44129 18.7565 2.20435 19.0655 3 19.0655H8.6895L11.469 21.7846ZM1.5 11.7326V7.3329H22.5V11.7326H1.5ZM22.5 13.1992V16.1324C22.5 16.5213 22.342 16.8944 22.0607 17.1694C21.7794 17.4444 21.3978 17.5989 21 17.5989H15.3105C14.9127 17.599 14.5312 17.7536 14.25 18.0287L12 20.2285L9.75 18.0287C9.46876 17.7536 9.08729 17.599 8.6895 17.5989H3C2.60218 17.5989 2.22064 17.4444 1.93934 17.1694C1.65804 16.8944 1.5 16.5213 1.5 16.1324V13.1992H22.5ZM22.5 5.86632H1.5V2.93316C1.5 2.5442 1.65804 2.17117 1.93934 1.89613C2.22064 1.62109 2.60218 1.46658 3 1.46658H21C21.3978 1.46658 21.7794 1.62109 22.0607 1.89613C22.342 2.17117 22.5 2.5442 22.5 2.93316V5.86632ZM3 15.3991C3 15.5936 3.07902 15.7801 3.21967 15.9176C3.36032 16.0551 3.55109 16.1324 3.75 16.1324H15.75C15.9489 16.1324 16.1397 16.0551 16.2803 15.9176C16.421 15.7801 16.5 15.5936 16.5 15.3991C16.5 15.2046 16.421 15.0181 16.2803 14.8806C16.1397 14.743 15.9489 14.6658 15.75 14.6658H3.75C3.55109 14.6658 3.36032 14.743 3.21967 14.8806C3.07902 15.0181 3 15.2046 3 15.3991ZM3 9.53276C3 9.72725 3.07902 9.91376 3.21967 10.0513C3.36032 10.1888 3.55109 10.2661 3.75 10.2661H20.25C20.4489 10.2661 20.6397 10.1888 20.7803 10.0513C20.921 9.91376 21 9.72725 21 9.53276C21 9.33828 20.921 9.15177 20.7803 9.01425C20.6397 8.87673 20.4489 8.79947 20.25 8.79947H3.75C3.55109 8.79947 3.36032 8.87673 3.21967 9.01425C3.07902 9.15177 3 9.33828 3 9.53276ZM3 3.66645C3 3.86093 3.07902 4.04744 3.21967 4.18496C3.36032 4.32248 3.55109 4.39974 3.75 4.39974H12.75C12.9489 4.39974 13.1397 4.32248 13.2803 4.18496C13.421 4.04744 13.5 3.86093 13.5 3.66645C13.5 3.47197 13.421 3.28545 13.2803 3.14793C13.1397 3.01042 12.9489 2.93316 12.75 2.93316H3.75C3.55109 2.93316 3.36032 3.01042 3.21967 3.14793C3.07902 3.28545 3 3.47197 3 3.66645Z" fill="#4F4F4F"/>
</svg>
