<?xml version="1.0" standalone="no"?>
<!DOCTYPE svg PUBLIC "-//W3C//DTD SVG 20010904//EN"
 "http://www.w3.org/TR/2001/REC-SVG-20010904/DTD/svg10.dtd">
<svg version="1.0" xmlns="http://www.w3.org/2000/svg"
 width="1248.000000pt" height="1248.000000pt" viewBox="0 0 1248.000000 1248.000000"
 preserveAspectRatio="xMidYMid meet">
<metadata>
Created by potrace 1.14, written by Peter Selinger 2001-2017
</metadata>
<g transform="translate(0.000000,1248.000000) scale(0.100000,-0.100000)"
fill="#000000" stroke="none">
<path d="M6110 9443 c0 -4 -75 -8 -168 -9 -157 0 -308 -7 -447 -20 -33 -3 -76
-7 -95 -9 -19 -2 -35 -4 -35 -4 0 -1 -20 -4 -45 -6 -68 -7 -122 -13 -155 -19
-16 -2 -50 -8 -75 -11 -25 -4 -54 -9 -65 -11 -10 -2 -37 -6 -60 -10 -22 -3
-58 -9 -80 -14 -22 -5 -55 -11 -73 -15 -55 -9 -165 -34 -199 -44 -18 -5 -33
-8 -33 -6 0 2 -18 -2 -40 -10 -22 -8 -42 -14 -45 -15 -3 0 -6 0 -7 -1 -7 -2
-45 -10 -63 -13 -11 -2 -39 -11 -63 -20 -23 -8 -45 -15 -47 -15 -23 2 -247
-74 -435 -148 -162 -64 -450 -201 -481 -229 -8 -8 -19 -14 -23 -14 -17 0 -207
-131 -245 -169 -84 -84 -147 -224 -167 -371 -3 -25 -8 -48 -10 -52 -7 -11 -18
-207 -18 -313 1 -103 12 -290 20 -328 3 -12 7 -42 10 -67 3 -25 15 -88 26
-140 11 -52 20 -99 22 -105 1 -5 5 -16 9 -22 5 -7 6 -13 3 -13 -2 0 9 -48 26
-107 16 -60 32 -117 35 -128 2 -11 8 -29 13 -40 5 -11 18 -49 30 -85 12 -36
27 -78 35 -95 7 -16 35 -82 61 -145 53 -127 217 -455 235 -470 3 -3 14 -19 23
-37 9 -18 29 -51 45 -75 15 -24 50 -76 77 -117 27 -40 54 -81 59 -90 6 -9 12
-18 15 -21 3 -3 17 -21 30 -40 13 -19 27 -37 30 -40 3 -3 28 -34 55 -69 28
-36 57 -72 65 -81 8 -9 49 -54 90 -100 185 -206 382 -381 602 -532 108 -75
279 -178 295 -178 6 0 13 -4 15 -8 8 -20 407 -192 444 -192 8 0 22 -4 32 -10
15 -8 97 -32 157 -45 11 -3 40 -9 65 -15 70 -15 103 -22 130 -25 14 -2 25 -4
25 -5 0 -2 28 -6 95 -14 30 -4 78 -9 105 -13 116 -14 524 -6 625 13 14 2 43 7
66 9 58 7 224 42 257 54 15 6 27 9 27 6 0 -2 24 4 53 14 28 10 54 19 57 19 8
1 32 9 115 38 44 16 82 29 85 30 5 1 49 20 163 73 37 17 71 31 76 31 5 0 14 7
21 15 7 8 16 12 21 9 5 -3 9 0 9 5 0 6 5 11 11 11 36 0 354 211 497 331 13 10
25 19 27 19 23 0 455 437 455 461 0 5 3 9 8 9 4 0 27 26 52 58 24 31 48 62 52
67 5 6 28 37 53 70 24 33 48 65 53 71 5 5 15 21 22 35 7 13 20 33 30 44 9 11
26 36 36 55 10 19 22 37 25 40 8 6 44 65 61 100 7 14 27 48 44 75 17 28 64
118 104 200 40 83 77 157 81 165 5 8 12 22 15 30 3 8 10 23 15 32 5 10 9 22 9
27 0 5 8 26 17 47 9 22 17 41 18 44 1 3 6 16 12 30 12 28 93 267 99 290 2 8 8
33 14 55 6 22 13 49 15 60 2 11 9 38 15 60 22 82 36 153 46 225 3 25 8 54 10
65 5 24 14 104 20 160 5 58 5 382 -1 435 -18 170 -41 263 -91 368 -44 91 -102
151 -227 233 -48 33 -90 59 -92 59 -2 0 -26 13 -52 28 -174 103 -479 235 -703
307 -47 14 -94 30 -105 35 -23 10 -160 50 -189 56 -10 2 -42 10 -70 18 -28 8
-62 17 -76 20 -14 3 -34 7 -45 10 -11 2 -51 12 -90 21 -38 9 -80 19 -92 21
-13 2 -35 7 -50 10 -16 3 -37 7 -49 9 -11 1 -45 8 -75 14 -30 6 -70 13 -89 16
-19 3 -46 7 -60 10 -24 5 -70 11 -160 20 -25 3 -61 8 -80 11 -19 3 -55 8 -80
10 -25 2 -70 6 -100 9 -130 13 -199 16 -442 19 -141 2 -262 7 -267 11 -6 3
-11 3 -11 -2z m445 -107 c201 -10 295 -18 490 -42 28 -4 61 -8 75 -9 14 -2 43
-6 65 -10 111 -18 223 -37 250 -41 31 -6 154 -32 190 -40 11 -3 31 -7 45 -10
52 -11 228 -56 295 -76 39 -12 75 -22 81 -24 79 -15 494 -168 584 -215 8 -4
53 -26 100 -48 229 -110 420 -236 469 -310 21 -32 56 -112 67 -151 19 -68 35
-158 41 -225 10 -121 7 -466 -5 -488 -2 -5 -6 -27 -8 -50 -4 -41 -7 -68 -18
-132 -8 -52 -37 -188 -48 -230 -6 -22 -12 -44 -14 -50 -7 -32 -44 -154 -53
-177 -6 -16 -8 -28 -5 -28 4 0 1 -6 -5 -14 -7 -8 -14 -24 -16 -37 -16 -80
-261 -628 -286 -637 -5 -2 -9 -8 -9 -14 0 -22 -233 -391 -273 -433 -7 -7 -19
-23 -27 -35 -80 -121 -357 -422 -515 -560 -67 -59 -187 -154 -240 -190 -27
-19 -56 -40 -63 -47 -7 -7 -17 -13 -22 -13 -5 0 -15 -6 -22 -13 -34 -34 -315
-189 -433 -239 -55 -23 -148 -60 -160 -63 -5 -1 -23 -7 -38 -13 -15 -7 -40
-15 -55 -18 -15 -4 -54 -15 -87 -26 -33 -11 -69 -22 -80 -23 -11 -2 -31 -6
-45 -10 -14 -4 -34 -8 -45 -10 -11 -2 -20 -4 -20 -5 0 -1 -9 -3 -20 -5 -24 -3
-160 -25 -195 -31 -100 -16 -387 -22 -534 -11 -98 8 -275 33 -346 48 -25 6
-52 12 -60 14 -101 21 -377 110 -394 126 -6 5 -16 9 -22 9 -18 0 -226 99 -246
118 -10 8 -18 12 -18 8 0 -4 -19 6 -42 21 -24 16 -54 34 -68 41 -27 13 -62 34
-70 42 -3 3 -48 34 -100 69 -52 36 -97 67 -100 70 -3 3 -30 25 -61 49 -31 23
-71 56 -88 72 -17 17 -31 28 -31 25 0 -7 -282 275 -331 330 -104 118 -339 432
-339 453 0 5 -7 15 -15 22 -12 10 -43 60 -90 145 -27 48 -40 70 -45 75 -11 10
-148 289 -183 370 -35 83 -59 140 -62 150 -4 13 -18 47 -27 70 -10 25 -43 125
-71 215 -21 66 -58 210 -68 260 -4 22 -10 52 -13 68 -50 231 -65 623 -31 800
3 15 7 39 11 55 3 15 7 40 10 55 9 47 58 160 91 208 18 25 58 63 90 85 32 21
66 47 77 57 11 9 24 17 30 17 5 0 17 6 25 14 34 29 281 155 421 214 119 51
373 146 420 157 8 2 71 20 140 40 69 20 172 47 229 61 106 26 124 30 176 40
17 3 50 10 75 15 25 6 70 15 100 20 30 5 82 15 115 20 33 6 76 13 95 15 19 2
53 6 75 9 71 11 135 19 260 31 101 10 144 12 310 19 88 4 161 8 162 9 4 4 477
-3 598 -8z"/>
<path d="M5977 9234 c-1 -1 -78 -5 -172 -8 -93 -3 -186 -8 -205 -10 -19 -3
-64 -7 -100 -11 -36 -3 -74 -7 -85 -9 -11 -2 -51 -7 -90 -11 -38 -4 -72 -8
-75 -10 -3 -1 -30 -6 -61 -9 -54 -6 -72 -9 -129 -21 -38 -7 -93 -17 -115 -20
-11 -2 -20 -4 -20 -5 0 -2 -15 -5 -60 -13 -69 -13 -224 -50 -346 -83 -188 -51
-562 -176 -604 -202 -5 -4 -14 -7 -20 -8 -17 -3 -102 -42 -260 -119 -167 -82
-317 -173 -353 -213 -37 -42 -96 -181 -107 -251 -2 -14 -6 -37 -9 -51 -26
-110 -26 -467 0 -630 12 -78 35 -199 50 -265 8 -38 17 -77 19 -85 2 -8 4 -15
5 -15 2 0 5 -14 14 -54 3 -13 17 -60 31 -105 252 -788 733 -1468 1352 -1914
40 -29 77 -52 83 -52 6 0 13 -7 16 -15 4 -8 11 -15 18 -15 6 0 27 -11 46 -23
82 -56 247 -141 360 -186 47 -19 90 -37 95 -41 8 -6 38 -15 75 -25 3 0 34 -11
70 -22 84 -28 187 -55 265 -68 17 -3 37 -8 46 -11 9 -2 34 -7 55 -9 22 -2 55
-7 74 -10 162 -25 494 -25 666 0 116 17 268 47 325 64 76 23 118 32 122 29 2
-2 10 2 18 8 8 6 39 19 69 29 50 16 74 25 180 72 121 52 354 182 425 235 6 4
48 36 95 70 47 34 101 75 120 91 214 181 372 344 531 547 28 36 56 72 64 81
53 67 265 397 265 414 0 5 6 16 14 24 20 22 170 326 176 356 1 6 10 26 21 46
56 110 188 516 204 629 4 24 8 47 10 50 6 9 34 180 42 250 9 83 9 408 0 480
-6 49 -14 95 -33 184 -13 56 -73 163 -113 202 -57 54 -232 163 -376 233 -154
75 -230 111 -238 111 -3 0 -18 5 -34 12 -15 6 -30 12 -33 13 -3 1 -16 6 -30
12 -33 14 -231 83 -250 88 -8 2 -44 13 -80 24 -114 35 -327 90 -435 111 -27 6
-61 13 -75 15 -68 15 -188 37 -215 39 -16 2 -39 6 -50 9 -11 3 -44 8 -72 11
-29 3 -77 9 -105 12 -29 3 -60 7 -68 9 -8 3 -53 7 -100 10 -47 4 -95 8 -108
10 -67 11 -784 28 -795 19z"/>
<path d="M2094 9429 c-35 -10 -73 -44 -94 -86 -8 -15 -19 -35 -25 -43 -12 -15
-53 -125 -60 -158 -2 -9 -13 -56 -24 -103 -11 -47 -22 -104 -25 -125 -2 -21
-5 -39 -6 -39 -3 0 -17 -108 -24 -190 -27 -283 -24 -512 8 -760 4 -27 9 -68
11 -90 8 -70 45 -266 71 -375 13 -58 27 -116 30 -130 10 -51 53 -194 91 -310
70 -211 217 -543 303 -685 16 -27 33 -57 37 -65 3 -8 21 -39 40 -68 18 -29 33
-57 33 -62 0 -6 4 -10 8 -10 5 0 16 -15 25 -32 9 -18 27 -46 39 -63 13 -16 54
-72 93 -125 38 -52 74 -100 80 -106 5 -6 26 -31 45 -54 131 -162 326 -361 506
-515 32 -27 69 -60 82 -72 14 -13 28 -23 32 -23 3 0 23 -16 44 -35 21 -19 41
-35 45 -35 3 0 22 -14 41 -30 19 -16 40 -34 47 -40 7 -5 16 -10 22 -10 5 0 11
-4 13 -8 2 -5 78 -59 170 -121 174 -116 228 -161 117 -97 -35 21 -72 40 -81
43 -10 3 -18 9 -18 14 0 5 -7 9 -15 9 -8 0 -15 5 -15 10 0 6 -9 10 -19 10 -11
0 -21 4 -23 8 -1 4 -39 30 -83 57 -44 27 -84 53 -90 57 -59 45 -106 78 -110
78 -3 0 -27 17 -54 38 -27 20 -61 46 -77 57 -42 30 -89 69 -92 78 -2 4 -10 7
-18 7 -8 0 -14 3 -14 8 0 4 -27 29 -61 56 -168 136 -410 377 -548 546 -29 36
-62 77 -74 91 -12 14 -31 38 -42 54 -11 15 -29 39 -40 54 -43 55 -95 131 -95
140 0 5 -4 11 -9 13 -16 5 -176 277 -249 423 -72 145 -86 175 -142 310 -18 44
-37 89 -41 100 -18 41 -108 324 -135 420 -15 55 -30 105 -35 110 -4 6 -7 12
-7 15 0 19 -92 204 -104 208 -4 2 -8 8 -8 14 0 18 -93 133 -169 208 -98 97
-187 158 -325 225 -112 54 -165 71 -201 66 -65 -9 -107 -89 -109 -208 -1 -24
-3 -43 -6 -43 -7 0 -3 -118 4 -136 3 -8 1 -14 -5 -14 -6 0 -8 -3 -5 -8 2 -4 7
-40 11 -81 4 -40 8 -85 10 -99 2 -15 6 -56 10 -92 4 -36 9 -74 11 -85 2 -11 9
-49 15 -84 5 -36 12 -67 13 -70 2 -3 7 -24 10 -46 7 -40 30 -136 46 -190 30
-97 105 -316 120 -350 10 -22 30 -68 44 -102 27 -65 130 -268 161 -318 10 -16
38 -60 62 -97 24 -37 43 -72 43 -77 0 -5 4 -11 8 -13 5 -1 28 -32 52 -67 45
-68 213 -278 275 -346 56 -62 239 -246 276 -280 116 -103 255 -219 334 -277 6
-4 24 -18 40 -31 33 -26 189 -136 216 -152 9 -5 41 -26 71 -47 73 -48 174
-109 308 -186 84 -49 453 -233 560 -280 161 -70 339 -142 353 -142 7 0 17 -4
23 -9 8 -7 229 -88 264 -96 8 -2 40 -13 72 -23 31 -11 60 -17 64 -14 4 4 4 2
1 -4 -5 -8 -21 -7 -59 3 -29 7 -63 15 -75 17 -131 25 -609 198 -909 331 -21 9
-48 21 -59 26 -11 4 -83 38 -160 75 -77 37 -146 68 -153 70 -8 1 -21 9 -30 16
-10 7 -44 27 -77 43 -33 17 -61 33 -63 38 -2 4 -8 7 -14 7 -12 0 -152 82 -156
92 -2 5 -8 8 -14 8 -12 0 -229 143 -252 165 -8 8 -17 15 -21 15 -8 0 -66 41
-85 60 -8 8 -40 34 -70 56 -30 23 -65 50 -76 60 -12 11 -46 39 -75 63 -55 46
-374 363 -419 416 -100 120 -173 209 -211 260 -24 33 -47 62 -50 65 -6 5 -85
117 -104 148 -5 9 -18 25 -27 36 -10 11 -18 25 -18 32 0 6 -7 15 -16 18 -8 3
-13 10 -10 15 3 5 0 14 -8 20 -7 6 -51 73 -97 149 -129 211 -210 284 -429 389
-148 71 -259 104 -353 105 -94 1 -127 -28 -132 -115 -1 -27 4 -77 11 -110 30
-128 175 -460 281 -647 11 -19 29 -51 39 -70 11 -19 21 -37 25 -40 3 -3 16
-23 29 -45 13 -22 26 -42 29 -45 8 -7 29 -41 38 -60 4 -8 17 -26 30 -40 13
-14 23 -28 23 -32 0 -7 7 -16 53 -70 9 -12 17 -24 17 -27 0 -3 10 -17 23 -31
12 -14 42 -50 67 -80 145 -177 438 -462 564 -549 12 -8 23 -18 26 -21 42 -52
502 -353 643 -421 26 -13 47 -27 47 -31 0 -4 7 -8 15 -8 8 0 37 -13 65 -30 28
-16 52 -30 54 -30 2 0 50 -22 107 -49 172 -80 242 -110 459 -194 162 -63 480
-166 620 -201 8 -2 56 -15 105 -29 50 -14 113 -30 140 -36 28 -6 57 -13 65
-15 33 -9 149 -36 171 -40 13 -2 60 -12 104 -21 44 -10 89 -19 100 -20 11 -2
20 -4 20 -5 0 -1 9 -3 20 -4 11 -2 88 -15 170 -29 149 -26 202 -35 260 -43 17
-2 46 -7 65 -11 43 -8 56 -9 98 -11 17 -1 32 -6 32 -11 0 -4 -11 -7 -24 -6
-13 2 -68 6 -122 10 -54 4 -101 8 -104 10 -3 2 -37 6 -75 10 -39 4 -79 9 -90
12 -11 2 -38 6 -60 9 -66 8 -123 16 -200 29 -16 3 -48 8 -70 10 -22 3 -47 7
-55 10 -8 2 -40 7 -70 10 -30 4 -58 9 -61 11 -4 2 -24 6 -45 9 -22 3 -50 8
-64 11 -14 2 -38 7 -55 9 -16 3 -41 8 -55 10 -14 3 -38 8 -55 11 -16 2 -37 7
-46 10 -9 2 -32 7 -50 9 -19 3 -45 7 -59 11 -14 3 -43 10 -65 15 -22 6 -47 10
-55 10 -8 1 -33 6 -55 11 -22 6 -51 12 -65 15 -14 2 -41 8 -60 13 -19 5 -46
11 -60 14 -55 11 -79 17 -190 46 -63 17 -122 32 -130 35 -169 45 -327 51 -436
15 -188 -62 -287 -147 -297 -257 -8 -88 48 -154 206 -237 37 -20 70 -36 75
-37 4 0 21 -6 37 -14 17 -7 39 -16 50 -21 23 -9 151 -43 180 -48 11 -2 45 -8
75 -14 30 -6 73 -14 95 -18 22 -3 51 -8 65 -10 14 -2 41 -6 60 -9 19 -2 51 -7
70 -10 34 -6 55 -8 155 -20 28 -3 66 -7 85 -10 19 -3 60 -7 90 -10 30 -3 73
-8 95 -10 22 -3 67 -7 100 -10 33 -3 83 -8 110 -10 47 -4 136 -11 265 -21 69
-5 220 -13 330 -19 47 -2 85 -4 85 -5 0 -3 350 -12 497 -13 98 -1 178 -5 178
-8 0 -4 17 -3 38 1 20 3 49 3 65 -1 15 -4 27 -3 27 2 0 5 10 5 23 0 12 -5 31
-5 42 -1 11 4 29 4 40 0 11 -4 30 -4 43 1 12 5 22 5 22 1 0 -8 118 -8 126 1 3
3 17 2 30 -3 13 -5 25 -6 28 -2 5 9 139 7 154 -2 7 -4 12 -4 12 -1 0 3 20 -13
45 -36 25 -23 56 -49 69 -58 13 -9 41 -28 63 -42 82 -56 237 -124 328 -145
159 -37 352 -41 495 -10 14 3 36 7 49 10 140 31 351 143 461 246 42 39 49 42
99 41 29 0 55 -2 58 -4 2 -3 20 -1 39 3 19 4 36 4 39 -1 3 -4 15 -5 27 0 12 4
39 5 60 1 21 -4 41 -3 44 1 3 5 12 6 21 0 9 -4 31 -5 49 -1 18 4 35 5 38 2 8
-8 76 -8 76 0 0 4 12 3 28 -1 15 -4 39 -4 55 0 16 4 27 3 27 -2 0 -6 4 -7 10
-4 5 3 112 8 237 11 272 5 544 16 741 29 42 3 111 7 152 10 41 3 100 7 130 10
30 3 89 8 130 11 41 3 91 7 110 9 19 2 67 7 105 10 39 3 81 8 95 10 14 3 54 7
90 11 36 3 76 7 90 10 14 2 48 7 75 9 28 3 73 10 100 15 28 5 75 12 105 16 30
3 57 7 60 9 3 2 25 6 50 10 25 4 47 8 50 10 3 2 23 6 45 9 60 10 175 42 220
62 22 9 45 19 51 20 20 4 178 89 203 109 91 76 112 146 69 234 -30 63 -78 105
-168 148 -157 76 -287 86 -505 39 -11 -3 -20 -5 -20 -6 0 -1 -7 -3 -15 -5 -8
-1 -35 -8 -60 -16 -25 -7 -49 -13 -55 -15 -5 -1 -30 -7 -55 -14 -25 -7 -54
-14 -65 -16 -11 -2 -33 -7 -50 -11 -16 -4 -32 -7 -35 -8 -3 -1 -25 -5 -50 -10
-53 -10 -59 -12 -62 -15 -4 -2 -18 -5 -108 -24 -41 -8 -86 -18 -100 -21 -14
-3 -34 -8 -45 -9 -27 -5 -66 -13 -155 -31 -41 -8 -88 -17 -105 -19 -29 -4 -70
-12 -110 -21 -11 -2 -42 -7 -70 -11 -27 -3 -53 -8 -56 -10 -3 -1 -28 -6 -56
-9 -27 -3 -60 -8 -74 -10 -13 -3 -35 -7 -49 -9 -14 -3 -47 -8 -75 -11 -27 -3
-57 -8 -65 -10 -8 -2 -37 -6 -65 -10 -27 -3 -61 -8 -75 -10 -14 -2 -50 -6 -80
-9 -30 -3 -66 -8 -80 -11 -54 -11 -294 -25 -285 -17 3 3 13 7 23 7 65 7 174
22 222 31 14 3 42 7 64 9 21 3 64 9 95 14 31 6 72 13 91 16 19 3 69 12 110 20
41 8 86 16 100 19 55 9 279 58 351 76 42 11 87 22 100 24 13 3 26 5 29 6 3 1
10 3 15 5 6 1 12 3 15 4 3 2 12 4 21 6 48 9 256 69 265 76 6 5 13 7 16 4 2 -3
67 16 144 41 76 26 144 47 149 49 9 2 22 6 65 23 8 3 17 6 20 6 6 1 16 5 175
66 271 104 633 279 846 409 157 95 157 96 263 168 106 74 135 94 150 108 6 6
36 28 66 51 53 40 113 90 152 127 10 9 20 17 22 17 6 0 198 183 250 239 63 67
108 117 141 156 17 20 37 43 46 53 9 9 49 62 90 117 41 55 77 102 82 103 4 2
7 10 7 18 0 8 4 14 9 14 5 0 11 8 15 18 5 15 103 171 123 197 14 18 149 282
186 365 130 290 165 467 103 528 -23 23 -36 27 -90 29 -35 1 -84 -3 -108 -9
-23 -5 -47 -11 -53 -12 -5 -1 -14 -4 -20 -7 -5 -4 -23 -9 -40 -13 -37 -9 -295
-134 -313 -153 -7 -7 -17 -13 -20 -13 -23 0 -182 -176 -203 -225 -5 -11 -36
-62 -69 -114 -33 -51 -60 -97 -60 -102 0 -5 -3 -9 -7 -9 -5 0 -21 -21 -38 -48
-16 -26 -33 -51 -37 -57 -34 -43 -78 -105 -78 -110 0 -3 -13 -20 -30 -38 -16
-18 -30 -35 -30 -39 0 -6 -167 -216 -194 -244 -6 -6 -40 -44 -76 -85 -191
-216 -465 -460 -705 -629 -20 -14 -44 -32 -55 -40 -10 -8 -33 -24 -51 -35 -18
-11 -40 -24 -49 -30 -124 -79 -170 -107 -278 -167 -140 -77 -428 -219 -472
-233 -3 -1 -32 -14 -65 -29 -33 -15 -107 -47 -165 -70 -135 -55 -143 -59 -155
-62 -5 -1 -28 -10 -50 -20 -22 -10 -42 -18 -45 -19 -3 -1 -18 -5 -35 -10 -16
-4 -32 -11 -35 -14 -3 -3 -36 -16 -75 -29 -38 -13 -79 -27 -90 -32 -80 -32
-273 -86 -350 -96 -38 -5 -31 -2 145 58 144 49 186 65 267 100 23 10 46 18 51
18 5 0 22 6 38 14 16 8 67 30 114 49 47 19 120 51 163 71 42 20 82 36 87 36 6
0 10 5 10 10 0 6 7 10 15 10 14 0 238 113 263 133 6 5 12 7 12 4 0 -10 345
194 480 283 18 12 176 123 209 147 55 40 217 167 232 182 9 9 27 25 40 35 145
116 385 359 515 521 27 33 52 65 57 70 36 42 157 213 190 268 23 37 55 89 71
115 78 127 255 507 271 580 2 9 13 44 24 77 12 32 23 68 26 80 2 11 16 63 30
115 42 154 71 316 90 500 3 30 8 73 10 95 5 44 6 278 1 310 -18 133 -61 191
-135 186 -20 -1 -74 -18 -121 -38 -85 -36 -272 -146 -278 -164 -2 -5 -8 -9
-13 -9 -10 0 -15 -5 -109 -95 -65 -63 -166 -205 -201 -283 -12 -26 -30 -67
-41 -92 -11 -24 -38 -101 -60 -170 -90 -285 -109 -346 -118 -365 -5 -11 -20
-49 -34 -85 -73 -190 -182 -417 -283 -589 -70 -119 -224 -354 -244 -371 -3 -3
-24 -30 -46 -60 -22 -30 -49 -65 -59 -76 -11 -12 -31 -37 -46 -56 -149 -188
-462 -485 -708 -672 -63 -48 -122 -92 -131 -99 -49 -38 -169 -117 -177 -117
-6 0 -12 -4 -14 -8 -3 -9 -146 -98 -258 -162 -96 -55 -98 -56 -80 -37 17 17
178 127 186 127 3 0 12 6 19 13 8 6 44 32 80 57 61 42 297 222 321 245 6 5 32
28 59 50 129 107 348 326 465 464 144 171 363 479 397 559 7 17 18 32 24 32 5
0 8 4 4 9 -3 5 -1 12 4 15 9 6 156 298 194 386 25 57 79 194 81 205 1 6 5 16
9 23 5 6 6 12 3 12 -3 0 6 25 19 55 14 30 23 55 20 55 -3 0 1 17 9 38 30 80
104 361 121 462 4 19 13 69 20 110 8 41 16 86 19 100 2 14 7 45 11 70 3 25 8
56 10 70 3 24 12 117 21 210 12 145 -1 562 -22 670 -3 14 -7 45 -10 70 -6 56
-42 236 -53 270 -5 14 -15 45 -22 70 -24 83 -91 199 -127 222 -62 38 -107 29
-212 -41 -290 -194 -483 -410 -575 -646 -20 -52 -27 -87 -30 -165 -2 -41 3
-101 10 -133 32 -140 49 -314 49 -512 0 -134 -9 -297 -18 -341 -2 -12 -7 -45
-11 -75 -3 -30 -10 -70 -15 -89 -5 -19 -12 -51 -15 -70 -3 -19 -13 -62 -22
-95 -8 -33 -16 -64 -17 -70 -31 -139 -140 -428 -237 -632 -21 -44 -39 -86 -39
-91 0 -6 -3 -12 -7 -14 -5 -1 -26 -39 -48 -83 -22 -44 -43 -82 -46 -85 -3 -3
-23 -36 -45 -74 -49 -87 -63 -110 -98 -166 -51 -80 -140 -215 -146 -220 -3 -3
-18 -25 -35 -50 -16 -25 -34 -49 -39 -55 -6 -5 -23 -28 -38 -50 -103 -156
-393 -457 -583 -607 -60 -48 -117 -93 -125 -100 -65 -56 -392 -252 -513 -308
-138 -62 -174 -78 -227 -95 -30 -10 -61 -23 -69 -29 -8 -6 -17 -10 -20 -9 -3
1 -42 -9 -86 -22 -94 -28 -225 -61 -275 -69 -19 -3 -46 -8 -60 -11 -14 -3 -41
-8 -60 -11 -19 -2 -46 -6 -60 -9 -14 -3 -50 -7 -80 -10 -30 -2 -86 -7 -125
-11 -125 -11 -315 -7 -530 11 -31 2 -116 15 -150 22 -11 2 -36 6 -55 9 -19 2
-50 9 -70 14 -19 5 -46 11 -60 14 -31 5 -156 39 -230 61 -84 26 -266 98 -355
141 -104 50 -303 161 -322 179 -8 8 -20 15 -27 15 -7 0 -21 9 -31 20 -10 11
-24 20 -32 20 -7 0 -13 5 -13 10 0 6 -4 10 -10 10 -5 0 -18 6 -27 14 -10 8
-55 42 -100 75 -46 33 -91 69 -101 78 -10 10 -36 31 -57 48 -48 35 -340 326
-375 373 -14 19 -42 52 -62 75 -21 23 -38 45 -38 49 0 4 -6 13 -13 20 -25 25
-167 228 -167 238 0 5 -4 10 -8 10 -4 0 -16 15 -27 33 -10 17 -43 69 -72 114
-29 45 -53 86 -53 91 0 5 -6 15 -14 21 -13 11 -37 52 -83 143 -8 15 -18 30
-24 33 -5 4 -9 15 -9 26 0 10 -4 19 -8 19 -11 0 -136 261 -196 407 -63 156
-145 409 -171 528 -4 21 -16 81 -19 95 -2 8 -6 31 -9 50 -18 94 -19 98 -34
230 -8 79 -8 422 1 505 10 98 22 175 40 261 20 94 13 204 -19 304 -21 64 -119
228 -177 295 -112 129 -259 256 -403 351 -85 55 -121 66 -171 53z m2560 -5627
c3 -5 -1 -9 -9 -9 -8 0 -15 4 -15 9 0 4 4 8 9 8 6 0 12 -4 15 -8z"/>
</g>
</svg>
