<svg width="20" height="20" viewBox="0 0 20 20" fill="none" xmlns="http://www.w3.org/2000/svg">
<g id="Icons_20px/&#229;&#133;&#172;&#231;&#155;&#138;&#230;&#133;&#136;&#229;&#150;&#132;_20px">
<path id="Vector" d="M14.773 10.85L11.668 13.3333H7.5013V12.5H10.8888C10.9642 12.5 11.0381 12.4795 11.1028 12.4407C11.1674 12.402 11.2203 12.3464 11.2559 12.28C11.2915 12.2136 11.3084 12.1387 11.3048 12.0634C11.3012 11.9881 11.2772 11.9152 11.2355 11.8525L10.4955 10.7425C10.3437 10.514 10.1377 10.3266 9.89587 10.1971C9.65406 10.0675 9.38396 9.99982 9.10964 10H2.5013C2.28029 10 2.06833 10.0878 1.91205 10.2441C1.75577 10.4004 1.66797 10.6123 1.66797 10.8333V15.8333C1.66797 16.2754 1.84356 16.6993 2.15612 17.0118C2.46868 17.3244 2.89261 17.5 3.33464 17.5H11.3671C11.7235 17.5001 12.0757 17.424 12.4002 17.2768C12.7248 17.1296 13.0141 16.9148 13.2488 16.6467L18.3346 10.8333L17.1246 10.43C16.7288 10.298 16.3061 10.2673 15.8953 10.3407C15.4846 10.4141 15.0987 10.5892 14.773 10.85ZM16.0496 6.15833C16.4255 5.77083 16.658 5.235 16.658 4.64333C16.658 4.05167 16.4255 3.51583 16.0496 3.12833C15.8596 2.92998 15.6314 2.77208 15.3788 2.66411C15.1262 2.55613 14.8544 2.50031 14.5796 2.5C14.5796 2.5 13.543 2.4975 12.5013 3.57167C11.4596 2.4975 10.423 2.5 10.423 2.5C10.1483 2.50035 9.87659 2.5561 9.62401 2.66392C9.37143 2.77174 9.14319 2.92941 8.95297 3.1275C8.57714 3.51583 8.34464 4.05083 8.34464 4.6425C8.34464 5.23417 8.57714 5.77083 8.95297 6.1575L12.5013 10L16.0496 6.15833Z" fill="#30559F"/>
</g>
</svg>
