<svg width="20" height="20" viewBox="0 0 20 20" fill="none" xmlns="http://www.w3.org/2000/svg">
<g id="Icons_20px/&#231;&#148;&#159;&#230;&#180;&#187;&#229;&#128;&#161;&#232;&#173;&#176;_20px">
<path id="Vector" fill-rule="evenodd" clip-rule="evenodd" d="M8.93333 7.1C8.93333 5.7474 9.47065 4.45019 10.4271 3.49376C11.3835 2.53732 12.6807 2 14.0333 2L18 2V5.96667C18 7.31927 17.4627 8.61648 16.5062 9.57291C15.5498 10.5293 14.2526 11.0667 12.9 11.0667H10.0667V19H8.93333V14.4667H6.1C4.7474 14.4667 3.45019 13.9293 2.49376 12.9729C1.53732 12.0165 1 10.7193 1 9.36667L1 5.4H4.96667C6.5692 5.4 7.99833 6.13893 8.93333 7.2938V7.1ZM10.2321 8.96547L13.6321 5.56547L14.4345 6.36787L11.0345 9.76787L10.2321 8.96547ZM7.96547 13.1679L4.56547 9.76787L5.36787 8.96547L8.76787 12.3655L7.96547 13.1679Z" fill="#30559F"/>
</g>
</svg>
