<svg width="18" height="18" viewBox="0 0 18 18" fill="none" xmlns="http://www.w3.org/2000/svg">
<g id="Group">
<path id="Vector" fill-rule="evenodd" clip-rule="evenodd" d="M9.6638 4.31868C9.6638 4.18055 9.60893 4.04808 9.51125 3.9504C9.41358 3.85273 9.2811 3.79785 9.14297 3.79785H2.23047C1.81607 3.79785 1.41864 3.96247 1.12561 4.2555C0.832589 4.54852 0.667969 4.94595 0.667969 5.36035L0.667969 15.777C0.667969 16.1914 0.832589 16.5888 1.12561 16.8819C1.41864 17.1749 1.81607 17.3395 2.23047 17.3395H12.6471C13.0615 17.3395 13.459 17.1749 13.752 16.8819C14.045 16.5888 14.2096 16.1914 14.2096 15.777V8.86452C14.2096 8.72638 14.1548 8.59391 14.0571 8.49623C13.9594 8.39856 13.8269 8.34369 13.6888 8.34369C13.5507 8.34369 13.4182 8.39856 13.3205 8.49623C13.2228 8.59391 13.168 8.72638 13.168 8.86452V15.777C13.168 15.9152 13.1131 16.0476 13.0154 16.1453C12.9177 16.243 12.7853 16.2979 12.6471 16.2979H2.23047C2.09234 16.2979 1.95986 16.243 1.86218 16.1453C1.76451 16.0476 1.70964 15.9152 1.70964 15.777V5.36035C1.70964 5.22222 1.76451 5.08974 1.86218 4.99207C1.95986 4.89439 2.09234 4.83952 2.23047 4.83952H9.14297C9.2811 4.83952 9.41358 4.78464 9.51125 4.68697C9.60893 4.58929 9.6638 4.45682 9.6638 4.31868Z" fill="#4C5364" stroke="#4C5364" stroke-width="0.833333"/>
<path id="Vector_2" fill-rule="evenodd" clip-rule="evenodd" d="M17.3353 1.18099C17.3353 1.04286 17.2804 0.91038 17.1827 0.812705C17.0851 0.71503 16.9526 0.660156 16.8145 0.660156H11.6061C11.468 0.660156 11.3355 0.71503 11.2378 0.812705C11.1402 0.91038 11.0853 1.04286 11.0853 1.18099C11.0853 1.31912 11.1402 1.4516 11.2378 1.54927C11.3355 1.64695 11.468 1.70182 11.6061 1.70182H15.5572L7.07071 10.1872C7.02229 10.2357 6.98387 10.2932 6.95766 10.3564C6.93146 10.4197 6.91797 10.4875 6.91797 10.556C6.91797 10.6245 6.93146 10.6923 6.95766 10.7556C6.98387 10.8188 7.02229 10.8763 7.07071 10.9247C7.11914 10.9732 7.17662 11.0116 7.23989 11.0378C7.30316 11.064 7.37098 11.0775 7.43946 11.0775C7.50794 11.0775 7.57576 11.064 7.63903 11.0378C7.7023 11.0116 7.75979 10.9732 7.80821 10.9247L16.2936 2.43828V6.38932C16.2936 6.52746 16.3485 6.65993 16.4462 6.75761C16.5439 6.85528 16.6763 6.91016 16.8145 6.91016C16.9526 6.91016 17.0851 6.85528 17.1827 6.75761C17.2804 6.65993 17.3353 6.52746 17.3353 6.38932V1.18099Z" fill="#4C5364" stroke="#4C5364" stroke-width="0.833333"/>
</g>
</svg>
