<svg width="20" height="20" viewBox="0 0 20 20" fill="none" xmlns="http://www.w3.org/2000/svg">
<g id="Icons_20px/&#233;&#134;&#171;&#231;&#153;&#130;&#229;&#191;&#151;&#230;&#165;&#173;_20px">
<path id="Vector" d="M18.218 10.4002L15.9596 6.66683C15.8142 6.41493 15.6054 6.20548 15.3539 6.05929C15.1025 5.91309 14.8172 5.83525 14.5263 5.8335H12.5013V4.16683C12.5013 3.94582 12.4135 3.73385 12.2572 3.57757C12.1009 3.42129 11.889 3.3335 11.668 3.3335H3.33464C2.89261 3.3335 2.46868 3.50909 2.15612 3.82165C1.84356 4.13421 1.66797 4.55814 1.66797 5.00016V13.3335C1.66827 13.6258 1.74542 13.9128 1.89169 14.1659C2.03795 14.4189 2.24819 14.629 2.5013 14.7752C2.47147 15.5487 2.75014 16.3024 3.27602 16.8705C3.80191 17.4386 4.53192 17.7745 5.30547 17.8043C6.07902 17.8342 6.83274 17.5555 7.40081 17.0296C7.96889 16.5037 8.3048 15.7737 8.33464 15.0002H10.918C11.0101 15.6974 11.3525 16.3374 11.8814 16.801C12.4103 17.2646 13.0897 17.5202 13.793 17.5202C14.4963 17.5202 15.1756 17.2646 15.7045 16.801C16.2334 16.3374 16.5758 15.6974 16.668 15.0002C17.11 15.0002 17.5339 14.8246 17.8465 14.512C18.159 14.1994 18.3346 13.7755 18.3346 13.3335V10.8335C18.3333 10.6815 18.2932 10.5323 18.218 10.4002ZM5.41797 15.8335C5.17074 15.8335 4.92907 15.7602 4.72351 15.6228C4.51794 15.4855 4.35773 15.2903 4.26312 15.0618C4.16851 14.8334 4.14376 14.5821 4.19199 14.3396C4.24022 14.0972 4.35927 13.8744 4.53409 13.6996C4.7089 13.5248 4.93163 13.4057 5.17411 13.3575C5.41658 13.3093 5.66792 13.334 5.89632 13.4286C6.12473 13.5233 6.31995 13.6835 6.45731 13.889C6.59466 14.0946 6.66797 14.3363 6.66797 14.5835C6.66797 14.915 6.53627 15.233 6.30185 15.4674C6.06743 15.7018 5.74949 15.8335 5.41797 15.8335ZM10.0013 9.16683H8.33464V10.8335H6.66797V9.16683H5.0013V7.50016H6.66797V5.8335H8.33464V7.50016H10.0013V9.16683ZM13.7513 15.8335C13.5041 15.8335 13.2624 15.7602 13.0568 15.6228C12.8513 15.4855 12.6911 15.2903 12.5965 15.0618C12.5018 14.8334 12.4771 14.5821 12.5253 14.3396C12.5736 14.0972 12.6926 13.8744 12.8674 13.6996C13.0422 13.5248 13.265 13.4057 13.5074 13.3575C13.7499 13.3093 14.0012 13.334 14.2297 13.4286C14.4581 13.5233 14.6533 13.6835 14.7906 13.889C14.928 14.0946 15.0013 14.3363 15.0013 14.5835C15.0013 14.915 14.8696 15.233 14.6352 15.4674C14.4008 15.7018 14.0828 15.8335 13.7513 15.8335ZM12.5013 10.0002V7.50016H14.5263L16.0263 10.0002H12.5013Z" fill="#30559F"/>
</g>
</svg>
