<svg width="20" height="20" viewBox="0 0 20 20" fill="none" xmlns="http://www.w3.org/2000/svg">
<g id="Icons_20px/&#230;&#149;&#153;&#232;&#130;&#178;&#229;&#191;&#151;&#230;&#165;&#173;_20px">
<path id="Vector" d="M3.45256 4.64795L3.66406 4.69775V6.64014C3.43164 6.77793 3.26562 7.02363 3.26562 7.3125C3.26562 7.59058 3.41919 7.82316 3.63484 7.96826L3.11621 10.0352C3.05811 10.2643 3.18693 10.5 3.36955 10.5H4.75578C4.9384 10.5 5.06706 10.2634 5.00896 10.065L4.49016 7.96992C4.70598 7.82383 4.85938 7.59141 4.85938 7.3125C4.85938 7.02197 4.69336 6.77727 4.46094 6.64014V4.89299L6.1875 5.30803L6.18753 7.3125C6.18753 9.66162 8.08841 11.5625 10.4375 11.5625C12.7867 11.5625 14.6577 9.66162 14.6577 7.3125L14.6875 5.3077L17.4185 4.64795C18.0244 4.50269 18.0244 3.75146 17.4185 3.60205L11.0966 2.07471C10.6649 1.9751 10.2127 1.9751 9.78074 2.07471L3.45223 3.60205C2.85059 3.74748 2.85059 4.50285 3.45256 4.64795ZM13.8641 12.3859L10.4375 15.8125L7.01094 12.3859C4.68904 13.1264 3 15.2812 3 17.8479C3 18.4854 3.51564 19 4.15115 19H16.7252C17.3604 19 17.875 18.4854 17.875 17.8479C17.875 15.2812 16.185 13.1264 13.8641 12.3859Z" fill="#1B2D58"/>
</g>
</svg>
