<svg width="48" height="49" viewBox="0 0 48 49" fill="none" xmlns="http://www.w3.org/2000/svg">
<g id="icon/48px/instagram">
<path id="Subtract" d="M4 10.1211C4 6.80738 6.68629 4.12109 10 4.12109H38C41.3137 4.12109 44 6.80739 44 10.1211V38.1211C44 41.4348 41.3137 44.1211 38 44.1211H10C6.68629 44.1211 4 41.4348 4 38.1211V10.1211Z" fill="#1B2D58"/>
<path id="Vector" d="M23.9051 19.2602C22.9633 19.2605 22.0427 19.5401 21.2597 20.0637C20.4768 20.5872 19.8666 21.3311 19.5064 22.2014C19.1462 23.0716 19.0522 24.0292 19.2361 24.9529C19.4201 25.8766 19.8738 26.725 20.54 27.3909C21.2061 28.0568 22.0547 28.5102 22.9785 28.6938C23.9022 28.8774 24.8597 28.783 25.7299 28.4225C26.6 28.0619 27.3437 27.4515 27.8669 26.6684C28.3902 25.8852 28.6694 24.9645 28.6694 24.0227C28.6685 22.7595 28.1662 21.5485 27.2728 20.6555C26.3795 19.7625 25.1682 19.2606 23.9051 19.2602ZM35.04 15.5994C34.7975 14.985 34.4314 14.427 33.9643 13.9599C33.4973 13.4928 32.9392 13.1267 32.3248 12.8843C30.4498 12.1441 25.9855 12.3102 23.9051 12.3102C21.8248 12.3102 17.365 12.1378 15.4846 12.8843C14.8702 13.1267 14.3121 13.4928 13.845 13.9599C13.378 14.427 13.0119 14.985 12.7694 15.5994C12.0301 17.4744 12.1953 21.9432 12.1953 24.0218C12.1953 26.1003 12.0301 30.5637 12.773 32.445C13.0154 33.0594 13.3816 33.6175 13.8486 34.0845C14.3157 34.5516 14.8737 34.9177 15.4882 35.1602C17.3632 35.9003 21.8275 35.7343 23.9087 35.7343C25.99 35.7343 30.448 35.9066 32.3284 35.1602C32.9428 34.9177 33.5008 34.5516 33.9679 34.0845C34.435 33.6175 34.8011 33.0594 35.0435 32.445C35.7891 30.57 35.6176 26.1012 35.6176 24.0227C35.6176 21.9441 35.7891 17.4816 35.0435 15.6003L35.04 15.5994ZM23.9051 31.3441C22.4571 31.3441 21.0416 30.9147 19.8376 30.1102C18.6336 29.3057 17.6952 28.1623 17.141 26.8244C16.5869 25.4866 16.4419 24.0145 16.7244 22.5943C17.0069 21.1741 17.7042 19.8695 18.7281 18.8456C19.752 17.8217 21.0566 17.1244 22.4768 16.8419C23.897 16.5594 25.3691 16.7044 26.7069 17.2585C28.0447 17.8127 29.1882 18.7511 29.9927 19.9551C30.7972 21.1591 31.2266 22.5746 31.2266 24.0227C31.2277 24.9844 31.0392 25.937 30.6716 26.8258C30.3041 27.7146 29.7649 28.5222 29.0848 29.2023C28.4047 29.8824 27.5971 30.4216 26.7083 30.7892C25.8195 31.1567 24.8669 31.3453 23.9051 31.3441ZM31.5284 18.103C31.1903 18.1032 30.8598 18.0031 30.5787 17.8154C30.2975 17.6278 30.0784 17.3609 29.9489 17.0487C29.8194 16.7364 29.7854 16.3928 29.8513 16.0612C29.9171 15.7297 30.0798 15.4251 30.3187 15.186C30.5577 14.9469 30.8622 14.7841 31.1937 14.7181C31.5253 14.652 31.8689 14.6858 32.1812 14.8152C32.4935 14.9445 32.7605 15.1635 32.9483 15.4446C33.1361 15.7256 33.2364 16.0561 33.2364 16.3941C33.2373 16.6186 33.1939 16.841 33.1087 17.0487C33.0235 17.2564 32.8981 17.4452 32.7397 17.6043C32.5814 17.7634 32.3932 17.8896 32.1859 17.9758C31.9786 18.062 31.7564 18.1065 31.5319 18.1066L31.5284 18.103ZM38.0909 29.9155C37.9757 32.2039 37.4533 34.2316 35.7828 35.8977C34.1123 37.5637 32.0864 38.0968 29.8007 38.2057C27.4426 38.3387 20.373 38.3387 18.015 38.2057C15.7266 38.0905 13.706 37.5673 12.0328 35.8977C10.3596 34.228 9.83371 32.1994 9.72478 29.9155C9.59174 27.5566 9.59174 20.486 9.72478 18.1298C9.83996 15.8414 10.356 13.8137 12.0328 12.1477C13.7096 10.4816 15.7355 9.9548 18.015 9.84587C20.373 9.71283 27.4426 9.71283 29.8007 9.84587C32.0891 9.96105 34.1158 10.4843 35.7828 12.1539C37.4498 13.8235 37.9819 15.8521 38.0909 18.1405C38.2239 20.4905 38.2239 27.5548 38.0909 29.9155Z" fill="white"/>
</g>
</svg>
