<svg width="20" height="21" viewBox="0 0 20 21" fill="none" xmlns="http://www.w3.org/2000/svg">
<path fill-rule="evenodd" clip-rule="evenodd" d="M10.6623 6.1097C10.6623 5.97157 10.6075 5.83909 10.5098 5.74142C10.4121 5.64374 10.2796 5.58887 10.1415 5.58887H3.229C2.8146 5.58887 2.41718 5.75349 2.12415 6.04651C1.83112 6.33954 1.6665 6.73697 1.6665 7.15137L1.6665 17.568C1.6665 17.9824 1.83112 18.3799 2.12415 18.6729C2.41718 18.9659 2.8146 19.1305 3.229 19.1305H13.6457C14.0601 19.1305 14.4575 18.9659 14.7505 18.6729C15.0436 18.3799 15.2082 17.9824 15.2082 17.568V10.6555C15.2082 10.5174 15.1533 10.3849 15.0556 10.2872C14.9579 10.1896 14.8255 10.1347 14.6873 10.1347C14.5492 10.1347 14.4167 10.1896 14.3191 10.2872C14.2214 10.3849 14.1665 10.5174 14.1665 10.6555V17.568C14.1665 17.7062 14.1116 17.8386 14.014 17.9363C13.9163 18.034 13.7838 18.0889 13.6457 18.0889H3.229C3.09087 18.0889 2.95839 18.034 2.86072 17.9363C2.76304 17.8386 2.70817 17.7062 2.70817 17.568V7.15137C2.70817 7.01323 2.76304 6.88076 2.86072 6.78308C2.95839 6.68541 3.09087 6.63053 3.229 6.63053H10.1415C10.2796 6.63053 10.4121 6.57566 10.5098 6.47799C10.6075 6.38031 10.6623 6.24783 10.6623 6.1097Z" fill="#1B2D58" stroke="#1B2D58" stroke-width="0.833333"/>
<path fill-rule="evenodd" clip-rule="evenodd" d="M18.3338 2.97201C18.3338 2.83387 18.279 2.7014 18.1813 2.60372C18.0836 2.50605 17.9511 2.45117 17.813 2.45117H12.6047C12.4665 2.45117 12.3341 2.50605 12.2364 2.60372C12.1387 2.7014 12.0838 2.83387 12.0838 2.97201C12.0838 3.11014 12.1387 3.24261 12.2364 3.34029C12.3341 3.43797 12.4665 3.49284 12.6047 3.49284H16.5557L8.06925 11.9783C8.02082 12.0267 7.98241 12.0842 7.9562 12.1474C7.92999 12.2107 7.9165 12.2785 7.9165 12.347C7.9165 12.4155 7.92999 12.4833 7.9562 12.5466C7.98241 12.6098 8.02082 12.6673 8.06925 12.7158C8.11767 12.7642 8.17516 12.8026 8.23843 12.8288C8.3017 12.855 8.36951 12.8685 8.438 12.8685C8.50648 12.8685 8.57429 12.855 8.63756 12.8288C8.70083 12.8026 8.75832 12.7642 8.80675 12.7158L17.2922 4.2293V8.18034C17.2922 8.31847 17.347 8.45095 17.4447 8.54862C17.5424 8.6463 17.6749 8.70117 17.813 8.70117C17.9511 8.70117 18.0836 8.6463 18.1813 8.54862C18.279 8.45095 18.3338 8.31847 18.3338 8.18034V2.97201Z" fill="#1B2D58" stroke="#1B2D58" stroke-width="0.833333"/>
</svg>
