<svg width="20" height="21" viewBox="0 0 20 21" fill="none" xmlns="http://www.w3.org/2000/svg">
<g id="Icons_20px/&#233;&#134;&#171;&#231;&#153;&#130;&#229;&#191;&#151;&#230;&#165;&#173;_20px">
<path id="Vector" d="M18.2165 11.1907L15.9582 7.45736C15.8127 7.20546 15.6039 6.99601 15.3525 6.84981C15.101 6.70362 14.8157 6.62578 14.5248 6.62402H12.4998V4.95736C12.4998 4.73634 12.412 4.52438 12.2558 4.3681C12.0995 4.21182 11.8875 4.12402 11.6665 4.12402H3.33317C2.89114 4.12402 2.46722 4.29962 2.15466 4.61218C1.8421 4.92474 1.6665 5.34866 1.6665 5.79069V14.124C1.6668 14.4163 1.74396 14.7033 1.89022 14.9564C2.03649 15.2094 2.24672 15.4196 2.49984 15.5657C2.47 16.3392 2.74868 17.093 3.27456 17.661C3.80044 18.2291 4.53046 18.565 5.304 18.5949C6.07755 18.6247 6.83127 18.346 7.39935 17.8201C7.96743 17.2943 8.30333 16.5642 8.33317 15.7907H10.9165C11.0087 16.4879 11.3511 17.1279 11.8799 17.5915C12.4088 18.0551 13.0882 18.3107 13.7915 18.3107C14.4948 18.3107 15.1742 18.0551 15.7031 17.5915C16.232 17.1279 16.5744 16.4879 16.6665 15.7907C17.1085 15.7907 17.5325 15.6151 17.845 15.3025C18.1576 14.99 18.3332 14.5661 18.3332 14.124V11.624C18.3319 11.472 18.2917 11.3228 18.2165 11.1907ZM5.4165 16.624C5.16928 16.624 4.9276 16.5507 4.72204 16.4134C4.51648 16.276 4.35626 16.0808 4.26165 15.8524C4.16704 15.624 4.14229 15.3726 4.19052 15.1302C4.23875 14.8877 4.3578 14.665 4.53262 14.4901C4.70744 14.3153 4.93016 14.1963 5.17264 14.148C5.41512 14.0998 5.66645 14.1246 5.89486 14.2192C6.12327 14.3138 6.31849 14.474 6.45584 14.6796C6.59319 14.8851 6.6665 15.1268 6.6665 15.374C6.6665 15.7055 6.53481 16.0235 6.30039 16.2579C6.06597 16.4923 5.74802 16.624 5.4165 16.624ZM9.99984 9.95736H8.33317V11.624H6.6665V9.95736H4.99984V8.29069H6.6665V6.62402H8.33317V8.29069H9.99984V9.95736ZM13.7498 16.624C13.5026 16.624 13.2609 16.5507 13.0554 16.4134C12.8498 16.276 12.6896 16.0808 12.595 15.8524C12.5004 15.624 12.4756 15.3726 12.5239 15.1302C12.5721 14.8877 12.6911 14.665 12.866 14.4901C13.0408 14.3153 13.2635 14.1963 13.506 14.148C13.7485 14.0998 13.9998 14.1246 14.2282 14.2192C14.4566 14.3138 14.6518 14.474 14.7892 14.6796C14.9265 14.8851 14.9998 15.1268 14.9998 15.374C14.9998 15.7055 14.8681 16.0235 14.6337 16.2579C14.3993 16.4923 14.0814 16.624 13.7498 16.624ZM12.4998 10.7907V8.29069H14.5248L16.0248 10.7907H12.4998Z" fill="#1B2D58"/>
</g>
</svg>
