<svg width="20" height="21" viewBox="0 0 20 21" fill="none" xmlns="http://www.w3.org/2000/svg">
<g id="Icons_20px/&#231;&#148;&#159;&#230;&#180;&#187;&#229;&#128;&#161;&#232;&#173;&#176;_20px">
<path id="Vector" fill-rule="evenodd" clip-rule="evenodd" d="M8.93333 7.89102C8.93333 6.53841 9.47065 5.24121 10.4271 4.28477C11.3835 3.32834 12.6807 2.79102 14.0333 2.79102L18 2.79102V6.75768C18 8.11029 17.4627 9.40749 16.5062 10.3639C15.5498 11.3204 14.2526 11.8577 12.9 11.8577H10.0667V19.791H8.93333V15.2577H6.1C4.7474 15.2577 3.45019 14.7204 2.49376 13.7639C1.53732 12.8075 1 11.5103 1 10.1577L1 6.19102H4.96667C6.5692 6.19102 7.99833 6.92995 8.93333 8.08482V7.89102ZM10.2321 9.75648L13.6321 6.35648L14.4345 7.15888L11.0345 10.5589L10.2321 9.75648ZM7.96547 13.9589L4.56547 10.5589L5.36787 9.75648L8.76787 13.1565L7.96547 13.9589Z" fill="#1B2D58"/>
</g>
</svg>
