<svg width="20" height="21" viewBox="0 0 20 21" fill="none" xmlns="http://www.w3.org/2000/svg">
<g id="Icons_20px/location_24px">
<path id="Vector" d="M10 2.04102C8.1773 2.04317 6.42987 2.76818 5.14102 4.05703C3.85218 5.34588 3.12716 7.09331 3.12501 8.91602C3.12282 10.4055 3.60937 11.8546 4.51001 13.041C4.51001 13.041 4.69751 13.2879 4.72813 13.3235L10 19.541L15.2744 13.3204C15.3019 13.2873 15.49 13.041 15.49 13.041L15.4906 13.0391C16.3908 11.8533 16.8771 10.4048 16.875 8.91602C16.8729 7.09331 16.1478 5.34588 14.859 4.05703C13.5701 2.76818 11.8227 2.04317 10 2.04102ZM10 11.416C9.50555 11.416 9.0222 11.2694 8.61108 10.9947C8.19996 10.72 7.87953 10.3295 7.69031 9.87272C7.50109 9.41591 7.45158 8.91324 7.54804 8.42829C7.64451 7.94334 7.88261 7.49788 8.23224 7.14825C8.58187 6.79862 9.02733 6.56052 9.51228 6.46405C9.99723 6.36759 10.4999 6.4171 10.9567 6.60632C11.4135 6.79554 11.804 7.11597 12.0787 7.52709C12.3534 7.93821 12.5 8.42156 12.5 8.91602C12.4992 9.5788 12.2355 10.2142 11.7669 10.6829C11.2982 11.1515 10.6628 11.4152 10 11.416Z" fill="#1B2D58"/>
</g>
</svg>
