<svg width="20" height="21" viewBox="0 0 20 21" fill="none" xmlns="http://www.w3.org/2000/svg">
<g id="Icons_20px/&#229;&#133;&#172;&#231;&#155;&#138;&#230;&#133;&#136;&#229;&#150;&#132;_20px">
<path id="Vector" d="M14.7715 11.641L11.6665 14.1243H7.49984V13.291H10.8873C10.9627 13.291 11.0367 13.2705 11.1013 13.2318C11.166 13.193 11.2189 13.1375 11.2545 13.071C11.29 13.0046 11.3069 12.9297 11.3033 12.8544C11.2997 12.7792 11.2758 12.7063 11.234 12.6435L10.494 11.5335C10.3422 11.305 10.1362 11.1176 9.8944 10.9881C9.6526 10.8585 9.38249 10.7908 9.10817 10.791H2.49984C2.27882 10.791 2.06686 10.8788 1.91058 11.0351C1.7543 11.1914 1.6665 11.4033 1.6665 11.6243V16.6243C1.6665 17.0664 1.8421 17.4903 2.15466 17.8029C2.46722 18.1154 2.89114 18.291 3.33317 18.291H11.3657C11.722 18.2911 12.0743 18.215 12.3988 18.0678C12.7233 17.9207 13.0126 17.7058 13.2473 17.4377L18.3332 11.6243L17.1232 11.221C16.7273 11.0891 16.3047 11.0584 15.8939 11.1317C15.4831 11.2051 15.0972 11.3802 14.7715 11.641ZM16.0482 6.94935C16.424 6.56185 16.6565 6.02602 16.6565 5.43435C16.6565 4.84268 16.424 4.30685 16.0482 3.91935C15.8581 3.721 15.6299 3.5631 15.3773 3.45512C15.1247 3.34715 14.8529 3.29133 14.5782 3.29102C14.5782 3.29102 13.5415 3.28852 12.4998 4.36268C11.4582 3.28852 10.4215 3.29102 10.4215 3.29102C10.1469 3.29136 9.87513 3.34712 9.62255 3.45494C9.36996 3.56276 9.14173 3.72043 8.9515 3.91852C8.57567 4.30685 8.34317 4.84185 8.34317 5.43352C8.34317 6.02518 8.57567 6.56185 8.9515 6.94852L12.4998 10.791L16.0482 6.94935Z" fill="#1B2D58"/>
</g>
</svg>
