<svg width="20" height="21" viewBox="0 0 20 21" fill="none" xmlns="http://www.w3.org/2000/svg">
<g id="Icons_20px/&#230;&#149;&#153;&#232;&#130;&#178;&#229;&#191;&#151;&#230;&#165;&#173;_20px">
<path id="Vector" d="M3.45256 5.43896L3.66406 5.48877V7.43115C3.43164 7.56895 3.26562 7.81465 3.26562 8.10352C3.26562 8.38159 3.41919 8.61418 3.63484 8.75928L3.11621 10.8262C3.05811 11.0553 3.18693 11.291 3.36955 11.291H4.75578C4.9384 11.291 5.06706 11.0544 5.00896 10.8561L4.49016 8.76094C4.70598 8.61484 4.85938 8.38242 4.85938 8.10352C4.85938 7.81299 4.69336 7.56828 4.46094 7.43115V5.684L6.1875 6.09904L6.18753 8.10352C6.18753 10.4526 8.08841 12.3535 10.4375 12.3535C12.7867 12.3535 14.6577 10.4526 14.6577 8.10352L14.6875 6.09871L17.4185 5.43896C18.0244 5.2937 18.0244 4.54248 17.4185 4.39307L11.0966 2.86572C10.6649 2.76611 10.2127 2.76611 9.78074 2.86572L3.45223 4.39307C2.85059 4.5385 2.85059 5.29387 3.45256 5.43896ZM13.8641 13.177L10.4375 16.6035L7.01094 13.177C4.68904 13.9174 3 16.0723 3 18.6389C3 19.2764 3.51564 19.791 4.15115 19.791H16.7252C17.3604 19.791 17.875 19.2764 17.875 18.6389C17.875 16.0723 16.185 13.9174 13.8641 13.177Z" fill="#1B2D58"/>
</g>
</svg>
