<svg width="48" height="49" viewBox="0 0 48 49" fill="none" xmlns="http://www.w3.org/2000/svg">
<rect x="4" y="4.16925" width="40" height="40" rx="7.03125" fill="#1B2D58"/>
<path d="M14.6333 29.8692C15.597 29.8692 16.5211 30.252 17.2025 30.9334C17.8839 31.6148 18.2667 32.539 18.2667 33.5026C18.2667 35.4692 16.6333 37.1359 14.6333 37.1359C12.6667 37.1359 11 35.4692 11 33.5026C11 32.539 11.3828 31.6148 12.0642 30.9334C12.7456 30.252 13.6697 29.8692 14.6333 29.8692ZM11 11.2026C17.8779 11.2026 24.4742 13.9348 29.3376 18.7983C34.2011 23.6617 36.9333 30.258 36.9333 37.1359H32.2167C32.2167 31.5089 29.9813 26.1124 26.0024 22.1335C22.0236 18.1546 16.627 15.9192 11 15.9192V11.2026ZM11 20.6359C15.3761 20.6359 19.5729 22.3743 22.6673 25.4686C25.7616 28.563 27.5 32.7598 27.5 37.1359H22.7833C22.7833 34.0108 21.5419 31.0136 19.3321 28.8038C17.1223 26.594 14.1251 25.3526 11 25.3526V20.6359Z" fill="white"/>
</svg>
