<svg width="27" height="31" viewBox="0 0 27 31" fill="none" xmlns="http://www.w3.org/2000/svg">
<path id="Vector" d="M20.7333 4.82109C19.594 3.52046 18.9662 1.85015 18.9667 0.121094H13.8167V20.7878C13.7769 21.9061 13.3048 22.9655 12.4996 23.7427C11.6944 24.5198 10.6191 24.9543 9.5 24.9544C7.13333 24.9544 5.16667 23.0211 5.16667 20.6211C5.16667 17.7544 7.93333 15.6044 10.7833 16.4878V11.2211C5.03333 10.4544 0 14.9211 0 20.6211C0 26.1711 4.6 30.1211 9.48333 30.1211C14.7167 30.1211 18.9667 25.8711 18.9667 20.6211V10.1378C21.055 11.6375 23.5623 12.4422 26.1333 12.4378V7.28776C26.1333 7.28776 23 7.43776 20.7333 4.82109Z" fill="white"/>
</svg>
