<svg width="48" height="49" viewBox="0 0 48 49" fill="none" xmlns="http://www.w3.org/2000/svg">
<g id="icon/48px/YT">
<path id="Subtract" d="M4 10.1211C4 6.80738 6.68629 4.12109 10 4.12109H38C41.3137 4.12109 44 6.80739 44 10.1211V38.1211C44 41.4348 41.3137 44.1211 38 44.1211H10C6.68629 44.1211 4 41.4348 4 38.1211V10.1211Z" fill="#1B2D58"/>
<path id="Vector" d="M27.8301 33.9895V30.3744C27.8301 29.6068 27.6049 29.2231 27.1545 29.2231C26.8905 29.2231 26.6343 29.3459 26.3858 29.5915V34.7494C26.6343 34.995 26.8905 35.1178 27.1545 35.1178C27.6049 35.1178 27.8301 34.7417 27.8301 33.9895ZM32.1165 31.1803H33.654V30.3974C33.654 29.6145 33.3977 29.2231 32.8852 29.2231C32.3727 29.2231 32.1165 29.6145 32.1165 30.3974V31.1803ZM18.8148 25.0553V26.6671H16.9511V36.4073H15.2273V26.6671H13.4102V25.0553H18.8148ZM23.4972 27.9566V36.4073H21.9364V35.4862C21.3307 36.177 20.7405 36.5224 20.1659 36.5224C19.6534 36.5224 19.3273 36.3075 19.1875 35.8777C19.0943 35.6167 19.0477 35.2022 19.0477 34.6343V27.9566H20.5852V34.1737C20.5852 34.5421 20.593 34.7417 20.6085 34.7724C20.6241 35.0027 20.7405 35.1178 20.958 35.1178C21.2686 35.1178 21.5947 34.8799 21.9364 34.404V27.9566H23.4972ZM29.3676 30.5125V33.8744C29.3676 34.6726 29.3133 35.2329 29.2045 35.5553C29.0182 36.2 28.6066 36.5224 27.9699 36.5224C27.4263 36.5224 26.8983 36.2077 26.3858 35.5783V36.4073H24.825V25.0553H26.3858V28.7625C26.8828 28.1485 27.4108 27.8415 27.9699 27.8415C28.6066 27.8415 29.0182 28.1639 29.2045 28.8086C29.3133 29.131 29.3676 29.6989 29.3676 30.5125ZM35.2148 33.4829V33.6902C35.2148 34.1353 35.1992 34.4654 35.1682 34.6803C35.1216 35.018 35.0051 35.325 34.8187 35.6014C34.3994 36.2154 33.7782 36.5224 32.9551 36.5224C32.1475 36.5224 31.5186 36.2307 31.0682 35.6474C30.742 35.2329 30.579 34.5728 30.579 33.6671V30.6968C30.579 29.791 30.7343 29.131 31.0449 28.7165C31.4953 28.1332 32.1165 27.8415 32.9085 27.8415C33.7006 27.8415 34.3062 28.1332 34.7256 28.7165C35.0517 29.1617 35.2148 29.8218 35.2148 30.6968V32.4468H32.1165V33.9435C32.1165 34.7264 32.3805 35.1178 32.9085 35.1178C33.2812 35.1178 33.5142 34.9182 33.6074 34.5191C33.6074 34.5038 33.6113 34.45 33.619 34.3579C33.6268 34.2658 33.6307 34.1392 33.6307 33.978V33.4829H35.2148ZM24.7085 14.5093V18.1014C24.7085 18.8843 24.46 19.2757 23.9631 19.2757C23.4661 19.2757 23.2176 18.8843 23.2176 18.1014V14.5093C23.2176 13.711 23.4661 13.3119 23.9631 13.3119C24.46 13.3119 24.7085 13.711 24.7085 14.5093ZM37.125 30.927C37.125 28.2099 36.9775 26.2143 36.6824 24.9402C36.5271 24.2647 36.1932 23.7006 35.6807 23.2477C35.1682 22.7949 34.578 22.5301 33.9102 22.4533C31.7981 22.2231 28.5989 22.1079 24.3125 22.1079C20.0417 22.1079 16.8502 22.2231 14.7381 22.4533C14.0547 22.5301 13.4607 22.7949 12.956 23.2477C12.4512 23.7006 12.1212 24.2647 11.9659 24.9402C11.6553 26.2757 11.5 28.2713 11.5 30.927C11.5 33.6288 11.6553 35.6244 11.9659 36.9139C12.1212 37.5739 12.4512 38.1343 12.956 38.5948C13.4607 39.0553 14.047 39.3239 14.7148 39.4007C16.8424 39.631 20.0417 39.7461 24.3125 39.7461C28.5833 39.7461 31.7826 39.631 33.9102 39.4007C34.578 39.3239 35.1643 39.0553 35.669 38.5948C36.1738 38.1343 36.5038 37.5739 36.6591 36.9139C36.9697 35.6244 37.125 33.6288 37.125 30.927ZM19.5369 15.9369L21.6335 9.12109H19.8864L18.6983 13.6112L17.4636 9.12109H15.6466C15.7553 9.47416 15.9339 10.0038 16.1824 10.7099L16.7415 12.2987C17.285 13.8799 17.6422 15.0926 17.8131 15.9369V20.5652H19.5369V15.9369ZM26.2693 17.802V14.8086C26.2693 13.9182 26.1062 13.2505 25.7801 12.8053C25.3297 12.222 24.7241 11.9303 23.9631 11.9303C23.171 11.9303 22.5653 12.222 22.146 12.8053C21.8199 13.2505 21.6568 13.9182 21.6568 14.8086V17.802C21.6568 18.6924 21.8199 19.3601 22.146 19.8053C22.5653 20.3886 23.171 20.6803 23.9631 20.6803C24.7241 20.6803 25.3297 20.3886 25.7801 19.8053C26.1062 19.3908 26.2693 18.7231 26.2693 17.802ZM30.4858 20.5652H32.0466V12.0454H30.4858V18.5619C30.1441 19.0378 29.818 19.2757 29.5074 19.2757C29.2744 19.2757 29.1502 19.1529 29.1347 18.9073C29.1191 18.8766 29.1114 18.677 29.1114 18.3086V12.0454H27.5506V18.7921C27.5506 19.3601 27.5972 19.7823 27.6903 20.0586C27.8612 20.4731 28.1951 20.6803 28.692 20.6803C29.2511 20.6803 29.8491 20.3349 30.4858 19.6441V20.5652Z" fill="white"/>
</g>
</svg>
